
<svg xmlns="http://www.w3.org/2000/svg" xmlns:xlink="http://www.w3.org/1999/xlink" width="100" height="100" viewBox="0 0 100 100">
	<path fill="#50687A" d="M100 87.5c0 6.903-5.597 12.5-12.5 12.5h-75C5.597 100 0 94.403 0 87.5v-75C0 5.597 5.597 0 12.5 0h75C94.403 0 100 5.597 100 12.5v75z"/>
	<defs>
		<path id="a" d="M100 87.5c0 6.903-5.597 12.5-12.5 12.5h-75C5.597 100 0 94.403 0 87.5v-75C0 5.597 5.597 0 12.5 0h75C94.403 0 100 5.597 100 12.5v75z"/>
	</defs>
	<clipPath id="b">
		<use xlink:href="#a" overflow="visible"/>
	</clipPath>
	<path opacity=".8" clip-path="url(#b)" fill="#0A151F" d="M105.426 84H-7.292L6.3 102.938l111.06.687"/>
	<path fill="#6E1F20" d="M51.815 17.3v.372c0-.197.02-.384.056-.557-.03.073-.055.137-.055.186zM52.806 16.146c-.025 0-.06.014-.09.026.078-.014.16-.026.252-.026h-.162z"/>
	<path fill="#FFFFFD" d="M64.864 78.716l-7.74-54.575h1.307v-2.814H41.64v2.815h1.306l-7.737 54.576h29.657zm-23.816-2.814l8.986-4.684 8.986 4.684H41.048zm15.343-28.47H43.678l6.358-6.433 6.356 6.43zM45.68 34.59h8.71l-4.355 4.405-4.354-4.405zm10.29 15.652l-5.935 4.59-5.935-4.59h11.87zm2.428 12.84H41.67l8.365-6.47 8.363 6.47zm-1.194 2.812l-7.17 3.735-7.166-3.734h14.336zm4.383 9.756l-10.03-5.227 8.65-4.508 1.38 9.735zm-1.893-13.345l-8.51-6.583 6.827-5.28 1.684 11.863zm-2.24-15.803l-6.43-6.508 4.816-4.873 1.614 11.38zM45.787 24.14h8.496l1.083 7.637H44.704l1.083-7.636zM44.23 35.125l4.816 4.873-6.43 6.508 1.614-11.38zm-2.173 15.318l6.828 5.28-8.51 6.584 1.682-11.864zm6.456 19.984l-10.03 5.227 1.38-9.734 8.65 4.506zM51.794 19.242s4.3.547 6.543-1.696c1.34-1.34 1.217-3.387-.122-4.727-1.338-1.338-3.387-1.46-4.726-.12-2.243 2.242-1.696 6.542-1.696 6.542zM59.216 8.014c.784-.784.713-1.983-.07-2.766-.784-.783-1.982-.854-2.766-.07-1.314 1.312-.992 3.83-.992 3.83s2.516.318 3.828-.994zM50.035 12.698s3.047-2.36 3.047-5.18c0-1.683-1.365-2.895-3.047-2.895-1.683 0-3.048 1.212-3.048 2.895 0 2.82 3.048 5.18 3.048 5.18zM44.682 9.007s.32-2.517-.993-3.83c-.784-.783-1.982-.712-2.766.07-.783.784-.854 1.983-.07 2.767 1.31 1.312 3.828.993 3.828.993zM41.854 12.82c-1.34 1.34-1.46 3.387-.12 4.726 2.242 2.243 6.543 1.696 6.543 1.696s.545-4.3-1.697-6.543c-1.34-1.34-3.388-1.218-4.726.12zM0 81h100v3H0z"/>
</svg>