<?xml version="1.0" encoding="utf-8"?>
<!-- Generator: Adobe Illustrator 16.0.0, SVG Export Plug-In . SVG Version: 6.00 Build 0)  -->
<!DOCTYPE svg PUBLIC "-//W3C//DTD SVG 1.1//EN" "http://www.w3.org/Graphics/SVG/1.1/DTD/svg11.dtd">
<svg version="1.1" id="Capa_1" xmlns="http://www.w3.org/2000/svg" xmlns:xlink="http://www.w3.org/1999/xlink" x="0px" y="0px"
	 width="100px" height="100px" viewBox="0 0 100 100" enable-background="new 0 0 100 100" xml:space="preserve">
<path fill="#3A1B13" d="M100,87.563C100,94.432,94.432,100,87.563,100H12.438C5.568,100,0,94.432,0,87.563V12.438
	C0,5.568,5.568,0,12.438,0h75.125C94.432,0,100,5.568,100,12.438V87.563z"/>
<g>
	<defs>
		<path id="SVGID_1_" d="M100,87.563C100,94.432,94.432,100,87.563,100H12.438C5.568,100,0,94.432,0,87.563V12.438
			C0,5.568,5.568,0,12.438,0h75.125C94.432,0,100,5.568,100,12.438V87.563z"/>
	</defs>
	<clipPath id="SVGID_2_">
		<use xlink:href="#SVGID_1_"  overflow="visible"/>
	</clipPath>
	<polygon clip-path="url(#SVGID_2_)" fill="#A44C29" points="101.25,84 -6.219,84 6.741,102.633 112.629,103.422 	"/>
</g>
<path fill="none" d="M51.505,16.065c-0.025,0-0.059,0.014-0.089,0.027c0.078-0.015,0.16-0.027,0.25-0.027H51.505z"/>
<g opacity="0.7">
	<path fill="#FFFFFD" d="M75,55H62.608C60.048,55,58,52.884,58,50.268V37.831C58,37.003,57.271,36,56.39,36H28v-3h28.39
		c2.581,0,4.61,2.302,4.61,4.831v12.438C61,51.14,61.791,52,62.608,52H75V55z"/>
</g>
<rect x="27.266" y="25.751" fill="#FFFFFD" width="0.006" height="19.715"/>
<path fill="#FFFFFD" d="M42.914,67.982h-4.499V51.194c0-0.874-0.708-1.582-1.581-1.582h-3.219V32.435
	c0-3.143-2.555-5.701-5.697-5.704v3.167c1.395,0.003,2.531,1.139,2.531,2.537v17.177h-2.531v3.166h2.531v24.697h3.165V52.778h1.637
	v16.786c0,0.875,0.708,1.583,1.581,1.583h6.085L42.914,67.982z"/>
<path fill="#FFFFFD" d="M27.914,49.612V29.897c0.002,0,0.004,0.001,0.006,0.001l0,0v-3.167l0,0c-0.002,0-0.004,0-0.006,0v-0.247
	c0-4.63-3.753-8.385-8.383-8.385c-4.631,0-8.385,3.755-8.385,8.385v50.991v0.129h16.768v-0.129V52.778h0.006v-3.166H27.914z"/>
<polygon fill="#FFFFFD" points="42.928,67.001 42.918,67.001 42.928,73.486 "/>
<path fill="#FFFFFD" d="M86.512,64.237v-4.876c0-4.287-3.178-7.833-7.306-8.41c-0.729-0.008-3.166,0.149-3.166,0.149
	c-3.737,0.892-6.517,4.251-6.517,8.261v4.876h-3.271v3.745h-0.005v3.165h0.005v6.328v0.064h23.531v-0.064V64.237H86.512z"/>
<path fill="#FFFFFD" d="M53.672,51.044c0.178,0.106,0.339,0.234,0.491,0.372C54.01,51.279,53.85,51.15,53.672,51.044z"/>
<path fill="#FFFFFD" d="M54.24,51.486c0.148,0.143,0.286,0.298,0.405,0.468C54.525,51.785,54.39,51.629,54.24,51.486z"/>
<path fill="#FFFFFD" d="M54.667,51.986c0.253,0.367,0.437,0.786,0.524,1.238C55.103,52.771,54.922,52.353,54.667,51.986z"/>
<path fill="#FFFFFD" d="M55.191,49.079L55.191,49.079c-0.088-0.453-0.271-0.872-0.524-1.239c-0.007-0.01-0.014-0.021-0.021-0.031
	c-0.119-0.17-0.257-0.326-0.405-0.469c-0.025-0.024-0.051-0.046-0.077-0.07c-0.152-0.138-0.313-0.265-0.491-0.372
	c1.11-0.326,1.923-1.352,1.923-2.568c0-1.48-1.201-2.681-2.681-2.681H50.76v-2.495h-3.332v2.495h-2.156
	c-1.479,0-2.678,1.2-2.678,2.681c0,1.216,0.812,2.242,1.921,2.568c-0.951,0.577-1.587,1.62-1.587,2.811v18.274h-0.014l0.004,3.165
	h0.01v6.328v0.064H55.26v-0.064L55.191,49.079L55.191,49.079z"/>
<path fill="#FFFFFD" d="M69.71,41.298h-0.315c-5.237,0-9.499,4.26-9.499,9.497v17.187H55.45v3.165h4.445v6.328h3.167v-6.328h3.185
	v-3.165h-3.185V50.795c0-3.491,2.84-6.332,6.332-6.332h0.315c3.49,0,6.33,2.841,6.33,6.332v0.305c0,0,2.437-0.157,3.166-0.149
	v-0.156C79.206,45.559,74.947,41.298,69.71,41.298z"/>
<rect y="81" fill="#FFFFFD" width="100" height="3"/>
</svg>
