<?xml version="1.0" encoding="utf-8"?>
<!-- Generator: Adobe Illustrator 16.0.0, SVG Export Plug-In . SVG Version: 6.00 Build 0)  -->
<!DOCTYPE svg PUBLIC "-//W3C//DTD SVG 1.1//EN" "http://www.w3.org/Graphics/SVG/1.1/DTD/svg11.dtd">
<svg version="1.1" id="Capa_1" xmlns="http://www.w3.org/2000/svg" xmlns:xlink="http://www.w3.org/1999/xlink" x="0px" y="0px"
	 width="100px" height="100px" viewBox="0 0 100 100" enable-background="new 0 0 100 100" xml:space="preserve">
<path fill="#3A1B13" d="M87.719,0H12.531C5.611,0,0,5.611,0,12.531v68.922v3.133v3.133c0,6.92,5.611,12.531,12.531,12.531h75.188
	c6.92,0,12.531-5.611,12.531-12.531v-3.058v-0.075v-3.133V12.531C100.25,5.611,94.639,0,87.719,0z"/>
<path fill="#A44C29" d="M12.531,100.25h75.188c6.92,0,12.531-5.611,12.531-12.531v-3.058l-0.045-0.075H0v3.133
	C0,94.639,5.611,100.25,12.531,100.25z"/>
<rect y="81.453" fill="#FFFFFD" width="100.25" height="3.133"/>
<g>
	<path fill="#FFFFFF" d="M34.728,53.323l-0.811-0.548h2.481v-2.84l-7.678-1.001v-2.442c-0.481,0.158-0.995,0.247-1.529,0.247
		c-1.044,0-2.011-0.33-2.808-0.887v2.517l-6.881-0.897V35.875c0,0-0.261-1.393,2.874-1.393c0.691,0,1.875,0,3.299,0v-0.07
		c0-1.587,0.449-2.912,1.275-3.938H20.29c0,0-6.446-0.783-6.446,4.704v11.813l-0.983-0.127c-0.215-0.053-0.437-0.088-0.667-0.088
		c-1.63,0-2.95,1.391-2.95,3.105c0,1.505,1.019,2.759,2.37,3.043l-0.014,0.145l21.008,4.238
		C32.934,55.283,33.728,53.765,34.728,53.323z"/>
	<path fill="#FFFFFF" d="M83.027,67.479c-1.621-1.106-2.699-3.021-2.699-5.197c0-2.923,1.939-5.374,4.537-6.024l-23.564-3.073
		v-5.453c-0.658,0.271-1.381,0.423-2.136,0.423c-1.303,0-2.501-0.45-3.456-1.196v5.497l-8.092-1.057v2.264h-0.816
		c0.072,0.328,0.107,0.663,0.107,1.004v5.527L83.027,67.479z"/>
	<polygon fill="#FFFFFF" points="18.213,55.314 18.213,61.455 31.794,60.746 31.794,57.677 20.929,55.618 	"/>
	<polygon fill="#FFFFFF" points="74.069,75.035 85.644,73.736 85.644,69.131 74.069,66.533 	"/>
	<polygon fill="#FFFFFF" points="71.059,74.563 73.598,75.213 73.598,66.415 71.059,66.12 	"/>
	<polygon fill="#FFFFFF" points="17.091,61.131 17.932,61.484 17.932,55.285 17.091,54.955 	"/>
	<ellipse fill="#FFFFFF" cx="86.237" cy="62.282" rx="5.554" ry="5.846"/>
	<path fill="#FFFFFF" d="M24.384,37.793c0.796-0.558,1.763-0.887,2.808-0.887c0.534,0,1.047,0.089,1.529,0.248v-1.917
		c0,0-0.309-1.651,3.408-1.651c1.066,0,3.12,0,5.504,0c0.223-2.07,1.178-3.689,2.756-4.751h-8.362c0,0-7.643-0.929-7.643,5.577
		V37.793z"/>
	<path fill="#FFFFFF" d="M91.71,26.588c-0.626,0-1.145,0.448-1.259,1.041h-1.489c0.629-0.105,1.109-0.647,1.109-1.307
		c0-0.733-0.596-1.328-1.329-1.328h-3.808c-0.733,0-1.329,0.595-1.329,1.328c0,0.659,0.48,1.202,1.11,1.307h-1.223
		c-0.114-0.593-0.635-1.041-1.26-1.041c-0.626,0-1.146,0.448-1.26,1.041H65.561c0,0-9.852-1.197-9.852,7.188v3.287
		c0.955-0.748,2.153-1.197,3.456-1.197c0.755,0,1.478,0.153,2.136,0.424v-1.449c0,0-0.399-2.13,4.393-2.13c2.53,0,9.366,0,15.255,0
		v0.056c0,0.709,0.575,1.284,1.285,1.284c0.709,0,1.284-0.575,1.284-1.284v-0.056c3.352,0,6.051,0,6.908,0v0.056
		c0,0.709,0.574,1.284,1.284,1.284c0.709,0,1.284-0.575,1.284-1.284v-5.934C92.994,27.163,92.419,26.588,91.71,26.588z"/>
	<path fill="#FFFFFF" d="M38.288,34.53l0.049,13.644c0.721-1.16,2.118-1.952,3.73-1.952c0.411,0,0.804,0.064,1.181,0.16V35.475
		c0,0-0.355-1.889,3.896-1.889c1.459,0,4.533,0,7.941,0c0.311-2.436,1.555-4.294,3.574-5.433H47.028
		C47.028,28.153,38.288,27.091,38.288,34.53z"/>
	<path fill="#FFFFFF" d="M46.909,52.953v-2.952h-1.306c0-0.02,0.007-0.04,0.007-0.06c0-1.663-1.587-3.011-3.543-3.011
		c-1.957,0-3.542,1.348-3.542,3.011c0,0.021,0.006,0.04,0.006,0.06h-1.423v2.952h1.333c-0.07,0.149-0.139,0.302-0.19,0.462
		c1.244,0.712,2.105,3.08,2.105,5.975c0,2.528-0.658,4.653-1.653,5.626c0.725,1.126,1.987,1.873,3.424,1.873
		c2.251,0,4.074-1.823,4.074-4.074v-8.148c0-0.612-0.139-1.191-0.381-1.713H46.909z"/>
	<path fill="#FFFFFF" d="M35.335,53.898c-1.033,0-2.185,2.255-2.185,5.491s1.151,5.491,2.185,5.491s2.185-2.255,2.185-5.491
		S36.368,53.898,35.335,53.898z"/>
	<path fill="#FFFFFF" d="M37.698,53.572v-0.088h-1.466c1.169,0.791,1.997,3.103,1.997,5.905c0,2.739-0.791,5.004-1.918,5.845h1.145
		c0.002,0,0.004,0.001,0.006,0.001c0.002,0,0.004-0.001,0.006-0.001h0.23v-0.027C38.988,64.933,40,62.434,40,59.39
		C40,56.345,38.988,53.847,37.698,53.572z"/>
	<path fill="#FFFFFF" d="M22.985,41.823c0,2.323,1.882,4.207,4.207,4.207c2.323,0,4.207-1.883,4.207-4.207
		c0-2.324-1.883-4.208-4.207-4.208C24.868,37.615,22.985,39.499,22.985,41.823z M23.897,43.643c-0.448-0.959-0.32-2.399,0-3.135
		c0.319-0.736,0.799-0.352,0.799-0.352l1.184,1.215c-0.64,0.641,0,1.375,0,1.375s-0.352,0.32-0.928,0.928
		S23.897,43.643,23.897,43.643z M28.87,45.036c-0.961,0.448-2.4,0.319-3.135,0c-0.736-0.32-0.353-0.8-0.353-0.8l1.216-1.184
		c0.64,0.64,1.376,0,1.376,0s0.319,0.353,0.928,0.928C29.509,44.556,28.87,45.036,28.87,45.036z M26.601,41.919
		c0-0.309,0.25-0.56,0.56-0.56c0.308,0,0.56,0.251,0.56,0.56c0,0.308-0.252,0.56-0.56,0.56
		C26.85,42.479,26.601,42.227,26.601,41.919z M30.357,40.35c0.448,0.961,0.32,2.4,0,3.136c-0.319,0.736-0.8,0.351-0.8,0.351
		l-1.184-1.214c0.641-0.641,0-1.376,0-1.376s0.353-0.32,0.928-0.928C29.877,39.711,30.357,40.35,30.357,40.35z M28.711,38.703
		c0.736,0.319,0.352,0.8,0.352,0.8l-1.215,1.183c-0.641-0.639-1.376,0-1.376,0s-0.32-0.351-0.928-0.927s0.033-1.056,0.033-1.056
		C26.536,38.254,27.976,38.383,28.711,38.703z"/>
	<path fill="#FFFFFF" d="M59.165,47.446c2.714,0,4.916-2.201,4.916-4.915c0-2.714-2.202-4.916-4.916-4.916s-4.916,2.202-4.916,4.916
		C54.249,45.245,56.451,47.446,59.165,47.446z M61.126,46.286c-1.122,0.523-2.805,0.373-3.663,0
		c-0.861-0.374-0.412-0.936-0.412-0.936l1.42-1.383c0.748,0.748,1.607,0,1.607,0s0.374,0.412,1.084,1.084
		C61.873,45.725,61.126,46.286,61.126,46.286z M58.474,42.643c0-0.361,0.293-0.653,0.654-0.653c0.36,0,0.653,0.292,0.653,0.653
		c0,0.361-0.293,0.655-0.653,0.655C58.767,43.297,58.474,43.004,58.474,42.643z M62.864,40.811c0.523,1.122,0.373,2.805,0,3.663
		c-0.374,0.861-0.936,0.411-0.936,0.411l-1.383-1.419c0.748-0.748,0-1.607,0-1.607s0.412-0.374,1.084-1.084
		C62.304,40.063,62.864,40.811,62.864,40.811z M57.278,38.887c1.12-0.524,2.803-0.374,3.663,0c0.859,0.374,0.41,0.934,0.41,0.934
		l-1.42,1.383c-0.748-0.747-1.608,0-1.608,0s-0.373-0.411-1.083-1.084C56.529,39.447,57.278,38.887,57.278,38.887z M56.25,40.585
		l1.383,1.42c-0.748,0.748,0,1.606,0,1.606s-0.411,0.375-1.084,1.084c-0.673,0.71-1.234-0.037-1.234-0.037
		c-0.522-1.122-0.373-2.804,0-3.663C55.689,40.135,56.25,40.585,56.25,40.585z"/>
</g>
</svg>
