<svg xmlns="http://www.w3.org/2000/svg" viewBox="0 0 100 100">
  <path fill="#3a1b13" d="M100 87.562c.22204 7.230287-6.748536 13.27634-13.852214 12.438-24.993146-.04258-49.991678.08531-74.981447-.064208C4.2944479 99.424898-.82859197 92.587751 0 85.864944c.042586-24.898866-.08532205-49.803118.06421948-74.698605C.57543423 4.2947019 7.41234-.8284411 14.135056 0c24.898921.04258592 49.803227-.08532193 74.69877.06421948C95.705679.57513164 100.8285 7.4123593 100 14.135056V87.562z"/>
  <path fill="#fffffd" d="M0 81h100.35345c.22221 2.049186.22246 3.868975-2.270735 3.111638H0V81z"/>
  <path fill="none" d="M-11.361378 83.999992h128.52699v19.424h-128.52699zM52.596 17.215c-.0587 1.023262.164576-.721105 0 0zm.984-1.149c-.362759.07931.535287-.03724 0 0z"/>
  <path fill="#fffffd" d="M70.758 44.872H63.76V30.439c-8.985333 1.992667-17.970667 3.985333-26.956 5.978.381432 1.209747 4.605071-.489441 2.027955 1.831227-1.822985 2.468924-3.64597 4.937849-5.468955 7.406773-1.831333-2.419-3.662667-4.838-5.494-7.257-2.341788-.09918-.989973 2.763834-1.344 4.258798V56.555c15.492333 4.421667 30.984667 8.843333 46.477 13.265V28.389c-.748.165667-1.496.331333-2.244.497"/>
  <path fill="#fffffd" d="M35.25 38.438V15.67c-1.421565.34684-4.548021-1.011212-3.891 1.414214V38.438c-2.926864-.595698.146509 1.791657.710551 2.931483 1.059708 2.651187 2.092303.760454 3.126785-.814212.521221-.705757 1.042443-1.411514 1.563664-2.117271m33.954-18.19c-1.166-1.540333-2.332-3.080667-3.498-4.621-1.137 1.540333-2.274 3.080667-3.411 4.621 2.475835-.747183 1.210031 2.247273 1.509 3.676955V43.317c1.421013-.346725 4.546588 1.011112 3.889-1.414214V20.248M25.092 49.32c-5.088657.000676-10.180013-.0013-15.267.001v28.98c1.369945-.339792 4.426766 1.00729 3.715-1.414214V53.035h11.552m49.039-3.715c5.08899.000676 10.18068-.0013 15.268.001v28.98c-1.369633-.339772-4.426106 1.007297-3.714-1.414214V53.035H74.131"/>
  <path fill="#a44c29" d="M-.0049072 84.053754c-.000858.621697.0011 1.243544 0 1.865234-.828592 6.722807 4.294127 13.559418 11.1660172 14.070323 24.98977.149509 49.98928.0219 74.98242.0645 7.10368.83834 14.07361-5.20722 13.85157-12.437507v-3.5625H-.0049072z"/>
</svg>