<?xml version="1.0" encoding="utf-8"?>
<!-- Generator: Adobe Illustrator 16.0.0, SVG Export Plug-In . SVG Version: 6.00 Build 0)  -->
<!DOCTYPE svg PUBLIC "-//W3C//DTD SVG 1.1//EN" "http://www.w3.org/Graphics/SVG/1.1/DTD/svg11.dtd">
<svg version="1.1" id="Capa_1" xmlns="http://www.w3.org/2000/svg" xmlns:xlink="http://www.w3.org/1999/xlink" x="0px" y="0px"
	 width="100px" height="100px" viewBox="0 0 100 100" enable-background="new 0 0 100 100" xml:space="preserve">
<path fill="#3A653C" d="M100,87.447C100,94.38,94.38,100,87.447,100H12.553C5.62,100,0,94.38,0,87.447V12.553
	C0,5.62,5.62,0,12.553,0h74.895C94.38,0,100,5.62,100,12.553V87.447z"/>
<rect x="76" y="72" fill="#FFFFFF" width="13" height="8"/>
<rect y="82" fill="#FFFFFF" width="100" height="3"/>
<g opacity="0.4">
	<defs>
		<path id="SVGID_1_" opacity="0.4" d="M100,87.447C100,94.38,94.38,100,87.447,100H12.553C5.62,100,0,94.38,0,87.447V12.553
			C0,5.62,5.62,0,12.553,0h74.895C94.38,0,100,5.62,100,12.553V87.447z"/>
	</defs>
	<clipPath id="SVGID_2_">
		<use xlink:href="#SVGID_1_"  overflow="visible"/>
	</clipPath>
	<polygon opacity="0.7" clip-path="url(#SVGID_2_)" fill="#2B4A35" points="103.513,85 -5.579,85 7.577,103.693 115.063,104.545 	
		"/>
</g>
<path fill="#BED7BA" d="M54.394,34.519L54.394,34.519c0,0,0.523,0.294,0.638,0.327c0.114,0.033,0.522,0.18,0.67,0.016
	s0.131-1.209,0-1.292c-0.131-0.082-0.277-0.343-0.539-0.245c-0.263,0.098-0.426-0.065-0.54,0.229
	c-0.114,0.294-0.195,0.588-0.195,0.588L54.394,34.519z"/>
<path fill="none" d="M51.255,16.871v0.378c0-0.201,0.021-0.391,0.057-0.567C51.279,16.755,51.255,16.822,51.255,16.871z"/>
<path fill="none" d="M52.268,15.69c-0.026,0-0.061,0.014-0.093,0.028c0.081-0.016,0.165-0.028,0.258-0.028H52.268z"/>
<path fill="#FFFFFF" d="M86,42v-4.14v-0.016c0-0.677-0.074-1.32-0.322-1.894c-0.629-1.478-1.869-2.499-3.424-2.499
	c-1.554,0-2.581,1.021-3.212,2.499C78.796,36.526,79,37.171,79,37.852v15.704v1.563V70h7v-5h2v-2h-2v-5h2v-1.515V56h-2v-0.881
	v-1.563V52h2v-1.791V50h-2v-5h2v-1.067V42H86z"/>
<path fill="#FFFFFF" d="M57.532,73.898v5.601h16.735V71.13H60.069C59.31,72.142,58.459,73.067,57.532,73.898z"/>
<path fill="#FFFFFF" d="M50.209,79.499h3.138v-2.742c-1.003,0.505-2.053,0.921-3.138,1.248V79.499z"/>
<path fill="#FFFFFF" d="M55.767,29.747l-4.146-0.026c-0.341-0.003-0.366-0.365-0.366-0.576v-12.92v-0.021v-0.378
	c0-0.049,0.024-0.116,0.057-0.19c0.106-0.498,0.373-0.868,0.863-0.963c0.032-0.013,0.066-0.027,0.093-0.027h0.165h9.489
	c1.089-0.377,2.356-0.566,3.803-0.566c0.429,0,0.831,0.038,1.224,0.091c-0.002-0.075,0.001-0.154-0.002-0.227v-0.344H66.93
	c-0.095-1.194-0.479-2.092-1.88-2.092H50.471c-2.142,0-2.354,2.177-2.354,4.319v13.319c0,2.17-0.328,3.884,1.765,3.906l4.511,0.022
	v0.401v1.046v8.624c0.737,0.407,1.464,0.868,2.159,1.381c0.157,0.117,0.304,0.24,0.456,0.359V30.17
	C56.752,29.912,56.374,29.752,55.767,29.747z"/>
<path fill="#FFFFFF" d="M43.582,70.681c0-3.178-2.225-5.681-5.402-5.681H26v-1h2v-2h-7v2h2v1h-9.924c-3.177,0-6.03,2.503-6.03,5.681
	c0,3,2.954,5.389,4.954,5.653V80h4v-4h19v4h3v-3.666C41,76.069,43.582,73.681,43.582,70.681z"/>
<path fill="#FFFFFF" d="M58.154,49.654c-0.888-1.139-1.975-2.156-3.153-3.025c-1.119-0.826-2.337-1.519-3.674-2.053
	c-1.335-0.584-2.764-0.992-4.256-1.216v-2.564h-5.23v2.583c-7.981,1.263-14.085,8.04-14.118,16.246h2.612v3.138h7.845
	c4.621,0,8.106,3.486,8.106,8.107c0,2.074-0.79,3.931-2.108,5.349c0.115,0.003,0.227,0.012,0.343,0.012
	c6.607,0,12.307-3.763,15.052-9.224c1.251-2.253,1.972-4.824,1.972-7.572C61.545,55.752,60.273,52.365,58.154,49.654z"/>
<path fill="#FFFFFF" d="M83.682,29.633v-0.344h-0.016c-0.095-1.194-0.478-2.092-1.88-2.092H71.13V23.07v-0.019
	c0-0.967-0.348-6.357-5.405-6.357c-4.71,0-6.101,2.196-6.101,6.368v22.322v1.958c0.203,0.232,0.406,0.465,0.593,0.704
	c2.579,3.302,3.942,7.24,3.942,11.389c0,3.057-0.787,6.096-2.272,8.793c-0.141,0.278-0.295,0.544-0.447,0.812h9.69v-4.185h4.185
	v-3.138H71.13v-4.184h4.185v-2.093H71.13v-4.184h4.185v-2.092H71.13v-1.561v-2.22v-1.45h4.185v-2.092H71.13v-5.229h4.185v-2.092
	H71.13v-1.046v-3.138h9.414v1.162c0.57-0.102,1.201-0.159,1.918-0.159c0.446,0,0.845,0.055,1.22,0.132
	C83.685,30.843,83.705,30.215,83.682,29.633z"/>
</svg>
