<?xml version="1.0" encoding="UTF-8" standalone="no"?>
<svg
   xmlns:dc="http://purl.org/dc/elements/1.1/"
   xmlns:cc="http://creativecommons.org/ns#"
   xmlns:rdf="http://www.w3.org/1999/02/22-rdf-syntax-ns#"
   xmlns:svg="http://www.w3.org/2000/svg"
   xmlns="http://www.w3.org/2000/svg"
   xmlns:sodipodi="http://sodipodi.sourceforge.net/DTD/sodipodi-0.dtd"
   xmlns:inkscape="http://www.inkscape.org/namespaces/inkscape"
   version="1.1"
   id="Capa_1"
   x="0px"
   y="0px"
   width="250"
   height="250"
   viewBox="0 0 250.00001 250.00001"
   xml:space="preserve"
   inkscape:version="0.91 r13725"
   sodipodi:docname="default.svg"><metadata
     id="metadata3375"><rdf:RDF><cc:Work
         rdf:about=""><dc:format>image/svg+xml</dc:format><dc:type
           rdf:resource="http://purl.org/dc/dcmitype/StillImage" /><dc:title></dc:title></cc:Work></rdf:RDF></metadata><defs
     id="defs3373" /><sodipodi:namedview
     pagecolor="#ffffff"
     bordercolor="#666666"
     borderopacity="1"
     objecttolerance="10"
     gridtolerance="10"
     guidetolerance="10"
     inkscape:pageopacity="0"
     inkscape:pageshadow="2"
     inkscape:window-width="1366"
     inkscape:window-height="705"
     id="namedview3371"
     showgrid="false"
     inkscape:zoom="1.33334"
     inkscape:cx="200.99899"
     inkscape:cy="200.99899"
     inkscape:window-x="-8"
     inkscape:window-y="32"
     inkscape:window-maximized="1"
     inkscape:current-layer="Capa_1" /><g
     id="g3337"
     transform="matrix(0.62189334,0,0,0.62189213,-0.00124379,1.4217279e-6)"><path
       d="M 377.87,24.126 C 361.786,8.042 342.417,0 319.769,0 L 82.227,0 C 59.579,0 40.211,8.042 24.125,24.126 8.044,40.212 0.002,59.576 0.002,82.228 l 0,237.543 c 0,22.647 8.042,42.014 24.123,58.101 16.086,16.085 35.454,24.127 58.102,24.127 l 237.542,0 c 22.648,0 42.011,-8.042 58.102,-24.127 16.085,-16.087 24.126,-35.453 24.126,-58.101 l 0,-237.543 C 401.993,59.58 393.951,40.212 377.87,24.126 Z m -12.422,295.645 c 0,12.559 -4.47,23.314 -13.415,32.264 -8.945,8.945 -19.698,13.411 -32.265,13.411 l -237.541,0 c -12.563,0 -23.317,-4.466 -32.264,-13.411 -8.945,-8.949 -13.418,-19.705 -13.418,-32.264 l 0,-237.543 c 0,-12.562 4.473,-23.316 13.418,-32.264 8.947,-8.946 19.701,-13.418 32.264,-13.418 l 237.542,0 c 12.566,0 23.319,4.473 32.265,13.418 8.945,8.947 13.415,19.701 13.415,32.264 l 0,237.543 -0.001,0 z"
       id="path3339"
       inkscape:connector-curvature="0" /></g><g
     id="g3341"
     transform="translate(0,-151.99799)" /><g
     id="g3343"
     transform="translate(0,-151.99799)" /><g
     id="g3345"
     transform="translate(0,-151.99799)" /><g
     id="g3347"
     transform="translate(0,-151.99799)" /><g
     id="g3349"
     transform="translate(0,-151.99799)" /><g
     id="g3351"
     transform="translate(0,-151.99799)" /><g
     id="g3353"
     transform="translate(0,-151.99799)" /><g
     id="g3355"
     transform="translate(0,-151.99799)" /><g
     id="g3357"
     transform="translate(0,-151.99799)" /><g
     id="g3359"
     transform="translate(0,-151.99799)" /><g
     id="g3361"
     transform="translate(0,-151.99799)" /><g
     id="g3363"
     transform="translate(0,-151.99799)" /><g
     id="g3365"
     transform="translate(0,-151.99799)" /><g
     id="g3367"
     transform="translate(0,-151.99799)" /><g
     id="g3369"
     transform="translate(0,-151.99799)" /></svg>