<?xml version="1.0" encoding="utf-8"?>
<!-- Generator: Adobe Illustrator 16.0.0, SVG Export Plug-In . SVG Version: 6.00 Build 0)  -->
<!DOCTYPE svg PUBLIC "-//W3C//DTD SVG 1.1//EN" "http://www.w3.org/Graphics/SVG/1.1/DTD/svg11.dtd">
<svg version="1.1" id="Capa_1" xmlns="http://www.w3.org/2000/svg" xmlns:xlink="http://www.w3.org/1999/xlink" x="0px" y="0px"
	 width="100px" height="100px" viewBox="0 0 100 100" enable-background="new 0 0 100 100" xml:space="preserve">
<path fill="#3A653C" d="M100,87.5c0,6.903-5.597,12.5-12.5,12.5h-75C5.597,100,0,94.403,0,87.5v-75C0,5.597,5.597,0,12.5,0h75
	C94.403,0,100,5.597,100,12.5V87.5z"/>
<g>
	<defs>
		<path id="SVGID_1_" d="M100,87.5c0,6.903-5.597,12.5-12.5,12.5h-75C5.597,100,0,94.403,0,87.5v-75C0,5.597,5.597,0,12.5,0h75
			C94.403,0,100,5.597,100,12.5V87.5z"/>
	</defs>
	<clipPath id="SVGID_2_">
		<use xlink:href="#SVGID_1_"  overflow="visible"/>
	</clipPath>
	<polygon opacity="0.7" clip-path="url(#SVGID_2_)" fill="#2B4A35" points="117.589,86 -4.86,86 9.905,102.859 130.556,103.367 	"/>
</g>
<rect y="83" fill="#FFFFFF" width="100" height="3"/>
<path fill="#FFFFFF" d="M31.325,27.643c-0.453,0-0.864,0.172-1.18,0.452l-0.968-1.07c0.637-0.818,1.019-1.846,1.019-2.962
	c0-1.763-0.947-3.307-2.358-4.147l1.167-2.075c0.136,0.048,0.283,0.077,0.435,0.077c0.73,0,1.321-0.592,1.321-1.32
	c0-0.729-0.591-1.32-1.318-1.32c-0.728,0-1.318,0.593-1.318,1.321c0,0.399,0.177,0.754,0.456,1l-1.178,2.087
	c-0.619-0.287-1.306-0.449-2.033-0.449c-1.111,0-2.132,0.378-2.947,1.007l-1.087-1.375c0.259-0.322,0.417-0.73,0.417-1.178
	c0-1.042-0.844-1.884-1.884-1.884c-1.042,0-1.886,0.844-1.886,1.884c0,1.042,0.844,1.885,1.886,1.885
	c0.415,0,0.801-0.138,1.113-0.365l1.068,1.354c-0.928,0.878-1.504,2.12-1.504,3.498c0,0.027,0.003,0.049,0.003,0.075h-1.194
	c-0.179-0.652-0.776-1.131-1.485-1.131c-0.856,0-1.546,0.693-1.546,1.544c0,0.855,0.69,1.547,1.546,1.547
	c0.839,0,1.521-0.673,1.542-1.508h1.164c0.195,1.816,1.404,3.328,3.046,3.968l-0.407,0.826c-0.252-0.102-0.531-0.156-0.822-0.156
	c-1.229,0-2.225,0.994-2.225,2.222s0.996,2.226,2.225,2.226c1.231,0,2.225-0.997,2.225-2.226c0-0.773-0.399-1.458-1-1.854
	l0.438-0.892c0.417,0.119,0.86,0.183,1.316,0.183c1.383,0,2.631-0.583,3.51-1.516l0.968,1.067c-0.184,0.282-0.295,0.616-0.295,0.977
	c0,0.98,0.795,1.773,1.774,1.773c0.976,0,1.772-0.792,1.772-1.773C33.097,28.438,32.301,27.643,31.325,27.643z"/>
<rect x="0.1" y="51.05" fill="#FFFFFF" width="20.179" height="9.993"/>
<rect x="83.74" y="51.05" fill="#FFFFFF" width="16.487" height="9.993"/>
<rect x="45.84" y="0.164" fill="#FFFFFF" width="9.993" height="27.428"/>
<path fill="#FFFFFF" d="M58.486,28.777H43.424c-1.41,0-2.552,1.144-2.552,2.551c0,1.41,1.143,2.555,2.552,2.555h1.732v7.289
	c0.165-0.06,0.263-0.091,0.357-0.121l0.188-0.058c0.343-0.105,0.667-0.191,0.994-0.27l0.395-0.086l0.146-0.029
	c0.236-0.049,0.405-0.082,0.569-0.108l0.198-0.031c0.07-0.011,0.142-0.019,0.212-0.027l0.158-0.022l0.051-0.004l0.402-0.044
	c0.292-0.032,0.521-0.048,0.75-0.06c0.191-0.009,0.379-0.013,0.565-0.017l0.264-0.002l0.289,0.001
	c0.207,0.004,0.409,0.013,0.611,0.023c0.239,0.014,0.462,0.035,0.684,0.056l0.567,0.062c0.251,0.035,0.482,0.073,0.709,0.113
	l0.444,0.091c0.458,0.094,0.9,0.208,1.338,0.342l0.161,0.05l0.224,0.075c0.102,0.028,0.287,0.091,0.471,0.158l0.845,0.344v-6.675
	h0.002v-1.051h1.738c1.408,0,2.551-1.145,2.551-2.555C61.037,29.921,59.895,28.777,58.486,28.777z"/>
<path fill="#FFFFFF" d="M34.458,54.982l0.02-0.21l0.037-0.419c0.017-0.143,0.039-0.299,0.064-0.463
	c0.017-0.129,0.042-0.293,0.074-0.454l0.115-0.576c0.008-0.041,0.019-0.091,0.03-0.145l0.07-0.291
	c0.016-0.061,0.032-0.122,0.049-0.181c0.008-0.035,0.021-0.088,0.04-0.148l0.177-0.606c0.126-0.389,0.228-0.686,0.341-0.979
	l0.029-0.07h-7.572v-0.003h-1.054v-1.741c0-1.406-1.143-2.551-2.551-2.551c-1.41,0-2.553,1.145-2.553,2.551V63.76
	c0,1.407,1.143,2.551,2.553,2.551c1.409,0,2.551-1.144,2.551-2.551v-1.738h8.583c-0.022-0.061-0.049-0.12-0.07-0.18l-0.278-1.001
	l-0.046,0.016l-0.163-0.572c-0.01-0.032-0.022-0.081-0.037-0.138l-0.062-0.263c-0.015-0.067-0.031-0.138-0.044-0.206l-0.11-0.551
	c-0.03-0.149-0.054-0.313-0.076-0.477c-0.021-0.128-0.042-0.286-0.062-0.449l-0.055-0.606c-0.015-0.153-0.03-0.308-0.037-0.463
	l-0.022-0.846l0.024-0.87C34.43,55.289,34.443,55.135,34.458,54.982z"/>
<path fill="#FFFFFF" d="M79.746,46.145c-1.407,0-2.551,1.145-2.551,2.551v1.741h-1.578v0.003h-10.34l0.147,0.364
	c0.08,0.227,0.146,0.417,0.206,0.606l0.045,0.15l0.13,0.443c0.031,0.102,0.058,0.2,0.082,0.303c0.01,0.027,0.033,0.12,0.057,0.216
	l0.039,0.167c0.015,0.067,0.028,0.137,0.043,0.203l0.113,0.558c0.028,0.159,0.056,0.32,0.075,0.479l0.112,1.018
	c0.016,0.163,0.032,0.326,0.04,0.491c0.007,0.111,0.013,0.248,0.016,0.382l0.007,0.466l-0.008,0.478
	c-0.002,0.125-0.008,0.26-0.017,0.394c-0.006,0.145-0.022,0.31-0.038,0.472l-0.116,1.049c-0.016,0.126-0.043,0.288-0.071,0.448
	l-0.063,0.308l-0.028,0.145c-0.024,0.116-0.042,0.206-0.059,0.279v0.066l-0.077,0.242c0.001-0.003,0.002-0.004,0.002-0.004
	c0.004,0-0.019,0.088-0.043,0.169l-0.152,0.537l-0.045,0.146l-0.067,0.222c-0.085,0.264-0.188,0.524-0.291,0.785h11.88v1.738
	c0,1.407,1.144,2.551,2.551,2.551c1.41,0,2.554-1.144,2.554-2.551V48.696C82.3,47.29,81.156,46.145,79.746,46.145z"/>
<path fill="#FFFFFF" d="M64.939,55.849c-0.002-0.115-0.006-0.229-0.014-0.341c-0.009-0.192-0.031-0.381-0.05-0.572
	c-0.006-0.07-0.01-0.141-0.018-0.209c-0.007-0.062-0.009-0.123-0.016-0.184c-0.02-0.146-0.036-0.286-0.058-0.432
	c-0.018-0.132-0.04-0.267-0.065-0.4c-0.021-0.111-0.044-0.22-0.067-0.33c-0.002-0.017-0.006-0.034-0.01-0.051
	c-0.01-0.049-0.018-0.098-0.028-0.145c-0.021-0.102-0.043-0.203-0.067-0.301c0-0.012-0.004-0.019-0.007-0.029
	c-0.017-0.068-0.034-0.138-0.053-0.2c-0.021-0.086-0.042-0.167-0.068-0.252c-0.006-0.043-0.021-0.086-0.035-0.133
	c-0.026-0.094-0.056-0.188-0.085-0.278c-0.006-0.019-0.011-0.038-0.017-0.057c-0.01-0.031-0.021-0.063-0.028-0.095
	c-0.055-0.173-0.116-0.348-0.177-0.521c-0.059-0.153-0.116-0.311-0.178-0.462c-0.026-0.07-0.057-0.135-0.086-0.202
	c-0.011-0.024-0.021-0.047-0.03-0.071c-0.027-0.06-0.052-0.122-0.079-0.182c-0.063-0.15-0.134-0.298-0.205-0.447
	c-0.072-0.148-0.145-0.298-0.224-0.441c-0.021-0.039-0.043-0.076-0.063-0.114c-0.018-0.033-0.034-0.065-0.053-0.098
	c-0.04-0.072-0.078-0.146-0.118-0.218c-0.13-0.229-0.265-0.452-0.409-0.671c-0.047-0.074-0.098-0.15-0.148-0.224
	c-0.014-0.022-0.028-0.043-0.043-0.064c-0.009-0.013-0.017-0.025-0.026-0.039c-0.08-0.119-0.162-0.235-0.246-0.35
	c-0.066-0.095-0.142-0.192-0.213-0.287c-0.069-0.091-0.148-0.179-0.22-0.269c-0.075-0.095-0.153-0.187-0.23-0.279
	c-0.057-0.067-0.108-0.137-0.167-0.203c-0.104-0.125-0.212-0.243-0.33-0.361c-0.093-0.1-0.187-0.198-0.282-0.294
	c-0.024-0.024-0.047-0.048-0.071-0.072c-0.109-0.11-0.221-0.219-0.335-0.324c-0.047-0.044-0.094-0.086-0.141-0.131
	c-0.152-0.14-0.31-0.27-0.466-0.401c-0.028-0.026-0.058-0.053-0.088-0.077c-0.014-0.012-0.028-0.024-0.043-0.036
	c-0.127-0.1-0.252-0.203-0.384-0.303c-0.126-0.095-0.253-0.188-0.383-0.282c-0.046-0.033-0.097-0.059-0.144-0.092
	c-0.219-0.152-0.448-0.29-0.674-0.43c-0.146-0.088-0.283-0.19-0.432-0.274c-0.102-0.057-0.207-0.115-0.308-0.173
	c-0.152-0.079-0.303-0.154-0.457-0.228c-0.139-0.071-0.28-0.137-0.42-0.202c-0.092-0.039-0.182-0.083-0.273-0.118
	c-0.012-0.006-0.025-0.011-0.038-0.017c-0.009-0.003-0.018-0.007-0.025-0.011c-0.086-0.037-0.169-0.072-0.257-0.107
	c-0.13-0.05-0.261-0.1-0.391-0.15c-0.158-0.06-0.321-0.113-0.48-0.164c-0.054-0.021-0.109-0.036-0.164-0.052
	c-0.02-0.006-0.039-0.012-0.06-0.018c-0.023-0.007-0.048-0.017-0.071-0.023c-0.402-0.123-0.81-0.228-1.225-0.314
	c-0.022-0.005-0.045-0.008-0.066-0.014c-0.003,0-0.005,0-0.007-0.001c-0.104-0.021-0.208-0.042-0.31-0.063
	c-0.209-0.037-0.425-0.072-0.637-0.102c-0.113-0.014-0.235-0.028-0.354-0.043c-0.041-0.003-0.084-0.006-0.125-0.011
	c-0.018-0.001-0.034-0.001-0.05-0.003c-0.205-0.021-0.409-0.04-0.617-0.051c-0.187-0.01-0.376-0.019-0.566-0.021
	c-0.092,0-0.182-0.002-0.271-0.002c-0.074,0-0.149,0-0.222,0.002c-0.174,0.003-0.351,0.007-0.524,0.016
	c-0.201,0.011-0.405,0.024-0.603,0.046c-0.036,0.002-0.07,0.008-0.106,0.011c-0.026,0.002-0.052,0.006-0.078,0.008
	c-0.08,0.008-0.159,0.015-0.238,0.026c-0.043,0.001-0.087,0.009-0.127,0.012c-0.043,0.005-0.083,0.011-0.125,0.019
	c-0.084,0.01-0.166,0.021-0.25,0.035c-0.01,0-0.018,0.004-0.025,0.004c-0.164,0.025-0.322,0.054-0.481,0.087
	c-0.041,0.006-0.082,0.017-0.122,0.025c-0.022,0.004-0.045,0.01-0.066,0.014c-0.081,0.016-0.162,0.03-0.241,0.05
	c-0.055,0.011-0.108,0.022-0.159,0.036c-0.297,0.07-0.59,0.148-0.877,0.236c-0.041,0.015-0.083,0.023-0.127,0.04
	c-0.098,0.031-0.196,0.061-0.297,0.098c-0.094,0.033-0.189,0.064-0.289,0.1c-0.195,0.072-0.391,0.153-0.585,0.233
	c-0.056,0.024-0.115,0.045-0.171,0.069c-0.016,0.006-0.032,0.012-0.049,0.019c-0.148,0.062-0.293,0.128-0.433,0.195
	c-0.146,0.065-0.284,0.137-0.426,0.208c-0.083,0.043-0.165,0.089-0.248,0.133c-0.041,0.022-0.082,0.044-0.122,0.067
	c-0.084,0.046-0.171,0.09-0.252,0.136c-0.263,0.151-0.523,0.314-0.779,0.485c-0.024,0.016-0.049,0.034-0.075,0.051
	c-0.029,0.019-0.056,0.039-0.085,0.059c-0.064,0.043-0.13,0.086-0.193,0.133c-0.014,0.009-0.028,0.017-0.045,0.028
	c-0.159,0.116-0.316,0.231-0.472,0.352c-0.104,0.079-0.205,0.164-0.308,0.247c-0.028,0.024-0.058,0.046-0.086,0.071
	c-0.033,0.028-0.068,0.054-0.102,0.082c-0.054,0.047-0.109,0.094-0.163,0.141c-0.075,0.066-0.156,0.133-0.231,0.206
	c-0.143,0.128-0.279,0.264-0.415,0.397c-0.041,0.042-0.083,0.08-0.124,0.121c-0.01,0.009-0.021,0.02-0.032,0.03
	c-0.086,0.084-0.17,0.17-0.25,0.258c-0.109,0.116-0.217,0.23-0.316,0.352c-0.092,0.101-0.181,0.206-0.269,0.31
	c-0.008,0.01-0.017,0.021-0.024,0.031c-0.017,0.019-0.029,0.036-0.044,0.055c-0.119,0.145-0.236,0.289-0.347,0.438
	c-0.122,0.162-0.242,0.329-0.356,0.494c-0.02,0.028-0.036,0.056-0.056,0.083c-0.031,0.045-0.06,0.087-0.089,0.132
	c-0.032,0.047-0.065,0.094-0.095,0.139c-0.08,0.119-0.156,0.239-0.228,0.362c-0.086,0.136-0.167,0.274-0.245,0.415
	c-0.036,0.06-0.068,0.122-0.101,0.184c-0.012,0.021-0.022,0.039-0.033,0.059c-0.016,0.028-0.033,0.057-0.047,0.085
	c-0.071,0.126-0.134,0.252-0.195,0.382c-0.059,0.112-0.114,0.225-0.164,0.34c-0.048,0.098-0.091,0.195-0.129,0.295
	c-0.012,0.026-0.022,0.053-0.035,0.08c-0.016,0.038-0.032,0.074-0.049,0.112c-0.001,0.004-0.002,0.006-0.004,0.009
	c-0.051,0.114-0.098,0.235-0.145,0.349c-0.104,0.272-0.197,0.548-0.289,0.821c-0.01,0.032-0.02,0.063-0.03,0.097
	c-0.003,0.01-0.006,0.021-0.009,0.032c-0.031,0.097-0.06,0.193-0.089,0.291c-0.015,0.047-0.028,0.09-0.036,0.133
	c-0.025,0.085-0.046,0.166-0.068,0.252c-0.02,0.063-0.036,0.132-0.05,0.2c-0.004,0.011-0.009,0.018-0.009,0.029
	c-0.024,0.098-0.047,0.199-0.068,0.301c-0.01,0.046-0.018,0.093-0.026,0.139c-0.006,0.022-0.009,0.045-0.014,0.066
	c-0.021,0.106-0.044,0.213-0.063,0.32c-0.026,0.134-0.047,0.269-0.065,0.4c-0.022,0.146-0.041,0.285-0.058,0.432
	c-0.007,0.053-0.008,0.107-0.014,0.162c-0.009,0.09-0.016,0.18-0.023,0.271c-0.017,0.176-0.038,0.352-0.046,0.531
	c-0.007,0.111-0.01,0.226-0.015,0.341c-0.002,0.143-0.007,0.29-0.007,0.438c0,0.149,0.005,0.299,0.007,0.442
	c0.005,0.111,0.008,0.227,0.015,0.342c0.008,0.179,0.029,0.354,0.046,0.531c0.008,0.089,0.014,0.179,0.023,0.267
	c0.006,0.054,0.007,0.11,0.014,0.166c0.017,0.144,0.036,0.284,0.058,0.429c0.018,0.133,0.039,0.268,0.065,0.401
	c0.02,0.111,0.042,0.22,0.065,0.33c0.004,0.015,0.006,0.031,0.01,0.048c0.01,0.05,0.017,0.101,0.028,0.149
	c0.021,0.101,0.044,0.202,0.068,0.3c0,0.011,0.005,0.018,0.009,0.027c0.014,0.07,0.03,0.139,0.05,0.202l0.054,0.209
	c0.006,0.031,0.018,0.063,0.028,0.096c0.032,0.108,0.065,0.217,0.098,0.323c0.01,0.038,0.022,0.076,0.035,0.114
	c0.012,0.041,0.024,0.083,0.038,0.126c0,0.007,0.003,0.019,0.007,0.03c0.014,0.042,0.028,0.089,0.047,0.136
	c0.029,0.083,0.059,0.168,0.086,0.251c0.014,0.043,0.034,0.09,0.052,0.137c0.065,0.177,0.132,0.354,0.208,0.53
	c0.008,0.026,0.021,0.051,0.033,0.081c0.066,0.154,0.135,0.308,0.207,0.46c0.066,0.143,0.134,0.283,0.206,0.42
	c0.041,0.085,0.088,0.162,0.132,0.246c0.044,0.084,0.089,0.169,0.137,0.252c0.034,0.066,0.067,0.135,0.104,0.198
	c0.079,0.139,0.162,0.274,0.245,0.408c0.102,0.165,0.206,0.327,0.311,0.484c0.109,0.16,0.221,0.315,0.333,0.47
	c0.076,0.102,0.153,0.203,0.228,0.305c0.068,0.088,0.142,0.173,0.213,0.259c0.045,0.055,0.089,0.11,0.134,0.164
	c0.047,0.055,0.09,0.111,0.136,0.166c0.082,0.098,0.166,0.192,0.252,0.284c0.115,0.129,0.238,0.246,0.357,0.369
	c0.063,0.066,0.125,0.134,0.19,0.197c0.039,0.038,0.074,0.081,0.114,0.118c0.108,0.101,0.216,0.202,0.326,0.304
	c0.13,0.119,0.26,0.234,0.394,0.347c0.038,0.03,0.076,0.061,0.113,0.092c0.018,0.014,0.035,0.028,0.053,0.042
	c0.091,0.076,0.183,0.153,0.277,0.227c0.16,0.122,0.316,0.247,0.484,0.361c0.046,0.031,0.088,0.062,0.135,0.094
	c0.049,0.037,0.1,0.067,0.15,0.104c0.031,0.019,0.06,0.039,0.09,0.06c0.081,0.055,0.163,0.11,0.244,0.163
	c0.269,0.173,0.545,0.338,0.826,0.492c0.024,0.013,0.049,0.026,0.071,0.038c0.008,0.005,0.017,0.009,0.024,0.013
	c0.1,0.053,0.198,0.105,0.299,0.158c0.032,0.019,0.071,0.035,0.108,0.054c0.173,0.087,0.346,0.171,0.525,0.249
	c0,0,0,0.005,0.002,0.005c0.096,0.043,0.192,0.081,0.289,0.123c0.022,0.009,0.043,0.02,0.065,0.028
	c0.06,0.024,0.118,0.05,0.177,0.075c0.13,0.05,0.261,0.101,0.391,0.151c0.131,0.052,0.265,0.093,0.397,0.141
	c0.022,0.009,0.041,0.014,0.058,0.019c0.092,0.029,0.181,0.058,0.27,0.087c0.009,0.003,0.016,0.005,0.024,0.008
	c0.033,0.011,0.067,0.021,0.102,0.032c0.071,0.022,0.144,0.042,0.211,0.061c0.073,0.022,0.145,0.04,0.215,0.059
	c0.187,0.055,0.378,0.102,0.575,0.143c0.078,0.019,0.158,0.034,0.237,0.051c0.029,0.005,0.056,0.013,0.085,0.018
	c0.086,0.019,0.174,0.035,0.261,0.054c0.336,0.057,0.678,0.104,1.022,0.143c0.047,0.004,0.094,0.014,0.141,0.018
	c0.01,0.003,0.019,0.005,0.026,0.005c0.204,0.018,0.406,0.035,0.606,0.047c0.208,0.011,0.411,0.018,0.615,0.022
	c0.072,0.003,0.147,0.003,0.222,0.003c0.089,0,0.179-0.003,0.271-0.003c0.089,0,0.176-0.005,0.265-0.009
	c0.022,0,0.047,0,0.069-0.003c0.091-0.003,0.186-0.008,0.274-0.016c0.115-0.006,0.228-0.024,0.342-0.034
	c0.167-0.013,0.334-0.028,0.501-0.049c0.12-0.015,0.244-0.019,0.362-0.034c0.16-0.025,0.327-0.051,0.491-0.082
	c0.074-0.012,0.146-0.033,0.22-0.047c0.123-0.024,0.244-0.053,0.366-0.081c0.157-0.034,0.318-0.062,0.473-0.102
	c0.118-0.028,0.234-0.062,0.349-0.094c0.059-0.018,0.119-0.034,0.181-0.055c0.049-0.015,0.095-0.028,0.143-0.043
	c0.01-0.004,0.021-0.006,0.032-0.01c0.017-0.005,0.032-0.01,0.049-0.015c0.181-0.055,0.363-0.117,0.539-0.181
	c0.171-0.063,0.336-0.129,0.503-0.192c0.058-0.023,0.115-0.052,0.175-0.074c0.047-0.021,0.091-0.042,0.138-0.062
	c0.105-0.045,0.21-0.087,0.312-0.134c0.116-0.051,0.232-0.108,0.343-0.165c0.123-0.057,0.243-0.118,0.361-0.185
	c0.047-0.022,0.093-0.048,0.139-0.072c0.021-0.012,0.042-0.021,0.063-0.034c0.027-0.015,0.057-0.028,0.085-0.045
	c0.077-0.043,0.146-0.098,0.224-0.143c0.374-0.216,0.736-0.445,1.088-0.692c0.048-0.033,0.101-0.059,0.148-0.094
	c0.079-0.054,0.154-0.11,0.23-0.168c0.094-0.074,0.188-0.146,0.282-0.218c0.076-0.059,0.153-0.122,0.229-0.185
	c0.005-0.004,0.01-0.009,0.014-0.013c0.021-0.016,0.041-0.032,0.06-0.049c0.16-0.133,0.313-0.269,0.464-0.403
	c0.173-0.156,0.339-0.316,0.506-0.481c0.118-0.122,0.237-0.246,0.356-0.371c0.045-0.046,0.085-0.087,0.123-0.136
	c0.088-0.096,0.174-0.191,0.26-0.293c0.049-0.057,0.096-0.115,0.145-0.174c0.032-0.039,0.064-0.078,0.098-0.119
	c0.04-0.049,0.083-0.097,0.124-0.148c0.057-0.069,0.116-0.146,0.174-0.222c0.056-0.076,0.114-0.152,0.172-0.232
	c0.112-0.15,0.221-0.303,0.325-0.459c0.108-0.16,0.214-0.323,0.315-0.49c0.1-0.163,0.197-0.329,0.292-0.496
	c0.038-0.063,0.075-0.132,0.111-0.2c0.005-0.006,0.01-0.013,0.013-0.021s0.01-0.016,0.014-0.024
	c0.051-0.094,0.102-0.187,0.148-0.281c0.075-0.146,0.147-0.294,0.216-0.439c0.074-0.151,0.138-0.305,0.201-0.457
	c0.015-0.032,0.028-0.063,0.043-0.096c0.004-0.012,0.012-0.024,0.016-0.037c0.149-0.357,0.286-0.724,0.406-1.094
	c0.014-0.043,0.025-0.088,0.039-0.131c0.011-0.035,0.021-0.07,0.032-0.105c0.031-0.107,0.066-0.216,0.097-0.325
	c0.012-0.033,0.022-0.064,0.029-0.096l0.054-0.209c0.019-0.063,0.036-0.132,0.053-0.202c0.003-0.01,0.007-0.017,0.007-0.027
	c0.024-0.098,0.047-0.199,0.067-0.3c0.012-0.051,0.02-0.104,0.031-0.155c0.002-0.012,0.005-0.023,0.007-0.034
	c0.022-0.112,0.047-0.224,0.067-0.338c0.025-0.134,0.048-0.269,0.065-0.401c0.021-0.145,0.038-0.285,0.058-0.429
	c0.007-0.063,0.009-0.125,0.017-0.188c0.007-0.066,0.011-0.136,0.017-0.205c0.019-0.19,0.041-0.381,0.05-0.571
	c0.008-0.115,0.012-0.23,0.014-0.342c0.004-0.144,0.008-0.293,0.008-0.442C64.947,56.139,64.943,55.991,64.939,55.849z
	 M43.852,46.882c0.01-0.008,0.021-0.017,0.031-0.024c0.359-0.248,0.735-0.469,1.121-0.675c0.238-0.126,0.476-0.25,0.722-0.359
	c0.049-0.022,0.098-0.042,0.146-0.063c0.306-0.132,0.617-0.253,0.937-0.358c0.009-0.002,0.019-0.006,0.029-0.009
	c0.692-0.226,1.412-0.387,2.152-0.478c0.022-0.002,0.043-0.005,0.063-0.007c0.368-0.043,0.743-0.07,1.123-0.077h-0.001
	c0.072-0.003,0.147-0.003,0.222-0.003c0.089,0,0.179,0,0.271,0.003h0.024c0.001,0,0.003,0,0.005,0c-0.01,0-0.021,0-0.031,0
	c1.147,0.026,2.25,0.224,3.29,0.563c0.024,0.007,0.049,0.016,0.075,0.024c0.321,0.108,0.637,0.231,0.947,0.366
	c0.027,0.013,0.056,0.022,0.083,0.036c0.62,0.276,1.207,0.608,1.762,0.986c0.036,0.024,0.072,0.046,0.107,0.071
	c0.03,0.021,0.059,0.043,0.088,0.063c0.26,0.185,0.514,0.377,0.758,0.583c0.007,0.005,0.014,0.01,0.019,0.015
	c0.002,0.001,0.004,0.004,0.008,0.006c0.011,0.008,0.021,0.021,0.033,0.03l-0.517,0.518l-0.189,0.189l-4.042,4.04l-0.68,0.682
	c-0.589-0.36-1.272-0.578-2.012-0.578c-0.038,0-0.075,0.001-0.112,0.001c0.013,0.001,0.027,0.006,0.04,0.006
	c-0.712,0.013-1.372,0.224-1.94,0.573l-0.682-0.684l-4.602-4.601l-0.144-0.143C43.243,47.331,43.541,47.099,43.852,46.882z
	 M52.836,56.286c0,1.352-1.095,2.441-2.442,2.441c-1.349,0-2.44-1.09-2.44-2.441c0-1.349,1.092-2.441,2.44-2.441
	C51.741,53.845,52.836,54.938,52.836,56.286z M39.151,54.085c0.029-0.148,0.068-0.291,0.103-0.436
	c0.055-0.231,0.106-0.464,0.175-0.691c0.006-0.021,0.012-0.043,0.019-0.063c0.102-0.328,0.218-0.649,0.348-0.963
	c0.016-0.038,0.033-0.077,0.049-0.116c0.13-0.307,0.272-0.606,0.427-0.898c0.014-0.025,0.026-0.05,0.039-0.073
	c0.159-0.294,0.331-0.579,0.513-0.854c0.002-0.005,0.006-0.01,0.009-0.014c0.017-0.029,0.038-0.057,0.058-0.085
	c0.177-0.264,0.366-0.521,0.565-0.769c0.028-0.035,0.057-0.07,0.085-0.105c0.047-0.057,0.1-0.108,0.146-0.165l0.704,0.704h0.001
	l4.718,4.718c-0.208,0.34-0.368,0.713-0.464,1.113h-0.959h-5.713h-0.993C39.016,54.946,39.068,54.511,39.151,54.085z M42.393,63.021
	C42.392,63.02,42.392,63.02,42.393,63.021l-0.708,0.7c-0.045-0.054-0.095-0.104-0.138-0.156c-0.033-0.039-0.063-0.076-0.094-0.114
	c-0.199-0.248-0.389-0.506-0.568-0.771c-0.018-0.026-0.037-0.053-0.054-0.08c-0.003-0.003-0.004-0.005-0.007-0.009
	c-0.183-0.279-0.356-0.567-0.516-0.863c-0.012-0.022-0.023-0.043-0.036-0.064c-0.106-0.197-0.195-0.405-0.289-0.608
	c-0.089-0.191-0.173-0.387-0.251-0.584c-0.103-0.26-0.203-0.52-0.285-0.787c-0.007-0.022-0.014-0.045-0.021-0.067
	c-0.068-0.227-0.12-0.46-0.175-0.692c-0.035-0.144-0.073-0.286-0.102-0.433c-0.083-0.426-0.135-0.861-0.17-1.303h0.993
	c0,0,0,0,0-0.001h5.713h0.959c0.096,0.4,0.253,0.774,0.464,1.114l-0.68,0.682L42.393,63.021z M56.99,65.653
	c-0.021,0.017-0.04,0.031-0.061,0.045c-0.024,0.018-0.049,0.032-0.073,0.049c-0.57,0.391-1.174,0.732-1.81,1.016
	c-0.016,0.006-0.031,0.012-0.045,0.019c-0.32,0.142-0.649,0.269-0.984,0.38c-0.015,0.005-0.029,0.009-0.043,0.015
	c-0.343,0.111-0.689,0.209-1.046,0.289l-0.003,0.001c-0.729,0.165-1.485,0.26-2.261,0.278c0,0,0,0,0.001,0
	c-0.092,0.003-0.182,0.003-0.271,0.003c-0.074,0-0.149,0-0.222-0.003h0.001c-0.382-0.008-0.763-0.034-1.135-0.078
	c-0.012,0-0.024-0.004-0.037-0.005c-0.731-0.087-1.44-0.248-2.122-0.467c-0.028-0.009-0.055-0.016-0.083-0.025
	c-0.308-0.102-0.608-0.22-0.903-0.346c-0.059-0.024-0.118-0.049-0.175-0.075c-0.245-0.108-0.483-0.23-0.718-0.356
	c-0.385-0.207-0.761-0.427-1.119-0.673c-0.006-0.005-0.012-0.011-0.019-0.015c-0.291-0.203-0.573-0.419-0.843-0.646
	c-0.003-0.001-0.003-0.003-0.005-0.004c-0.021-0.018-0.039-0.038-0.06-0.057l0.095-0.095l5.333-5.331
	c0.566,0.348,1.225,0.557,1.935,0.571c-0.011,0-0.022,0.004-0.034,0.005c0.037,0.002,0.074,0.004,0.112,0.004
	c0.739,0,1.423-0.219,2.012-0.58l0.68,0.681L57.834,65C57.564,65.232,57.282,65.45,56.99,65.653z M61.633,58.524
	c-0.006,0.028-0.011,0.057-0.017,0.086c-0.068,0.333-0.151,0.661-0.249,0.982c-0.009,0.028-0.016,0.057-0.024,0.083
	c-0.088,0.284-0.191,0.56-0.301,0.834c-0.05,0.126-0.103,0.251-0.156,0.375c-0.111,0.252-0.225,0.502-0.354,0.743
	c-0.009,0.018-0.016,0.034-0.026,0.05c-0.011,0.022-0.024,0.043-0.035,0.065c-0.098,0.181-0.209,0.354-0.316,0.528
	c-0.095,0.155-0.188,0.311-0.29,0.462c-0.144,0.208-0.293,0.411-0.448,0.61c-0.058,0.074-0.114,0.147-0.173,0.22
	c-0.045,0.056-0.096,0.104-0.143,0.159l-0.251-0.251L58.4,63.019c0,0.001,0,0.001-0.001,0.002l-4.039-4.038L53.679,58.3
	c0.208-0.341,0.368-0.713,0.463-1.113h0.963h5.713c0,0.001,0,0.001,0,0.001h0.991C61.773,57.641,61.721,58.088,61.633,58.524z
	 M60.817,55.388h-5.713h-0.963c-0.095-0.399-0.255-0.771-0.463-1.112l0.682-0.683l4.037-4.036l0,0l0.499-0.5l0.204-0.204
	c0.036,0.041,0.075,0.079,0.109,0.122c0.084,0.1,0.162,0.204,0.242,0.305c0.139,0.181,0.276,0.364,0.405,0.553
	c0.111,0.163,0.215,0.334,0.317,0.502c0.098,0.161,0.199,0.317,0.289,0.482c0.014,0.027,0.028,0.052,0.042,0.079
	c0.012,0.02,0.021,0.039,0.032,0.057c0.145,0.275,0.276,0.558,0.399,0.845c0.023,0.055,0.047,0.111,0.069,0.166
	c0.124,0.304,0.237,0.614,0.336,0.931c0.009,0.03,0.017,0.063,0.026,0.093c0.096,0.318,0.178,0.643,0.246,0.971
	c0.006,0.032,0.013,0.064,0.021,0.097c0.085,0.436,0.138,0.881,0.174,1.332H60.817z"/>
<g>
	<circle fill="#FFFFFF" cx="82.616" cy="28.016" r="4.723"/>
	<circle fill="#FFFFFF" cx="87.048" cy="11.918" r="3.674"/>
	<circle fill="#FFFFFF" cx="74.932" cy="17.406" r="2.216"/>
	<circle fill="#FFFFFF" cx="89.004" cy="41.338" r="1.924"/>
	<circle fill="#FFFFFF" cx="67.859" cy="30.407" r="2.508"/>
	<path fill="#FFFFFF" d="M82.818,27.904c-0.376-0.099-0.596-0.482-0.496-0.856l4.018-15.105c0.102-0.374,0.482-0.596,0.857-0.496
		l0,0c0.374,0.098,0.595,0.482,0.496,0.855l-4.021,15.106C83.574,27.781,83.191,28.003,82.818,27.904L82.818,27.904z"/>
	<path fill="#FFFFFF" d="M82.031,27.083c-0.213,0.15-0.505,0.102-0.657-0.109l-6.113-8.534c-0.152-0.211-0.104-0.504,0.107-0.656
		l0,0c0.214-0.149,0.505-0.102,0.658,0.109l6.112,8.534C82.292,26.638,82.244,26.933,82.031,27.083L82.031,27.083z"/>
	<path fill="#FFFFFF" d="M83.973,30.917c0.233-0.11,0.514-0.01,0.626,0.225l4.476,9.494c0.111,0.235,0.013,0.515-0.224,0.626l0,0
		c-0.231,0.11-0.514,0.01-0.624-0.225l-4.479-9.495C83.638,31.309,83.736,31.028,83.973,30.917L83.973,30.917z"/>
	<path fill="#FFFFFF" d="M80.799,28.69c0.033,0.278-0.165,0.531-0.443,0.564l-11.243,1.366c-0.276,0.033-0.53-0.164-0.563-0.443l0,0
		c-0.035-0.278,0.164-0.53,0.441-0.564l11.241-1.367C80.512,28.214,80.767,28.413,80.799,28.69L80.799,28.69z"/>
</g>
</svg>
