<?xml version="1.0" encoding="utf-8"?>
<!-- Generator: Adobe Illustrator 16.0.0, SVG Export Plug-In . SVG Version: 6.00 Build 0)  -->
<!DOCTYPE svg PUBLIC "-//W3C//DTD SVG 1.1//EN" "http://www.w3.org/Graphics/SVG/1.1/DTD/svg11.dtd">
<svg version="1.1" id="Capa_1" xmlns="http://www.w3.org/2000/svg" xmlns:xlink="http://www.w3.org/1999/xlink" x="0px" y="0px"
	 width="100px" height="100px" viewBox="0 0 100 100" enable-background="new 0 0 100 100" xml:space="preserve">
<path fill="#49494B" d="M87.525,0.305h-75.05c-6.908,0-12.508,5.601-12.508,12.508v68.795v3.127v3.128
	c0,6.907,5.601,12.508,12.508,12.508h75.05c6.907,0,12.508-5.601,12.508-12.508v-3.052v-0.076v-3.127V12.813
	C100.033,5.905,94.433,0.305,87.525,0.305z"/>
<path fill="#822424" d="M12.475,100.371h75.05c6.907,0,12.508-5.601,12.508-12.508v-3.052l-0.045-0.076H-0.033v3.128
	C-0.033,94.771,5.567,100.371,12.475,100.371z"/>
<rect x="-0.033" y="81.608" fill="#FFFFFF" width="100.066" height="3.127"/>
<g>
	<path fill="#FFFFFF" d="M17.251,49.525c-0.804-0.168-1.41-0.881-1.41-1.734v-0.952c-2.807,0.217-4.512,0.849-4.512,1.31
		C11.329,48.684,13.616,49.443,17.251,49.525z"/>
	<path fill="#FFFFFF" d="M55.505,48.539c0.058,0.002,0.114,0.004,0.173,0.006c0.602,0.013,1.213,0.021,1.831,0.023
		c0.067,0,0.131,0.002,0.198,0.002c0.006,0,0.011,0,0.017,0c0.008,0,0.014,0,0.021,0c10.235,0,18.532-1.762,18.532-3.938
		c0-2.054-7.405-3.738-16.852-3.918v3.781c0,1.021-0.833,1.852-1.857,1.852c-1.021,0-1.852-0.831-1.852-1.852l0.006-3.774
		c-8.878,0.205-15.859,1.742-16.452,3.65c-0.05,0.099-0.081,0.196-0.081,0.291c0,0.11,0.042,0.224,0.11,0.341
		C40.107,46.846,46.896,48.318,55.505,48.539z"/>
	<path fill="#FFFFFF" d="M24.464,48.149c0-0.492-1.937-1.177-5.079-1.348v0.989c0,0.876-0.641,1.602-1.479,1.743
		C21.909,49.532,24.464,48.713,24.464,48.149z"/>
	<path fill="#FFFFFF" d="M11.151,49.645v12.566c0,0.544,2.655,1.329,6.812,1.329s6.804-0.785,6.804-1.328c0-0.004,0-0.006,0-0.006
		V49.667c-1.134,0.844-4.433,1.163-6.797,1.163C15.587,50.83,12.095,50.505,11.151,49.645z"/>
	<path fill="#FFFFFF" d="M49.217,13.797c4.046,0,6.625-0.875,6.625-1.479s-2.578-1.481-6.625-1.481
		c-4.042,0-6.623,0.876-6.623,1.481S45.175,13.797,49.217,13.797z"/>
	<path fill="#FFFFFF" d="M39.235,47.113v27.447c0,1.651,7.242,4.051,18.577,4.051c11.336,0,18.554-2.398,18.554-4.051
		c0-0.016,0-0.019,0-0.017v-0.002V47.176c-3.096,2.573-12.089,3.548-18.536,3.548C51.332,50.725,41.814,49.733,39.235,47.113z"/>
	<path fill="#FFFFFF" d="M80.197,57.575c-0.581,0-1.235-0.033-1.896-0.104v12.896c0.581,0.063,1.213,0.102,1.888,0.102
		c3.781,0,6.186-1.108,6.186-1.871c0-0.009,0-0.011,0-0.01V55.935C85.344,57.124,82.346,57.575,80.197,57.575z"/>
	<path fill="#FFFFFF" d="M55.741,13.858c-1.102,0.967-4.298,1.333-6.589,1.333c-2.31,0-5.692-0.372-6.608-1.358v26.083
		c3.192-0.825,7.699-1.465,13.198-1.591V13.858z"/>
	<path fill="#FFFFFF" d="M56.758,43.592v0.903c0,0.445,0.364,0.809,0.81,0.809c0.45,0,0.815-0.364,0.815-0.809v-0.902v-7.945
		c0.044-0.017,0.103-0.092,0.115-0.092l20.671-7.967v0.492v24.633v0.06c-0.301,0.017-0.591,0.04-0.867,0.07v3.218
		c0.562,0.06,1.172,0.096,1.83,0.096c3.553,0,5.819-1.011,5.819-1.705c0-0.65-1.997-1.563-5.158-1.681v-0.057V28.08v-1.004
		c-0.008-0.813-0.73-1.253-1.31-1.254c-0.169,0-0.342,0.031-0.51,0.1l-20.591,7.936l-0.477,0.184
		c-0.609,0.284-1.062,0.749-1.148,1.541c-0.003,0.027-0.014,0.049-0.016,0.077v0.563v0.092v4.808c0.006,0,0.01,0,0.016,0V43.592z"/>
	<path fill="#FFFFFF" d="M40.319,34.328c-0.003,0.002-0.007,0.004-0.01,0.007v-2.354c0.002-0.013,0.01-0.027,0.01-0.041
		c0-0.007,0-0.008,0-0.008V18.576c-1.098,0.967-4.295,1.333-6.586,1.333c-2.31,0-5.692-0.373-6.608-1.358v13.39
		c0,0.01,0.007,0.021,0.008,0.033v2.338c-0.002-0.002-0.006-0.004-0.008-0.006l0.017,10.957l-9.007-3.218
		c-0.299-0.107-0.613-0.069-0.862,0.107c-0.248,0.175-0.389,0.457-0.389,0.775v4.864c0,0.404,0.326,0.73,0.73,0.73
		c0.404,0,0.729-0.326,0.729-0.73v-4.119l8.801,3.145l0.037,24.091c0,0.621,2.572,1.522,6.603,1.522
		c1.313,0,2.465-0.096,3.429-0.247v-29.38v-0.001c0,0.002,0-0.002,0-0.02c0-0.678,1.098-1.469,3.118-2.193L40.319,34.328z"/>
	<path fill="#FFFFFF" d="M33.681,18.57c4.036,0,6.612-0.89,6.612-1.502c0-0.614-2.576-1.504-6.612-1.504
		c-4.037,0-6.612,0.891-6.612,1.504C27.068,17.681,29.644,18.57,33.681,18.57z"/>
</g>
</svg>
