<?xml version="1.0" encoding="utf-8"?>
<!-- Generator: Adobe Illustrator 16.0.0, SVG Export Plug-In . SVG Version: 6.00 Build 0)  -->
<!DOCTYPE svg PUBLIC "-//W3C//DTD SVG 1.1//EN" "http://www.w3.org/Graphics/SVG/1.1/DTD/svg11.dtd">
<svg version="1.1" id="Capa_1" xmlns="http://www.w3.org/2000/svg" xmlns:xlink="http://www.w3.org/1999/xlink" x="0px" y="0px"
	 width="100px" height="100px" viewBox="0 0 100 100" enable-background="new 0 0 100 100" xml:space="preserve">
<path fill="#50687A" d="M100,87.438C100,94.376,94.376,100,87.438,100H12.563C5.625,100,0,94.376,0,87.438V12.563
	C0,5.625,5.625,0,12.563,0h74.875C94.376,0,100,5.625,100,12.563V87.438z"/>
<g>
	<defs>
		<path id="SVGID_1_" d="M100,87.438C100,94.376,94.376,100,87.438,100H12.563C5.625,100,0,94.376,0,87.438V12.563
			C0,5.625,5.625,0,12.563,0h74.875C94.376,0,100,5.625,100,12.563V87.438z"/>
	</defs>
	<clipPath id="SVGID_2_">
		<use xlink:href="#SVGID_1_"  overflow="visible"/>
	</clipPath>
	<path opacity="0.8" clip-path="url(#SVGID_2_)" fill-rule="evenodd" clip-rule="evenodd" fill="#0A151F" d="M0.885,84.93
		c0,0-1.135-0.522,7.852,1.222c8.758,1.7,11.428-4.536,19.106-2.705c7.677,1.833,7.153,2.269,13.348,3.142
		c6.194,0.872,6.892,1.833,12.65,1.222c5.758-0.612,6.63-0.872,10.556-2.095c3.927-1.221,5.672-1.046,8.113-1.57
		c2.443-0.522,3.229-0.873,6.369-0.873s2.181,3.404,10.993,3.229c8.811-0.174,10.644-1.658,12.214-2.181
		c1.57-0.523,1.744,0.959,1.744,1.308c0,0.351-6.63,20.939-19.454,20.939s-64.036-3.01-78.606-5.278
		C-25.095,96.482,0.802,85.05,0.885,84.93z"/>
	<path clip-path="url(#SVGID_2_)" fill-rule="evenodd" clip-rule="evenodd" fill="#FFFFFD" d="M92.524,88.526
		c-5.597,0.444-10.313-4.09-16.058-3.829c-3.754,0.172-7.603,1.767-12.845,3.255c-1.879,0.533-7.793,2.448-14.265,2.344
		c-6.083-0.1-12.739-2.184-14.64-2.754c-4.54-1.358-8.028-2.691-11.437-2.845c-5.742-0.261-10.458,4.273-16.055,3.829
		c-7.322-0.576-7.663-5.007-7.663-5.007c12.962,3.683,10.383-4.643,22.981-4.717c12.31-0.07,13.652,5.542,27.331,5.873
		c13.679-0.331,15.019-5.943,27.33-5.873c12.594,0.074,10.015,8.399,22.98,4.717C100.186,83.52,99.84,87.95,92.524,88.526z"/>
</g>
<path fill="#FFFFFD" d="M35.165,68.724h32.529v7.104c2.401-0.705,5.207-1.212,8.934-1.212l0.241,0.001
	c0.24,0.001,0.466,0.011,0.697,0.017v-5.909h1.857v-11.5h-3.932l-9.109-28.926h2.501V27.95v-2.787h-2.441v-6.447h-0.348v-0.349
	h-7.492v0.349h-0.523v6.447h-1.916v3.135h1.802l-9.108,28.926H42.92v-8.625h-1.961L23.369,12.813l-0.447-0.168l-2.264,0.959
	l-0.002,0.429l-0.125-0.284l-0.957,0.086l13.034,34.762h-1.972v8.625h-8.364v11.5h2.673V74.7c4.411,0.298,7.417,1.359,10.219,2.468
	V68.724z M29.94,66.98h-6.275v-1.568h6.275V66.98z M29.94,64.716h-6.275v-1.307h6.275V64.716z M29.94,62.017h-6.275v-1.715h6.275
	V62.017z M29.94,59.604h-6.275v-1.162h6.275V59.604z M45.505,66.98h-6.272v-1.568h6.272V66.98z M45.505,64.716h-6.272v-1.307h6.272
	V64.716z M45.505,62.017h-6.272v-1.715h6.272V62.017z M61.534,66.98h-6.271v-1.568h6.271V66.98z M61.534,64.716h-6.271v-1.307h6.271
	V64.716z M61.534,62.017h-6.271v-1.715h6.271V62.017z M61.534,59.604h-6.271v-1.162h6.271V59.604z M69.491,66.98h-6.272v-1.568
	h6.272V66.98z M69.491,64.716h-6.272v-1.307h6.272V64.716z M69.491,62.017h-6.272v-1.715h6.272V62.017z M69.491,59.604h-6.272
	v-1.162h6.272V59.604z M77.594,66.98H71.32v-1.568h6.273V66.98z M77.594,64.716H71.32v-1.307h6.273V64.716z M77.594,62.017H71.32
	v-1.715h6.273V62.017z M77.594,58.442v1.162H71.32v-1.162H77.594z M74.244,57.224h-11.07v-3.247l8.475-4.993L74.244,57.224z
	 M63.174,53.169v-10.37l8.23,5.518L63.174,53.169z M71.113,47.283l-7.939-5.322v-0.674l5.035-3.229L71.113,47.283z M67.991,37.369
	l-4.817,3.09v-6.64l4.668,3.071L67.991,37.369z M67.511,35.837l-4.337-2.853v-4.687h1.962L67.511,35.837z M62.826,19.065h3.136
	v2.613h-3.136V19.065z M62.826,22.376h3.136v2.786h-3.136V22.376z M58.989,19.065h3.138v2.613h-2.961v0.698h2.961v2.786h-3.138
	V19.065z M59.642,28.297h2.138v4.783l-4.554,2.885L59.642,28.297z M56.903,36.998l4.876-3.093v7.121l-5.076-3.4L56.903,36.998z
	 M56.486,38.319l4.902,3.285l-7.44,4.771L56.486,38.319z M53.623,47.412l8.156-5.229v11.11l-8.195-5.765L53.623,47.412z
	 M53.366,48.224l8.413,5.92v3.079H50.534L53.366,48.224z M47.16,58.442h6.273v1.162H47.16V58.442z M47.16,60.302h6.273v1.715H47.16
	V60.302z M47.16,63.409h6.273v1.307H47.16V63.409z M47.16,65.412h6.273v1.568H47.16V65.412z M45.505,58.442v1.162h-6.272v-1.162
	H45.505z M40.185,48.599h-4.533l-0.188-0.43l2.875-3.323L40.185,48.599z M35.157,47.459l-1.354-3.117l3.933,0.134L35.157,47.459z
	 M37.817,43.784l-3.689-0.128l2.248-2.807L37.817,43.784z M35.782,39.645l-3.736-0.316l2.088-3.033L35.782,39.645z M22.888,13.415
	l0.656,1.333l-1.872-0.819L22.888,13.415z M20.766,14.294l2.352,1.028l-0.969,2.161L20.766,14.294z M23.855,15.382l1.886,3.836
	l-3.166-0.979L23.855,15.382z M22.829,19.044l2.459,0.763l-1.046,2.496L22.829,19.044z M26.037,19.821l1.718,3.494l-3.062-0.286
	L26.037,19.821z M24.866,23.745l2.474,0.232l-1.401,2.24L24.866,23.745z M28.117,24.049l1.615,3.285l-3.392-0.442L28.117,24.049z
	 M26.548,27.621l2.677,0.349l-1.38,2.639L26.548,27.621z M30.026,27.937l1.672,3.397l-3.375-0.139L30.026,27.937z M28.405,31.897
	l2.993,0.122l-1.773,2.693L28.405,31.897z M32.121,32.192l1.545,3.146l-3.533-0.131L32.121,32.192z M30.141,35.903l3.331,0.125
	l-2.008,2.918L30.141,35.903z M31.926,40.018l3.955,0.332l-2.468,3.088L31.926,40.018z M31.305,58.442h6.271v1.162h-6.271V58.442z
	 M31.305,60.302h6.271v1.715h-6.271V60.302z M31.305,63.409h6.271v1.307h-6.271V63.409z M31.305,65.412h6.271v1.568h-6.271V65.412z"
	/>
</svg>
