<?xml version="1.0" encoding="utf-8"?>
<!-- Generator: Adobe Illustrator 16.0.0, SVG Export Plug-In . SVG Version: 6.00 Build 0)  -->
<!DOCTYPE svg PUBLIC "-//W3C//DTD SVG 1.1//EN" "http://www.w3.org/Graphics/SVG/1.1/DTD/svg11.dtd">
<svg version="1.1" id="Capa_1" xmlns="http://www.w3.org/2000/svg" xmlns:xlink="http://www.w3.org/1999/xlink" x="0px" y="0px"
	 width="100px" height="100px" viewBox="0 0 100 100" enable-background="new 0 0 100 100" xml:space="preserve">
<path fill="#3A1B13" d="M100,87.519C100,94.412,94.412,100,87.519,100H12.481C5.588,100,0,94.412,0,87.519V12.481
	C0,5.588,5.588,0,12.481,0h75.037C94.412,0,100,5.588,100,12.481V87.519z"/>
<rect y="81" fill="#FFFFFD" width="100" height="3"/>
<g>
	<defs>
		<path id="SVGID_1_" d="M100,87.519C100,94.412,94.412,100,87.519,100H12.481C5.588,100,0,94.412,0,87.519V12.481
			C0,5.588,5.588,0,12.481,0h75.037C94.412,0,100,5.588,100,12.481V87.519z"/>
	</defs>
	<clipPath id="SVGID_2_">
		<use xlink:href="#SVGID_1_"  overflow="visible"/>
	</clipPath>
	<polygon clip-path="url(#SVGID_2_)" fill="#A44C29" points="110.901,84 -5.721,84 8.343,102.846 123.251,103.563"/>
</g>
<g>
	<path fill="#FFFFFF" d="M47.882,24.822c-0.622-1.585-1.403-3.915,1.321-6.557c0.112,2.324,2.443,2.431,1.973,6.391
		c1.082-0.372,1.082-0.372,1.595-0.656c3.002-1.669,3.543-4.377,1.327-7.451c-1.271-1.763-2.075-3.575-1.898-5.772
		c-0.729,0.741-0.937,1.64-1.172,2.975c-0.887-0.64,0.535-7.17-3.923-8.035c0.93,2.404,1.313,4.474-0.454,6.962
		c-0.116-0.942-0.564-2.13-1.533-2.985c-0.167,2.846,0.167,4.059-1.654,7.76c-0.511,1.548-0.872,3.065,0.093,4.59
		C44.512,23.549,46.108,24.51,47.882,24.822z"/>
	<path fill="#FFFFFF" d="M60.614,69.399l-2.497-34.579h0.792v-5.25h-3.336v-2.967H43.07v2.967h-3.333v5.25h0.649l-2.578,34.579
		h-7.315v9.13H48.64v-9.102h1.37v9.102h18.6v-9.13H60.614z M43.098,35.273l5.45,6.056l-4.941,4.892l-1.43,1.414L43.098,35.273z
		 M41.895,51.402l6.597,7.329l-5.342,5.287l-2.371,2.346L41.895,51.402z M48.64,61.111v7.002v1.286h-8.085l0.071-0.954l3.489-3.454
		l4.525-4.479V61.111z M48.64,56.611l-6.4-7.109l2.331-2.308l4.069-4.028V56.611z M48.64,39.384l-4.109-4.563h4.109V39.384z
		 M57.67,66.645l-2.453-2.725l-4.722-5.246l6.159-6.097L57.67,66.645z M56.317,47.915l-0.998-1.109l-4.881-5.423l5.046-4.996
		L56.317,47.915z M50.01,34.821h5.114l-5.114,5.062V34.821z M50.01,42.953l4.293,4.771l2.175,2.416l0.047,0.64l-6.515,6.45V42.953z
		 M50.01,69.399v-1.286v-7.002v-0.694l4.071,4.524l3.609,4.012l0.16,0.174l0.02,0.272H50.01z"/>
</g>
</svg>
