<?xml version="1.0" encoding="utf-8"?>
<!-- Generator: Adobe Illustrator 16.0.0, SVG Export Plug-In . SVG Version: 6.00 Build 0)  -->
<!DOCTYPE svg PUBLIC "-//W3C//DTD SVG 1.1//EN" "http://www.w3.org/Graphics/SVG/1.1/DTD/svg11.dtd">
<svg version="1.1" id="Capa_1" xmlns="http://www.w3.org/2000/svg" xmlns:xlink="http://www.w3.org/1999/xlink" x="0px" y="0px"
	 width="100px" height="100px" viewBox="0 0 100 100" enable-background="new 0 0 100 100" xml:space="preserve">
<path fill="#1E2226" d="M100,87.471C100,94.391,94.391,100,87.471,100H12.529C5.609,100,0,94.391,0,87.471V12.529
	C0,5.609,5.609,0,12.529,0h74.941C94.391,0,100,5.609,100,12.529V87.471z"/>
<g>
	<defs>
		<path id="SVGID_1_" d="M100,87.471C100,94.391,94.391,100,87.471,100H12.529C5.609,100,0,94.391,0,87.471V12.529
			C0,5.609,5.609,0,12.529,0h74.941C94.391,0,100,5.609,100,12.529V87.471z"/>
	</defs>
	<clipPath id="SVGID_2_">
		<use xlink:href="#SVGID_1_"  overflow="visible"/>
	</clipPath>
	<polygon clip-path="url(#SVGID_2_)" fill="#822424" points="105.686,84 -7.298,84 6.327,102.964 117.647,103.662 	"/>
</g>
<path fill="#6E1F20" d="M51.949,21.283v0.371c0-0.198,0.019-0.384,0.055-0.558C51.973,21.169,51.949,21.234,51.949,21.283z"/>
<path fill="#6E1F20" d="M52.94,20.125c-0.025,0-0.059,0.014-0.089,0.026c0.078-0.014,0.161-0.026,0.251-0.026H52.94z"/>
<g>
	<rect y="81" fill="#FFFFFF" width="100" height="3"/>
	<path fill="#FFFFFF" d="M59.021,30.293h-3.928v-4.848h-3.913v-2.957c1.924-0.038,3.849-0.159,5.776-0.364
		c2.131-1.211,2.131-2.06,0-3.27c-1.928-0.206-3.853-0.327-5.776-0.364v-0.909h-2.569v0.909c-1.922,0.038-3.845,0.158-5.776,0.364
		c-2.13,1.21-2.13,2.059,0,3.27c1.931,0.205,3.854,0.326,5.776,0.364v2.957h-3.909v4.848h-3.93v2.813h18.249V30.293z M47.154,27.899
		h5.484v2.394h-5.484V27.899z M47.154,27.899"/>
	<path fill="#FFFFFF" d="M67.103,46.463h-8.128c-1.206-0.024-2.178-1.012-2.178-2.221v-3.167c0-1.226,0.997-2.224,2.225-2.224
		v-3.171H40.772v3.171c1.228,0,2.226,0.999,2.226,2.224v3.167c0,1.209-0.975,2.196-2.18,2.221h-8.125v-1.909h-3.046v16.019h3.046
		v-1.947h34.41v1.947h3.044V44.556h-3.044V46.463z M67.103,46.463"/>
	<rect x="72.727" y="44.556" fill="#FFFFFF" width="3.044" height="16.018"/>
	<rect x="24.022" y="44.556" fill="#FFFFFF" width="3.045" height="16.018"/>
	<rect x="75.193" y="46.463" fill="#FFFFFF" width="25.137" height="12.163"/>
	<rect x="-0.247" y="46.463" fill="#FFFFFF" width="25.026" height="12.163"/>
</g>
</svg>
