<?xml version="1.0" encoding="iso-8859-1"?>
<!-- Generator: Adobe Illustrator 16.0.0, SVG Export Plug-In . SVG Version: 6.00 Build 0)  -->
<!DOCTYPE svg PUBLIC "-//W3C//DTD SVG 1.1//EN" "http://www.w3.org/Graphics/SVG/1.1/DTD/svg11.dtd">
<svg version="1.1" id="Capa_1" xmlns="http://www.w3.org/2000/svg" xmlns:xlink="http://www.w3.org/1999/xlink" x="0px" y="0px"
	 width="444.045px" height="444.045px" viewBox="0 0 444.045 444.045" style="enable-background:new 0 0 444.045 444.045;"
	 xml:space="preserve">
<g>
	<path d="M422.504,346.229v-68.306h-16.678v-24.856c0-21.863-16.199-39.935-37.254-42.882v-0.798
		c0-26.702-21.723-48.426-48.426-48.426h-1.609c-26.699,0-48.426,21.724-48.426,48.426v87.633h-23.641v-93.169
		c0-6.083-3.248-11.394-8.096-14.333c5.662-1.667,9.799-6.896,9.799-13.098c0-7.544-6.117-13.661-13.662-13.661h-10.981v-12.727h-17
		v12.727h-10.984c-7.545,0-13.66,6.116-13.66,13.661c0,6.202,4.137,11.431,9.799,13.098c-4.848,2.94-8.098,8.25-8.098,14.333v93.169
		h-23v-85.596c0-4.458-3.613-8.071-8.07-8.071h-16.412v-87.591c0-16.03-13.041-29.071-29.07-29.071v-1.267
		c0-23.608-19.139-42.748-42.748-42.748S21.54,61.817,21.54,85.425v260.805H0v55.139h444.045v-55.139H422.504z M286.256,209.387
		c0-17.801,14.48-32.284,32.281-32.284h1.609c17.803,0,32.285,14.483,32.285,32.284v1.559
		c-19.059,4.545-33.232,21.673-33.232,42.124v24.855h-16.676v19.098h-16.27v-87.635H286.256z M302.525,313.162v33.067h-16.27
		v-33.067H302.525z M270.113,313.162v33.067h-23.641v-33.067H270.113z M144.447,219.496v85.596c0,4.458,3.613,8.071,8.07,8.071
		h31.07v33.068h-47.482V219.496H144.447z M107.035,102.834c7.129,0,12.93,5.8,12.93,12.929v87.591h-12.93V102.834z M107.035,219.496
		h12.93v126.733h-12.93V219.496z"/>
</g>
<g>
</g>
<g>
</g>
<g>
</g>
<g>
</g>
<g>
</g>
<g>
</g>
<g>
</g>
<g>
</g>
<g>
</g>
<g>
</g>
<g>
</g>
<g>
</g>
<g>
</g>
<g>
</g>
<g>
</g>
</svg>
