<?xml version="1.0" encoding="utf-8"?>
<!-- Generator: Adobe Illustrator 16.0.0, SVG Export Plug-In . SVG Version: 6.00 Build 0)  -->
<!DOCTYPE svg PUBLIC "-//W3C//DTD SVG 1.1//EN" "http://www.w3.org/Graphics/SVG/1.1/DTD/svg11.dtd">
<svg version="1.1" id="Capa_1" xmlns="http://www.w3.org/2000/svg" xmlns:xlink="http://www.w3.org/1999/xlink" x="0px" y="0px"
	 width="100px" height="100px" viewBox="0 0 100 100" enable-background="new 0 0 100 100" xml:space="preserve">
<path fill="#49494B" d="M87.526,0H12.724C5.839,0,0.257,5.582,0.257,12.467v68.569v3.117v3.117c0,6.885,5.582,12.467,12.467,12.467
	h74.803c6.886,0,12.468-5.582,12.468-12.467v-3.042v-0.075v-3.117V12.467C99.994,5.582,94.412,0,87.526,0z"/>
<path fill="#822424" d="M12.724,99.737h74.803c6.886,0,12.468-5.582,12.468-12.467v-3.042l-0.045-0.075H0.257v3.117
	C0.257,94.155,5.839,99.737,12.724,99.737z"/>
<g>
	<rect x="0.257" y="81.036" fill="#FFFFFF" width="99.737" height="3.117"/>
	<path fill="#FFFFFF" d="M58.974,31.935h-3.908v-4.823h-3.893v-2.942c1.913-0.038,3.828-0.158,5.747-0.362
		c2.12-1.206,2.12-2.049,0-3.254c-1.919-0.205-3.834-0.325-5.747-0.362v-0.904h-2.557v0.904c-1.913,0.038-3.826,0.158-5.748,0.362
		c-2.12,1.205-2.12,2.048,0,3.254c1.921,0.204,3.835,0.325,5.748,0.362v2.942h-3.89v4.823h-3.91v2.799h18.158V31.935z
		 M52.623,31.935h-5.457v-2.381h5.457V31.935z"/>
	<path fill="#FFFFFF" d="M32.776,60.127h34.239v1.938h3.029V46.127h-3.029v1.898h-8.088c-1.199-0.024-2.166-1.006-2.166-2.209
		v-3.151c0-1.22,0.992-2.213,2.213-2.213v-3.155H40.815v3.155c1.222,0,2.215,0.993,2.215,2.213v3.151
		c0,1.203-0.97,2.186-2.169,2.209h-8.085v-1.899h-3.03v15.938h3.03V60.127z"/>
	<polygon fill="#FFFFFF" points="24.149,62.064 27.179,62.064 27.179,46.127 24.149,46.127 24.149,48.025 0,48.025 0,60.127 
		24.149,60.127 	"/>
	<polygon fill="#FFFFFF" points="75.64,48.025 75.64,46.127 72.61,46.127 72.61,62.064 75.64,62.064 75.64,60.127 100.077,60.127 
		100.077,48.025 	"/>
</g>
</svg>
