<?xml version="1.0" encoding="utf-8"?>
<!-- Generator: Adobe Illustrator 16.0.0, SVG Export Plug-In . SVG Version: 6.00 Build 0)  -->
<!DOCTYPE svg PUBLIC "-//W3C//DTD SVG 1.1//EN" "http://www.w3.org/Graphics/SVG/1.1/DTD/svg11.dtd">
<svg version="1.1" id="Capa_1" xmlns="http://www.w3.org/2000/svg" xmlns:xlink="http://www.w3.org/1999/xlink" x="0px" y="0px"
	 width="100px" height="100px" viewBox="0 0 100 100" enable-background="new 0 0 100 100" xml:space="preserve">
<path fill="#6E1F20" d="M76.245,24.41v0.368c0-0.196,0.019-0.381,0.054-0.553C76.268,24.297,76.245,24.362,76.245,24.41z"/>
<path fill="#6E1F20" d="M77.227,23.263c-0.025,0-0.058,0.014-0.089,0.026c0.078-0.014,0.16-0.026,0.25-0.026H77.227z"/>
<path fill="#6E1F20" d="M86.584,24.41v0.368c0-0.196,0.02-0.381,0.054-0.553C86.607,24.297,86.584,24.362,86.584,24.41z"/>
<path fill="#6E1F20" d="M87.565,23.263c-0.024,0-0.058,0.014-0.089,0.026c0.078-0.014,0.16-0.026,0.25-0.026H87.565z"/>
<path fill="#1E2226" d="M100,87.593C100,94.445,94.445,100,87.593,100H12.407C5.555,100,0,94.445,0,87.593V12.407
	C0,5.555,5.555,0,12.407,0h75.186C94.445,0,100,5.555,100,12.407V87.593z"/>
<g>
	<defs>
		<path id="SVGID_1_" d="M100,87.593C100,94.445,94.445,100,87.593,100H12.407C5.555,100,0,94.445,0,87.593V12.407
			C0,5.555,5.555,0,12.407,0h75.186C94.445,0,100,5.555,100,12.407V87.593z"/>
	</defs>
	<clipPath id="SVGID_2_">
		<use xlink:href="#SVGID_1_"  overflow="visible"/>
	</clipPath>
	<polygon clip-path="url(#SVGID_2_)" fill="#822424" points="104.642,84 -7.237,84 6.254,102.484 116.487,103.323 	"/>
</g>
<path fill="#6E1F20" d="M51.431,22.342v0.368c0-0.196,0.02-0.381,0.054-0.553C51.454,22.229,51.431,22.294,51.431,22.342z"/>
<path fill="#6E1F20" d="M52.412,21.195c-0.024,0-0.058,0.014-0.088,0.026c0.078-0.014,0.16-0.026,0.249-0.026H52.412z"/>
<rect y="82" fill="#FFFFFF" width="100" height="3"/>
<path fill="none" d="M70.724,40.173c0.04,0.042,0.085,0.079,0.119,0.125l0.106,0.135c0.016,0.023,0.036,0.045,0.052,0.069
	l0.041,0.07l0.085,0.143c0.027,0.049,0.05,0.11,0.074,0.166l0.035,0.085l0.019,0.042l0.009,0.021
	c-0.005-0.01,0.003,0.009,0.003,0.011c0.016,0.055,0.035,0.111,0.048,0.166c0.029,0.11,0.04,0.224,0.047,0.336
	c0.002,0.113-0.006,0.225-0.027,0.335c-0.093,0.446-0.426,0.823-0.831,1.111c-0.406,0.29-0.884,0.51-1.381,0.693
	c-0.499,0.182-1.021,0.328-1.557,0.452c-1.073,0.248-2.198,0.409-3.357,0.535c-0.29,0.031-0.583,0.063-0.878,0.091
	c-0.294,0.026-0.589,0.052-0.886,0.079c-0.594,0.063-1.197,0.089-1.806,0.125c-0.152,0.009-0.305,0.018-0.458,0.026
	c-0.153,0.006-0.307,0.011-0.463,0.017c-0.308,0.011-0.618,0.021-0.93,0.032c-0.624,0.018-1.256,0.022-1.894,0.033
	c-2.552,0.024-5.214-0.02-7.974,0.08c-1.38,0.028-2.781,0.125-4.206,0.207c-0.711,0.062-1.431,0.123-2.154,0.185
	c-0.181,0.017-0.362,0.032-0.543,0.047c-0.181,0.022-0.361,0.044-0.542,0.065c-0.36,0.043-0.723,0.087-1.088,0.131
	c-0.365,0.042-0.732,0.087-1.1,0.132c-0.368,0.055-0.735,0.11-1.105,0.166c-0.369,0.052-0.738,0.119-1.109,0.184
	c-0.371,0.066-0.742,0.122-1.116,0.203c-0.373,0.075-0.747,0.15-1.122,0.227c-0.371,0.082-0.741,0.169-1.112,0.255
	c-0.753,0.171-1.498,0.371-2.246,0.588c-1.495,0.437-2.992,0.957-4.443,1.638c-1.449,0.678-2.86,1.515-4.105,2.595
	c-1.245,1.071-2.304,2.405-3.004,3.927c-0.353,0.758-0.618,1.556-0.799,2.375c-0.182,0.813-0.281,1.667-0.314,2.493
	c-0.063,1.678,0.156,3.377,0.607,5.019c0.449,1.645,1.119,3.233,1.909,4.764c0.792,1.53,1.704,3.006,2.656,4.458
	c0.477,0.728,0.965,1.447,1.453,2.17c0.491,0.72,0.972,1.446,1.475,2.168c1.309,1.923,2.648,3.798,4,5.64h0.985
	c-1.457-1.984-2.903-4.004-4.313-6.072c-0.498-0.718-0.983-1.447-1.474-2.167c-0.489-0.723-0.975-1.439-1.449-2.161
	c-0.946-1.438-1.845-2.891-2.621-4.385c-0.775-1.493-1.426-3.03-1.862-4.61c-0.437-1.578-0.65-3.198-0.595-4.798
	c0.032-0.812,0.121-1.587,0.289-2.361c0.168-0.77,0.413-1.521,0.739-2.231c0.649-1.422,1.63-2.672,2.805-3.696
	c1.174-1.026,2.524-1.837,3.926-2.504c1.402-0.667,2.864-1.188,4.331-1.625c0.732-0.217,1.471-0.421,2.206-0.592
	c0.37-0.088,0.742-0.179,1.109-0.263c0.368-0.076,0.734-0.153,1.1-0.229c0.364-0.082,0.734-0.139,1.1-0.208
	c0.366-0.066,0.731-0.134,1.096-0.188c0.367-0.057,0.73-0.114,1.093-0.172c0.364-0.046,0.728-0.093,1.088-0.139
	c0.365-0.045,0.727-0.092,1.087-0.139c0.181-0.023,0.361-0.045,0.541-0.068c0.179-0.018,0.358-0.035,0.537-0.052
	c0.716-0.066,1.425-0.132,2.129-0.199c1.415-0.091,2.808-0.199,4.18-0.238c2.743-0.122,5.402-0.102,7.962-0.15
	c0.64-0.018,1.272-0.029,1.899-0.052c0.315-0.014,0.627-0.027,0.937-0.041c0.156-0.007,0.311-0.014,0.464-0.02
	c0.155-0.012,0.31-0.021,0.463-0.032c0.613-0.043,1.221-0.077,1.818-0.145c0.3-0.03,0.598-0.06,0.894-0.09s0.585-0.066,0.877-0.101
	c1.167-0.139,2.306-0.313,3.398-0.579c0.545-0.132,1.079-0.288,1.594-0.483s1.012-0.429,1.453-0.751
	c0.221-0.161,0.423-0.348,0.592-0.565c0.083-0.11,0.154-0.228,0.216-0.352c0.058-0.126,0.101-0.257,0.13-0.392
	c0.024-0.135,0.033-0.271,0.029-0.406c-0.009-0.133-0.024-0.268-0.062-0.393c-0.013-0.065-0.035-0.127-0.055-0.188
	c-0.004-0.013-0.002-0.007-0.012-0.033l-0.009-0.021l-0.019-0.041l-0.037-0.083c-0.026-0.058-0.046-0.112-0.077-0.17l-0.104-0.172
	c-0.106-0.173-0.248-0.313-0.389-0.45h-0.406c0.033,0.026,0.071,0.045,0.104,0.073C70.646,40.088,70.685,40.133,70.724,40.173z"/>
<path fill="none" d="M42.094,46.178c0.179-0.018,0.358-0.035,0.537-0.052c0.716-0.066,1.425-0.132,2.129-0.199
	c1.415-0.091,2.808-0.199,4.18-0.238c2.743-0.122,5.402-0.102,7.962-0.15c0.64-0.018,1.272-0.029,1.899-0.052
	c0.315-0.014,0.627-0.027,0.937-0.041c0.156-0.007,0.311-0.014,0.464-0.02c0.155-0.012,0.31-0.021,0.463-0.032
	c0.613-0.043,1.221-0.077,1.818-0.145c0.3-0.03,0.598-0.06,0.894-0.09s0.585-0.066,0.877-0.101c1.167-0.139,2.306-0.313,3.398-0.579
	c0.357-0.086,0.709-0.19,1.055-0.301c-0.004-0.078-0.022-0.15-0.022-0.229c0-0.05,0.011-0.096,0.014-0.145
	c-0.372,0.119-0.742,0.238-1.133,0.329c-1.073,0.248-2.198,0.409-3.357,0.535c-0.29,0.031-0.583,0.063-0.878,0.091
	c-0.294,0.026-0.589,0.052-0.886,0.079c-0.594,0.063-1.197,0.089-1.806,0.125c-0.152,0.009-0.305,0.018-0.458,0.026
	c-0.153,0.006-0.307,0.011-0.463,0.017c-0.308,0.011-0.618,0.021-0.93,0.032c-0.624,0.018-1.256,0.022-1.894,0.033
	c-2.552,0.024-5.214-0.02-7.974,0.08c-1.38,0.028-2.781,0.125-4.206,0.207c-0.711,0.062-1.431,0.123-2.154,0.185
	c-0.181,0.017-0.362,0.032-0.543,0.047c-0.181,0.022-0.361,0.044-0.542,0.065c-0.076,0.009-0.153,0.019-0.23,0.029
	c-0.083,0.223-0.187,0.433-0.3,0.64c0.203-0.026,0.406-0.052,0.608-0.078C41.733,46.224,41.914,46.201,42.094,46.178z"/>
<path fill="none" d="M65.619,43.164h-4.813c-0.485,0-0.932-0.152-1.304-0.409c-0.35,0.625-0.924,1.097-1.605,1.339
	c0.5-0.015,0.985-0.031,1.445-0.05C62.53,43.911,64.469,43.655,65.619,43.164z"/>
<circle fill="none" cx="36.586" cy="43.949" r="1.003"/>
<path fill="none" d="M48.64,42.695c-0.385,0.29-0.857,0.469-1.374,0.469h-5.771c0.042,0.258,0.08,0.517,0.08,0.786
	c0,0.292-0.037,0.574-0.086,0.853c3.744-0.289,6.937-0.438,9.69-0.528C50.074,44.25,49.127,43.614,48.64,42.695z"/>
<path fill="none" d="M27.034,49.18c-1.449,0.678-2.86,1.515-4.105,2.595c-1.245,1.071-2.304,2.405-3.004,3.927
	c-0.353,0.758-0.618,1.556-0.799,2.375c-0.182,0.813-0.281,1.667-0.314,2.493c-0.063,1.678,0.156,3.377,0.607,5.019
	c0.449,1.645,1.119,3.233,1.909,4.764c0.792,1.53,1.704,3.006,2.656,4.458c0.477,0.728,0.965,1.447,1.453,2.17
	c0.491,0.72,0.972,1.446,1.475,2.168c1.309,1.923,2.648,3.798,4,5.64h0.985c-1.457-1.984-2.903-4.004-4.313-6.072
	c-0.498-0.718-0.983-1.447-1.474-2.167c-0.489-0.723-0.975-1.439-1.449-2.161c-0.946-1.438-1.845-2.891-2.621-4.385
	c-0.775-1.493-1.426-3.03-1.862-4.61c-0.437-1.578-0.65-3.198-0.595-4.798c0.032-0.812,0.121-1.587,0.289-2.361
	c0.168-0.77,0.413-1.521,0.739-2.231c0.649-1.422,1.63-2.672,2.805-3.696c1.174-1.026,2.524-1.837,3.926-2.504
	c1.402-0.667,2.864-1.188,4.331-1.625c0.561-0.167,1.125-0.311,1.689-0.454c-0.193-0.165-0.372-0.342-0.537-0.534
	c-0.45,0.115-0.9,0.223-1.349,0.353C29.982,47.979,28.485,48.499,27.034,49.18z"/>
<path fill="none" d="M75.521,22.89c-0.114-0.378-0.223-0.464-0.224-0.464l-4.702,0.009c-0.099,0-0.179,0.08-0.179,0.179v7.027
	c0,0.099,0.08,0.179,0.179,0.179h6.183c0.1,0,0.179-0.08,0.179-0.179l0.028-0.279c0-0.06-0.004-0.168-0.022-0.336
	C76.827,27.775,75.876,24.173,75.521,22.89z"/>
<path fill="none" d="M73.819,44.676c-0.188,0.066-0.377,0.118-0.566,0.178c0.128,0.059,0.269,0.098,0.419,0.098
	c0.393,0,0.726-0.232,0.89-0.562C74.313,44.493,74.064,44.59,73.819,44.676z"/>
<path fill="none" d="M65.803,32.374c-1.136,2.706-3.812,4.611-6.927,4.611h-0.074c0.283,0.234,0.521,0.516,0.7,0.839
	c0.372-0.256,0.819-0.409,1.304-0.409h4.997V32.374z"/>
<path fill="#FFFFFF" d="M42.017,45.59c0.182-0.015,0.362-0.03,0.543-0.047c0.724-0.062,1.443-0.123,2.154-0.185
	c1.425-0.082,2.826-0.178,4.206-0.207c2.76-0.1,5.422-0.055,7.974-0.08c0.638-0.011,1.27-0.016,1.894-0.033
	c0.312-0.011,0.622-0.021,0.93-0.032c0.156-0.005,0.31-0.01,0.463-0.017c0.153-0.008,0.306-0.017,0.458-0.026
	c0.608-0.036,1.212-0.063,1.806-0.125c0.297-0.027,0.592-0.052,0.886-0.079c0.295-0.028,0.588-0.061,0.878-0.091
	c1.159-0.125,2.284-0.287,3.357-0.535c0.391-0.091,0.761-0.21,1.133-0.329c0.011-0.217,0.032-0.431,0.065-0.641h-3.145
	c-1.15,0.491-3.089,0.747-6.277,0.881c-0.46,0.019-0.945,0.035-1.445,0.05c-0.305,0.108-0.624,0.185-0.968,0.185h-5.685
	c-0.022,0-0.044-0.004-0.066-0.005c-2.753,0.09-5.946,0.239-9.69,0.528c-0.053,0.305-0.137,0.598-0.243,0.882
	c0.077-0.01,0.155-0.02,0.23-0.029C41.656,45.635,41.836,45.612,42.017,45.59z"/>
<path fill="#FFFFFF" d="M67.652,44.479c-1.093,0.266-2.231,0.44-3.398,0.579c-0.292,0.034-0.581,0.07-0.877,0.101
	s-0.594,0.06-0.894,0.09c-0.598,0.068-1.205,0.101-1.818,0.145c-0.153,0.011-0.308,0.02-0.463,0.032
	c-0.153,0.006-0.308,0.012-0.464,0.02c-0.31,0.014-0.621,0.027-0.937,0.041c-0.627,0.023-1.26,0.035-1.899,0.052
	c-2.56,0.049-5.219,0.029-7.962,0.15c-1.372,0.04-2.766,0.147-4.18,0.238c-0.705,0.067-1.413,0.133-2.129,0.199
	c-0.179,0.017-0.358,0.034-0.537,0.052c-0.18,0.023-0.36,0.045-0.541,0.068c-0.202,0.026-0.405,0.052-0.608,0.078
	c-0.361,0.658-0.853,1.23-1.459,1.666c0.497-0.095,0.986-0.192,1.517-0.278c4.329-0.697,9.756-1.076,16.596-1.161
	c4.582-0.056,8.408-0.319,11.442-0.775c-0.196-0.499-0.308-1.037-0.334-1.597C68.361,44.29,68.01,44.393,67.652,44.479z"/>
<path fill="#FFFFFF" d="M31.674,47.818c-1.467,0.371-2.928,0.813-4.331,1.38c-1.401,0.567-2.751,1.255-3.926,2.127
	c-1.174,0.87-2.156,1.934-2.805,3.142c-0.326,0.604-0.571,1.241-0.739,1.896c-0.168,0.657-0.257,1.317-0.289,2.007
	c-0.055,1.359,0.159,2.735,0.595,4.076c0.436,1.342,1.086,2.648,1.862,3.917c0.776,1.271,1.675,2.504,2.621,3.729
	c0.474,0.611,0.96,1.222,1.449,1.834c0.491,0.612,0.977,1.231,1.474,1.843c1.41,1.758,2.855,3.474,4.313,5.159h-0.985
	c-1.351-1.565-2.691-3.158-4-4.791c-0.503-0.614-0.984-1.231-1.475-1.844c-0.488-0.613-0.977-1.226-1.453-1.843
	c-0.953-1.235-1.865-2.489-2.656-3.788c-0.791-1.302-1.46-2.65-1.909-4.048c-0.451-1.396-0.67-2.84-0.607-4.266
	c0.033-0.702,0.132-1.426,0.314-2.118c0.181-0.696,0.446-1.375,0.799-2.019c0.7-1.293,1.759-2.427,3.004-3.338
	c1.245-0.917,2.656-1.627,4.105-2.204c1.451-0.578,2.948-1.021,4.443-1.391c0.449-0.111,0.899-0.203,1.349-0.3
	c-0.359-0.354-0.659-0.75-0.865-1.19c-8.43,1.044-14.472,2.991-18.46,5.521c-3.507,2.226-5.458,5.004-6.332,9.016
	c-0.615,2.828,0.283,6.327,1.823,10.412c1.117,2.958,3.072,5.844,4.554,8.222h38.917c-2.931-2.082-6.678-5.026-10.899-8.222
	c-8.404-6.357-12.623-11.251-13.685-14.314c-0.601-1.729-0.301-3.278,0.89-4.604c1.298-1.444,3.643-2.57,7.056-3.419
	c-0.934-0.124-1.774-0.465-2.461-0.966C32.799,47.553,32.234,47.675,31.674,47.818z"/>
<circle fill="none" cx="36.586" cy="43.949" r="2.037"/>
<circle fill="none" cx="73.672" cy="43.949" r="2.037"/>
<path fill="none" d="M71.134,32.19H69.17c-0.305,0-0.551,0.247-0.551,0.551c0,0.304,0.246,0.551,0.551,0.551h1.964
	c0.305,0,0.551-0.248,0.551-0.551C71.685,32.437,71.438,32.19,71.134,32.19z"/>
<path fill="none" d="M76.517,22.614c-0.2-0.668-0.542-1.213-1.212-1.213h-4.71c-0.669,0-1.212,0.543-1.212,1.213v7.027
	c0,0.669,0.543,1.213,1.212,1.213h6.183c0.671,0,1.213-0.543,1.213-1.213c0,0,0.063-0.144,0-0.726
	C77.816,27.307,76.517,22.614,76.517,22.614z"/>
<path fill="#FFFFFF" d="M73.672,39.997c-2.183,0-3.954,1.77-3.954,3.953c0,2.183,1.771,3.953,3.954,3.953
	c2.184,0,3.953-1.771,3.953-3.953C77.625,41.767,75.855,39.997,73.672,39.997z M73.672,45.986c-1.125,0-2.037-0.912-2.037-2.037
	c0-1.125,0.912-2.038,2.037-2.038c1.123,0,2.037,0.913,2.037,2.038C75.709,45.074,74.795,45.986,73.672,45.986z"/>
<path fill="#FFFFFF" d="M36.586,39.997c-2.183,0-3.953,1.77-3.953,3.953c0,2.183,1.77,3.953,3.953,3.953s3.954-1.771,3.954-3.953
	C40.54,41.767,38.769,39.997,36.586,39.997z M36.586,45.986c-1.124,0-2.038-0.912-2.038-2.037c0-1.125,0.914-2.038,2.038-2.038
	c1.125,0,2.038,0.913,2.038,2.038C38.624,45.074,37.71,45.986,36.586,45.986z"/>
<path fill="#FFFFFF" d="M56.929,37.332h-5.685c-1.064,0-1.927,0.863-1.927,1.928v2.057c0,1.066,0.863,1.928,1.927,1.928h5.685
	c1.064,0,1.928-0.862,1.928-1.928V39.26C58.856,38.195,57.993,37.332,56.929,37.332z"/>
<path fill="#FFFFFF" d="M65.35,29.479c0-3.575-2.897-6.473-6.474-6.473h-8.568v-0.702h1.08c0.568,0,1.03-0.463,1.03-1.032
	s-0.462-1.031-1.03-1.031H42.81c-0.569,0-1.031,0.461-1.031,1.031s0.461,1.032,1.031,1.032h1.08v0.702H35.32
	c-3.575,0-6.473,2.897-6.473,6.473c0,3.574,2.898,6.471,6.473,6.471h23.556C62.452,35.951,65.35,33.053,65.35,29.479z
	 M47.613,32.968c-1.578,0-2.862-1.284-2.862-2.863c0-0.653,0.463-1.609,1.375-2.84c0.668-0.902,1.347-1.631,1.353-1.638
	c0.036-0.038,0.083-0.059,0.134-0.059s0.099,0.021,0.134,0.059c0.006,0.007,0.685,0.736,1.353,1.638
	c0.913,1.231,1.376,2.187,1.376,2.84C50.475,31.684,49.191,32.968,47.613,32.968z"/>
<path fill="#FFFFFF" d="M45.899,29.402c0-0.037,0.002-0.078,0.007-0.121c0.006-0.05-0.025-0.097-0.073-0.112
	c-0.049-0.014-0.101,0.008-0.123,0.054c-0.222,0.449-0.27,0.723-0.27,0.876c0,1.1,0.896,1.997,1.998,1.997
	c0.155,0,0.309-0.018,0.459-0.053c0.048-0.012,0.081-0.054,0.08-0.103c0-0.048-0.035-0.09-0.083-0.1
	C46.738,31.607,45.899,30.583,45.899,29.402z"/>
<path fill="#FFFFFF" d="M80.521,31.541c-0.277-2.558-2.343-10.021-2.343-10.021c-0.318-1.062-0.863-1.928-1.927-1.928h-7.488
	c-1.065,0-1.928,0.862-1.928,1.928v16.928h-6.03c-0.696,0-1.263,0.565-1.263,1.261v1.159c0,0.695,0.566,1.261,1.263,1.261h3.276
	h4.682h0.03h0.197h0.136c0.785-1.747,2.535-2.966,4.574-2.966c2.038,0,3.79,1.219,4.574,2.966h0.318
	c1.065,0,1.928-0.863,1.928-1.928C80.521,40.203,80.622,32.465,80.521,31.541z M71.134,33.292H69.17
	c-0.305,0-0.551-0.248-0.551-0.551c0-0.305,0.246-0.551,0.551-0.551h1.964c0.305,0,0.551,0.247,0.551,0.551
	C71.685,33.045,71.438,33.292,71.134,33.292z M77.99,29.641c0,0.669-0.542,1.213-1.213,1.213h-6.183
	c-0.669,0-1.212-0.543-1.212-1.213v-7.027c0-0.669,0.543-1.213,1.212-1.213h4.71c0.67,0,1.012,0.544,1.212,1.213
	c0,0,1.3,4.692,1.474,6.301C78.053,29.497,77.99,29.641,77.99,29.641z"/>
<path fill="#FFFFFF" d="M47.266,38.449H29.018c-0.695,0-1.261,0.565-1.261,1.261v1.159c0,0.695,0.565,1.261,1.261,1.261h2.997
	c0.784-1.747,2.535-2.966,4.574-2.966c2.039,0,3.79,1.219,4.574,2.966h6.103c0.696,0,1.261-0.566,1.261-1.261V39.71
	C48.527,39.014,47.962,38.449,47.266,38.449z"/>
</svg>
