<?xml version="1.0" encoding="utf-8"?>
<!-- Generator: Adobe Illustrator 16.0.0, SVG Export Plug-In . SVG Version: 6.00 Build 0)  -->
<!DOCTYPE svg PUBLIC "-//W3C//DTD SVG 1.1//EN" "http://www.w3.org/Graphics/SVG/1.1/DTD/svg11.dtd">
<svg version="1.1" id="Capa_1" xmlns="http://www.w3.org/2000/svg" xmlns:xlink="http://www.w3.org/1999/xlink" x="0px" y="0px"
	 width="100px" height="100px" viewBox="0 0 100 100" enable-background="new 0 0 100 100" xml:space="preserve">
<path fill="#1E2226" d="M100,87.5c0,6.903-5.597,12.5-12.5,12.5h-75C5.597,100,0,94.403,0,87.5v-75C0,5.597,5.597,0,12.5,0h75
	C94.403,0,100,5.597,100,12.5V87.5z"/>
<g>
	<defs>
		<path id="SVGID_1_" d="M100,87.5c0,6.903-5.597,12.5-12.5,12.5h-75C5.597,100,0,94.403,0,87.5v-75C0,5.597,5.597,0,12.5,0h75
			C94.403,0,100,5.597,100,12.5V87.5z"/>
	</defs>
	<clipPath id="SVGID_2_">
		<use xlink:href="#SVGID_1_"  overflow="visible"/>
	</clipPath>
	<path clip-path="url(#SVGID_2_)" fill-rule="evenodd" clip-rule="evenodd" fill="#822424" d="M1.129,84.505
		c0,0-1.129-0.521,7.813,1.215c8.714,1.691,11.371-4.514,19.011-2.69c7.639,1.823,7.117,2.257,13.281,3.125
		c6.163,0.867,6.857,1.824,12.586,1.216c5.729-0.608,6.598-0.868,10.504-2.084c3.906-1.215,5.644-1.041,8.072-1.563
		c2.432-0.521,3.213-0.868,6.338-0.868s2.17,3.386,10.938,3.212c8.767-0.174,10.59-1.649,12.152-2.171
		c1.563-0.521,1.736,0.955,1.736,1.303s-6.597,20.833-19.357,20.833s-63.716-2.994-78.212-5.251
		C-24.721,95.999,1.047,84.624,1.129,84.505z"/>
	<path clip-path="url(#SVGID_2_)" fill-rule="evenodd" clip-rule="evenodd" fill="#FFFFFD" d="M92.31,88.084
		c-5.568,0.441-10.262-4.07-15.977-3.811c-3.735,0.171-7.564,1.758-12.781,3.238c-1.87,0.53-7.754,2.437-14.192,2.332
		c-6.053-0.1-12.675-2.173-14.567-2.74c-4.517-1.352-7.987-2.678-11.379-2.83c-5.713-0.26-10.407,4.252-15.975,3.811
		c-7.286-0.574-7.624-4.982-7.624-4.982c12.897,3.664,10.331-4.619,22.866-4.692c12.249-0.07,13.583,5.513,27.194,5.843
		c13.609-0.33,14.943-5.913,27.193-5.843c12.53,0.073,9.965,8.356,22.865,4.692C99.933,83.102,99.589,87.51,92.31,88.084z"/>
</g>
<path fill="#FFFFFF" d="M48.108,32.062c0.17,0,0.339-0.019,0.503-0.058c0.051-0.012,0.087-0.059,0.086-0.113
	c-0.001-0.053-0.039-0.098-0.09-0.108c-1.267-0.254-2.186-1.376-2.186-2.668c0-0.041,0.003-0.085,0.009-0.132
	c0.006-0.055-0.028-0.107-0.081-0.122s-0.11,0.009-0.134,0.058c-0.243,0.49-0.294,0.792-0.294,0.957
	C45.922,31.081,46.901,32.062,48.108,32.062z"/>
<path fill="#FFFFFF" d="M48.437,35.289c2.747,0,5.489,0.665,7.934,1.923l4.198,2.161l-2.231-12.895
	c-0.118-0.689-0.718-1.193-1.418-1.193h-4.552v-2.163h2.226c1.123,0,2.034-0.911,2.034-2.034c0-1.125-0.911-2.034-2.034-2.034
	h-2.226v-0.216c0-0.795-0.643-1.438-1.438-1.438h-5.261c-0.795,0-1.438,0.643-1.438,1.438v0.216h-2.226
	c-1.124,0-2.035,0.909-2.035,2.034c0,1.123,0.911,2.034,2.035,2.034h2.226v2.163h-4.552c-0.7,0-1.299,0.502-1.418,1.193
	l-2.25,13.012l4.591-2.328C43.015,35.937,45.725,35.289,48.437,35.289z M46.67,26.775c0.732-0.988,1.474-1.786,1.481-1.793
	c0.038-0.041,0.09-0.063,0.146-0.063c0.055,0,0.109,0.022,0.146,0.063c0.007,0.007,0.749,0.806,1.48,1.793
	c1,1.347,1.507,2.394,1.507,3.109c0,1.729-1.406,3.133-3.133,3.133c-1.728,0-3.133-1.405-3.133-3.133
	C45.165,29.168,45.671,28.122,46.67,26.775z"/>
<path fill="#FFFFFF" d="M71.395,49.237l-16.771-8.636c-1.405-0.723-2.906-1.176-4.434-1.375l-1.336,23.827
	c-0.02,0.351-0.319,0.62-0.671,0.6c-0.328-0.019-0.583-0.279-0.6-0.6l-1.333-23.749c-1.348,0.222-2.674,0.625-3.925,1.26
	L25.21,49.241c-0.664,0.336-0.962,1.126-0.686,1.817L34.922,77.05c0.334,0.839,1.148,1.39,2.053,1.39H59.62
	c0.904,0,1.718-0.551,2.053-1.39l10.398-25.999C72.348,50.362,72.054,49.578,71.395,49.237z"/>
</svg>
