<svg xmlns="http://www.w3.org/2000/svg" viewBox="0 0 200 200">
  <g fill="#1F75FE">
    <circle cx="100" cy="100" r="100" fill="#fff"/>
    <circle cx="100" cy="100" r="95"/>
    <circle cx="100" cy="100" r="90" fill="#fff"/>
    <circle cx="100" cy="100" r="87"/>
  </g>
  <path fill="#fff" d="M114.605 39.133c-5.14 0-9.307 4.167-9.307 9.307 0 5.14 4.167 9.307 9.307 9.307 5.14 0 9.307-4.167 9.307-9.307 0-5.14-4.167-9.307-9.307-9.307zM103.22 63.106c-6.1.304-12.586 3.594-18.03 8.227l-.583 7.063c5.145-2.234 10.427-2.245 12.008 3.075 3.848 12.943-9.362 35.627-12.963 47.49-9.77 32.19 13.684 35.91 30.413 22.645l.665-7.644c-9.102 3.16-15.607-.716-10.346-17.533 2.535-8.112 23.754-48.99 9.1-60.245-3.07-2.356-6.603-3.256-10.263-3.074z" overflow="visible" color="#000"/>
</svg>