<svg xmlns="http://www.w3.org/2000/svg" viewBox="0 0 200 200">
  <g fill="#4BB543">
    <circle cx="100" cy="100" r="100" fill="#fff"/>
    <circle cx="100" cy="100" r="95"/>
    <circle cx="100" cy="100" r="90" fill="#fff"/>
    <circle cx="100" cy="100" r="87"/>
  </g>
  <path fill="#fff" d="M150.003 52.712c-1.95-1.952-5.15-1.952-7.102 0l-62.994 63c-1.952 1.952-5.15 1.952-7.103 0l-15.516-15.515c-1.952-1.952-5.15-1.952-7.102 0l-9.516 9.52c-1.953 1.953-1.953 5.152 0 7.104l32.133 32.13c1.952 1.95 5.15 1.95 7.103 0l79.614-79.62c1.952-1.952 1.952-5.15 0-7.102z"/>
</svg>