<svg xmlns="http://www.w3.org/2000/svg" viewBox="0 0 200 200">
  <g fill="#F8CA00">
    <circle cx="100" cy="100" r="100" fill="#fff"/>
    <circle cx="100" cy="100" r="95"/>
    <circle cx="100" cy="100" r="90" fill="#fff"/>
    <circle cx="100" cy="100" r="87"/>
  </g>
  <path fill="#fff" d="M102.506 40.44c-7.136 0-12.922 5.786-12.922 12.923l2.585 51.687c0 5.71 4.626 10.338 10.335 10.338 5.71 0 10.338-4.63 10.338-10.338l2.584-51.687c0-7.137-5.785-12.922-12.922-12.922zm0 87.87c-8.564 0-15.506 6.94-15.506 15.505 0 8.563 6.942 15.506 15.506 15.506s15.507-6.942 15.507-15.505c0-8.564-6.943-15.507-15.507-15.507z" overflow="visible" style="text-indent:0;text-transform:none" color="#000"/>
</svg>