<?xml version="1.0" encoding="utf-8"?>
<!-- Generator: Adobe Illustrator 16.0.0, SVG Export Plug-In . SVG Version: 6.00 Build 0)  -->
<!DOCTYPE svg PUBLIC "-//W3C//DTD SVG 1.1//EN" "http://www.w3.org/Graphics/SVG/1.1/DTD/svg11.dtd">
<svg version="1.1" id="Capa_1" xmlns="http://www.w3.org/2000/svg" xmlns:xlink="http://www.w3.org/1999/xlink" x="0px" y="0px"
	 width="100px" height="100px" viewBox="0 0 100 100" enable-background="new 0 0 100 100" xml:space="preserve">
<path fill="#CDCED3" d="M87.525,0.305h-75.05c-6.908,0-12.508,5.601-12.508,12.508v68.795v3.127v3.128
	c0,6.907,5.601,12.508,12.508,12.508h75.05c6.907,0,12.508-5.601,12.508-12.508v-3.052v-0.076v-3.127V12.813
	C100.033,5.905,94.433,0.305,87.525,0.305z"/>
<path fill="#822424" d="M12.475,100.371h75.05c6.907,0,12.508-5.601,12.508-12.508v-3.052l-0.045-0.076H-0.033v3.128
	C-0.033,94.771,5.567,100.371,12.475,100.371z"/>
<rect x="-0.033" y="81.608" fill="#FFFFFF" width="100.066" height="3.127"/>
<g>
	<polygon fill="#822424" points="31.734,73.157 79.986,73.157 39.074,62.58 	"/>
	<path fill="#822424" d="M62.68,24.054c-3.228-4.662-6.424-6.87-9.361-7.638l11.224,40.378l1.565,2.227H41.555l-0.977,1.406
		l49.243,12.73h6.486L62.68,24.054z"/>
	<path fill="#822424" d="M48.903,34.416L60.302,50.73l-9.628-34.634c-6.411,0.07-11.051,6.323-11.051,6.323L3.31,73.157l0.965-0.004
		l1.352-1.152l42.576-37.02L48.903,34.416z"/>
	<polygon fill="#822424" points="45.049,40.985 8.086,73.125 23.996,73.009 	"/>
</g>
</svg>
