<?xml version="1.0" encoding="utf-8"?>
<!-- Generator: Adobe Illustrator 16.0.0, SVG Export Plug-In . SVG Version: 6.00 Build 0)  -->
<!DOCTYPE svg PUBLIC "-//W3C//DTD SVG 1.1//EN" "http://www.w3.org/Graphics/SVG/1.1/DTD/svg11.dtd">
<svg version="1.1" id="Capa_1" xmlns="http://www.w3.org/2000/svg" xmlns:xlink="http://www.w3.org/1999/xlink" x="0px" y="0px"
	 width="100px" height="100px" viewBox="0 0 100 100" enable-background="new 0 0 100 100" xml:space="preserve">
<path fill="#143D48" d="M87.5,0h-75C5.597,0,0,5.597,0,12.5v68.75v3.125V87.5C0,94.403,5.597,100,12.5,100h75
	c6.903,0,12.5-5.597,12.5-12.5v-3.05v-0.075V81.25V12.5C100,5.597,94.403,0,87.5,0z"/>
<rect y="81.25" fill="#FFFFFF" width="100" height="3.125"/>
<path fill="#014C5D" d="M12.5,100h75c6.903,0,12.5-5.597,12.5-12.5v-3.05l-0.045-0.075H0V87.5C0,94.403,5.597,100,12.5,100z"/>
<g>
	<path fill="#FFFFFD" d="M65.049,76.633L57.31,22.057h1.307v-2.815H41.823v2.815h1.306l-7.737,54.576H65.049z M41.233,73.819
		l8.986-4.684l8.986,4.684H41.233z M56.575,45.347H43.862l6.358-6.432L56.575,45.347z M45.866,32.508h8.708l-4.354,4.405
		L45.866,32.508z M56.154,48.161l-5.935,4.591l-5.935-4.591H56.154z M58.584,61H41.856l8.364-6.469L58.584,61z M57.39,63.813
		l-7.17,3.735l-7.167-3.735H57.39z M61.771,73.568l-10.03-5.227l8.651-4.507L61.771,73.568z M59.88,60.224l-8.511-6.583l6.828-5.281
		L59.88,60.224z M57.64,44.42l-6.432-6.507l4.818-4.873L57.64,44.42z M45.972,22.057h8.496l1.082,7.636H44.889L45.972,22.057z
		 M44.415,33.041l4.816,4.873l-6.429,6.507L44.415,33.041z M42.242,48.359l6.828,5.281l-8.51,6.583L42.242,48.359z M48.698,68.342
		l-10.03,5.227l1.379-9.733L48.698,68.342z"/>
	<path fill="#FFFFFD" d="M51.688,16.823c0,0,3.587,0.456,5.46-1.416c1.118-1.118,1.015-2.826-0.102-3.945
		c-1.117-1.116-2.827-1.217-3.944-0.1C51.23,13.234,51.688,16.823,51.688,16.823z"/>
	<path fill="#FFFFFD" d="M57.882,7.452c0.654-0.653,0.594-1.654-0.06-2.308c-0.653-0.653-1.653-0.713-2.307-0.059
		c-1.097,1.095-0.829,3.196-0.829,3.196S56.787,8.548,57.882,7.452z"/>
	<path fill="#FFFFFD" d="M50.22,11.362c0,0,2.543-1.97,2.543-4.322c0-1.404-1.14-2.416-2.543-2.416
		c-1.404,0-2.543,1.012-2.543,2.416C47.677,9.392,50.22,11.362,50.22,11.362z"/>
	<path fill="#FFFFFD" d="M45.753,8.281c0,0,0.267-2.101-0.829-3.196c-0.653-0.654-1.653-0.594-2.307,0.059
		c-0.653,0.654-0.713,1.655-0.059,2.308C43.652,8.548,45.753,8.281,45.753,8.281z"/>
	<path fill="#FFFFFD" d="M43.393,11.462c-1.117,1.119-1.218,2.827-0.101,3.945c1.872,1.872,5.461,1.416,5.461,1.416
		s0.456-3.589-1.416-5.46C46.22,10.246,44.51,10.347,43.393,11.462z"/>
</g>
</svg>
