<?xml version="1.0" encoding="utf-8"?>
<!-- Generator: Adobe Illustrator 16.0.0, SVG Export Plug-In . SVG Version: 6.00 Build 0)  -->
<!DOCTYPE svg PUBLIC "-//W3C//DTD SVG 1.1//EN" "http://www.w3.org/Graphics/SVG/1.1/DTD/svg11.dtd">
<svg version="1.1" id="Capa_1" xmlns="http://www.w3.org/2000/svg" xmlns:xlink="http://www.w3.org/1999/xlink" x="0px" y="0px"
	 width="100px" height="100px" viewBox="0 0 100 100" enable-background="new 0 0 100 100" xml:space="preserve">
<path fill="#3A1B13" d="M87.791,0h-75.25C5.616,0,0,5.616,0,12.542v68.979v3.136v3.135c0,6.927,5.616,12.542,12.542,12.542h75.25
	c6.927,0,12.542-5.615,12.542-12.542v-3.06v-0.075v-3.136V12.542C100.333,5.616,94.718,0,87.791,0z"/>
<path fill="#A44C29" d="M12.542,100.333h75.25c6.927,0,12.542-5.615,12.542-12.542v-3.06l-0.045-0.075H0v3.135
	C0,94.718,5.616,100.333,12.542,100.333z"/>
<g>
	<rect y="81.521" fill="#FFFFFD" width="100.333" height="3.136"/>
	<path fill="#FFFFFD" d="M29.192,79.169V54.266h0.006h2.552v24.903h3.191V54.266h1.65v16.926c0,0.883,0.715,1.597,1.594,1.597h6.136
		h0.01v6.381v0.065h12.435v-0.065l-0.069-28.634c-0.089-0.457-0.273-0.879-0.528-1.25c-0.007-0.01-0.015-0.021-0.021-0.032
		c-0.12-0.171-0.259-0.329-0.409-0.473c-0.025-0.024-0.051-0.047-0.077-0.07c-0.153-0.139-0.316-0.267-0.495-0.375
		c1.119-0.329,1.938-1.362,1.938-2.589c0-1.492-1.21-2.703-2.702-2.703H52.23v-2.516h-3.36v2.516h-2.174
		c-1.492,0-2.701,1.209-2.701,2.703c0,1.227,0.819,2.261,1.938,2.589c-0.958,0.582-1.601,1.634-1.601,2.834v18.427h-0.014h-4.536
		V52.668c0-0.881-0.715-1.595-1.594-1.595h-3.246V33.751c0-3.169-2.576-5.748-5.745-5.751c-0.002,0-0.004,0-0.006,0v-0.249
		c0-4.668-3.785-8.455-8.453-8.455c-4.669,0-8.455,3.787-8.455,8.455v51.418V79.3h16.908V79.169z M29.192,31.193
		c0.002,0,0.004,0.001,0.006,0.001c1.407,0.003,2.552,1.148,2.552,2.558v17.322h-2.552h-0.006V31.193z"/>
	<rect x="29.264" y="34.489" fill="#FFFFFD" width="1.764" height="3.136"/>
	<path fill="#FFFFFD" d="M59.572,39.192v12.542c0,1.324,0.513,2.505,1.348,3.352v-2.82c0-2.125,0.663-4.096,1.788-5.724v-7.35
		c0-2.549-2.198-4.703-4.801-4.703H35.6v3.136h22.307C58.795,37.625,59.572,38.358,59.572,39.192z"/>
	<path fill="#FFFFFD" d="M61.442,69.597H56.96v3.191h4.482v6.381h3.192v-6.381h3.212h0.006v6.381v0.065H91.58v-0.065V65.82h-3.299
		v-4.917c0-4.323-3.205-7.898-7.367-8.48v-0.157c0-5.28-4.295-9.576-9.575-9.576h-0.318c-5.281,0-9.578,4.296-9.578,9.576V69.597z
		 M64.635,52.266c0-3.52,2.864-6.385,6.386-6.385h0.318c3.519,0,6.383,2.865,6.383,6.385v0.308
		c-0.686,0.163-1.337,0.411-1.948,0.729H65.157v3.136h7.257c-0.797,1.301-1.264,2.828-1.264,4.466v4.917h-3.298v3.776h-0.006h-3.212
		V52.266z"/>
</g>
</svg>
