<?xml version="1.0" encoding="utf-8"?>
<!-- Generator: Adobe Illustrator 16.0.0, SVG Export Plug-In . SVG Version: 6.00 Build 0)  -->
<!DOCTYPE svg PUBLIC "-//W3C//DTD SVG 1.1//EN" "http://www.w3.org/Graphics/SVG/1.1/DTD/svg11.dtd">
<svg version="1.1" id="Capa_1" xmlns="http://www.w3.org/2000/svg" xmlns:xlink="http://www.w3.org/1999/xlink" x="0px" y="0px"
	 width="100px" height="100px" viewBox="0 0 100 100" enable-background="new 0 0 100 100" xml:space="preserve">
<path fill="#143D48" d="M87.852,0.098H13.039C6.153,0.098,0.57,5.681,0.57,12.566v68.578v3.117v3.117
	c0,6.886,5.583,12.469,12.469,12.469h74.813c6.886,0,12.469-5.583,12.469-12.469v-3.042v-0.075v-3.117V12.566
	C100.32,5.681,94.737,0.098,87.852,0.098z"/>
<path fill="#014C5D" d="M83.98,76.325c-3.332,0.152-6.688,1.203-10.575,2.419c-1.507,0.473-3.067,0.96-4.79,1.45
	c-0.193,0.055-0.416,0.12-0.674,0.195c-2.646,0.774-8.954,2.622-15.728,2.51c-6.68-0.109-14.113-2.353-16.557-3.089l-0.31-0.095
	c-1.145-0.343-2.269-0.694-3.181-0.98c-3.876-1.213-7.224-2.261-10.549-2.41c-0.207-0.008-0.413-0.015-0.618-0.015
	c-3.351,0-6.364,1.215-9.281,2.39c-2.756,1.11-5.36,2.158-8.099,2.158c-0.274,0-0.549-0.013-0.82-0.032
	c-0.835-0.066-1.562-0.185-2.229-0.329v0.647v3.117v3.117c0,6.886,5.583,12.469,12.469,12.469h74.813
	c6.886,0,12.469-5.583,12.469-12.469v-3.042v-0.075v-3.117v-0.418c-2.147-0.308-4.246-1.143-6.44-2.026
	C90.792,77.455,87.599,76.163,83.98,76.325z"/>
<path fill="#FFFFFF" d="M20.479,50.121L20.072,40.12c0,0-0.489-0.488-0.894-0.081l0.326,10.165l-1.411-0.055l0.027-11.574h2.195
	c0,0,1.139-0.366,1.139,1.952s0.407,9.636,0.407,9.636L20.479,50.121z"/>
<path fill="#FFFFFF" d="M76.313,50.121L75.906,40.12c0,0-0.488-0.488-0.893-0.081l0.324,10.165l-1.409-0.055l0.027-11.574h2.195
	c0,0,1.139-0.366,1.139,1.952s0.407,9.636,0.407,9.636L76.313,50.121z"/>
<g>
	<rect x="21.29" y="43.982" transform="matrix(1 0.0032 -0.0032 1 0.14 -0.1082)" fill="#FFFFFF" width="26.144" height="0.65"/>
</g>
<g>
	<rect x="21.29" y="47.483" transform="matrix(1 0.0032 -0.0032 1 0.1511 -0.1082)" fill="#FFFFFF" width="26.144" height="0.649"/>
</g>
<g>
	<polygon fill="#FFFFFF" points="74.321,44.673 66.885,44.59 66.886,43.94 74.321,44.022 	"/>
</g>
<g>
	<polygon fill="#FFFFFF" points="74.321,48.173 66.885,48.091 66.886,47.441 74.321,47.522 	"/>
</g>
<g>
	<polygon fill="#FFFFFF" points="61.854,44.673 52.019,44.59 52.02,43.94 61.854,44.022 	"/>
</g>
<g>
	<polygon fill="#FFFFFF" points="61.854,48.173 52.019,48.091 52.02,47.441 61.854,47.522 	"/>
</g>
<polygon fill="#FFFFFF" points="11.954,55.058 11.954,55.059 11.954,55.058 "/>
<polygon fill="#FFFFFF" points="11.957,68.066 11.957,68.066 11.957,68.066 "/>
<rect x="11.957" y="68.01" fill="#FFFFFF" width="0" height="0.057"/>
<path fill="none" d="M63.174,50.328l-0.981-12.685c0,0-0.65-1.059-1.707-1.384l-8.294-0.082c0,0-2.114,0.163-2.033,2.035
	c0.065,1.489,0.748,8.865,1.025,11.8h0.219v27.11c0.195,0.01,0.375,0.025,0.575,0.034c0.286,0.011,0.565,0.024,0.861,0.031
	c4.056-0.1,7.177-0.602,9.821-1.291c0.2-0.052,0.378-0.113,0.573-0.168v-25.4H63.174z"/>
<path fill="#FFFFFF" d="M7.917,81.205c1.183,0.997,2.709,1.601,4.377,1.601c3.233,0,5.935-2.261,6.622-5.285
	c-2.368,0.362-4.617,1.26-6.807,2.143C10.689,80.235,9.309,80.79,7.917,81.205z"/>
<path fill="#FFFFFF" d="M99.68,77.275c-1.093-0.525-2.066-1.166-3.009-1.787c-0.434-0.283-0.883-0.579-1.354-0.87
	c-2.302-1.421-5.158-2.74-10.422-2.771h-0.263c-6.774,0-10.591,1.529-14.632,3.148c-4.357,1.744-8.86,3.548-17.169,3.75h-0.016
	h-0.014c-8.344-0.202-12.848-2.006-17.204-3.75c-4.042-1.619-7.859-3.148-14.633-3.148h-0.263
	c-6.304,0.036-9.211,1.951-11.779,3.641c-2.306,1.521-4.493,2.948-8.353,2.993v2.016c0.667,0.145,1.394,0.263,2.229,0.329
	c0.271,0.02,0.546,0.032,0.82,0.032c2.739,0,5.343-1.048,8.099-2.158c2.917-1.175,5.93-2.39,9.281-2.39
	c0.205,0,0.411,0.007,0.618,0.015c3.325,0.149,6.673,1.197,10.549,2.41c0.912,0.286,2.036,0.638,3.181,0.98l0.31,0.095
	c2.444,0.736,9.877,2.979,16.557,3.089c6.773,0.112,13.081-1.735,15.728-2.51c0.258-0.075,0.48-0.141,0.674-0.195
	c1.723-0.49,3.283-0.978,4.79-1.45c3.887-1.216,7.243-2.267,10.575-2.419c3.618-0.162,6.812,1.13,9.899,2.375
	c2.194,0.884,4.293,1.719,6.44,2.026v-3.188C100.106,77.451,99.893,77.377,99.68,77.275z"/>
<path fill="none" d="M42.946,57.346l-11.038,0.056v-1.388l-17.276-3.596v1.008v2.449c0,0.491-0.134,0.963-0.377,1.37
	c0.201,0.336,0.306,0.721,0.343,1.118l0.034-0.046v0.296v1.321c6.509-0.343,16.593-0.592,28.314-0.671V57.346z"/>
<path fill="#FFFFFF" d="M9.287,60.319c-1.563,0.166-2.42,0.341-2.42,0.525c0,0.183,0.858,0.361,2.42,0.523v-0.304V60.319z"/>
<path fill="#FFFFFF" d="M9.287,67.25v-2.449c0-0.362,0.076-0.721,0.221-1.053c-0.112-0.253-0.168-0.525-0.195-0.801l-0.026,0.035
	v-0.284v-0.411c-1.563-0.195-2.42-0.402-2.42-0.619v8.729c0.695-0.673,1.503-1.237,2.42-1.619V67.25z"/>
<path fill="#FFFFFF" d="M9.313,62.947c-0.008-0.083-0.026-0.165-0.026-0.249v0.284L9.313,62.947z"/>
<g>
	<path fill="#FFFFFF" d="M11.142,52.371v-0.579c0-0.451,0.368-0.818,0.816-0.818c0.452,0,0.818,0.367,0.818,0.818v1.634
		c0,0.449-0.366,0.816-0.818,0.816c-0.141,0-0.27-0.039-0.388-0.103c-0.009,0.034-0.02,0.065-0.02,0.103v0.76
		c0.131,0.033,0.267,0.058,0.408,0.057c0.904,0.001,1.635-0.732,1.635-1.633v-1.634c0-0.902-0.731-1.634-1.635-1.634
		c-0.9,0-1.632,0.732-1.632,1.634v1.239C10.537,52.746,10.816,52.516,11.142,52.371z"/>
	<path fill="#FFFFFF" d="M11.142,59.195v-0.582c0-0.451,0.368-0.815,0.816-0.815c0.452,0,0.818,0.364,0.818,0.815v1.634
		c0,0.45-0.366,0.817-0.818,0.817c-0.141,0-0.27-0.039-0.388-0.103c-0.009,0.034-0.02,0.065-0.02,0.103v0.76
		c0.131,0.033,0.267,0.057,0.408,0.057c0.904,0,1.635-0.73,1.635-1.634v-1.634c0-0.573-0.298-1.077-0.746-1.369
		c0.448-0.291,0.746-0.794,0.746-1.369v-1.236c-0.211,0.284-0.489,0.512-0.817,0.657v0.579c0,0.451-0.366,0.816-0.818,0.816
		c-0.448,0-0.816-0.365-0.816-0.816v-1.633c0-0.45,0.368-0.816,0.816-0.816c0.141,0,0.274,0.037,0.388,0.102
		c0.01-0.035,0.022-0.066,0.022-0.102v-0.759c-0.131-0.033-0.265-0.058-0.41-0.058c-0.9,0-1.632,0.73-1.632,1.633v1.633
		c0,0.575,0.298,1.078,0.745,1.369c-0.447,0.292-0.745,0.796-0.745,1.369v1.237C10.537,59.568,10.816,59.339,11.142,59.195z"/>
	<path fill="#FFFFFF" d="M11.142,65.381v-0.58c0-0.227,0.093-0.432,0.242-0.579c0.18,0.067,0.372,0.11,0.575,0.11
		c0.205,0,0.397-0.043,0.577-0.11c0.149,0.147,0.242,0.353,0.242,0.579v1.633c0,0.449-0.366,0.816-0.818,0.816
		c-0.141,0-0.27-0.039-0.388-0.102c-0.009,0.031-0.02,0.066-0.02,0.102v0.76c0.131,0.032,0.267,0.057,0.408,0.057
		c0.904,0,1.635-0.73,1.635-1.633v-1.633c0-0.403-0.151-0.768-0.392-1.053c0.24-0.284,0.392-0.647,0.392-1.05v-1.239
		c-0.211,0.284-0.489,0.515-0.817,0.656v0.583c0,0.225-0.091,0.43-0.24,0.577c-0.179-0.069-0.374-0.11-0.579-0.11
		c-0.204,0-0.396,0.041-0.577,0.11c-0.148-0.147-0.239-0.353-0.239-0.577v-1.634c0-0.452,0.368-0.817,0.816-0.817
		c0.141,0,0.274,0.039,0.388,0.104c0.01-0.033,0.022-0.067,0.022-0.104v-0.759c-0.131-0.034-0.265-0.058-0.41-0.058
		c-0.9,0-1.632,0.731-1.632,1.634v1.634c0,0.402,0.151,0.766,0.392,1.05c-0.24,0.285-0.392,0.649-0.392,1.053v1.236
		C10.537,65.755,10.816,65.524,11.142,65.381z"/>
	<path fill="#FFFFFF" d="M13.524,69.327c0.041-0.143,0.069-0.288,0.069-0.443v-1.237c-0.211,0.282-0.489,0.513-0.817,0.655v0.582
		c0,0.126-0.034,0.241-0.084,0.347c-0.131-0.007-0.264-0.02-0.398-0.02c-0.349,0-0.688,0.034-1.023,0.086
		c-0.074-0.123-0.129-0.259-0.129-0.413V67.25c0-0.451,0.368-0.816,0.816-0.816c0.141,0,0.274,0.038,0.388,0.103
		c0.01-0.035,0.022-0.066,0.022-0.103v-0.76c-0.131-0.033-0.265-0.057-0.41-0.057c-0.9,0-1.632,0.73-1.632,1.633v1.634
		c0,0.209,0.042,0.407,0.115,0.591c-2.853,0.808-4.943,3.423-4.943,6.533c0,0.102,0.01,0.201,0.014,0.303
		c0.986-0.479,1.889-1.063,2.839-1.689c2.021-1.329,4.438-2.91,8.621-3.536C16.035,70.196,14.847,69.57,13.524,69.327z"/>
</g>
<path fill="none" d="M62.233,62.4c-3.154,0.03-6.445,0.046-9.831,0.05v1.14c3.386-0.005,6.677-0.036,9.831-0.088V62.4z"/>
<path fill="none" d="M61.217,37.996c-0.186-0.234-0.519-0.576-0.908-0.738l-8.127-0.08c-0.177,0.022-1.06,0.17-1.024,0.991
	c0.056,1.267,0.58,7.039,0.937,10.843h0.309v1.026l9.746,0.001L61.217,37.996z"/>
<path fill="#FFFFFF" d="M95.198,60.845c0-0.659-10.879-1.225-26.448-1.474v-2.153l8.935-0.046V50.04H67.105v12.303
	C83.547,62.107,95.198,61.525,95.198,60.845z"/>
<path fill="#FFFFFF" d="M62.233,50.804l-0.057-0.399l-0.028-0.366l-9.746-0.001V62.45c3.386-0.004,6.677-0.02,9.831-0.05V50.804z"/>
<path fill="#FFFFFF" d="M67.105,63.434v11.021c0.783-0.297,1.549-0.598,2.304-0.899c4.193-1.682,8.146-3.266,15.223-3.266h0.263
	c4.971,0.028,7.959,1.137,10.304,2.449v-11.07C95.198,62.471,83.547,63.158,67.105,63.434z"/>
<path fill="#FFFFFF" d="M52.402,63.59v13.582c0.145,0.006,0.286,0.012,0.437,0.016c3.843-0.095,6.841-0.552,9.395-1.187V63.502
	C59.079,63.554,55.788,63.585,52.402,63.59z"/>
<path fill="#FFFFFF" d="M13.959,50.038c0.358,0.409,0.589,0.923,0.646,1.495l0.026-0.035v0.295v0.626l17.276,3.596v1.388
	l11.038-0.056v1.918c-11.721,0.079-21.805,0.328-28.314,0.671v0.313v1.507c7.342,0.388,19.242,0.654,32.898,0.692V50.039
	L13.959,50.038z"/>
<path fill="#FFFFFF" d="M14.628,62.74c-0.006,0.347-0.077,0.691-0.217,1.008c0.113,0.257,0.169,0.531,0.196,0.809l0.025-0.033v0.277
	v1.633v2.1c1.138,0.356,2.18,0.968,3.055,1.797l0.14,0.134c0.886-0.099,1.822-0.169,2.866-0.175h0.272
	c7.073,0,11.026,1.583,15.211,3.261c3.193,1.277,6.484,2.577,11.354,3.227v-13.22C33.871,63.511,21.969,63.197,14.628,62.74z"/>
<path fill="#FFFFFF" d="M51.402,50.012h-0.219c-0.277-2.935-0.96-10.311-1.025-11.8c-0.081-1.872,2.033-2.035,2.033-2.035
	l8.294,0.082c1.057,0.325,1.707,1.384,1.707,1.384l0.981,12.685h0.06v25.4c1.015-0.282,1.967-0.589,2.872-0.912V50.012h-0.055
	l-1.256-11.067c-0.406-5.207-4.067-5.207-4.067-5.207h-9.593c-4.311,0.244-3.336,4.636-3.336,4.636l0.88,11.638H48.53v26.883
	c0.901,0.099,1.857,0.176,2.872,0.227V50.012z"/>
</svg>
