<?xml version="1.0" encoding="utf-8"?>
<!-- Generator: Adobe Illustrator 16.0.0, SVG Export Plug-In . SVG Version: 6.00 Build 0)  -->
<!DOCTYPE svg PUBLIC "-//W3C//DTD SVG 1.1//EN" "http://www.w3.org/Graphics/SVG/1.1/DTD/svg11.dtd">
<svg version="1.1" id="Capa_1" xmlns="http://www.w3.org/2000/svg" xmlns:xlink="http://www.w3.org/1999/xlink" x="0px" y="0px"
	 width="100px" height="100px" viewBox="0 0 100 100" enable-background="new 0 0 100 100" xml:space="preserve">
<path fill="#21663B" d="M97.62,14.25v72c0,6.63-5.37,12-12,12h-72c-6.62,0-12-5.37-12-12v-72c0-6.63,5.38-12,12-12h72
	C92.25,2.25,97.62,7.62,97.62,14.25z"/>
<path fill="#254A35" d="M14,98h72c6.627,0,12-5.373,12-12v-2.928L97.957,83H2v3C2,92.627,7.373,98,14,98z"/>
<polygon fill="#FFFFFF" points="98,80 85.955,80 76.003,80 56.341,80 46.389,80 2,80 2,83 49.039,83 54.883,83 77.461,83 83.305,83 
	98,83 "/>
<path fill="none" d="M50.053,13c-0.026,0-0.06,0.014-0.092,0.027C50.04,13.012,50.123,13,50.215,13H50.053z"/>
<path fill="#FFFFFF" d="M28.984,49.879c0.049-0.073,0.101-0.146,0.155-0.215c0.018-0.025,0.048-0.064,0.082-0.106l0.456-0.503
	c0.04-0.041,0.095-0.093,0.151-0.146l0.202-0.175l0.094-0.076l0.387-0.28c0.128-0.086,0.22-0.143,0.313-0.196l0.128-0.068
	c0.048-0.028,0.098-0.055,0.149-0.079c0.015-0.009,0.076-0.041,0.141-0.07l0.118-0.048h-4.931c-1.31,0-1.676-0.36-1.755-0.471
	c-0.099-0.132-0.088-0.306-0.088-0.307c0,0,0.006-0.855-0.007-0.851V36c-0.548,0.204-1.302,0.446-2.24,0.655v10.482h0.018
	c-0.009,0.464,0.076,1.128,0.545,1.763c0.678,0.918,1.865,1.384,3.527,1.384h2.297c0.03-0.054,0.062-0.107,0.096-0.16
	c-0.002,0.004-0.005,0.001,0.058-0.094L28.984,49.879L28.984,49.879z"/>
<path fill="#FFFFFF" d="M28.006,52.574l0.033-0.3c0.005-0.044,0.015-0.101,0.025-0.157l0.055-0.248h-5.85
	c-1.308,0-1.677-0.359-1.756-0.471c-0.052-0.07-0.072-0.15-0.08-0.213h0.012c0,0,0.005-3.895,0-3.895V36.978
	c-0.69,0.084-1.44,0.136-2.24,0.145v13.695c-0.043,0.441-0.029,1.267,0.537,2.036c0.678,0.919,1.864,1.384,3.527,1.384h5.813
	l-0.014-0.129c-0.016-0.087-0.025-0.141-0.031-0.195l-0.031-0.281c-0.008-0.082-0.016-0.157-0.02-0.232l-0.009-0.326l0.011-0.307
	C27.991,52.723,27.999,52.648,28.006,52.574z"/>
<polygon fill="none" points="31.832,58.984 31.938,58.879 32.021,58.48 32.02,58.48 "/>
<path fill="none" d="M33.345,56.756c0.084,0.009,0.17,0.015,0.255,0.018l0.012-0.002l0.098,0.002
	c0.184-0.006,0.361-0.027,0.528-0.064c0.047-0.012,0.094-0.023,0.142-0.037l0.012-0.008l-0.361-0.36
	c-0.126,0.022-0.254,0.034-0.382,0.034l-0.109-0.006c-0.092-0.004-0.183-0.014-0.272-0.029l-0.364,0.363
	c0.144,0.042,0.279,0.07,0.419,0.087L33.345,56.756z"/>
<path fill="none" d="M33.646,53.881c-0.119,0-0.216,0.098-0.216,0.217c0,0.24,0.434,0.238,0.434,0
	C33.864,53.979,33.767,53.881,33.646,53.881z"/>
<path fill="none" d="M33.658,51.432l-0.066-0.008c-0.084,0.002-0.168,0.007-0.25,0.016l-0.025,0.004
	c-0.144,0.018-0.283,0.046-0.417,0.085l0.365,0.366c0.112-0.02,0.226-0.031,0.34-0.033l0.007,0.34l0.036-0.342
	c0.016,0,0.031,0,0.046,0h0.002c0.112,0.002,0.225,0.014,0.335,0.033l0.364-0.364c-0.221-0.065-0.449-0.101-0.68-0.104
	L33.658,51.432z"/>
<path fill="#FFFFFF" d="M38.1,54.499c0.004-0.011,0.008-0.022,0.011-0.034c0.011-0.034,0.02-0.069,0.029-0.104
	c0.004-0.012,0.009-0.021,0.011-0.031l0.017-0.066c0.006-0.02,0.012-0.043,0.017-0.065c0.002-0.005,0.003-0.005,0.003-0.008
	c0.007-0.032,0.015-0.065,0.021-0.097c0.005-0.018,0.008-0.033,0.011-0.05c0-0.004,0.003-0.007,0.003-0.011
	c0.007-0.037,0.015-0.072,0.022-0.109c0.007-0.043,0.015-0.086,0.02-0.127c0.008-0.047,0.013-0.093,0.018-0.139
	c0.004-0.021,0.005-0.041,0.007-0.061c0.002-0.021,0.003-0.043,0.005-0.065c0.007-0.062,0.014-0.122,0.017-0.185
	c0.001-0.035,0.004-0.072,0.004-0.109c0.001-0.045,0.002-0.093,0.002-0.141s-0.001-0.096-0.002-0.141
	c0-0.037-0.003-0.074-0.004-0.109c-0.003-0.061-0.01-0.122-0.017-0.184c-0.002-0.021-0.003-0.045-0.006-0.066
	c-0.001-0.021-0.002-0.04-0.006-0.061c-0.005-0.046-0.01-0.091-0.018-0.137c-0.005-0.044-0.013-0.086-0.02-0.129
	c-0.008-0.035-0.016-0.07-0.022-0.105c0-0.005-0.003-0.012-0.003-0.018c-0.004-0.014-0.006-0.031-0.011-0.046
	c-0.006-0.032-0.014-0.064-0.021-0.095c0-0.006-0.001-0.008-0.003-0.012c-0.005-0.021-0.011-0.043-0.017-0.063
	c-0.006-0.028-0.014-0.055-0.021-0.082c-0.002-0.014-0.007-0.027-0.011-0.043c-0.009-0.029-0.019-0.059-0.027-0.09
	c-0.003-0.004-0.004-0.01-0.006-0.017c-0.003-0.011-0.007-0.021-0.009-0.031c-0.019-0.055-0.037-0.11-0.057-0.165
	c-0.02-0.052-0.038-0.102-0.057-0.15c-0.009-0.021-0.019-0.043-0.028-0.064c-0.003-0.009-0.008-0.015-0.01-0.023
	c-0.008-0.018-0.017-0.039-0.025-0.059c-0.02-0.047-0.044-0.096-0.065-0.143c-0.023-0.047-0.047-0.096-0.072-0.141
	c-0.006-0.013-0.014-0.024-0.02-0.037c-0.007-0.011-0.012-0.021-0.018-0.031c-0.013-0.023-0.025-0.048-0.037-0.071
	c-0.043-0.073-0.085-0.144-0.132-0.215c-0.016-0.023-0.031-0.048-0.048-0.072c-0.004-0.007-0.01-0.014-0.014-0.02
	c-0.003-0.004-0.006-0.008-0.009-0.013c-0.025-0.038-0.052-0.074-0.079-0.11c-0.021-0.031-0.045-0.063-0.068-0.092
	c-0.021-0.03-0.047-0.058-0.069-0.086c-0.024-0.031-0.049-0.06-0.074-0.089c-0.019-0.023-0.035-0.044-0.053-0.065
	c-0.034-0.041-0.069-0.078-0.107-0.117c-0.028-0.032-0.06-0.063-0.09-0.094c-0.008-0.009-0.015-0.016-0.023-0.023
	c-0.034-0.034-0.07-0.071-0.107-0.104c-0.014-0.014-0.03-0.027-0.046-0.042c-0.048-0.043-0.098-0.086-0.148-0.128
	c-0.01-0.009-0.018-0.018-0.029-0.025c-0.004-0.003-0.008-0.008-0.012-0.011c-0.041-0.032-0.082-0.066-0.124-0.098
	c-0.04-0.03-0.081-0.061-0.123-0.091c-0.015-0.009-0.03-0.019-0.046-0.028c-0.069-0.049-0.144-0.093-0.216-0.138
	c-0.048-0.028-0.092-0.062-0.14-0.087c-0.032-0.019-0.065-0.037-0.098-0.056c-0.049-0.025-0.098-0.05-0.147-0.073
	c-0.044-0.022-0.089-0.044-0.133-0.064c-0.029-0.013-0.06-0.027-0.089-0.038c-0.004-0.002-0.008-0.003-0.012-0.005
	c-0.004-0.001-0.006-0.001-0.01-0.003c-0.026-0.013-0.054-0.022-0.082-0.036c-0.04-0.015-0.082-0.031-0.123-0.047
	c-0.053-0.019-0.104-0.036-0.154-0.053c-0.018-0.006-0.036-0.01-0.054-0.016c-0.005-0.002-0.013-0.003-0.02-0.006
	c-0.008-0.001-0.015-0.006-0.022-0.007c-0.129-0.04-0.26-0.073-0.393-0.101c-0.007,0-0.014-0.001-0.021-0.004
	c-0.001,0-0.001,0-0.001,0c-0.034-0.006-0.068-0.014-0.101-0.02c-0.067-0.012-0.137-0.023-0.204-0.033
	c-0.037-0.004-0.075-0.008-0.113-0.014c-0.013-0.001-0.026-0.002-0.04-0.003c-0.006-0.001-0.011-0.001-0.017-0.001
	c-0.065-0.007-0.131-0.013-0.198-0.018c-0.059-0.003-0.12-0.005-0.181-0.006c-0.03,0-0.059-0.001-0.087-0.001
	c-0.024,0-0.049,0-0.071,0.001c-0.056,0.001-0.112,0.002-0.168,0.006c-0.064,0.003-0.129,0.007-0.192,0.014
	c-0.014,0.001-0.024,0.003-0.035,0.004c-0.009,0-0.016,0.001-0.024,0.002c-0.026,0.003-0.051,0.004-0.076,0.008
	c-0.015,0-0.029,0.003-0.042,0.005c-0.014,0-0.026,0.003-0.039,0.004c-0.027,0.003-0.054,0.008-0.08,0.013c-0.004,0-0.007,0-0.009,0
	c-0.053,0.01-0.104,0.018-0.154,0.028c-0.014,0.003-0.026,0.006-0.039,0.009c-0.007,0.001-0.015,0.003-0.021,0.004
	c-0.026,0.005-0.052,0.01-0.077,0.016c-0.018,0.002-0.035,0.007-0.052,0.012c-0.095,0.022-0.188,0.047-0.281,0.076
	c-0.013,0.005-0.026,0.008-0.04,0.012c-0.031,0.011-0.063,0.021-0.096,0.032c-0.03,0.011-0.061,0.021-0.093,0.032
	c-0.063,0.023-0.124,0.049-0.188,0.075c-0.018,0.007-0.037,0.015-0.055,0.023c-0.006,0.001-0.011,0.003-0.017,0.005
	c-0.046,0.021-0.093,0.041-0.138,0.063c-0.047,0.021-0.091,0.044-0.137,0.068c-0.027,0.013-0.054,0.027-0.079,0.042
	c-0.015,0.006-0.027,0.015-0.04,0.021c-0.026,0.015-0.056,0.028-0.081,0.043c-0.085,0.049-0.168,0.101-0.25,0.155
	c-0.008,0.006-0.016,0.012-0.023,0.016c-0.01,0.007-0.019,0.013-0.028,0.02c-0.021,0.014-0.041,0.027-0.062,0.042
	c-0.004,0.003-0.009,0.007-0.015,0.009c-0.051,0.039-0.102,0.076-0.151,0.113c-0.032,0.026-0.065,0.054-0.099,0.08
	c-0.009,0.007-0.019,0.015-0.027,0.022c-0.011,0.01-0.022,0.018-0.032,0.027c-0.018,0.016-0.036,0.031-0.053,0.045
	c-0.024,0.021-0.049,0.043-0.074,0.066c-0.046,0.042-0.09,0.084-0.133,0.128c-0.014,0.013-0.026,0.024-0.04,0.039
	c-0.003,0.003-0.007,0.006-0.01,0.009c-0.027,0.027-0.056,0.054-0.081,0.083c-0.033,0.037-0.069,0.074-0.102,0.112
	c-0.028,0.033-0.058,0.066-0.085,0.1c-0.003,0.004-0.006,0.007-0.009,0.01c-0.004,0.007-0.009,0.012-0.015,0.018
	c-0.037,0.046-0.074,0.092-0.11,0.142c-0.04,0.051-0.077,0.104-0.113,0.157c-0.008,0.008-0.014,0.018-0.02,0.026
	c-0.009,0.015-0.018,0.029-0.027,0.043c-0.011,0.015-0.021,0.03-0.032,0.044c-0.024,0.038-0.05,0.076-0.071,0.116
	c-0.028,0.043-0.055,0.088-0.079,0.133c-0.012,0.02-0.021,0.041-0.032,0.06c-0.003,0.006-0.008,0.013-0.011,0.019
	c-0.006,0.008-0.01,0.018-0.015,0.028c-0.024,0.041-0.043,0.082-0.063,0.123c-0.02,0.037-0.037,0.072-0.052,0.109
	c-0.017,0.031-0.03,0.063-0.042,0.095c-0.005,0.008-0.008,0.017-0.012,0.024c-0.005,0.012-0.011,0.025-0.015,0.036
	c0,0.001,0,0.003-0.002,0.003c-0.017,0.037-0.031,0.076-0.047,0.113c-0.033,0.086-0.063,0.174-0.093,0.262
	c-0.004,0.011-0.005,0.021-0.01,0.033c0,0.002-0.001,0.006-0.002,0.009c-0.011,0.03-0.021,0.063-0.029,0.093
	c-0.005,0.016-0.009,0.029-0.011,0.043c-0.008,0.027-0.016,0.054-0.021,0.082c-0.006,0.02-0.012,0.041-0.017,0.063
	c-0.001,0.004-0.003,0.006-0.003,0.012c-0.008,0.03-0.015,0.063-0.021,0.095c-0.004,0.015-0.006,0.03-0.009,0.044
	c-0.002,0.008-0.004,0.016-0.005,0.022c-0.007,0.033-0.013,0.068-0.02,0.103c-0.008,0.043-0.017,0.085-0.021,0.129
	c-0.007,0.046-0.014,0.091-0.02,0.137c-0.001,0.018-0.001,0.035-0.004,0.053c-0.003,0.029-0.004,0.058-0.007,0.086
	c-0.006,0.058-0.012,0.115-0.015,0.172c-0.003,0.035-0.004,0.072-0.006,0.109c0,0.045-0.002,0.093-0.002,0.141
	s0.002,0.096,0.002,0.141c0.002,0.037,0.003,0.074,0.006,0.109c0.003,0.058,0.009,0.115,0.015,0.172
	c0.003,0.027,0.004,0.057,0.007,0.086c0.003,0.016,0.003,0.035,0.004,0.053c0.006,0.046,0.013,0.092,0.02,0.139
	c0.005,0.041,0.014,0.084,0.021,0.127c0.007,0.037,0.014,0.07,0.021,0.105c0.002,0.005,0.002,0.011,0.004,0.016
	c0.003,0.016,0.004,0.033,0.009,0.049c0.007,0.031,0.014,0.064,0.021,0.097c0,0.003,0.002,0.003,0.003,0.008
	c0.005,0.022,0.011,0.046,0.017,0.065l0.017,0.066c0.001,0.01,0.007,0.02,0.01,0.031c0.009,0.034,0.02,0.069,0.03,0.104
	c0.003,0.012,0.008,0.025,0.012,0.035c0.005,0.014,0.008,0.027,0.013,0.041c0,0.002,0.001,0.006,0.002,0.01
	c0.004,0.014,0.009,0.029,0.014,0.045c0.01,0.027,0.02,0.053,0.029,0.079c0.004,0.015,0.011,0.03,0.016,0.044
	c0.021,0.058,0.043,0.114,0.067,0.171c0.003,0.008,0.007,0.015,0.01,0.024c0.022,0.051,0.044,0.1,0.067,0.149
	c0.021,0.045,0.042,0.089,0.065,0.134c0.013,0.027,0.028,0.053,0.042,0.078c0.014,0.027,0.029,0.055,0.044,0.082
	c0.012,0.021,0.022,0.043,0.034,0.063c0.025,0.044,0.052,0.088,0.078,0.132c0.033,0.051,0.065,0.104,0.1,0.156
	c0.035,0.05,0.071,0.1,0.107,0.148c0.023,0.033,0.049,0.065,0.072,0.098c0.022,0.028,0.046,0.056,0.069,0.084
	c0.014,0.018,0.027,0.033,0.042,0.053c0.016,0.017,0.03,0.035,0.045,0.053c0.025,0.03,0.053,0.061,0.08,0.091
	c0.037,0.042,0.076,0.079,0.115,0.119c0.019,0.021,0.039,0.042,0.06,0.063c0.014,0.012,0.024,0.025,0.037,0.037
	c0.034,0.033,0.069,0.064,0.104,0.098c0.042,0.037,0.084,0.076,0.127,0.11c0.011,0.011,0.023,0.021,0.037,0.03
	c0.004,0.004,0.009,0.008,0.015,0.013c0.03,0.024,0.06,0.05,0.09,0.073c0.051,0.039,0.102,0.078,0.156,0.115
	c0.014,0.012,0.028,0.021,0.043,0.03c0.015,0.012,0.031,0.022,0.048,0.034c0.01,0.006,0.02,0.012,0.029,0.019
	c0.025,0.017,0.052,0.036,0.078,0.053c0.086,0.056,0.174,0.108,0.265,0.157c0.008,0.004,0.015,0.008,0.023,0.012
	c0.002,0.002,0.005,0.004,0.008,0.004c0.031,0.018,0.063,0.035,0.096,0.051c0.01,0.007,0.022,0.012,0.034,0.018
	c0.056,0.029,0.111,0.055,0.168,0.08c0,0,0,0.002,0.001,0.002c0.03,0.014,0.062,0.026,0.093,0.039
	c0.006,0.002,0.014,0.006,0.021,0.01c0.02,0.008,0.038,0.016,0.057,0.023c0.042,0.016,0.083,0.033,0.125,0.049
	c0.043,0.016,0.087,0.029,0.128,0.045c0.008,0.003,0.014,0.005,0.018,0.006c0.03,0.011,0.059,0.02,0.088,0.029
	c0.003,0,0.006,0,0.008,0.002c0.01,0.003,0.021,0.007,0.033,0.01c0.021,0.008,0.045,0.014,0.068,0.02
	c0.021,0.007,0.045,0.014,0.067,0.018c0.06,0.02,0.121,0.033,0.185,0.047c0.024,0.006,0.051,0.012,0.075,0.016
	c0.009,0.003,0.019,0.004,0.028,0.007c0.027,0.005,0.055,0.011,0.084,0.017c0.106,0.02,0.217,0.033,0.327,0.045
	c0.016,0.002,0.03,0.005,0.045,0.008c0.004,0,0.006,0,0.008,0c0.065,0.006,0.131,0.012,0.195,0.016
	c0.066,0.002,0.132,0.006,0.197,0.007c0.022,0.001,0.047,0.001,0.071,0.001c0.028,0,0.057-0.001,0.087-0.001
	c0.029,0,0.057-0.001,0.085-0.003c0.007,0,0.016,0,0.021-0.002c0.03,0,0.06-0.001,0.088-0.004c0.037-0.002,0.074-0.008,0.111-0.01
	c0.053-0.004,0.105-0.01,0.16-0.016c0.039-0.006,0.077-0.007,0.115-0.012c0.053-0.009,0.105-0.018,0.158-0.027
	c0.023-0.004,0.047-0.01,0.07-0.015c0.04-0.008,0.078-0.017,0.117-0.026c0.052-0.011,0.104-0.019,0.151-0.033
	c0.038-0.01,0.076-0.018,0.112-0.029c0.02-0.006,0.038-0.011,0.059-0.017c0.015-0.005,0.029-0.01,0.045-0.014
	c0.004-0.001,0.007-0.003,0.012-0.003c0.004-0.004,0.009-0.004,0.015-0.006c0.058-0.017,0.117-0.037,0.173-0.059
	c0.055-0.019,0.108-0.041,0.161-0.061c0.019-0.008,0.037-0.017,0.057-0.023c0.015-0.008,0.029-0.014,0.044-0.02
	c0.033-0.015,0.067-0.028,0.1-0.043c0.037-0.018,0.075-0.037,0.11-0.053c0.039-0.02,0.078-0.037,0.115-0.061
	c0.015-0.007,0.029-0.014,0.044-0.023c0.008-0.004,0.014-0.007,0.021-0.01c0.01-0.006,0.019-0.01,0.027-0.016
	c0.025-0.013,0.048-0.03,0.071-0.045c0.121-0.07,0.237-0.143,0.351-0.221c0.015-0.012,0.032-0.02,0.047-0.031
	c0.025-0.018,0.05-0.037,0.074-0.055c0.03-0.023,0.061-0.045,0.09-0.069c0.025-0.019,0.05-0.039,0.073-0.06
	c0.002-0.001,0.004-0.003,0.006-0.004c0.006-0.004,0.012-0.01,0.019-0.015c0.052-0.044,0.1-0.087,0.147-0.13
	c0.056-0.051,0.109-0.102,0.163-0.155c0.039-0.038,0.076-0.079,0.115-0.118c0.015-0.016,0.026-0.029,0.04-0.044
	c0.027-0.03,0.056-0.062,0.083-0.095c0.015-0.018,0.029-0.037,0.045-0.055c0.011-0.014,0.022-0.025,0.032-0.038
	c0.013-0.017,0.026-0.03,0.039-0.048c0.018-0.023,0.038-0.047,0.056-0.072c0.019-0.023,0.038-0.047,0.056-0.074
	c0.036-0.047,0.07-0.096,0.104-0.145c0.034-0.053,0.068-0.105,0.102-0.158c0.032-0.053,0.063-0.106,0.093-0.16
	c0.013-0.02,0.025-0.043,0.035-0.064c0.003-0.002,0.004-0.004,0.005-0.006c0.001-0.004,0.003-0.006,0.004-0.009
	c0.018-0.029,0.033-0.06,0.048-0.09c0.024-0.048,0.048-0.093,0.068-0.141c0.025-0.048,0.045-0.099,0.066-0.147
	c0.004-0.01,0.009-0.02,0.014-0.029c0-0.004,0.003-0.008,0.005-0.012c0.048-0.115,0.091-0.233,0.13-0.352
	C38.091,54.527,38.095,54.514,38.1,54.499z M31.548,50.081c0.005-0.003,0.008-0.005,0.01-0.008c0.115-0.08,0.236-0.151,0.36-0.216
	c0.076-0.04,0.152-0.08,0.231-0.115c0.016-0.007,0.032-0.014,0.047-0.021c0.1-0.042,0.198-0.081,0.301-0.114
	c0.004-0.002,0.006-0.002,0.009-0.003c0.222-0.074,0.453-0.125,0.69-0.154c0.006-0.001,0.014-0.001,0.02-0.002
	c0.118-0.014,0.238-0.022,0.36-0.024c0.022-0.003,0.047-0.003,0.071-0.003c0.028,0,0.057,0,0.087,0.003
	c0.368,0.007,0.722,0.07,1.054,0.18c0.01,0.001,0.018,0.005,0.024,0.007c0.104,0.035,0.205,0.074,0.305,0.117
	c0.009,0.003,0.018,0.008,0.027,0.012c0.197,0.088,0.387,0.196,0.564,0.315c0.012,0.009,0.023,0.015,0.033,0.023
	c0.011,0.006,0.02,0.014,0.029,0.021c0.083,0.059,0.165,0.12,0.243,0.187c0.002,0,0.005,0.003,0.006,0.004s0.002,0.001,0.003,0.002
	c0.004,0.003,0.007,0.007,0.01,0.01l-0.165,0.167l-0.062,0.06l-1.296,1.296l-0.218,0.219c-0.188-0.116-0.408-0.186-0.646-0.186
	c-0.013,0-0.024,0-0.036,0c0.005,0,0.01,0.002,0.013,0.002c-0.229,0.004-0.44,0.072-0.622,0.184l-0.219-0.219l-1.476-1.476
	l-0.047-0.046C31.354,50.224,31.448,50.15,31.548,50.081z M34.431,53.098c0,0.433-0.353,0.783-0.784,0.783
	c-0.433,0-0.782-0.351-0.782-0.783c0-0.434,0.35-0.783,0.782-0.783C34.078,52.314,34.431,52.664,34.431,53.098z M30.041,52.392
	c0.009-0.048,0.021-0.093,0.032-0.14c0.019-0.074,0.034-0.149,0.057-0.223c0.002-0.006,0.004-0.014,0.005-0.019
	c0.033-0.105,0.071-0.21,0.113-0.31c0.005-0.014,0.01-0.024,0.015-0.037c0.042-0.099,0.088-0.195,0.138-0.288
	c0.004-0.009,0.008-0.018,0.013-0.023c0.05-0.095,0.106-0.185,0.163-0.274c0.001-0.001,0.003-0.003,0.004-0.004
	c0.005-0.01,0.012-0.02,0.019-0.027c0.057-0.085,0.117-0.168,0.182-0.247c0.008-0.011,0.018-0.022,0.027-0.034
	c0.016-0.018,0.032-0.035,0.047-0.053l0.226,0.227l1.514,1.513c-0.066,0.108-0.118,0.229-0.148,0.356h-0.308h-1.833h-0.319
	C29.998,52.668,30.015,52.528,30.041,52.392z M31.081,55.256C31.08,55.256,31.08,55.256,31.081,55.256l-0.229,0.226
	c-0.013-0.017-0.029-0.032-0.043-0.05c-0.01-0.012-0.021-0.024-0.03-0.036c-0.064-0.079-0.125-0.161-0.183-0.248
	c-0.006-0.009-0.012-0.017-0.017-0.024c-0.001-0.002-0.002-0.003-0.002-0.003c-0.059-0.092-0.115-0.183-0.165-0.278
	c-0.005-0.006-0.009-0.014-0.013-0.02c-0.034-0.064-0.062-0.131-0.093-0.195c-0.027-0.063-0.055-0.125-0.08-0.188
	c-0.034-0.083-0.066-0.168-0.092-0.252c-0.002-0.008-0.004-0.016-0.006-0.023c-0.022-0.072-0.039-0.146-0.057-0.221
	c-0.011-0.047-0.023-0.092-0.032-0.14c-0.026-0.136-0.043-0.276-0.056-0.417h0.319l0,0h1.833h0.308
	c0.03,0.129,0.081,0.247,0.148,0.356l-0.218,0.22L31.081,55.256z M35.763,56.102c-0.007,0.006-0.013,0.012-0.021,0.016
	c-0.007,0.006-0.015,0.01-0.022,0.014c-0.184,0.125-0.377,0.235-0.581,0.326c-0.004,0.003-0.009,0.004-0.014,0.008
	c-0.104,0.045-0.209,0.085-0.315,0.121c-0.006,0.001-0.01,0.002-0.014,0.004c-0.11,0.035-0.222,0.066-0.336,0.094h-0.001
	c-0.234,0.053-0.477,0.082-0.725,0.089c-0.03,0.001-0.059,0.001-0.087,0.001c-0.024,0-0.049,0-0.071-0.001
	c-0.122-0.003-0.244-0.012-0.364-0.025c-0.003,0-0.007,0-0.011-0.001c-0.235-0.029-0.462-0.08-0.682-0.148
	c-0.009-0.004-0.017-0.007-0.026-0.011c-0.098-0.031-0.194-0.069-0.289-0.108c-0.02-0.01-0.038-0.018-0.056-0.025
	c-0.079-0.035-0.155-0.074-0.231-0.115c-0.123-0.065-0.244-0.137-0.359-0.215c0-0.002-0.003-0.004-0.005-0.004
	c-0.094-0.065-0.184-0.135-0.271-0.208c0,0-0.001-0.002-0.002-0.002c-0.006-0.005-0.012-0.012-0.02-0.019l0.031-0.029l1.71-1.709
	c0.182,0.111,0.393,0.178,0.62,0.183c-0.003,0-0.007,0-0.011,0c0.012,0.001,0.023,0.003,0.036,0.003c0.237,0,0.457-0.07,0.646-0.186
	l0.218,0.219l1.522,1.521C35.946,55.967,35.856,56.035,35.763,56.102z M37.253,53.814c-0.003,0.01-0.005,0.02-0.008,0.027
	c-0.021,0.107-0.047,0.213-0.079,0.315c-0.002,0.011-0.004,0.019-0.007,0.027c-0.028,0.091-0.062,0.179-0.097,0.267
	c-0.016,0.041-0.033,0.081-0.05,0.121c-0.036,0.08-0.073,0.16-0.113,0.238c-0.003,0.006-0.006,0.012-0.01,0.016
	c-0.003,0.007-0.008,0.014-0.011,0.021c-0.031,0.058-0.066,0.114-0.101,0.171c-0.031,0.049-0.062,0.1-0.094,0.148
	c-0.046,0.066-0.095,0.131-0.145,0.195c-0.018,0.021-0.035,0.047-0.055,0.07c-0.015,0.018-0.031,0.033-0.047,0.051l-0.079-0.08
	l-0.145-0.146l-1.296-1.293l-0.219-0.22c0.067-0.109,0.118-0.229,0.149-0.356h0.309h1.832h0.318
	C37.296,53.532,37.28,53.676,37.253,53.814z M36.99,52.809h-1.832H34.85c-0.031-0.128-0.082-0.246-0.149-0.355l0.219-0.22
	l1.295-1.294l0.16-0.161l0.064-0.065c0.013,0.012,0.025,0.026,0.037,0.039c0.026,0.033,0.051,0.064,0.078,0.098
	c0.043,0.058,0.088,0.117,0.129,0.178c0.035,0.053,0.068,0.107,0.102,0.162c0.032,0.051,0.064,0.102,0.092,0.154
	c0.004,0.009,0.01,0.016,0.014,0.025c0.004,0.006,0.007,0.012,0.011,0.018c0.047,0.088,0.089,0.179,0.128,0.271
	c0.008,0.019,0.016,0.036,0.022,0.054c0.039,0.098,0.076,0.197,0.108,0.299c0.003,0.01,0.005,0.02,0.009,0.029
	c0.03,0.104,0.056,0.206,0.077,0.311c0.003,0.012,0.005,0.021,0.008,0.031c0.027,0.141,0.043,0.283,0.056,0.428H36.99z"/>
<path fill="none" d="M62.385,37.431c2.065-0.019,4.277-0.078,6.506-0.187v-2.204c-2.088,0.101-4.271,0.159-6.506,0.177V37.431z"/>
<path fill="none" d="M55.796,35.147v2.206c1.821,0.057,3.59,0.084,5.217,0.084c0.233,0,0.47,0,0.707-0.002v-2.214
	c-0.239,0.001-0.478,0.005-0.72,0.005C59.23,35.228,57.491,35.199,55.796,35.147z"/>
<path fill="none" d="M69.555,37.211c2.087-0.11,4.171-0.263,6.147-0.462v-2.215c-1.906,0.2-3.971,0.357-6.147,0.472V37.211z"/>
<path fill="none" d="M39.82,33.566v2.291c1.242,0.254,2.663,0.474,4.194,0.662v-2.255c-0.345-0.046-0.7-0.088-1.031-0.137
	C41.72,33.941,40.681,33.753,39.82,33.566z"/>
<path fill="none" d="M81.736,35.902c1.493-0.29,2.775-0.627,3.767-1.014v-2.42c-0.613,0.368-1.733,0.778-3.767,1.19V35.902z"/>
<path fill="none" d="M44.679,36.598c1.441,0.166,2.966,0.305,4.527,0.418V34.8c-1.601-0.124-3.116-0.273-4.527-0.447V36.598z"/>
<path fill="none" d="M49.87,37.063c1.745,0.119,3.521,0.207,5.261,0.269v-2.208c-1.822-0.064-3.582-0.156-5.261-0.277V37.063z"/>
<path fill="none" d="M76.366,34.461v2.219c1.685-0.181,3.276-0.398,4.706-0.654v-2.239c-0.611,0.113-1.29,0.227-2.056,0.339
	C78.184,34.249,77.288,34.358,76.366,34.461z"/>
<path fill="none" d="M84.66,31.374c-1.774-0.877-9.555-2.45-23.66-2.45s-21.886,1.573-23.66,2.45
	c1.774,0.876,9.555,2.451,23.66,2.451C75.104,33.825,82.886,32.25,84.66,31.374z"/>
<path fill="none" d="M39.155,33.414c-1.432-0.348-2.26-0.688-2.741-0.998v2.458c0.714,0.312,1.645,0.59,2.741,0.84V33.414z"/>
<path fill="#FFFFFF" d="M56.674,53.273c0.633-0.59,1.419-1.193,2.448-1.193c0.835,0,1.515,0.398,2.088,0.838
	c0.555-0.423,1.26-0.838,2.122-0.838c1.07,0,1.892,0.638,2.487,1.193l0.342,0.318l1.348,6.104c11.59-0.441,18.683-2,18.683-3.129
	c0-0.012,0-0.016,0-0.014V39.284c-5.068,1.703-16.985,2.375-25.204,2.375c-8.172,0-19.994-0.664-25.126-2.333v-1.438
	c3.015,0.991,11.272,2.369,25.126,2.369c14.009,0,22.286-1.411,25.204-2.404v-3.261c-0.009,0.003-0.017,0.007-0.024,0.01v-2.57
	h-0.131c0.213-0.263,0.214-0.489,0.214-0.658c0-0.549,0-1.691-7.233-2.753C74.184,27.911,67.784,27.52,61,27.52
	c-6.786,0-13.184,0.391-18.017,1.101c-5.606,0.823-6.868,1.694-7.15,2.3H35.75v5.085h0.006v11.844l0.245,0.091l0.309,0.151
	l0.112,0.064l0.154,0.093c0.152,0.095,0.229,0.143,0.302,0.194l0.342,0.254c0.024,0.018,0.064,0.053,0.105,0.092l0.225,0.2
	c-0.002-0.002-0.003-0.004-0.003-0.004c0.003,0,0.045,0.042,0.085,0.082l0.076,0.08c0.005,0.002,0.052,0.049,0.094,0.098
	c0.021,0.021,0.073,0.076,0.125,0.137l0.142,0.173c0.04,0.047,0.069,0.084,0.097,0.123l0.077,0.104
	c0.017,0.02,0.053,0.071,0.089,0.124l0.021,0.03c0,0.001,0.001,0.001,0.001,0.002l0.009,0.012c0.104,0.159,0.154,0.243,0.205,0.329
	l0.551,1.331c0.005,0.018,0.009,0.035,0.014,0.052l0.055,0.229c0.003,0.014,0.006,0.028,0.009,0.042l0.063,0.354
	c0.003,0.013,0.011,0.077,0.018,0.146l0.011,0.117c0.011,0.09,0.019,0.169,0.022,0.248l0.007,0.299l-0.007,0.297
	c-0.004,0.084-0.013,0.164-0.021,0.246c-0.009,0.108-0.015,0.158-0.024,0.209c0.002-0.009,0.002,0.023-0.013,0.111l-0.186,0.807
	c-0.043,0.133-0.078,0.236-0.111,0.326v0.037l-0.104,0.218c-0.035,0.083-0.063,0.144-0.093,0.201v-0.001
	c0.003,0-0.026,0.059-0.057,0.118c-0.012,0.024-0.025,0.052-0.041,0.081l-0.302,0.504l-0.32,0.43
	c0.001-0.001,0.001-0.002,0.001-0.002s-0.021,0.027-0.045,0.055l-0.343,0.375c-0.06,0.06-0.124,0.121-0.191,0.182l-0.266,0.229
	c2.715,0.95,9.16,1.912,18.159,2.205l0.941-6.097L56.674,53.273z M44.015,36.519c-1.531-0.188-2.952-0.408-4.194-0.662v-2.291
	c0.86,0.187,1.899,0.375,3.163,0.561c0.331,0.049,0.687,0.091,1.031,0.137V36.519z M49.206,37.016
	c-1.562-0.113-3.086-0.252-4.527-0.418v-2.245c1.411,0.174,2.927,0.324,4.527,0.447V37.016z M55.131,37.331
	c-1.739-0.062-3.516-0.15-5.261-0.269v-2.216c1.679,0.121,3.438,0.213,5.261,0.277V37.331z M61.72,37.436
	c-0.237,0.001-0.474,0.002-0.707,0.002c-1.627,0-3.396-0.027-5.217-0.084v-2.206c1.695,0.052,3.435,0.08,5.204,0.08
	c0.242,0,0.48-0.004,0.72-0.005V37.436z M68.891,37.245c-2.229,0.108-4.44,0.168-6.506,0.187v-2.213
	c2.235-0.018,4.418-0.077,6.506-0.177V37.245z M75.702,36.749c-1.977,0.199-4.061,0.352-6.147,0.462v-2.205
	c2.177-0.115,4.241-0.272,6.147-0.472V36.749z M81.072,36.026c-1.43,0.256-3.021,0.473-4.706,0.654v-2.219
	c0.922-0.103,1.817-0.212,2.65-0.335c0.766-0.112,1.444-0.226,2.056-0.339V36.026z M85.503,34.889
	c-0.991,0.386-2.273,0.724-3.767,1.014v-2.243c2.033-0.413,3.153-0.822,3.767-1.19V34.889z M61,28.924
	c14.105,0,21.886,1.573,23.66,2.45c-1.774,0.876-9.556,2.451-23.66,2.451c-14.105,0-21.886-1.574-23.66-2.451
	C39.114,30.497,46.895,28.924,61,28.924z M36.414,32.416c0.481,0.31,1.31,0.65,2.741,0.998v2.299
	c-1.097-0.25-2.027-0.528-2.741-0.84V32.416z"/>
<path fill="#FFFFFF" d="M71.511,68.708c-3.646,0.277-3.893-1.551-3.892-1.554l-2.822-12.783c-1.091-1.018-1.727-1.055-2.885-0.105
	l1.046,12.92c0,0.912-0.202,2.755,1.106,4.438c1.43,1.837,3.934,1.818,7.446,1.818l26.323,0.697L97.667,68.5L71.511,68.708z"/>
<path fill="#FFFFFF" d="M60.38,67.189c0,0.91,0.21,2.75-1.1,4.431c-1.431,1.84-3.94,1.819-7.45,1.819L1.62,74.77v-7l50.21,0.94
	c3.65,0.28,3.89-1.55,3.89-1.56l1.98-12.78c1.09-1.021,1.649-1.05,2.81-0.101L60.38,67.189z"/>
<g>
	<path fill="#FFFFFF" d="M11.001,9.658c-1.267,0-2.294,1.667-2.294,3.724c0,2.057,1.027,3.724,2.294,3.724
		c1.268,0,2.294-1.667,2.294-3.724C13.295,11.326,12.269,9.658,11.001,9.658z M10.965,15.966c-0.831,0-1.505-1.133-1.505-2.531
		s0.674-2.53,1.505-2.53c0.833,0,1.506,1.133,1.506,2.53S11.798,15.966,10.965,15.966z"/>
	<path fill="#FFFFFF" d="M21.823,13.604c-4.189,0-7.588,4.219-7.588,9.422c0,5.203,3.398,9.422,7.588,9.422
		c4.19,0,7.587-4.219,7.587-9.422C29.41,17.823,26.014,13.604,21.823,13.604z M23.538,30.007c-3.041,0-5.506-3.332-5.506-7.441
		s2.465-7.441,5.506-7.441c3.042,0,5.506,3.332,5.506,7.441S26.58,30.007,23.538,30.007z"/>
	<path fill="#FFFFFF" d="M20.36,12.081l-7.256-1.814c-0.296-0.267-0.629-0.461-0.989-0.565c0.871,0.646,1.474,2.05,1.474,3.681
		c0,1.726-0.675,3.198-1.627,3.786c0.194-0.042,0.383-0.11,0.563-0.201l0.356,0.084c0.018-0.035,0.036-0.069,0.055-0.102
		C14.571,14.043,17.283,12.128,20.36,12.081z"/>
	<path fill="#FFFFFF" d="M29.522,23.261c-0.1,5.338-3.563,9.627-7.822,9.627c-1.884,0-3.611-0.839-4.963-2.236
		c-1.572-1.628-2.631-4.014-2.828-6.714c-0.021-0.3-0.034-0.604-0.034-0.911c0-5.447,3.503-9.862,7.825-9.862
		c1.944,0,3.723,0.894,5.092,2.374c-1.064-1.268-2.382-2.207-3.848-2.685c-0.712-0.232-1.46-0.356-2.229-0.356
		c-3.004,0-5.655,1.879-7.246,4.749c-0.314,0.566-0.586,1.171-0.813,1.807c-0.483,1.363-0.752,2.872-0.752,4.458
		c0,5.052,2.719,9.308,6.427,10.608c0.758,0.266,1.558,0.408,2.384,0.408c4.865,0,8.81-4.932,8.81-11.016
		C29.524,23.429,29.523,23.345,29.522,23.261z"/>
	<path fill="#FFFFFF" d="M11.28,23.721c0-1.583,0.264-3.089,0.737-4.458h-1.467l-0.641,0.62l-0.08,1.44l-1.4,11.402l-0.64,0.041
		l-0.16,2.12l1.8,0.52l5.161-0.32l2.932-0.599C13.891,32.955,11.28,28.714,11.28,23.721z"/>
	<path fill="#FFFFFF" d="M22.367,23.046h-3.291c0.187,3.536,2.258,6.321,4.786,6.321c0.023,0,0.047,0,0.071-0.001v-3.572
		C23.093,25.261,22.489,24.246,22.367,23.046z"/>
	<path fill="#FFFFFF" d="M28.165,22.476h0.495c-0.017-3.445-1.821-6.285-4.156-6.73v3.378c0.248-0.083,0.51-0.129,0.779-0.129
		c0.257,0,0.506,0.041,0.742,0.116c-0.148-0.036-0.301-0.056-0.456-0.056c-1.434,0-2.596,1.585-2.596,3.541
		c0,1.955,1.162,3.541,2.596,3.541c0.155,0,0.308-0.021,0.456-0.056c-0.236,0.076-0.485,0.116-0.742,0.116
		c-0.27,0-0.531-0.045-0.779-0.129v3.239c2.229-0.425,3.973-3.029,4.143-6.261h-0.481V22.476z M26.645,19.755
		c0.083,0,0.149,0.112,0.149,0.25c0,0.138-0.066,0.25-0.149,0.25s-0.15-0.112-0.15-0.25C26.494,19.868,26.562,19.755,26.645,19.755z
		 M24.994,19.545c0.082,0,0.15,0.112,0.15,0.25c0,0.138-0.068,0.25-0.15,0.25c-0.083,0-0.15-0.112-0.15-0.25
		C24.844,19.658,24.911,19.545,24.994,19.545z M23.584,21.336c0.083,0,0.149,0.112,0.149,0.25c0,0.138-0.066,0.25-0.149,0.25
		s-0.15-0.112-0.15-0.25C23.434,21.448,23.501,21.336,23.584,21.336z M23.645,24.137c-0.083,0-0.15-0.112-0.15-0.25
		c0-0.138,0.067-0.25,0.15-0.25c0.082,0,0.148,0.112,0.148,0.25C23.793,24.025,23.727,24.137,23.645,24.137z M25.574,25.827
		c-0.083,0-0.15-0.112-0.15-0.25s0.067-0.25,0.15-0.25s0.149,0.112,0.149,0.25S25.657,25.827,25.574,25.827z M25.569,24.856
		c-0.916,0-1.657-1.012-1.657-2.26s0.741-2.261,1.657-2.261c0.915,0,1.656,1.012,1.656,2.261S26.484,24.856,25.569,24.856z
		 M27.504,24.096c-0.082,0-0.149-0.112-0.149-0.25s0.067-0.25,0.149-0.25c0.084,0,0.15,0.112,0.15,0.25S27.588,24.096,27.504,24.096
		z M27.664,21.856c-0.082,0-0.15-0.112-0.15-0.25c0-0.138,0.068-0.25,0.15-0.25c0.083,0,0.15,0.112,0.15,0.25
		C27.814,21.744,27.747,21.856,27.664,21.856z"/>
	<path fill="#FFFFFF" d="M23.934,19.398v-3.712c-0.024,0-0.048-0.001-0.071-0.001c-2.64,0-4.78,3.036-4.799,6.791h3.282
		C22.382,21.135,23.017,19.979,23.934,19.398z"/>
</g>
</svg>
