<?xml version="1.0" encoding="utf-8"?>
<!-- Generator: Adobe Illustrator 16.0.0, SVG Export Plug-In . SVG Version: 6.00 Build 0)  -->
<!DOCTYPE svg PUBLIC "-//W3C//DTD SVG 1.1//EN" "http://www.w3.org/Graphics/SVG/1.1/DTD/svg11.dtd">
<svg version="1.1" id="Capa_1" xmlns="http://www.w3.org/2000/svg" xmlns:xlink="http://www.w3.org/1999/xlink" x="0px" y="0px"
	 width="100px" height="100px" viewBox="0 0 100 100" enable-background="new 0 0 100 100" xml:space="preserve">
<path fill="#3A1B13" d="M87.281,0H12.469C5.583,0,0,5.583,0,12.469v68.578v3.117v3.117C0,94.167,5.583,99.75,12.469,99.75h74.813
	c6.886,0,12.469-5.583,12.469-12.469v-3.042v-0.075v-3.117V12.469C99.75,5.583,94.167,0,87.281,0z"/>
<path fill="#A44C29" d="M12.469,99.75h74.813c6.886,0,12.469-5.583,12.469-12.469v-3.042l-0.045-0.075H0v3.117
	C0,94.167,5.583,99.75,12.469,99.75z"/>
<rect y="81.047" fill="#FFFFFD" width="99.75" height="3.117"/>
<g>
	<path fill="#FFFFFF" d="M25.666,62.186V37.209c0-4.984-4.042-9.026-9.026-9.026c-4.985,0-9.028,4.042-9.028,9.026v24.976
		c-0.993,0.767-1.738,1.821-2.124,3.047h-0.36v9.24h10.496c0.333,0.036,0.672,0.061,1.016,0.061c0.343,0,0.681-0.024,1.016-0.061
		h10.493v-9.24H27.79C27.403,64.007,26.661,62.952,25.666,62.186z"/>
	<path fill="#FFFFFF" d="M73.422,70.142c-0.146,0-0.231-0.021-0.229-0.013c-0.143-0.167-0.275-0.771-0.263-1.161l0.001-17.549h4.942
		v-2.557l4.242,4.354v0.848c0,0.343,0.281,0.657,0.625,0.657c0.343,0,0.626-0.277,0.626-0.623V41.976
		c0-0.343-0.283-0.626-0.626-0.626c-0.344,0-0.625,0.283-0.625,0.626v0.848l-4.242,4.353v-2.525h-4.941l0.001-23.053
		c0-5.548-4.458-8.188-6.816-8.808l-0.366-0.098H22.804c-4.031,0-6.219,1.579-7.346,2.904c-1.999,2.352-1.901,5.219-1.802,6.177
		v5.384c0.947-0.282,1.946-0.438,2.984-0.438c0.996,0,1.956,0.148,2.871,0.409v-5.531l-0.039-0.472
		c-0.001-0.01-0.102-1.093,0.448-1.737c0.621-0.732,2.074-0.841,2.884-0.841h42.091c0.714,0.284,2.185,1.107,2.185,3.05v23.053
		h-1.646v6.768h1.646v17.316c-0.029,0.747,0.01,3.46,1.865,5.423c0.793,0.839,2.211,1.839,4.478,1.839h22.442v-5.855H73.422z
		 M82.116,44.598v2.797h-2.737L82.116,44.598z M82.116,48.647v2.797l-2.739-2.797H82.116z"/>
	<path fill="#FFFFFF" d="M45.456,53.041c-0.06-0.071-0.116-0.325-0.11-0.489l0.001-7.369h2.075v-1.076l1.783,1.829v0.356
		c0,0.145,0.118,0.276,0.262,0.276s0.263-0.116,0.263-0.261v-5.093c0-0.144-0.119-0.263-0.263-0.263s-0.262,0.119-0.262,0.263v0.357
		L47.422,43.4v-1.061h-2.075v-9.683c0-2.331-1.872-3.438-2.863-3.701l-0.153-0.04h-18.04c-0.43,0-0.81,0.044-1.145,0.117
		c0.838,0.667,1.569,1.455,2.171,2.343h16.653c0.298,0.119,0.917,0.464,0.917,1.28v9.683h-0.69v2.844h0.69v7.271
		c-0.011,0.313,0.004,1.453,0.784,2.278c0.332,0.354,0.93,0.772,1.881,0.772h6.645v-2.46h-6.645
		C45.49,53.045,45.455,53.038,45.456,53.041z M49.205,42.316v1.175h-1.15L49.205,42.316z M49.205,44.017v1.175l-1.152-1.175H49.205z
		"/>
	<path fill="#FFFFFF" d="M57.093,58.781c-0.093-0.108-0.178-0.499-0.17-0.752l0.002-11.361h3.199v-1.655l2.747,2.818v0.549
		c0,0.223,0.182,0.426,0.405,0.426c0.22,0,0.403-0.18,0.403-0.403v-7.85c0-0.221-0.184-0.405-0.403-0.405
		c-0.224,0-0.405,0.184-0.405,0.405v0.55l-2.747,2.818v-1.635h-3.199V27.363c0-3.592-2.884-5.301-4.411-5.703l-0.238-0.062H24.473
		c-2.096,0-3.413,0.66-4.232,1.362l0.002,4.443c0.737,0.276,1.446,0.61,2.097,1.033v-1.073l-0.025-0.306
		c0-0.006-0.066-0.708,0.289-1.125c0.404-0.474,1.344-0.544,1.869-0.544h27.249c0.461,0.185,1.412,0.716,1.412,1.975v14.924h-1.065
		v4.381h1.065v11.209c-0.018,0.484,0.009,2.24,1.209,3.512c0.514,0.543,1.433,1.189,2.9,1.189h8.494v-0.488v-2.458v-0.844h-8.494
		C57.147,58.789,57.091,58.777,57.093,58.781z M62.871,42.252v1.812h-1.772L62.871,42.252z M62.871,44.874v1.811l-1.775-1.811
		H62.871z"/>
</g>
</svg>
