<?xml version="1.0" encoding="utf-8"?>
<!-- Generator: Adobe Illustrator 16.0.0, SVG Export Plug-In . SVG Version: 6.00 Build 0)  -->
<!DOCTYPE svg PUBLIC "-//W3C//DTD SVG 1.1//EN" "http://www.w3.org/Graphics/SVG/1.1/DTD/svg11.dtd">
<svg version="1.1" id="Capa_1" xmlns="http://www.w3.org/2000/svg" xmlns:xlink="http://www.w3.org/1999/xlink" x="0px" y="0px"
	 width="100px" height="100px" viewBox="0 0 100 100" enable-background="new 0 0 100 100" xml:space="preserve">
<path fill="#49494B" d="M87.191,0.35H12.14C5.232,0.35-0.368,5.95-0.368,12.858v68.797v3.127v3.127
	c0,6.908,5.601,12.509,12.508,12.509h75.051c6.908,0,12.509-5.601,12.509-12.509v-3.052v-0.075v-3.127V12.858
	C99.7,5.95,94.1,0.35,87.191,0.35z"/>
<path fill="#822424" d="M12.14,100.418h75.051c6.908,0,12.509-5.601,12.509-12.509v-3.052l-0.045-0.075H-0.368v3.127
	C-0.368,94.817,5.232,100.418,12.14,100.418z"/>
<rect x="-0.368" y="81.655" fill="#FFFFFF" width="100.068" height="3.127"/>
<g>
	<g>
		<path fill="#FFFFFF" d="M11.457,39.27c0,0.674,3.052,1.653,7.83,1.653c4.781,0,7.832-0.979,7.832-1.653
			c0-0.675-3.051-1.655-7.832-1.655C14.508,37.615,11.457,38.595,11.457,39.27"/>
		<path fill="#FFFFFF" d="M19.373,42.542c-2.913,0-7.181-0.444-8.337-1.619V58.12c0,0.738,3.246,1.813,8.329,1.813
			c5.087,0,8.324-1.075,8.324-1.813c0-0.007,0-0.01,0-0.01l0,0V40.949C26.3,42.104,22.267,42.542,19.373,42.542z"/>
	</g>
	<g>
		<path fill="#FFFFFF" d="M18.949,39.717c-0.483,0-0.873-0.393-0.873-0.875v-5.801c0-0.381,0.173-0.715,0.467-0.925
			c0.297-0.207,0.67-0.253,1.029-0.126l11.77,4.207c0.454,0.163,0.689,0.662,0.527,1.116c-0.16,0.45-0.661,0.684-1.115,0.526
			l-10.934-3.906v4.911C19.821,39.324,19.43,39.717,18.949,39.717z"/>
	</g>
	<path fill="#FFFFFF" d="M30.119,21.621c0,0.727,3.105,1.779,7.969,1.779c4.865,0,7.967-1.052,7.967-1.779
		c0-0.726-3.103-1.779-7.967-1.779C33.224,19.841,30.119,20.895,30.119,21.621"/>
	<g>
		<path fill="#FFFFFF" d="M44.634,34.891c0,1.909,8.643,4.684,22.188,4.684c13.543,0,22.188-2.775,22.188-4.684
			c0-1.91-8.645-4.684-22.188-4.684C53.277,30.207,44.634,32.981,44.634,34.891"/>
		<path fill="#FFFFFF" d="M66.907,42.338c-7.749,0-19.098-1.179-22.174-4.303v32.727c0,1.97,8.636,4.83,22.152,4.83
			c13.518,0,22.125-2.856,22.125-4.83c0-0.017,0-0.023,0-0.02l0,0V38.108C85.318,41.176,74.593,42.338,66.907,42.338z"/>
	</g>
	<path fill="#FFFFFF" d="M42.321,32.895L42.321,32.895c0,0,0-0.003,0-0.023c0-0.808,1.308-1.749,3.717-2.62l-0.011-7.465
		c-1.312,1.154-5.124,1.592-7.857,1.592c-2.754,0-6.787-0.444-7.881-1.616l0.07,43.646c0,0.741,3.066,1.816,7.875,1.816
		c1.563,0,2.938-0.114,4.088-0.294V32.895z"/>
</g>
</svg>
