<?xml version="1.0" encoding="utf-8"?>
<!-- Generator: Adobe Illustrator 16.0.0, SVG Export Plug-In . SVG Version: 6.00 Build 0)  -->
<!DOCTYPE svg PUBLIC "-//W3C//DTD SVG 1.1//EN" "http://www.w3.org/Graphics/SVG/1.1/DTD/svg11.dtd">
<svg version="1.1" id="Capa_1" xmlns="http://www.w3.org/2000/svg" xmlns:xlink="http://www.w3.org/1999/xlink" x="0px" y="0px"
	 width="100px" height="100px" viewBox="0 0 100 100" enable-background="new 0 0 100 100" xml:space="preserve">
<path fill="#143D48" d="M50.041,99.917c9.333,0,18.056-2.573,25.527-7.027H24.515C31.986,97.344,40.709,99.917,50.041,99.917z"/>
<path fill="#014C5D" d="M79.126,90.561h0.008C91.765,81.492,100,66.692,100,49.958C100,22.368,77.633,0,50.041,0
	C22.45,0,0.083,22.368,0.083,49.958c0,16.734,8.235,31.534,20.866,40.603h0.007H79.126z"/>
<path fill="#FFFFFF" d="M79.126,90.561h-58.17h-0.007c1.146,0.822,2.326,1.603,3.543,2.329h0.023h51.053h0.021
	c1.217-0.727,2.396-1.507,3.544-2.329H79.126z"/>
<g>
	<path fill="#FFFFFF" d="M57.373,83.086v3.474c0,0.391,0.29,0.704,0.644,0.704c0.357,0,0.646-0.313,0.646-0.704v-1.95
		C58.137,84.157,57.7,83.647,57.373,83.086z"/>
	<path fill="#FFFFFF" d="M69.995,84.608v1.951c0,0.391,0.29,0.704,0.648,0.704c0.355,0,0.643-0.313,0.643-0.704v-3.472
		C70.96,83.647,70.521,84.157,69.995,84.608z"/>
	<path fill="#FFFFFF" d="M70.869,63.825c0.003-0.002,0.004-0.008,0.007-0.011v-5.252v-2.935v-1.479c0-2.259-2.139-4.143-5.012-4.647
		v0.334c0.735,0.184,1.219,0.492,1.219,0.839c0,0.563-1.247,1.018-2.787,1.018c-1.538,0-2.787-0.455-2.787-1.018
		c0-0.351,0.494-0.662,1.241-0.843v-0.32c-2.845,0.519-4.955,2.394-4.955,4.637v1.479v2.935v4.648
		c-0.003-0.002-0.005-0.002-0.005-0.002l-0.001,17.482c0,2.641,2.926,4.782,6.54,4.782c3.608,0,6.54-2.142,6.54-4.782V63.825z"/>
</g>
<path fill="none" d="M40.581,42.204l-2.703-4.797h-3.066l6.012,10.111l-6.254,10.354h3.037l2.458-4.493
	c1.033-1.792,1.64-2.884,2.217-4.07h0.061c0.636,1.186,1.274,2.307,2.337,4.038l2.643,4.525h3.066l-6.377-10.506l6.225-9.959H47.17
	l-2.763,4.797c-0.76,1.306-1.276,2.248-1.852,3.462h-0.091C41.916,44.573,41.34,43.541,40.581,42.204z"/>
<path fill="none" d="M42.555,45.666h-0.091c-0.548-1.093-1.124-2.125-1.883-3.462l-2.703-4.797h-3.066l6.012,10.111l-6.254,10.354
	h3.037l2.458-4.493c1.033-1.792,1.64-2.884,2.217-4.07h0.061c0.636,1.186,1.274,2.307,2.337,4.038l2.643,4.525h3.066l-6.377-10.506
	l6.225-9.959H47.17l-2.763,4.797C43.647,43.51,43.131,44.452,42.555,45.666z"/>
<path fill="#FFFFFF" d="M65.385,16.71v-1.685c0-0.31-0.144-0.592-0.374-0.794l-18.75-7.164c-0.006-0.001-0.01,0-0.015-0.001
	l-3.039-1.162C42.856,5.77,42.46,5.811,42.145,6.01c-0.311,0.202-0.501,0.538-0.501,0.898V7.56v8.511c0,0.02,0.01,0.036,0.012,0.055
	h-0.506v0.014c-4.814,0.381-8.606,4.41-8.606,9.325v45.636c0,1.225,0.237,2.396,0.667,3.47h-2.402c-0.739,0-1.361,0.506-1.361,1.102
	v0.314v9.937c0,0.738,0.503,1.36,1.257,1.36c0.595,0,1.1-0.622,1.1-1.36v-8.997h2.777c1.712,2.149,4.354,3.528,7.318,3.528h1.089
	c2.964,0,5.603-1.379,7.317-3.528h2.778v8.997c0,0.738,0.503,1.36,1.257,1.36c0.596,0,1.1-0.622,1.1-1.36v-9.937v-0.314
	c0-0.596-0.597-1.102-1.336-1.102h-2.426c0.43-1.073,0.664-2.245,0.664-3.47V25.465c0-4.851-3.697-8.828-8.423-9.296
	c0-0.004,0.003-0.008,0.003-0.014v-2.938c0-0.002-0.002-0.005-0.002-0.008V8.512l0.778,0.296l2.274,0.869V9.674l15.361,5.868
	l0.778,0.297v26.435v7.95v0.023c0,0.599,0.507,1.084,1.139,1.084c0.627,0,1.135-0.485,1.135-1.084v-7.106l-0.015-0.004V16.704
	L65.385,16.71z M50.237,37.407l-6.225,9.959l6.377,10.506h-3.066l-2.643-4.525c-1.063-1.73-1.701-2.852-2.337-4.038h-0.061
	c-0.577,1.186-1.184,2.278-2.217,4.07l-2.458,4.493h-3.037l6.254-10.354l-6.012-10.111h3.066l2.703,4.797
	c0.759,1.336,1.335,2.369,1.883,3.462h0.091c0.576-1.214,1.092-2.156,1.852-3.462l2.763-4.797H50.237z M45.86,17.065
	c0,0.314-1.334,0.571-2.979,0.571c-1.644,0-2.978-0.257-2.978-0.571c0-0.239,0.757-0.442,1.833-0.528
	c0.16,0.42,0.566,0.721,1.052,0.721c0.491,0,0.898-0.307,1.057-0.731C45.014,16.604,45.86,16.814,45.86,17.065z"/>
</svg>
