<?xml version="1.0" encoding="utf-8"?>
<!-- Generator: Adobe Illustrator 16.0.0, SVG Export Plug-In . SVG Version: 6.00 Build 0)  -->
<!DOCTYPE svg PUBLIC "-//W3C//DTD SVG 1.1//EN" "http://www.w3.org/Graphics/SVG/1.1/DTD/svg11.dtd">
<svg version="1.1" id="Capa_1" xmlns="http://www.w3.org/2000/svg" xmlns:xlink="http://www.w3.org/1999/xlink" x="0px" y="0px"
	 width="100px" height="100px" viewBox="0 0 100 100" enable-background="new 0 0 100 100" xml:space="preserve">
<path fill="#3A1B13" d="M87.839-0.016h-75.17c-6.919,0-12.528,5.609-12.528,12.528v68.905v3.133v3.132
	c0,6.919,5.609,12.528,12.528,12.528h75.17c6.919,0,12.528-5.609,12.528-12.528v-3.057v-0.075v-3.133V12.513
	C100.367,5.594,94.758-0.016,87.839-0.016z"/>
<path fill="#A44C29" d="M12.669,100.211h75.17c6.919,0,12.528-5.609,12.528-12.528v-3.057l-0.045-0.075H0.141v3.132
	C0.141,94.602,5.75,100.211,12.669,100.211z"/>
<rect x="0.141" y="81.418" fill="#FFFFFD" width="100.227" height="3.133"/>
<g>
	<path fill="#FFFFFF" d="M68.612,62.975c-3.304,0-5.989,3.07-5.989,6.847c0,3.777,2.686,6.848,5.989,6.848s5.99-3.07,5.99-6.848
		C74.603,66.045,71.916,62.975,68.612,62.975z"/>
	<path fill="#FFFFFF" d="M54.097,70.98c0-2.47-1.152-4.63-2.872-5.835c-0.911-0.638-1.976-1.013-3.12-1.013
		c-3.304,0-5.99,3.071-5.99,6.848c0,3.777,2.687,6.848,5.99,6.848c1.965,0,3.704-1.09,4.798-2.764
		C53.648,73.922,54.097,72.513,54.097,70.98z"/>
	<path fill="#FFFFFF" d="M33.878,70.98c0-1.904-0.684-3.628-1.786-4.871c-1.082-1.22-2.566-1.977-4.204-1.977
		c-3.304,0-5.991,3.071-5.991,6.848c0,3.777,2.687,6.848,5.991,6.848c1.496,0,2.864-0.636,3.913-1.675
		C33.071,74.897,33.878,73.045,33.878,70.98z"/>
	<path fill="#FFFFFF" d="M21.289,65.833l-0.02,0.003v0.032C21.276,65.857,21.281,65.844,21.289,65.833z"/>
	<path fill="#FFFFFF" d="M20.854,70.98c0-2.753,1.265-5.178,3.175-6.59L8.952,66.525v0.009c-2.349,0.095-4.227,2.111-4.227,4.59
		c0,2.381,1.726,4.337,3.94,4.577l-0.003,0.097l15.513,1.873C22.185,76.274,20.854,73.802,20.854,70.98z"/>
	<path fill="#FFFFFF" d="M41.071,70.98c0-2.941,1.445-5.507,3.577-6.864l-11.511,1.629c1.15,1.446,1.785,3.287,1.785,5.235
		c0,1.89-0.616,3.703-1.703,5.125l10.823,1.306C42.248,75.979,41.071,73.633,41.071,70.98z"/>
	<path fill="#FFFFFF" d="M37.618,58.579c0.001,0,0.148,0.049,0.194,0.093c0.05,0.047,0.142,0.253,0.142,0.69
		c0,1.78-0.02,3.421-0.041,4.652l4.186-0.592c0.017-1.152,0.032-2.557,0.032-4.061c0-1.912-0.764-3.059-1.405-3.682
		c-1.294-1.261-2.91-1.275-3.163-1.276H22.313v4.176L37.618,58.579z"/>
	<path fill="#FFFFFF" d="M14.362,54.404c-1.918,0-2.995,0.805-3.56,1.48c-1.004,1.199-0.983,2.624-0.918,3.222v6.231l4.176-0.591
		v-5.775l-0.033-0.365c0.07-0.014,0.179-0.026,0.335-0.026h1.687v-4.176H14.362z"/>
	<path fill="#FFFFFF" d="M24.638,46.835c-3.099,0-5.308,0.821-6.569,2.442c-1.154,1.484-1.08,3.103-0.976,3.801v11.239l4.176-0.591
		V52.636l-0.064-0.253c-0.001-0.003-0.02-0.311,0.161-0.542c0.15-0.194,0.834-0.829,3.272-0.829h50.999v-4.176H24.638z"/>
	<path fill="#FFFFFF" d="M88.197,30.675V28.63c0-1.695-0.762-2.701-1.402-3.248c-1.404-1.197-3.271-1.117-3.954-1.037h-17.22
		c-2.558,0-4.464,0.742-5.665,2.205c-1.33,1.619-1.252,3.51-1.164,4.209v15.032h4.176V30.609l-0.039-0.406
		c-0.001-0.005-0.067-0.612,0.254-1.002c0.355-0.432,1.242-0.68,2.438-0.68h17.357l0.33-0.026c0.15-0.022,0.515-0.013,0.71,0.044
		c0.003,0.024,0.003,0.054,0.003,0.091v1.27c0.176-0.011,0.354-0.022,0.532-0.022C85.837,29.877,87.073,30.164,88.197,30.675z"/>
	<path fill="#FFFFFF" d="M92.338,37.298c-0.783-3.648-3.968-6.377-7.784-6.377c-3.813,0-6.999,2.729-7.782,6.377H76.68v0.539
		c-0.057,0.393-0.096,0.791-0.096,1.199c0,0.408,0.039,0.806,0.096,1.199v36.964h15.846V37.298H92.338z"/>
	<polygon fill="#FFFFFF" points="62.968,52.056 58.792,52.056 58.792,63.021 62.968,62.43 	"/>
	<path fill="#FFFFFF" d="M61.579,69.821c0-2.754,1.266-5.18,3.178-6.592l-12.134,1.718c1.589,1.489,2.517,3.673,2.517,6.033
		c0,1.509-0.398,2.951-1.123,4.219l10.883,1.312C62.91,75.115,61.579,72.642,61.579,69.821z"/>
</g>
</svg>
