<?xml version="1.0" encoding="utf-8"?>
<!-- Generator: Adobe Illustrator 16.0.0, SVG Export Plug-In . SVG Version: 6.00 Build 0)  -->
<!DOCTYPE svg PUBLIC "-//W3C//DTD SVG 1.1//EN" "http://www.w3.org/Graphics/SVG/1.1/DTD/svg11.dtd">
<svg version="1.1" id="Capa_1" xmlns="http://www.w3.org/2000/svg" xmlns:xlink="http://www.w3.org/1999/xlink" x="0px" y="0px"
	 width="100px" height="100px" viewBox="0 0 100 100" enable-background="new 0 0 100 100" xml:space="preserve">
<path fill="#3A653C" d="M87.421,0.142H12.634c-6.884,0-12.465,5.581-12.465,12.464v68.555v3.116v3.116
	c0,6.884,5.581,12.465,12.465,12.465h74.787c6.884,0,12.465-5.581,12.465-12.465v-3.041v-0.075v-3.116V12.606
	C99.886,5.723,94.305,0.142,87.421,0.142z"/>
<path fill="#2B4A35" d="M12.946,99.858h74.788c6.884,0,12.465-5.581,12.465-12.465v-3.041l-0.045-0.075H0.481v3.116
	C0.481,94.277,6.063,99.858,12.946,99.858z"/>
<rect x="0.481" y="81.161" fill="#FFFFFF" width="99.717" height="3.116"/>
<path fill="#FFFFFF" d="M97.877,60.437v-2.218h-0.959v0.639h-0.471v-0.944c0-1.186-0.962-2.146-2.147-2.146
	c-1.187,0-2.146,0.961-2.146,2.146v2.573h-6.938l-0.496-1.073h0.388c0.342,0,0.615-0.275,0.615-0.616s-0.273-0.617-0.615-0.617
	h-0.547V42.236h0.547c0.342,0,0.615-0.276,0.615-0.616c0-0.341-0.273-0.617-0.615-0.617h-0.547v-16.54h0.547
	c0.342,0,0.615-0.277,0.615-0.618c0-0.338-0.273-0.616-0.615-0.616H76.52c-0.342,0-0.616,0.277-0.616,0.616
	c0,0.341,0.274,0.618,0.616,0.618h0.497v16.54H76.52c-0.342,0-0.616,0.276-0.616,0.617c0,0.34,0.274,0.616,0.616,0.616h0.497V58.18
	H76.52c-0.342,0-0.616,0.276-0.616,0.617s0.274,0.616,0.616,0.616h0.337l-0.501,1.073H55.847l-0.498-1.073h0.389
	c0.34,0,0.615-0.275,0.615-0.616s-0.275-0.617-0.615-0.617h-0.548V42.236h0.548c0.34,0,0.615-0.276,0.615-0.616
	c0-0.341-0.275-0.617-0.615-0.617h-0.548v-5.319h1.614v1.501h1.477v-1.023l3.134,3.187v1.129c0,0.383,0.31,0.698,0.687,0.698h0.465
	c0.377,0,0.688-0.315,0.688-0.698v-14.46c0-0.384-0.311-0.698-0.688-0.698h-0.465c-0.377,0-0.687,0.314-0.687,0.698v1.13
	l-3.134,3.187v-1.024h-1.477v1.501h-1.614v-6.35h0.548c0.34,0,0.615-0.277,0.615-0.618c0-0.338-0.275-0.616-0.615-0.616h-8.588
	c-0.341,0-0.617,0.277-0.617,0.616c0,0.341,0.276,0.618,0.617,0.618h0.497v16.54h-0.497c-0.341,0-0.617,0.276-0.617,0.617
	c0,0.34,0.276,0.616,0.617,0.616h0.497V58.18h-0.497c-0.341,0-0.617,0.276-0.617,0.617s0.276,0.616,0.617,0.616h0.337l-0.5,1.073
	H23.614l-0.496-1.073h0.387c0.341,0,0.617-0.275,0.617-0.616s-0.276-0.617-0.617-0.617h-0.546V42.236h0.546
	c0.341,0,0.617-0.276,0.617-0.616c0-0.341-0.276-0.617-0.617-0.617h-0.546v-16.54h0.546c0.341,0,0.617-0.277,0.617-0.618
	c0-0.338-0.276-0.616-0.617-0.616h-8.587c-0.34,0-0.618,0.277-0.618,0.616c0,0.341,0.278,0.618,0.618,0.618h0.496v16.54h-0.496
	c-0.34,0-0.618,0.276-0.618,0.617c0,0.34,0.278,0.616,0.618,0.616h0.496V58.18h-0.496c-0.34,0-0.618,0.276-0.618,0.617
	s0.278,0.616,0.618,0.616h0.336l-0.5,1.073H7.383v-2.573c0-1.186-0.963-2.146-2.146-2.146c-1.186,0-2.148,0.961-2.148,2.146v0.944
	h-0.47v-0.639H1.659v2.218h0.959v-0.636h0.47v5.021h-0.47v-0.639H1.659v2.219h0.959v-0.637h0.47v5.338h-0.47v-0.637H1.659v2.218
	h0.959v-0.638h0.47v0.607c0,1.185,0.962,2.146,2.148,2.146c1.184,0,2.146-0.962,2.146-2.146v-2.465h84.77v2.465
	c0,1.185,0.96,2.146,2.146,2.146c1.186,0,2.147-0.962,2.147-2.146v-0.607h0.471v0.638h0.959v-2.218h-0.959v0.637h-0.471v-5.338
	h0.471v0.637h0.959v-2.219h-0.959v0.639h-0.471v-5.021h0.471v0.636H97.877z M58.617,32.118l2.797-2.845v7.952l-2.806-2.854
	c0.106-0.335,0.166-0.724,0.166-1.141C58.774,32.826,58.718,32.446,58.617,32.118z"/>
</svg>
