<?xml version="1.0" encoding="utf-8"?>
<!-- Generator: Adobe Illustrator 16.0.0, SVG Export Plug-In . SVG Version: 6.00 Build 0)  -->
<!DOCTYPE svg PUBLIC "-//W3C//DTD SVG 1.1//EN" "http://www.w3.org/Graphics/SVG/1.1/DTD/svg11.dtd">
<svg version="1.1" id="Capa_1" xmlns="http://www.w3.org/2000/svg" xmlns:xlink="http://www.w3.org/1999/xlink" x="0px" y="0px"
	 width="100px" height="100px" viewBox="0 0 100 100" enable-background="new 0 0 100 100" xml:space="preserve">
<path fill="#49494B" d="M87.493-0.052H12.454c-6.906,0-12.506,5.6-12.506,12.506V81.24v3.127v3.126
	c0,6.907,5.6,12.507,12.506,12.507h75.039C94.4,100,100,94.4,100,87.493v-3.051v-0.075V81.24V12.454
	C100,5.548,94.4-0.052,87.493-0.052z"/>
<rect x="-0.052" y="81.24" fill="#FFFFFF" width="100.052" height="3.127"/>
<path fill="#822424" d="M12.454,100h75.039C94.4,100,100,94.4,100,87.493v-3.051l-0.045-0.075H-0.052v3.126
	C-0.052,94.4,5.548,100,12.454,100z"/>
<g>
	<path fill="#FFFFFF" d="M23.363,64.57c-1.538-1.593-2.845-3.402-3.875-5.383v14.494h-3.715v2.742h11.141v-2.742h-3.551V64.57z"/>
	<path fill="#FFFFFF" d="M42.899,71.351c-1.007,0.138-2.027,0.232-3.069,0.232c-0.273,0-0.535-0.033-0.806-0.043v2.142H35.31v2.742
		h11.142v-2.742h-3.552V71.351z"/>
	<path fill="#FFFFFF" d="M61.629,55.729c-0.856,2.637-2.183,5.06-3.874,7.184v10.77H54.04v2.742h11.142v-2.742h-3.553V55.729z"/>
	<path fill="#FFFFFF" d="M43.384,16.925h31.001V35.84c0.085-0.023,0.189-0.055,0.27-0.074l1.136-0.186
		c0.276-0.035,0.407-0.045,0.54-0.05l0.569-0.011l1.76,0.185c0.328,0.066,0.59,0.134,0.849,0.211l0.689,0.309V14.02
		c0-1.605-1.302-2.906-2.907-2.906H40.477c-1.604,0-2.907,1.301-2.907,2.906v7.266h5.813V16.925z"/>
	<path fill="#FFFFFF" d="M80.197,53.491l-0.248,0.093c-0.102,0.04-0.233,0.083-0.36,0.121l-0.206,0.101l-0.045-0.026l-0.218,0.059
		c-0.06,0.017-0.149,0.035-0.242,0.053l-1.296,0.2l-0.379,0.027c0,0-0.006,0-0.017,0.001c-0.018,0.003-0.041,0.004-0.075,0.004
		l-0.212,0.006l-0.095,0.001l-1.039-0.063c-0.288-0.032-0.466-0.058-0.639-0.089l-0.399-0.082c-0.093-0.02-0.221-0.052-0.343-0.089
		v19.874h-2.907v2.742h11.142v-2.742h-2.422V53.491z"/>
	<path fill="#FFFFFF" d="M61.771,44.066h-0.88c-1.296-5.857-4.932-10.827-9.92-13.834v-7.688H29.035v7.484
		c-5.156,2.988-8.927,8.05-10.251,14.038h-1.217c-2.203,0-3.989,1.785-3.989,3.987c0,2.203,1.786,3.989,3.989,3.989h0.948
		c1.602,10.349,10.524,18.281,21.319,18.281c10.799,0,19.719-7.933,21.323-18.281h0.613c2.203,0,3.989-1.786,3.989-3.989
		C65.76,45.851,63.974,44.066,61.771,44.066z"/>
	<path fill="#FFFFFF" d="M85.162,44.572c0-0.067-0.005-0.132-0.008-0.197c-0.005-0.108-0.018-0.217-0.028-0.328
		c-0.004-0.039-0.005-0.079-0.012-0.118c-0.002-0.038-0.004-0.071-0.01-0.107c-0.008-0.083-0.019-0.163-0.031-0.246
		c-0.009-0.077-0.022-0.153-0.035-0.23c-0.014-0.063-0.026-0.125-0.041-0.188c0-0.009-0.005-0.021-0.005-0.03
		c-0.007-0.026-0.01-0.056-0.018-0.083c-0.012-0.057-0.024-0.115-0.038-0.17c0-0.009-0.002-0.012-0.004-0.019
		c-0.009-0.04-0.02-0.077-0.029-0.113c-0.011-0.05-0.025-0.097-0.04-0.146c-0.003-0.025-0.013-0.05-0.02-0.076
		c-0.015-0.054-0.032-0.106-0.049-0.161c-0.004-0.008-0.007-0.019-0.009-0.029c-0.006-0.02-0.012-0.037-0.017-0.056
		c-0.032-0.098-0.067-0.198-0.102-0.296c-0.033-0.091-0.067-0.18-0.102-0.268c-0.016-0.039-0.033-0.075-0.05-0.115
		c-0.005-0.016-0.014-0.026-0.017-0.042c-0.015-0.032-0.03-0.069-0.045-0.104c-0.037-0.084-0.079-0.17-0.118-0.255
		c-0.041-0.085-0.083-0.171-0.129-0.253c-0.01-0.022-0.024-0.042-0.035-0.065c-0.013-0.02-0.021-0.039-0.03-0.055
		c-0.023-0.042-0.046-0.086-0.068-0.127c-0.075-0.131-0.151-0.258-0.234-0.384c-0.028-0.042-0.056-0.086-0.086-0.129
		c-0.007-0.013-0.017-0.024-0.024-0.036c-0.004-0.007-0.009-0.015-0.015-0.023c-0.047-0.067-0.093-0.133-0.141-0.197
		c-0.038-0.055-0.082-0.112-0.122-0.165s-0.086-0.103-0.125-0.154c-0.044-0.055-0.087-0.106-0.133-0.16
		c-0.032-0.041-0.063-0.079-0.094-0.117c-0.063-0.073-0.124-0.138-0.192-0.207c-0.051-0.058-0.105-0.114-0.161-0.168
		c-0.013-0.015-0.026-0.028-0.041-0.042c-0.061-0.061-0.125-0.127-0.191-0.186c-0.026-0.025-0.055-0.048-0.082-0.075
		c-0.087-0.077-0.175-0.153-0.266-0.229c-0.017-0.016-0.032-0.031-0.052-0.045c-0.007-0.006-0.015-0.014-0.021-0.019
		c-0.074-0.058-0.146-0.118-0.222-0.175c-0.072-0.054-0.145-0.108-0.22-0.163c-0.025-0.017-0.056-0.034-0.082-0.051
		c-0.124-0.086-0.257-0.166-0.386-0.246c-0.086-0.051-0.164-0.11-0.249-0.157c-0.058-0.033-0.117-0.066-0.175-0.1
		c-0.088-0.045-0.174-0.089-0.264-0.131c-0.077-0.039-0.158-0.079-0.237-0.115c-0.053-0.023-0.105-0.048-0.157-0.068
		c-0.008-0.004-0.016-0.006-0.022-0.009c-0.006-0.002-0.011-0.002-0.017-0.005c-0.047-0.023-0.096-0.041-0.146-0.064
		c-0.07-0.027-0.147-0.056-0.221-0.084c-0.094-0.034-0.186-0.064-0.274-0.095c-0.033-0.011-0.065-0.018-0.097-0.028
		c-0.01-0.003-0.021-0.005-0.035-0.011c-0.013-0.002-0.026-0.01-0.04-0.013c-0.229-0.07-0.465-0.13-0.7-0.181
		c-0.014-0.001-0.024-0.003-0.04-0.007c-0.001,0-0.001,0-0.003,0c-0.06-0.011-0.12-0.024-0.178-0.036
		c-0.121-0.021-0.243-0.042-0.365-0.059c-0.066-0.007-0.134-0.014-0.202-0.024c-0.023-0.002-0.047-0.004-0.071-0.006
		c-0.01-0.001-0.02-0.001-0.028-0.001c-0.117-0.012-0.234-0.023-0.354-0.031c-0.105-0.005-0.216-0.009-0.324-0.011
		c-0.053,0-0.104-0.002-0.154-0.002c-0.044,0-0.087,0-0.129,0.002c-0.098,0.002-0.199,0.004-0.299,0.01
		c-0.115,0.006-0.23,0.013-0.344,0.024c-0.023,0.003-0.042,0.006-0.063,0.008c-0.016,0-0.027,0.001-0.044,0.003
		c-0.046,0.005-0.09,0.008-0.135,0.016c-0.026,0-0.052,0.006-0.074,0.008c-0.024,0.001-0.048,0.005-0.071,0.008
		c-0.049,0.006-0.096,0.014-0.143,0.023c-0.007,0-0.013,0-0.016,0c-0.094,0.017-0.186,0.033-0.275,0.051
		c-0.024,0.006-0.048,0.01-0.07,0.015c-0.012,0.002-0.026,0.006-0.037,0.008c-0.048,0.009-0.093,0.017-0.139,0.028
		c-0.031,0.005-0.063,0.012-0.092,0.021c-0.17,0.04-0.338,0.084-0.503,0.136c-0.022,0.008-0.048,0.014-0.072,0.021
		c-0.056,0.02-0.113,0.037-0.17,0.057c-0.055,0.02-0.108,0.039-0.166,0.057c-0.112,0.041-0.223,0.086-0.334,0.134
		c-0.033,0.012-0.067,0.026-0.1,0.042c-0.009,0.002-0.019,0.005-0.028,0.008c-0.083,0.037-0.167,0.073-0.247,0.112
		c-0.084,0.038-0.162,0.078-0.245,0.122c-0.047,0.023-0.095,0.049-0.142,0.075c-0.025,0.011-0.047,0.026-0.07,0.038
		c-0.047,0.026-0.1,0.051-0.144,0.079c-0.151,0.086-0.302,0.179-0.447,0.276c-0.014,0.011-0.027,0.021-0.042,0.029
		c-0.018,0.012-0.033,0.023-0.051,0.034c-0.037,0.025-0.072,0.049-0.11,0.075c-0.007,0.006-0.016,0.013-0.026,0.016
		c-0.09,0.069-0.181,0.135-0.269,0.202c-0.059,0.046-0.117,0.096-0.177,0.143c-0.018,0.012-0.033,0.026-0.049,0.039
		c-0.019,0.018-0.04,0.032-0.059,0.047c-0.031,0.029-0.063,0.055-0.094,0.082c-0.043,0.039-0.088,0.077-0.134,0.118
		c-0.081,0.075-0.158,0.151-0.235,0.228c-0.026,0.024-0.049,0.044-0.072,0.069c-0.005,0.005-0.013,0.011-0.018,0.016
		c-0.049,0.049-0.099,0.097-0.144,0.147c-0.061,0.065-0.125,0.132-0.182,0.201c-0.052,0.059-0.104,0.119-0.153,0.18
		c-0.004,0.007-0.01,0.012-0.014,0.017c-0.008,0.012-0.018,0.021-0.027,0.032c-0.066,0.082-0.134,0.165-0.197,0.253
		c-0.07,0.09-0.139,0.186-0.202,0.28c-0.014,0.016-0.023,0.033-0.035,0.047c-0.016,0.025-0.031,0.052-0.05,0.077
		c-0.018,0.026-0.037,0.053-0.056,0.079c-0.044,0.068-0.09,0.137-0.128,0.208c-0.05,0.077-0.099,0.157-0.141,0.237
		c-0.021,0.036-0.039,0.072-0.059,0.107c-0.006,0.01-0.015,0.022-0.02,0.033c-0.01,0.015-0.018,0.033-0.026,0.05
		c-0.042,0.072-0.075,0.146-0.112,0.218c-0.034,0.066-0.065,0.13-0.092,0.196c-0.028,0.057-0.055,0.112-0.074,0.169
		c-0.009,0.014-0.015,0.029-0.021,0.044c-0.009,0.021-0.02,0.044-0.027,0.064c0,0.002,0,0.004-0.003,0.005
		c-0.029,0.066-0.055,0.135-0.084,0.201c-0.06,0.155-0.112,0.312-0.166,0.469c-0.006,0.019-0.009,0.038-0.017,0.057
		c0,0.004-0.002,0.011-0.005,0.017c-0.019,0.055-0.035,0.112-0.05,0.167c-0.01,0.026-0.017,0.051-0.02,0.076
		c-0.015,0.048-0.029,0.096-0.04,0.146c-0.011,0.036-0.021,0.073-0.029,0.113c-0.002,0.007-0.004,0.01-0.004,0.019
		c-0.016,0.055-0.027,0.113-0.04,0.17c-0.006,0.027-0.009,0.055-0.014,0.08c-0.006,0.013-0.008,0.026-0.011,0.039
		c-0.011,0.059-0.021,0.123-0.034,0.183c-0.015,0.077-0.029,0.153-0.038,0.23c-0.014,0.083-0.024,0.164-0.034,0.246
		c-0.004,0.031-0.004,0.062-0.008,0.092c-0.006,0.054-0.008,0.104-0.013,0.155c-0.009,0.103-0.021,0.204-0.026,0.305
		c-0.004,0.065-0.006,0.13-0.009,0.197c0,0.081-0.005,0.166-0.005,0.25c0,0.085,0.005,0.17,0.005,0.252
		c0.003,0.064,0.005,0.131,0.009,0.195c0.006,0.103,0.018,0.205,0.026,0.306c0.005,0.05,0.007,0.101,0.013,0.153
		c0.004,0.029,0.004,0.063,0.008,0.094c0.01,0.083,0.021,0.164,0.034,0.248c0.009,0.075,0.023,0.151,0.038,0.228
		c0.013,0.065,0.024,0.125,0.036,0.189c0.003,0.008,0.003,0.019,0.009,0.028c0.005,0.028,0.006,0.058,0.014,0.086
		c0.013,0.056,0.024,0.115,0.04,0.173c0,0.005,0.002,0.006,0.004,0.014c0.009,0.04,0.019,0.081,0.029,0.116l0.031,0.119
		c0.002,0.019,0.012,0.036,0.017,0.055c0.017,0.062,0.036,0.125,0.054,0.186c0.006,0.022,0.015,0.045,0.021,0.064
		c0.009,0.024,0.014,0.049,0.022,0.072c0,0.005,0.002,0.011,0.004,0.019c0.007,0.024,0.017,0.051,0.026,0.079
		c0.017,0.048,0.034,0.096,0.052,0.142c0.007,0.026,0.019,0.053,0.026,0.078c0.039,0.103,0.077,0.205,0.122,0.306
		c0.004,0.014,0.012,0.027,0.017,0.045c0.04,0.089,0.078,0.178,0.119,0.265c0.038,0.081,0.076,0.16,0.117,0.24
		c0.023,0.049,0.052,0.093,0.076,0.14c0.024,0.049,0.052,0.097,0.078,0.146c0.021,0.038,0.04,0.077,0.061,0.114
		c0.046,0.079,0.093,0.156,0.14,0.234c0.059,0.092,0.117,0.188,0.178,0.279c0.063,0.09,0.127,0.178,0.192,0.268
		c0.042,0.057,0.087,0.116,0.129,0.174c0.04,0.05,0.082,0.099,0.123,0.148c0.024,0.031,0.05,0.061,0.077,0.094
		c0.027,0.031,0.053,0.065,0.079,0.094c0.045,0.055,0.094,0.109,0.144,0.164c0.066,0.074,0.136,0.14,0.206,0.212
		c0.033,0.037,0.069,0.075,0.105,0.113c0.024,0.021,0.044,0.046,0.066,0.068c0.062,0.057,0.125,0.114,0.186,0.173
		c0.076,0.068,0.151,0.136,0.228,0.197c0.021,0.021,0.043,0.038,0.065,0.054c0.009,0.008,0.017,0.016,0.027,0.023
		c0.055,0.042,0.106,0.089,0.16,0.133c0.091,0.068,0.183,0.139,0.279,0.205c0.025,0.019,0.051,0.037,0.077,0.053
		c0.025,0.021,0.056,0.04,0.084,0.062c0.019,0.011,0.038,0.021,0.054,0.033c0.046,0.031,0.092,0.063,0.141,0.094
		c0.152,0.099,0.31,0.194,0.472,0.282c0.014,0.007,0.026,0.014,0.042,0.021c0.004,0.004,0.008,0.007,0.013,0.007
		c0.058,0.031,0.112,0.063,0.171,0.091c0.02,0.012,0.043,0.021,0.063,0.031c0.099,0.051,0.198,0.098,0.3,0.143
		c0,0,0,0.004,0.002,0.004c0.054,0.023,0.111,0.047,0.166,0.07c0.011,0.003,0.023,0.009,0.036,0.017
		c0.034,0.015,0.067,0.027,0.102,0.043c0.075,0.027,0.149,0.059,0.223,0.086c0.077,0.029,0.154,0.053,0.229,0.079
		c0.014,0.007,0.023,0.011,0.031,0.013c0.055,0.018,0.105,0.033,0.156,0.051c0.006,0,0.01,0,0.015,0.003
		c0.018,0.006,0.038,0.013,0.059,0.019c0.038,0.015,0.08,0.025,0.122,0.035c0.04,0.013,0.081,0.023,0.121,0.032
		c0.105,0.033,0.217,0.06,0.329,0.082c0.045,0.013,0.09,0.021,0.136,0.029c0.016,0.005,0.032,0.008,0.049,0.012
		c0.049,0.009,0.1,0.02,0.15,0.03c0.19,0.033,0.389,0.058,0.585,0.08c0.028,0.002,0.054,0.009,0.08,0.013
		c0.007,0,0.01,0,0.013,0.002c0.118,0.01,0.235,0.021,0.351,0.026c0.118,0.005,0.234,0.012,0.351,0.013
		c0.042,0.002,0.085,0.002,0.129,0.002c0.051,0,0.102-0.002,0.154-0.002c0.052,0,0.102-0.001,0.152-0.006
		c0.013,0,0.028,0,0.039-0.002c0.055-0.001,0.106-0.003,0.157-0.009c0.066-0.002,0.131-0.013,0.197-0.018
		c0.095-0.007,0.189-0.018,0.287-0.028c0.069-0.01,0.139-0.012,0.206-0.021c0.094-0.016,0.188-0.029,0.282-0.048
		c0.042-0.007,0.084-0.018,0.125-0.026c0.072-0.014,0.14-0.029,0.21-0.048c0.092-0.019,0.185-0.033,0.27-0.059
		c0.07-0.017,0.138-0.032,0.202-0.052c0.034-0.011,0.066-0.02,0.104-0.03c0.025-0.01,0.053-0.018,0.081-0.024
		c0.006-0.003,0.012-0.006,0.019-0.006c0.007-0.006,0.018-0.007,0.026-0.011c0.104-0.029,0.21-0.064,0.31-0.103
		c0.098-0.035,0.195-0.075,0.288-0.108c0.033-0.016,0.066-0.03,0.101-0.045c0.026-0.013,0.053-0.024,0.079-0.034
		c0.06-0.025,0.119-0.05,0.179-0.076c0.066-0.03,0.133-0.065,0.196-0.095c0.069-0.033,0.14-0.065,0.205-0.106
		c0.026-0.013,0.054-0.025,0.08-0.042c0.013-0.007,0.024-0.012,0.036-0.019c0.017-0.009,0.032-0.016,0.049-0.026
		c0.046-0.022,0.086-0.055,0.127-0.081c0.217-0.125,0.424-0.256,0.627-0.395c0.026-0.022,0.058-0.035,0.083-0.056
		c0.046-0.032,0.089-0.064,0.133-0.096c0.055-0.044,0.107-0.083,0.16-0.126c0.046-0.034,0.089-0.069,0.132-0.105
		c0.003-0.002,0.007-0.006,0.009-0.008c0.011-0.008,0.022-0.017,0.033-0.026c0.093-0.077,0.178-0.154,0.265-0.232
		c0.1-0.09,0.195-0.181,0.291-0.276c0.069-0.069,0.136-0.143,0.205-0.213c0.028-0.027,0.048-0.051,0.071-0.077
		c0.049-0.054,0.101-0.11,0.149-0.168c0.025-0.031,0.052-0.066,0.08-0.099c0.021-0.024,0.039-0.045,0.058-0.068
		c0.022-0.028,0.047-0.054,0.069-0.085c0.033-0.041,0.069-0.082,0.101-0.128c0.032-0.043,0.066-0.084,0.099-0.132
		c0.064-0.085,0.126-0.173,0.188-0.26c0.06-0.093,0.121-0.188,0.18-0.282c0.059-0.094,0.113-0.189,0.166-0.285
		c0.023-0.036,0.046-0.078,0.064-0.115c0.005-0.004,0.006-0.007,0.007-0.011c0.003-0.006,0.007-0.011,0.009-0.016
		c0.03-0.053,0.059-0.105,0.085-0.161c0.044-0.085,0.085-0.167,0.122-0.251c0.044-0.085,0.081-0.175,0.118-0.264
		c0.007-0.016,0.015-0.033,0.025-0.052c0-0.008,0.005-0.014,0.007-0.021c0.086-0.206,0.163-0.416,0.232-0.628
		c0.008-0.023,0.016-0.049,0.023-0.074c0.006-0.021,0.013-0.041,0.019-0.062c0.019-0.06,0.035-0.124,0.053-0.186
		c0.007-0.019,0.016-0.036,0.02-0.055l0.03-0.119c0.01-0.036,0.021-0.076,0.029-0.116c0.002-0.008,0.004-0.009,0.004-0.014
		c0.014-0.058,0.026-0.117,0.038-0.173c0.008-0.031,0.013-0.06,0.018-0.088c0-0.007,0.005-0.014,0.005-0.021
		c0.015-0.065,0.027-0.126,0.041-0.194c0.013-0.077,0.026-0.153,0.035-0.228c0.013-0.083,0.023-0.165,0.031-0.248
		c0.006-0.036,0.008-0.071,0.013-0.106c0.004-0.04,0.005-0.077,0.009-0.118c0.011-0.108,0.023-0.218,0.028-0.329
		c0.003-0.063,0.008-0.131,0.008-0.195c0.002-0.083,0.004-0.167,0.004-0.252C85.166,44.738,85.164,44.653,85.162,44.572z
		 M73.079,39.434c0.008-0.005,0.013-0.008,0.017-0.013c0.206-0.144,0.422-0.27,0.644-0.387c0.136-0.071,0.272-0.143,0.414-0.206
		c0.026-0.012,0.057-0.025,0.084-0.037c0.177-0.076,0.353-0.145,0.536-0.205c0.007-0.004,0.01-0.004,0.016-0.005
		c0.397-0.131,0.811-0.223,1.234-0.275c0.011-0.002,0.024-0.002,0.035-0.004c0.209-0.024,0.426-0.04,0.644-0.042H76.7
		c0.042-0.005,0.085-0.005,0.129-0.005c0.051,0,0.102,0,0.154,0.005c0.658,0.013,1.29,0.125,1.884,0.321
		c0.017,0.003,0.03,0.009,0.042,0.013c0.187,0.063,0.367,0.132,0.545,0.21c0.017,0.006,0.031,0.013,0.049,0.021
		c0.354,0.158,0.691,0.35,1.009,0.563c0.02,0.015,0.041,0.026,0.06,0.042c0.02,0.011,0.035,0.024,0.052,0.038
		c0.149,0.105,0.295,0.215,0.436,0.334c0.002,0.001,0.008,0.005,0.009,0.007c0.002,0.002,0.004,0.002,0.006,0.004
		c0.006,0.005,0.012,0.013,0.018,0.017l-0.295,0.298l-0.109,0.107l-2.315,2.315l-0.39,0.39c-0.337-0.207-0.729-0.331-1.152-0.331
		c-0.023,0-0.044,0.001-0.063,0.001c0.008,0,0.016,0.002,0.021,0.002c-0.408,0.008-0.788,0.129-1.112,0.328l-0.39-0.39l-2.637-2.636
		l-0.083-0.083C72.73,39.689,72.9,39.558,73.079,39.434z M78.228,44.823c0,0.772-0.629,1.399-1.4,1.399
		c-0.772,0-1.396-0.626-1.396-1.399c0-0.773,0.624-1.399,1.396-1.399C77.599,43.423,78.228,44.049,78.228,44.823z M70.386,43.562
		c0.017-0.085,0.039-0.167,0.059-0.25c0.033-0.134,0.061-0.268,0.102-0.398c0.004-0.011,0.007-0.025,0.009-0.034
		c0.059-0.188,0.127-0.374,0.201-0.554c0.008-0.022,0.019-0.043,0.026-0.065c0.076-0.176,0.157-0.349,0.246-0.515
		c0.007-0.015,0.015-0.031,0.022-0.042c0.089-0.169,0.189-0.331,0.292-0.49c0.002-0.002,0.005-0.006,0.007-0.008
		c0.009-0.018,0.02-0.035,0.032-0.049c0.102-0.151,0.21-0.299,0.324-0.44c0.017-0.02,0.033-0.04,0.051-0.062
		c0.026-0.031,0.057-0.063,0.082-0.094l0.404,0.405l2.703,2.702c-0.119,0.195-0.212,0.409-0.265,0.638h-0.551h-3.272h-0.57
		C70.31,44.055,70.339,43.806,70.386,43.562z M72.244,48.679C72.243,48.679,72.243,48.679,72.244,48.679l-0.407,0.402
		c-0.023-0.028-0.054-0.058-0.078-0.089c-0.018-0.021-0.036-0.042-0.054-0.064c-0.115-0.141-0.224-0.289-0.325-0.442
		c-0.012-0.015-0.021-0.03-0.03-0.044c-0.002-0.002-0.003-0.004-0.005-0.004c-0.104-0.164-0.205-0.328-0.294-0.499
		c-0.008-0.01-0.016-0.022-0.022-0.035c-0.061-0.114-0.11-0.233-0.165-0.349c-0.05-0.11-0.1-0.221-0.144-0.335
		c-0.062-0.147-0.118-0.298-0.163-0.45c-0.004-0.013-0.007-0.026-0.011-0.04c-0.041-0.129-0.071-0.263-0.102-0.396
		c-0.02-0.082-0.042-0.165-0.059-0.249c-0.047-0.242-0.076-0.493-0.098-0.744h0.57v-0.001h3.272h0.551
		c0.053,0.23,0.145,0.442,0.265,0.637l-0.389,0.392L72.244,48.679z M80.607,50.189c-0.011,0.01-0.022,0.02-0.036,0.027
		c-0.014,0.01-0.026,0.019-0.042,0.026c-0.327,0.223-0.671,0.419-1.037,0.581c-0.007,0.006-0.016,0.008-0.023,0.014
		c-0.186,0.081-0.373,0.152-0.564,0.219c-0.009,0.001-0.017,0.003-0.024,0.007c-0.196,0.062-0.396,0.118-0.6,0.167h-0.002
		c-0.418,0.094-0.851,0.147-1.295,0.158c-0.053,0.002-0.104,0.002-0.154,0.002c-0.044,0-0.087,0-0.129-0.002h0.002
		c-0.219-0.005-0.438-0.021-0.65-0.046c-0.006,0-0.014,0-0.021-0.003c-0.42-0.05-0.825-0.141-1.218-0.265
		c-0.016-0.006-0.03-0.011-0.047-0.018c-0.175-0.057-0.348-0.124-0.517-0.195c-0.034-0.017-0.068-0.031-0.1-0.045
		c-0.141-0.062-0.277-0.133-0.412-0.206c-0.221-0.117-0.437-0.244-0.643-0.382c-0.001-0.005-0.006-0.009-0.009-0.009
		c-0.167-0.116-0.327-0.239-0.483-0.371c-0.002-0.001-0.002-0.003-0.004-0.003c-0.011-0.01-0.021-0.021-0.034-0.033l0.057-0.053
		l3.053-3.055c0.324,0.2,0.702,0.319,1.108,0.328c-0.005,0-0.012,0-0.018,0c0.02,0.002,0.04,0.004,0.063,0.004
		c0.424,0,0.815-0.125,1.152-0.332l0.39,0.391l2.72,2.719C80.935,49.949,80.774,50.072,80.607,50.189z M83.269,46.104
		c-0.005,0.018-0.007,0.035-0.012,0.049c-0.038,0.191-0.085,0.379-0.142,0.563c-0.004,0.019-0.008,0.034-0.013,0.049
		c-0.052,0.163-0.11,0.319-0.174,0.476c-0.027,0.072-0.058,0.145-0.088,0.216c-0.065,0.145-0.131,0.287-0.202,0.426
		c-0.007,0.01-0.011,0.02-0.019,0.029c-0.005,0.012-0.014,0.024-0.019,0.036c-0.057,0.104-0.119,0.204-0.181,0.304
		c-0.055,0.088-0.109,0.179-0.166,0.266c-0.083,0.119-0.17,0.234-0.259,0.35c-0.032,0.039-0.063,0.083-0.098,0.124
		c-0.026,0.032-0.056,0.061-0.083,0.09l-0.143-0.142l-0.258-0.261L79.1,46.368l-0.39-0.392c0.119-0.195,0.211-0.408,0.266-0.637
		h0.552h3.273l0.567,0.001C83.347,45.599,83.317,45.855,83.269,46.104z M82.801,44.307h-3.273h-0.552
		c-0.055-0.229-0.146-0.441-0.266-0.635l0.39-0.393l2.313-2.311l0.286-0.288l0.116-0.117c0.022,0.022,0.045,0.047,0.065,0.07
		c0.048,0.058,0.091,0.115,0.139,0.174c0.078,0.104,0.156,0.209,0.23,0.318c0.063,0.094,0.123,0.191,0.182,0.289
		c0.057,0.091,0.115,0.182,0.164,0.276c0.008,0.016,0.018,0.029,0.024,0.044c0.008,0.011,0.013,0.022,0.02,0.033
		c0.083,0.157,0.159,0.319,0.229,0.483c0.013,0.032,0.028,0.065,0.039,0.094c0.07,0.177,0.137,0.354,0.194,0.535
		c0.005,0.019,0.009,0.036,0.015,0.053c0.055,0.186,0.1,0.369,0.14,0.556c0.004,0.02,0.007,0.037,0.012,0.056
		c0.049,0.25,0.078,0.506,0.1,0.764H82.801z"/>
</g>
</svg>
