<?xml version="1.0" encoding="utf-8"?>
<!-- Generator: Adobe Illustrator 16.0.0, SVG Export Plug-In . SVG Version: 6.00 Build 0)  -->
<!DOCTYPE svg PUBLIC "-//W3C//DTD SVG 1.1//EN" "http://www.w3.org/Graphics/SVG/1.1/DTD/svg11.dtd">
<svg version="1.1" id="Capa_1" xmlns="http://www.w3.org/2000/svg" xmlns:xlink="http://www.w3.org/1999/xlink" x="0px" y="0px"
	 width="100px" height="100px" viewBox="0 0 100 100" enable-background="new 0 0 100 100" xml:space="preserve">
<path fill="#143D48" d="M87.513,0H12.772C5.893,0,0.315,5.578,0.315,12.457V80.97v3.113v3.114c0,6.88,5.578,12.457,12.457,12.457
	h74.741c6.88,0,12.457-5.577,12.457-12.457v-3.039v-0.075V80.97V12.457C99.97,5.578,94.393,0,87.513,0z"/>
<path fill-rule="evenodd" clip-rule="evenodd" fill="#FFFFFD" d="M30.94,47.15v8.552h-8.293v11.403h2.651v5.925
	c4.373,0.297,7.354,1.349,10.133,2.448v-8.373h32.253v7.043c2.382-0.699,5.164-1.202,8.857-1.202l0.239,0.001
	c0.238,0.001,0.463,0.012,0.691,0.018v-5.859h1.843V55.702h-3.898L66.385,27.02h2.479v-0.345v-2.763h-2.421V17.52h-0.345v-0.346
	H58.67v0.346h-0.519v6.393h-1.9v3.108h1.786l-9.031,28.682h-5.884V47.15h-1.944L23.735,11.667l-0.444-0.166l-2.244,0.951
	l-0.002,0.426l-0.124-0.282l-0.949,0.086L32.896,47.15H30.94z M30.251,65.377h-6.222v-1.555h6.222V65.377z M30.251,63.132h-6.222
	v-1.297h6.222V63.132z M30.251,60.454h-6.222v-1.7h6.222V60.454z M30.251,58.063h-6.222v-1.151h6.222V58.063z M37.821,65.377h-6.218
	v-1.555h6.218V65.377z M37.821,63.132h-6.218v-1.297h6.218V63.132z M37.821,60.454h-6.218v-1.7h6.218V60.454z M37.821,58.063h-6.218
	v-1.151h6.218V58.063z M34.081,42.93l3.899,0.133l-2.558,2.958L34.081,42.93z M45.684,65.377h-6.219v-1.555h6.219V65.377z
	 M45.684,63.132h-6.219v-1.297h6.219V63.132z M45.684,60.454h-6.219v-1.7h6.219V60.454z M61.577,65.377h-6.218v-1.555h6.218V65.377z
	 M61.577,63.132h-6.218v-1.297h6.218V63.132z M61.577,60.454h-6.218v-1.7h6.218V60.454z M61.577,58.063h-6.218v-1.151h6.218V58.063z
	 M69.469,65.377h-6.221v-1.555h6.221V65.377z M69.469,63.132h-6.221v-1.297h6.221V63.132z M69.469,60.454h-6.221v-1.7h6.221V60.454z
	 M69.469,58.063h-6.221v-1.151h6.221V58.063z M77.501,65.377h-6.22v-1.555h6.22V65.377z M77.501,63.132h-6.22v-1.297h6.22V63.132z
	 M77.501,60.454h-6.22v-1.7h6.22V60.454z M77.501,56.911v1.151h-6.22v-1.151H77.501z M74.181,55.702H63.203v-3.219l8.403-4.951
	L74.181,55.702z M63.203,51.682V41.4l8.161,5.471L63.203,51.682z M71.076,45.846l-7.873-5.277v-0.668l4.993-3.203L71.076,45.846z
	 M67.98,36.015l-4.777,3.064v-6.584l4.629,3.045L67.98,36.015z M67.504,34.497l-4.301-2.829V27.02h1.945L67.504,34.497z
	 M62.858,17.866h3.109v2.591h-3.109V17.866z M62.858,21.149h3.109v2.763h-3.109V21.149z M59.055,17.866h3.11v2.591h-2.936v0.692
	h2.936v2.763h-3.11V17.866z M59.701,27.02h2.119v4.742l-4.515,2.861L59.701,27.02z M56.985,35.647l4.835-3.066v7.061l-5.033-3.372
	L56.985,35.647z M56.572,36.957l4.861,3.258l-7.378,4.73L56.572,36.957z M53.733,45.973l8.087-5.186v11.016l-8.126-5.716
	L53.733,45.973z M53.479,46.779l8.342,5.871v3.053H50.669L53.479,46.779z M47.324,56.911h6.221v1.151h-6.221V56.911z M47.324,58.754
	h6.221v1.7h-6.221V58.754z M47.324,61.835h6.221v1.297h-6.221V61.835z M47.324,63.822h6.221v1.555h-6.221V63.822z M45.684,56.911
	v1.151h-6.219v-1.151H45.684z M40.409,47.15h-4.495l-0.186-0.426l2.851-3.294L40.409,47.15z M38.061,42.376l-3.658-0.127
	l2.229-2.783L38.061,42.376z M36.043,38.271l-3.705-0.313l2.071-3.008L36.043,38.271z M23.258,12.263l0.65,1.322l-1.856-0.812
	L23.258,12.263z M21.154,13.135l2.332,1.02l-0.96,2.143L21.154,13.135z M24.217,14.213l1.87,3.804l-3.14-0.971L24.217,14.213z
	 M23.199,17.846l2.438,0.756l-1.037,2.475L23.199,17.846z M26.38,18.615l1.703,3.465l-3.036-0.284L26.38,18.615z M25.22,22.506
	l2.452,0.23l-1.389,2.221L25.22,22.506z M28.442,22.808l1.601,3.257l-3.362-0.439L28.442,22.808z M26.887,26.35l2.654,0.346
	l-1.369,2.616L26.887,26.35z M30.336,26.663l1.658,3.369l-3.347-0.138L30.336,26.663z M28.729,30.589l2.968,0.121l-1.759,2.67
	L28.729,30.589z M32.412,30.882l1.533,3.12l-3.503-0.131L32.412,30.882z M30.45,34.562l3.303,0.125l-1.991,2.893L30.45,34.562z
	 M32.22,38.642l3.921,0.33l-2.447,3.062L32.22,38.642z"/>
<path fill="#014C5D" d="M99.941,84.112l0.012-3.662c0,0-0.081,0.032-0.186,0.074c-0.058,0.454-0.758,4.38-7.592,4.92
	c-5.549,0.439-10.227-4.057-15.922-3.798c-3.722,0.17-7.538,1.752-12.736,3.228c-1.863,0.528-7.727,2.428-14.144,2.323
	c-6.032-0.099-12.631-2.165-14.517-2.73c-4.501-1.347-7.96-2.668-11.34-2.82c-5.693-0.259-10.371,4.237-15.919,3.798
	c-4.926-0.388-6.662-2.533-7.271-3.874c-0.002,0-0.012-0.001-0.012-0.001v2.514v0.438v2.676c0,6.88,5.578,12.457,12.457,12.457
	h74.741c6.88,0,12.457-5.577,12.457-12.457v-3.039L99.941,84.112z"/>
<path fill="#FFFFFD" d="M7.598,85.444c5.549,0.439,10.227-4.057,15.919-3.798c3.38,0.152,6.839,1.474,11.34,2.82
	c1.885,0.565,8.485,2.632,14.517,2.73c6.417,0.104,12.28-1.795,14.144-2.323c5.198-1.476,9.015-3.058,12.736-3.228
	c5.695-0.259,10.373,4.237,15.922,3.798c6.834-0.54,7.534-4.466,7.592-4.92c0.004-0.027,0.006-0.046,0.006-0.046
	c-12.856,3.651-10.3-4.604-22.787-4.677c-12.207-0.069-13.536,5.495-27.099,5.823c-13.564-0.328-14.894-5.893-27.101-5.823
	C10.295,75.875,12.853,84.13,0,80.479c0,0,0.039,0.456,0.328,1.092C0.936,82.911,2.672,85.057,7.598,85.444z"/>
</svg>
