<?xml version="1.0" encoding="utf-8"?>
<!-- Generator: Adobe Illustrator 16.0.0, SVG Export Plug-In . SVG Version: 6.00 Build 0)  -->
<!DOCTYPE svg PUBLIC "-//W3C//DTD SVG 1.1//EN" "http://www.w3.org/Graphics/SVG/1.1/DTD/svg11.dtd">
<svg version="1.1" id="Capa_1" xmlns="http://www.w3.org/2000/svg" xmlns:xlink="http://www.w3.org/1999/xlink" x="0px" y="0px"
	 width="100px" height="100px" viewBox="0 0 100 100" enable-background="new 0 0 100 100" xml:space="preserve">
<g>
	<path fill="#2B4A35" d="M76.208,87.447H52.912h-6.03H17.687C26.44,95.25,37.977,100,50.626,100s24.186-4.75,32.939-12.553h-1.328
		H76.208z"/>
	<path fill="#3A653C" d="M54.266,84.352h20.286H84.82h1.764C94.898,75.493,100,63.583,100,50.475
		c0-27.352-22.173-49.525-49.525-49.525c-27.352,0-49.525,22.173-49.525,49.525c0,13.108,5.102,25.019,13.416,33.877h29.631H54.266z
		"/>
	<path fill="#FFFFFD" d="M51.898,20.308c0,0,2.489,0.316,3.789-0.983c0.777-0.776,0.706-1.962-0.07-2.738
		c-0.774-0.774-1.962-0.845-2.737-0.069C51.581,17.816,51.898,20.308,51.898,20.308z"/>
	<path fill="#FFFFFD" d="M56.198,13.803c0.453-0.454,0.412-1.148-0.042-1.602s-1.147-0.496-1.601-0.042
		c-0.762,0.761-0.576,2.219-0.576,2.219S55.438,14.563,56.198,13.803z"/>
	<path fill="#FFFFFD" d="M50.878,16.517c0,0,1.765-1.367,1.765-3c0-0.975-0.791-1.677-1.765-1.677s-1.765,0.703-1.765,1.677
		C49.113,15.149,50.878,16.517,50.878,16.517z"/>
	<path fill="#FFFFFD" d="M47.778,14.378c0,0,0.185-1.458-0.576-2.219c-0.454-0.454-1.147-0.412-1.601,0.042
		c-0.454,0.454-0.495,1.148-0.042,1.602C46.319,14.563,47.778,14.378,47.778,14.378z"/>
	<path fill="#FFFFFD" d="M46.14,16.586c-0.776,0.776-0.846,1.962-0.071,2.738c1.3,1.299,3.791,0.983,3.791,0.983
		s0.316-2.492-0.982-3.791C48.102,15.742,46.915,15.812,46.14,16.586z"/>
	<path fill="#FFFFFF" d="M86.735,84.352h-1.764H74.703H54.416H44.148H14.517c1.011,1.077,2.066,2.112,3.17,3.096h29.196h6.03h23.296
		h6.029h1.328C84.668,86.464,85.725,85.429,86.735,84.352z"/>
	<g>
		<path fill="#FFFFFF" d="M62.54,44.461l-2.919,0.411l-0.107,0.132c0.175,0.453,0.413,0.869,0.703,1.236h4.809l-0.957-1.097
			C63.471,45.181,62.902,44.92,62.54,44.461z"/>
		<path fill="#FFFFFF" d="M69.834,46.24h2.247v-3.276h-1.566C70.576,44.097,70.342,45.219,69.834,46.24z"/>
		<path fill="#FFFFFF" d="M67.276,46.236l0.026,0.003h0.295c0.753-0.939,1.109-2.096,1.021-3.276h-2.895v0.001
			c0.076,0.373,0.036,0.75-0.115,1.093L67.276,46.236z"/>
		<path fill="#FFFFFF" d="M51.248,33.449c-0.597,0.04-1.166-0.222-1.528-0.68l-0.408,0.058v3.155
			c0.552,0.225,1.153,0.346,1.778,0.346c0.323,0,0.649-0.034,0.97-0.102c0.386-0.08,0.758-0.208,1.111-0.381l-0.013-0.204
			L51.248,33.449z"/>
		<path fill="#FFFFFF" d="M52.789,32.365l0.855,1.117v-5.759l-0.004,0.001l-1.068,2.824c0.163,0.213,0.277,0.458,0.332,0.723
			C52.981,31.644,52.941,32.022,52.789,32.365z"/>
		<path fill="#FFFFFF" d="M38.237,44.461l-2.917,0.411l-0.11,0.132c0.175,0.453,0.414,0.869,0.706,1.236h4.806l-0.955-1.097
			C39.169,45.181,38.6,44.92,38.237,44.461z"/>
		<path fill="#FFFFFF" d="M50.753,29.871l1.149-2.671l-0.053-0.246c-0.572-0.095-1.156-0.083-1.723,0.036
			c-0.282,0.058-0.554,0.143-0.815,0.25v3.651l0.196-0.04C49.748,30.353,50.205,29.989,50.753,29.871z"/>
		<path fill="#FFFFFF" d="M42.974,46.236L43,46.24h0.295c0.752-0.939,1.11-2.096,1.023-3.276h-2.896l0.001,0.001
			c0.078,0.373,0.036,0.75-0.115,1.093L42.974,46.236z"/>
		<path fill="#FFFFFF" d="M33.081,48.035V46.24h0.614c-0.248-0.495-0.436-1.026-0.552-1.586c-0.167-0.795-0.184-1.599-0.062-2.377
			v-0.897h-5.574v1.584h-1.81v3.276h1.81v1.795H33.081z"/>
		<path fill="#FFFFFF" d="M63.387,72.76v-1.373H60.56v1.373h-3.905V71.07h3.118v-7.397h-6.128V46.24h0.894v1.795h2.826V46.24h0.631
			c-0.247-0.495-0.434-1.026-0.551-1.586c-0.158-0.759-0.184-1.524-0.08-2.27v-1.005h-2.826v1.584h-0.894v-1.902h1.689v-3.275
			h-1.689v-0.08c-0.383,0.159-0.784,0.285-1.199,0.371c-0.447,0.093-0.904,0.142-1.357,0.142l0,0
			c-0.815-0.001-1.602-0.154-2.333-0.433h-1.134v3.275h1.691v1.902h-0.541v-1.584h-2.827v0.028c0.053,0.177,0.099,0.358,0.137,0.542
			c0.307,1.47,0.111,2.966-0.551,4.291h0.414v1.795h2.827V46.24h0.541v17.433h-5.6v7.397h2.589v1.689h-3.554v-1.373h-2.827v1.373
			H27.599v3.275h12.322v2.007h2.827v-2.007h3.554v2.535h-2.589v7.396h16.06V78.57h-3.118v-2.535h3.905v2.007h2.827v-2.007h11.864
			V72.76H63.387z"/>
		<path fill="#FFFFFF" d="M51.1,24.996c0.895,0,1.755,0.184,2.545,0.517v-1.991h-4.333v1.721c0.141-0.039,0.284-0.075,0.429-0.106
			C50.188,25.044,50.646,24.996,51.1,24.996z"/>
		<path fill="#FFFFFF" d="M52.348,37.612c3.316-0.693,5.443-3.944,4.75-7.259c-0.692-3.316-3.942-5.444-7.259-4.75
			c-3.316,0.693-5.443,3.943-4.75,7.26C45.782,36.178,49.032,38.305,52.348,37.612z M52.157,36.692
			c-2.623,0.547-5.194-0.987-6.001-3.477l0.396-0.482l3.399-0.478c0.269,0.517,0.854,0.818,1.454,0.693
			c0.011-0.002,0.019-0.007,0.029-0.01l2.188,2.511l0.042,0.671C53.204,36.382,52.7,36.578,52.157,36.692z M53.752,27.152
			c1.203,0.718,2.117,1.914,2.427,3.393c0.351,1.685-0.159,3.345-1.228,4.533l-0.749-0.084l-1.979-2.587
			c0.204-0.292,0.294-0.661,0.217-1.037c-0.062-0.289-0.213-0.533-0.415-0.715l1.241-3.282L53.752,27.152z M50.031,26.524
			c0.758-0.159,1.511-0.139,2.221,0.025l0.146,0.701l-1.315,3.061c-0.074,0.003-0.149,0.009-0.224,0.024
			c-0.5,0.104-0.869,0.476-1.001,0.932l-3.579,0.717l-0.379-0.389C45.903,29.19,47.584,27.035,50.031,26.524z"/>
		<path fill="#FFFFFF" d="M65.169,49.305c3.316-0.692,5.442-3.944,4.75-7.26c-0.693-3.316-3.944-5.442-7.26-4.75
			c-3.316,0.693-5.443,3.943-4.75,7.26C58.603,47.871,61.854,49.998,65.169,49.305z M64.977,48.384
			c-2.622,0.548-5.193-0.985-6.001-3.476l0.396-0.482l3.399-0.479c0.268,0.518,0.854,0.819,1.454,0.694
			c0.01-0.002,0.019-0.007,0.029-0.01l2.188,2.511l0.04,0.67C66.025,48.075,65.521,48.271,64.977,48.384z M66.572,38.845
			c1.204,0.719,2.116,1.913,2.426,3.393c0.353,1.686-0.16,3.345-1.226,4.534l-0.751-0.086L65.042,44.1
			c0.205-0.292,0.297-0.662,0.218-1.039c-0.062-0.288-0.212-0.531-0.416-0.714l1.241-3.282L66.572,38.845z M62.851,38.216
			c0.758-0.158,1.512-0.138,2.22,0.025l0.147,0.701l-1.316,3.062c-0.074,0.002-0.148,0.008-0.223,0.023
			c-0.499,0.104-0.87,0.477-1.004,0.933l-3.576,0.716l-0.379-0.389C58.724,40.884,60.403,38.728,62.851,38.216z"/>
		<path fill="#FFFFFF" d="M40.867,49.305c3.316-0.692,5.443-3.944,4.75-7.26c-0.694-3.316-3.945-5.442-7.261-4.75
			c-3.316,0.693-5.442,3.943-4.75,7.26C34.301,47.871,37.551,49.998,40.867,49.305z M40.675,48.384
			c-2.621,0.548-5.194-0.985-6.001-3.476l0.398-0.482l3.399-0.479c0.268,0.518,0.854,0.819,1.453,0.694
			c0.011-0.002,0.021-0.007,0.03-0.01l2.188,2.511l0.041,0.67C41.724,48.075,41.22,48.271,40.675,48.384z M42.272,38.845
			c1.203,0.719,2.115,1.913,2.424,3.393c0.353,1.686-0.16,3.345-1.228,4.534l-0.749-0.086L40.741,44.1
			c0.205-0.292,0.294-0.662,0.216-1.039c-0.06-0.288-0.211-0.531-0.413-0.714l1.241-3.282L42.272,38.845z M38.549,38.216
			c0.759-0.158,1.512-0.138,2.221,0.025l0.147,0.701L39.6,42.004c-0.075,0.002-0.149,0.008-0.224,0.023
			c-0.498,0.104-0.868,0.477-1.001,0.933l-3.577,0.716l-0.379-0.389C34.421,40.884,36.102,38.728,38.549,38.216z"/>
	</g>
</g>
</svg>
