<?xml version="1.0" encoding="utf-8"?>
<!-- Generator: Adobe Illustrator 16.0.0, SVG Export Plug-In . SVG Version: 6.00 Build 0)  -->
<!DOCTYPE svg PUBLIC "-//W3C//DTD SVG 1.1//EN" "http://www.w3.org/Graphics/SVG/1.1/DTD/svg11.dtd">
<svg version="1.1" id="Capa_1" xmlns="http://www.w3.org/2000/svg" xmlns:xlink="http://www.w3.org/1999/xlink" x="0px" y="0px"
	 width="100px" height="100px" viewBox="0 0 100 100" enable-background="new 0 0 100 100" xml:space="preserve">
<g>
	<path fill="#3A653C" d="M54.163,83.555h20.332h10.291h1.768C94.887,74.676,100,62.74,100,49.603
		c0-27.414-22.223-49.636-49.637-49.636c-27.413,0-49.636,22.223-49.636,49.636c0,13.138,5.112,25.073,13.446,33.952h29.697H54.163z
		"/>
	<path fill="#FFFFFF" d="M86.705,83.555h-1.767H74.646H54.314H44.022H14.325c1.013,1.08,2.071,2.117,3.177,3.104h29.262h6.043
		h23.348h6.043h1.331C84.634,85.672,85.692,84.635,86.705,83.555z"/>
	<path fill="#FFFFFD" d="M52.841,23.792c0,0,4.331,0.55,6.593-1.71c1.351-1.35,1.227-3.413-0.124-4.763
		c-1.347-1.348-3.412-1.47-4.762-0.121C52.288,19.458,52.841,23.792,52.841,23.792z"/>
	<path fill="#FFFFFD" d="M60.319,12.475c0.789-0.789,0.718-1.997-0.071-2.787c-0.791-0.789-1.996-0.861-2.785-0.072
		c-1.325,1.323-1.003,3.86-1.003,3.86S58.998,13.799,60.319,12.475z"/>
	<path fill="#FFFFFD" d="M51.066,17.197c0,0,3.071-2.379,3.071-5.22c0-1.695-1.376-2.917-3.071-2.917
		c-1.694,0-3.071,1.222-3.071,2.917C47.995,14.818,51.066,17.197,51.066,17.197z"/>
	<path fill="#FFFFFD" d="M45.674,13.477c0,0,0.32-2.537-1.003-3.86c-0.788-0.79-1.994-0.717-2.785,0.072
		c-0.788,0.79-0.86,1.998-0.071,2.787C43.135,13.799,45.674,13.477,45.674,13.477z"/>
	<path fill="#FFFFFD" d="M42.823,17.318c-1.35,1.35-1.471,3.414-0.122,4.763c2.261,2.26,6.594,1.71,6.594,1.71
		s0.551-4.334-1.709-6.595C46.236,15.849,44.171,15.97,42.823,17.318z"/>
	<path fill="none" d="M49.289,42.855c0.231-0.793,0.874-1.44,1.743-1.621c0.129-0.027,0.26-0.036,0.389-0.042l2.287-5.324
		l-0.252-1.22c-1.235-0.284-2.545-0.319-3.863-0.043c-4.257,0.89-7.182,4.639-7.188,8.82l0.658,0.677L49.289,42.855z M48.341,35.851
		c0.454-0.187,0.928-0.335,1.419-0.436c0.984-0.207,1.999-0.227,2.997-0.062l0.091,0.428l-2,4.647
		c-0.953,0.204-1.747,0.837-2.164,1.706l-0.343,0.068V35.851z"/>
	<path fill="none" d="M53.782,43.033c0.135,0.654-0.023,1.296-0.377,1.805l3.442,4.5l1.304,0.146
		c1.858-2.066,2.745-4.954,2.135-7.885c-0.538-2.573-2.127-4.652-4.22-5.902l-0.848,0.382l-2.159,5.709
		C53.412,42.107,53.675,42.532,53.782,43.033z M55.871,36.693l0.008-0.002v10.02l-1.489-1.944c0.265-0.596,0.336-1.254,0.2-1.902
		c-0.095-0.46-0.293-0.887-0.576-1.257L55.871,36.693z"/>
	<path fill="none" d="M33.807,63.373c0.137,0.656-0.019,1.299-0.374,1.807l3.442,4.498l1.302,0.15
		c1.858-2.068,2.749-4.957,2.135-7.887c-0.538-2.574-2.124-4.65-4.217-5.902l-0.847,0.381l-2.16,5.711
		C33.44,62.449,33.704,62.873,33.807,63.373z M34.619,63.205l-0.002-0.002h5.037c0.152,2.053-0.472,4.064-1.778,5.699h-0.515
		l-0.045-0.006l-2.897-3.791C34.682,64.51,34.753,63.852,34.619,63.205z"/>
	<path fill="none" d="M29.315,63.197c0.232-0.793,0.875-1.441,1.742-1.623c0.129-0.025,0.259-0.037,0.389-0.041l2.291-5.326
		l-0.257-1.219c-1.231-0.283-2.542-0.318-3.862-0.043c-4.256,0.889-7.18,4.641-7.186,8.82l0.66,0.678L29.315,63.197z"/>
	<path fill="none" d="M74.336,66.105c-0.019,0.004-0.034,0.016-0.052,0.018c-1.044,0.219-2.063-0.307-2.529-1.207l-5.913,0.832
		l-0.689,0.838c1.404,4.334,5.877,7,10.439,6.049c0.945-0.199,1.825-0.541,2.62-0.996l-0.069-1.164L74.336,66.105z M67.312,68.902
		c-0.505-0.639-0.921-1.361-1.224-2.15l0.188-0.23l5.075-0.715c0.631,0.799,1.62,1.254,2.66,1.186l1.664,1.91H67.312z"/>
	<path fill="none" d="M76.085,63.373c0.136,0.656-0.023,1.299-0.379,1.807l3.442,4.498l1.306,0.15
		c1.854-2.068,2.747-4.957,2.133-7.887c-0.537-2.574-2.126-4.65-4.22-5.902L77.52,56.42l-2.159,5.711
		C75.715,62.449,75.978,62.873,76.085,63.373z M76.893,63.205v-0.002h5.036c0.152,2.053-0.469,4.064-1.777,5.699h-0.514
		l-0.046-0.006l-2.899-3.791C76.956,64.51,77.025,63.852,76.893,63.205z"/>
	<path fill="none" d="M52.035,45.765c-0.021,0.005-0.034,0.014-0.052,0.017c-1.044,0.219-2.062-0.307-2.529-1.206l-5.914,0.831
		l-0.688,0.838c1.403,4.332,5.877,7,10.439,6.047c0.945-0.197,1.821-0.539,2.621-0.994l-0.072-1.167L52.035,45.765z M53.121,51.482
		c-0.557,0.119-1.126,0.176-1.688,0.176c-1.084,0-2.13-0.211-3.092-0.602v-5.488l0.71-0.1c0.631,0.797,1.62,1.251,2.658,1.183
		l3.323,3.813l0.022,0.354C54.439,51.121,53.792,51.344,53.121,51.482z"/>
	<path fill="none" d="M71.587,63.197c0.233-0.793,0.878-1.441,1.748-1.623c0.127-0.025,0.258-0.037,0.387-0.041l2.289-5.326
		l-0.255-1.219c-1.233-0.283-2.544-0.318-3.862-0.043c-4.258,0.889-7.179,4.641-7.187,8.82l0.659,0.678L71.587,63.197z"/>
	<path fill="none" d="M32.062,66.105c-0.018,0.004-0.034,0.016-0.053,0.018c-1.043,0.219-2.062-0.307-2.528-1.207l-5.911,0.832
		l-0.693,0.838c1.405,4.334,5.882,7,10.44,6.049c0.948-0.199,1.824-0.541,2.622-0.996l-0.07-1.164L32.062,66.105z M25.037,68.902
		c-0.506-0.639-0.922-1.361-1.227-2.15l0.191-0.23l5.074-0.715c0.631,0.799,1.621,1.254,2.661,1.186l1.662,1.91H25.037z"/>
	<path fill="#2B4A35" d="M46.764,86.658H17.502c8.269,7.371,19.017,12.02,30.839,12.529V86.658H46.764z"/>
	<path fill="#2B4A35" d="M83.528,86.658h-1.331h-6.043H55.879v12.283C66.439,97.803,76.01,93.359,83.528,86.658z"/>
	<path fill="#FFFFFF" d="M71.352,65.807l-5.075,0.715l-0.188,0.23c0.303,0.789,0.719,1.512,1.224,2.15h8.364l-1.664-1.91
		C72.972,67.061,71.982,66.605,71.352,65.807z"/>
	<path fill="#FFFFFF" d="M87.951,68.902v-5.699h-2.726c0.106,1.973-0.302,3.924-1.186,5.699H87.951z"/>
	<path fill="#FFFFFF" d="M79.592,68.896l0.046,0.006h0.514c1.309-1.635,1.93-3.646,1.777-5.699h-5.036v0.002
		c0.133,0.646,0.063,1.305-0.2,1.9L79.592,68.896z"/>
	<path fill="#FFFFFF" d="M51.709,46.651c-1.038,0.068-2.027-0.386-2.658-1.183l-0.71,0.1v5.488c0.962,0.391,2.008,0.602,3.092,0.602
		c0.563,0,1.132-0.057,1.688-0.176c0.671-0.139,1.318-0.361,1.934-0.664l-0.022-0.354L51.709,46.651z"/>
	<path fill="#FFFFFF" d="M54.39,44.766l1.489,1.944v-10.02l-0.008,0.002l-1.857,4.914c0.283,0.37,0.481,0.796,0.576,1.257
		C54.726,43.512,54.654,44.17,54.39,44.766z"/>
	<path fill="#FFFFFF" d="M29.076,65.807l-5.074,0.715l-0.191,0.23c0.305,0.789,0.721,1.512,1.227,2.15h8.362l-1.662-1.91
		C30.697,67.061,29.707,66.605,29.076,65.807z"/>
	<path fill="#FFFFFF" d="M50.848,40.428l2-4.647l-0.091-0.428c-0.998-0.165-2.013-0.145-2.997,0.062
		c-0.491,0.101-0.965,0.249-1.419,0.436v6.351l0.343-0.068C49.101,41.266,49.895,40.632,50.848,40.428z"/>
	<path fill="#FFFFFF" d="M37.316,68.896l0.045,0.006h0.515c1.307-1.635,1.931-3.646,1.778-5.699h-5.037l0.002,0.002
		c0.134,0.646,0.063,1.305-0.2,1.9L37.316,68.896z"/>
	<path fill="#FFFFFF" d="M20.105,72.025v-3.123h1.067c-0.432-0.861-0.758-1.785-0.96-2.76c-0.289-1.383-0.319-2.781-0.107-4.137
		v-1.559h-9.696v2.756H7.261v5.699h3.148v3.123H20.105z"/>
	<path fill="#FFFFFF" d="M55.879,86.658V68.902h1.554v3.123h4.917v-3.123h1.098c-0.43-0.861-0.757-1.785-0.959-2.76
		c-0.275-1.32-0.319-2.65-0.139-3.949v-1.746h-4.917v2.756h-1.554v-3.309h2.939v-5.697h-2.939v-0.139
		c-0.667,0.277-1.364,0.494-2.087,0.645c-0.777,0.164-1.573,0.248-2.362,0.248c-1.416-0.004-2.785-0.27-4.059-0.754H45.4v5.697h2.94
		v3.309h-0.941v-2.756h-4.916v0.049c0.091,0.307,0.172,0.621,0.238,0.943c0.534,2.557,0.193,5.16-0.959,7.463h0.721v3.123h4.916
		v-3.123h0.941v17.756h4.466H55.879z"/>
	<path fill="#FFFFFF" d="M55.879,98.941V86.658h-3.072h-4.466v12.529c0.721,0.031,1.445,0.053,2.174,0.053
		C52.329,99.24,54.115,99.131,55.879,98.941z"/>
	<path fill="#FFFFFF" d="M51.451,31.947c1.557,0,3.053,0.321,4.428,0.9v-3.463h-7.538v2.995c0.245-0.068,0.495-0.132,0.747-0.185
		C49.866,32.032,50.661,31.947,51.451,31.947z"/>
	<path fill="#FFFFFF" d="M53.622,53.895c5.769-1.205,9.469-6.862,8.263-12.629c-1.203-5.769-6.858-9.469-12.627-8.263
		c-5.769,1.206-9.469,6.86-8.263,12.63C42.201,51.398,47.854,55.1,53.622,53.895z M53.291,52.293
		c-4.563,0.953-9.036-1.715-10.439-6.047l0.688-0.838l5.914-0.831c0.468,0.899,1.485,1.424,2.529,1.206
		c0.018-0.003,0.031-0.012,0.052-0.017l3.805,4.368l0.072,1.167C55.112,51.754,54.236,52.096,53.291,52.293z M56.066,35.698
		c2.093,1.25,3.682,3.329,4.22,5.902c0.61,2.931-0.276,5.818-2.135,7.885l-1.304-0.146l-3.442-4.5
		c0.354-0.508,0.512-1.15,0.377-1.805c-0.107-0.501-0.37-0.926-0.723-1.244l2.159-5.709L56.066,35.698z M49.593,34.605
		c1.318-0.276,2.628-0.241,3.863,0.043l0.252,1.22l-2.287,5.324c-0.129,0.006-0.26,0.015-0.389,0.042
		c-0.869,0.181-1.512,0.828-1.743,1.621l-6.226,1.247l-0.658-0.677C42.411,39.244,45.336,35.495,49.593,34.605z"/>
	<path fill="#FFFFFF" d="M75.927,74.236c5.769-1.207,9.467-6.861,8.263-12.631c-1.205-5.77-6.861-9.467-12.629-8.262
		c-5.771,1.207-9.471,6.861-8.263,12.629C64.504,71.74,70.158,75.439,75.927,74.236z M75.592,72.635
		c-4.563,0.951-9.035-1.715-10.439-6.049l0.689-0.838l5.913-0.832c0.467,0.9,1.485,1.426,2.529,1.207
		c0.018-0.002,0.033-0.014,0.052-0.018l3.807,4.369l0.069,1.164C77.417,72.094,76.537,72.436,75.592,72.635z M78.367,56.039
		c2.094,1.252,3.683,3.328,4.22,5.902c0.614,2.93-0.278,5.818-2.133,7.887l-1.306-0.15l-3.442-4.498
		c0.355-0.508,0.515-1.15,0.379-1.807c-0.107-0.5-0.37-0.924-0.725-1.242l2.159-5.711L78.367,56.039z M71.894,54.945
		c1.318-0.275,2.629-0.24,3.862,0.043l0.255,1.219l-2.289,5.326c-0.129,0.004-0.26,0.016-0.387,0.041
		c-0.87,0.182-1.515,0.83-1.748,1.623l-6.221,1.246l-0.659-0.678C64.715,59.586,67.636,55.834,71.894,54.945z"/>
	<path fill="#FFFFFF" d="M33.651,74.236c5.769-1.207,9.469-6.861,8.263-12.631c-1.208-5.77-6.863-9.467-12.631-8.262
		c-5.769,1.207-9.467,6.861-8.263,12.629C22.229,71.74,27.882,75.439,33.651,74.236z M33.316,72.635
		c-4.559,0.951-9.035-1.715-10.44-6.049l0.693-0.838l5.911-0.832c0.467,0.9,1.485,1.426,2.528,1.207
		c0.019-0.002,0.035-0.014,0.053-0.018l3.807,4.369l0.07,1.164C35.141,72.094,34.265,72.436,33.316,72.635z M36.095,56.039
		c2.093,1.252,3.679,3.328,4.217,5.902c0.614,2.93-0.276,5.818-2.135,7.887l-1.302-0.15l-3.442-4.498
		c0.355-0.508,0.511-1.15,0.374-1.807c-0.103-0.5-0.366-0.924-0.719-1.242l2.16-5.711L36.095,56.039z M29.618,54.945
		c1.32-0.275,2.631-0.24,3.862,0.043l0.257,1.219l-2.291,5.326c-0.13,0.004-0.26,0.016-0.389,0.041
		c-0.867,0.182-1.51,0.83-1.742,1.623l-6.223,1.246l-0.66-0.678C22.438,59.586,25.362,55.834,29.618,54.945z"/>
</g>
</svg>
