<?xml version="1.0" encoding="utf-8"?>
<!-- Generator: Adobe Illustrator 16.0.0, SVG Export Plug-In . SVG Version: 6.00 Build 0)  -->
<!DOCTYPE svg PUBLIC "-//W3C//DTD SVG 1.1//EN" "http://www.w3.org/Graphics/SVG/1.1/DTD/svg11.dtd">
<svg version="1.1" id="Capa_1" xmlns="http://www.w3.org/2000/svg" xmlns:xlink="http://www.w3.org/1999/xlink" x="0px" y="0px"
	 width="100px" height="100px" viewBox="0 0 100 100" enable-background="new 0 0 100 100" xml:space="preserve">
<g>
	<path fill="#87868A" d="M54.163,83.589h20.332h10.291h1.768C94.888,74.71,100,62.774,100,49.636C100,22.223,77.777,0,50.364,0
		S0.728,22.223,0.728,49.636c0,13.138,5.113,25.074,13.446,33.953h29.698H54.163z"/>
	<path fill="#FFFFFF" d="M86.706,83.589h-1.768H74.647H54.314H44.023H14.325c1.013,1.08,2.071,2.117,3.177,3.103h29.261h6.043
		h23.349h6.043h1.33C84.634,85.706,85.692,84.669,86.706,83.589z"/>
	<path fill="none" d="M49.29,42.889c0.231-0.793,0.874-1.44,1.743-1.621c0.129-0.027,0.26-0.036,0.389-0.042l2.287-5.324
		l-0.252-1.22c-1.234-0.284-2.545-0.319-3.863-0.043c-4.257,0.89-7.182,4.639-7.188,8.82l0.658,0.677L49.29,42.889z M48.341,35.885
		c0.454-0.187,0.928-0.335,1.419-0.436c0.985-0.207,2-0.227,2.997-0.062l0.092,0.428l-2.001,4.647
		c-0.953,0.204-1.747,0.837-2.164,1.706l-0.342,0.068V35.885z"/>
	<path fill="none" d="M53.782,43.067c0.135,0.654-0.023,1.296-0.377,1.805l3.443,4.5l1.303,0.146
		c1.859-2.066,2.745-4.954,2.135-7.885c-0.537-2.573-2.127-4.652-4.22-5.902l-0.847,0.382l-2.16,5.709
		C53.413,42.141,53.675,42.565,53.782,43.067z M55.872,36.727l0.007-0.002v10.02L54.39,44.8c0.266-0.596,0.336-1.254,0.201-1.902
		c-0.096-0.46-0.293-0.887-0.577-1.257L55.872,36.727z"/>
	<path fill="none" d="M33.807,63.407c0.137,0.655-0.019,1.298-0.375,1.806l3.443,4.499l1.301,0.15
		c1.858-2.069,2.749-4.957,2.135-7.887c-0.539-2.575-2.124-4.651-4.217-5.902l-0.846,0.381l-2.16,5.71
		C33.441,62.482,33.704,62.906,33.807,63.407z M34.619,63.238l-0.002-0.001h5.037c0.153,2.052-0.472,4.063-1.778,5.699h-0.514
		l-0.045-0.007l-2.897-3.79C34.682,64.543,34.753,63.886,34.619,63.238z"/>
	<path fill="none" d="M29.315,63.23c0.232-0.793,0.875-1.441,1.742-1.622c0.129-0.026,0.259-0.037,0.389-0.041l2.292-5.326
		l-0.257-1.219c-1.232-0.284-2.542-0.319-3.862-0.044c-4.256,0.889-7.18,4.641-7.185,8.82l0.659,0.679L29.315,63.23z"/>
	<path fill="none" d="M74.336,66.14c-0.019,0.004-0.033,0.015-0.052,0.018c-1.044,0.218-2.063-0.308-2.528-1.207l-5.914,0.832
		l-0.689,0.838c1.405,4.333,5.878,6.999,10.44,6.048c0.944-0.199,1.824-0.54,2.62-0.995l-0.069-1.165L74.336,66.14z M67.313,68.937
		c-0.505-0.64-0.921-1.362-1.224-2.151l0.188-0.229l5.075-0.715c0.632,0.799,1.62,1.254,2.66,1.186l1.664,1.91H67.313z"/>
	<path fill="none" d="M76.085,63.407c0.137,0.655-0.023,1.298-0.379,1.806l3.443,4.499l1.305,0.15
		c1.854-2.069,2.747-4.957,2.133-7.887c-0.537-2.575-2.125-4.651-4.22-5.902l-0.847,0.381l-2.16,5.71
		C75.716,62.482,75.978,62.906,76.085,63.407z M76.893,63.238L76.893,63.238l5.036-0.001c0.152,2.052-0.469,4.063-1.777,5.699
		h-0.514l-0.045-0.007l-2.9-3.79C76.956,64.543,77.026,63.886,76.893,63.238z"/>
	<path fill="none" d="M52.035,45.798c-0.021,0.005-0.034,0.014-0.052,0.017c-1.044,0.219-2.061-0.307-2.529-1.206l-5.914,0.831
		l-0.689,0.838c1.404,4.332,5.877,7.001,10.44,6.048c0.945-0.198,1.82-0.54,2.62-0.994l-0.071-1.167L52.035,45.798z M53.122,51.516
		c-0.558,0.119-1.127,0.176-1.689,0.176c-1.084,0-2.13-0.211-3.091-0.602v-5.488l0.71-0.1c0.631,0.797,1.62,1.251,2.658,1.183
		l3.323,3.813l0.022,0.354C54.439,51.154,53.792,51.377,53.122,51.516z"/>
	<path fill="none" d="M71.587,63.23c0.233-0.793,0.879-1.441,1.748-1.622c0.127-0.026,0.258-0.037,0.387-0.041l2.289-5.326
		l-0.255-1.219c-1.233-0.284-2.544-0.319-3.862-0.044c-4.258,0.889-7.179,4.641-7.187,8.82l0.659,0.679L71.587,63.23z"/>
	<path fill="none" d="M32.062,66.14c-0.018,0.004-0.034,0.015-0.053,0.018c-1.043,0.218-2.061-0.308-2.528-1.207l-5.912,0.832
		l-0.693,0.838c1.405,4.333,5.882,6.999,10.44,6.048c0.948-0.199,1.825-0.54,2.623-0.995l-0.07-1.165L32.062,66.14z M25.038,68.937
		c-0.506-0.64-0.922-1.362-1.227-2.151l0.191-0.229l5.074-0.715c0.631,0.799,1.622,1.254,2.661,1.186l1.662,1.91H25.038z"/>
	<path fill="#49494B" d="M46.764,86.691H17.502c8.269,7.371,19.017,12.021,30.839,12.53v-12.53H46.764z"/>
	<path fill="#49494B" d="M83.528,86.691h-1.33h-6.043H55.879v12.283C66.44,97.837,76.011,93.394,83.528,86.691z"/>
	<path fill="#FFFFFF" d="M71.352,65.841l-5.075,0.715l-0.188,0.229c0.303,0.789,0.719,1.512,1.224,2.151h8.363l-1.664-1.91
		C72.972,67.095,71.983,66.64,71.352,65.841z"/>
	<path fill="#FFFFFF" d="M87.952,68.937v-5.699h-2.727c0.106,1.972-0.301,3.923-1.186,5.699H87.952z"/>
	<path fill="#FFFFFF" d="M79.593,68.93l0.045,0.007h0.514c1.309-1.636,1.93-3.647,1.777-5.699h-5.036v0.001
		c0.134,0.647,0.063,1.305-0.2,1.901L79.593,68.93z"/>
	<path fill="#FFFFFF" d="M51.709,46.685c-1.038,0.068-2.027-0.386-2.658-1.183l-0.71,0.1v5.488c0.961,0.391,2.007,0.602,3.091,0.602
		c0.563,0,1.132-0.057,1.689-0.176c0.67-0.139,1.317-0.361,1.933-0.663l-0.022-0.354L51.709,46.685z"/>
	<path fill="#FFFFFF" d="M54.39,44.8l1.489,1.944v-10.02l-0.007,0.002l-1.858,4.914c0.284,0.37,0.481,0.796,0.577,1.257
		C54.726,43.546,54.655,44.204,54.39,44.8z"/>
	<path fill="#FFFFFF" d="M29.076,65.841l-5.074,0.715l-0.191,0.229c0.305,0.789,0.721,1.512,1.227,2.151h8.362l-1.662-1.91
		C30.698,67.095,29.708,66.64,29.076,65.841z"/>
	<path fill="#FFFFFF" d="M50.848,40.462l2.001-4.647l-0.092-0.428c-0.997-0.165-2.012-0.145-2.997,0.062
		c-0.491,0.101-0.965,0.249-1.419,0.436v6.351l0.342-0.068C49.101,41.299,49.895,40.666,50.848,40.462z"/>
	<path fill="#FFFFFF" d="M37.316,68.93l0.045,0.007h0.514c1.307-1.636,1.931-3.647,1.778-5.699h-5.037l0.002,0.001
		c0.134,0.647,0.063,1.305-0.2,1.901L37.316,68.93z"/>
	<path fill="#FFFFFF" d="M20.105,72.06v-3.123h1.067c-0.431-0.862-0.757-1.786-0.96-2.761c-0.289-1.383-0.319-2.781-0.107-4.136
		v-1.56h-9.696v2.757H7.261v5.699h3.148v3.123H20.105z"/>
	<path fill="#FFFFFF" d="M55.879,86.691V68.937h1.554v3.123h4.918v-3.123h1.098c-0.431-0.862-0.757-1.786-0.96-2.761
		c-0.274-1.319-0.319-2.65-0.138-3.948V60.48h-4.918v2.757h-1.554v-3.31h2.939v-5.696h-2.939v-0.14
		c-0.667,0.277-1.363,0.495-2.087,0.646c-0.777,0.163-1.572,0.247-2.361,0.247c-1.417-0.003-2.786-0.27-4.059-0.753H45.4v5.696
		h2.941v3.31H47.4V60.48h-4.916v0.049c0.091,0.308,0.172,0.622,0.238,0.943c0.534,2.557,0.193,5.16-0.959,7.464h0.721v3.123H47.4
		v-3.123h0.941v17.755h4.465H55.879z"/>
	<path fill="#FFFFFF" d="M55.879,98.975V86.691h-3.072h-4.465v12.53c0.721,0.031,1.445,0.052,2.174,0.052
		C52.329,99.273,54.116,99.164,55.879,98.975z"/>
	<path fill="#FFFFFF" d="M51.452,31.981c1.556,0,3.053,0.321,4.427,0.9v-3.463h-7.538v2.995c0.245-0.068,0.495-0.132,0.747-0.185
		C49.866,32.065,50.662,31.981,51.452,31.981z"/>
	<path fill="#FFFFFF" d="M53.622,53.928c5.77-1.205,9.469-6.862,8.264-12.628c-1.204-5.769-6.859-9.469-12.627-8.263
		c-5.769,1.206-9.469,6.86-8.263,12.63C42.201,51.433,47.854,55.133,53.622,53.928z M53.292,52.327
		c-4.563,0.953-9.037-1.716-10.44-6.048l0.689-0.838l5.914-0.831c0.468,0.899,1.485,1.424,2.529,1.206
		c0.018-0.003,0.031-0.012,0.052-0.017l3.806,4.368l0.071,1.167C55.112,51.787,54.237,52.129,53.292,52.327z M56.066,35.732
		c2.093,1.25,3.683,3.329,4.22,5.902c0.61,2.931-0.275,5.818-2.135,7.885l-1.303-0.146l-3.443-4.5
		c0.354-0.508,0.512-1.15,0.377-1.805c-0.107-0.501-0.369-0.926-0.723-1.244l2.16-5.709L56.066,35.732z M49.593,34.639
		c1.318-0.276,2.628-0.241,3.863,0.043l0.252,1.22l-2.287,5.324c-0.129,0.006-0.26,0.015-0.389,0.042
		c-0.869,0.181-1.512,0.828-1.743,1.621l-6.226,1.247l-0.658-0.677C42.411,39.278,45.336,35.528,49.593,34.639z"/>
	<path fill="#FFFFFF" d="M75.927,74.27c5.77-1.206,9.467-6.861,8.264-12.63c-1.206-5.77-6.862-9.467-12.63-8.263
		c-5.771,1.207-9.47,6.861-8.263,12.63C64.504,71.773,70.158,75.474,75.927,74.27z M75.593,72.668
		c-4.563,0.951-9.035-1.715-10.44-6.048l0.689-0.838l5.914-0.832c0.466,0.899,1.484,1.425,2.528,1.207
		c0.019-0.003,0.033-0.014,0.052-0.018l3.808,4.368l0.069,1.165C77.417,72.128,76.537,72.469,75.593,72.668z M78.367,56.073
		c2.095,1.251,3.683,3.327,4.22,5.902c0.614,2.93-0.278,5.817-2.133,7.887l-1.305-0.15l-3.443-4.499
		c0.355-0.508,0.516-1.15,0.379-1.806c-0.107-0.501-0.369-0.925-0.725-1.243l2.16-5.71L78.367,56.073z M71.894,54.979
		c1.318-0.275,2.629-0.24,3.862,0.044l0.255,1.219l-2.289,5.326c-0.129,0.004-0.26,0.015-0.387,0.041
		c-0.869,0.181-1.515,0.829-1.748,1.622l-6.221,1.247l-0.659-0.679C64.715,59.619,67.636,55.867,71.894,54.979z"/>
	<path fill="#FFFFFF" d="M33.652,74.27c5.768-1.206,9.468-6.861,8.263-12.63c-1.208-5.77-6.863-9.467-12.631-8.263
		c-5.768,1.207-9.466,6.861-8.263,12.63C22.229,71.773,27.882,75.474,33.652,74.27z M33.316,72.668
		c-4.558,0.951-9.035-1.715-10.44-6.048l0.693-0.838l5.912-0.832c0.467,0.899,1.485,1.425,2.528,1.207
		c0.019-0.003,0.035-0.014,0.053-0.018l3.807,4.368l0.07,1.165C35.142,72.128,34.265,72.469,33.316,72.668z M36.095,56.073
		c2.093,1.251,3.679,3.327,4.217,5.902c0.614,2.93-0.277,5.817-2.135,7.887l-1.301-0.15l-3.443-4.499
		c0.355-0.508,0.511-1.15,0.375-1.806c-0.103-0.501-0.366-0.925-0.719-1.243l2.16-5.71L36.095,56.073z M29.619,54.979
		c1.32-0.275,2.63-0.24,3.862,0.044l0.257,1.219l-2.292,5.326c-0.129,0.004-0.259,0.015-0.389,0.041
		c-0.867,0.181-1.51,0.829-1.742,1.622l-6.223,1.247l-0.659-0.679C22.438,59.619,25.363,55.867,29.619,54.979z"/>
</g>
</svg>
