<?xml version="1.0" encoding="utf-8"?>
<!-- Generator: Adobe Illustrator 16.0.0, SVG Export Plug-In . SVG Version: 6.00 Build 0)  -->
<!DOCTYPE svg PUBLIC "-//W3C//DTD SVG 1.1//EN" "http://www.w3.org/Graphics/SVG/1.1/DTD/svg11.dtd">
<svg version="1.1" id="Capa_1" xmlns="http://www.w3.org/2000/svg" xmlns:xlink="http://www.w3.org/1999/xlink" x="0px" y="0px"
	 width="100px" height="100px" viewBox="0 0 100 100" enable-background="new 0 0 100 100" xml:space="preserve">
<path fill="#49494B" d="M87.73,0.312H12.816c-6.895,0-12.485,5.591-12.485,12.485v68.671v3.122v3.121
	c0,6.896,5.59,12.486,12.485,12.486H87.73c6.896,0,12.485-5.591,12.485-12.486v-3.047V84.59v-3.122V12.797
	C100.216,5.902,94.626,0.312,87.73,0.312z"/>
<rect x="0.331" y="81.468" fill="#FFFFFF" width="99.885" height="3.122"/>
<path fill="#822424" d="M12.816,100.197H87.73c6.896,0,12.485-5.591,12.485-12.486v-3.047l-0.044-0.074H0.331v3.121
	C0.331,94.606,5.921,100.197,12.816,100.197z"/>
<path fill="#FFFFFF" d="M92.293,39.743l-0.89,1.077h-1.232c-0.162-3.937-0.893-9.894-3.785-10.842l-6.863-0.008v-0.773h0.027
	l1.021-0.889v-3.174h-7.534v3.174l1.075,0.889v0.768l-56.194-0.059c0,0-3.445,1.149-4.32,9.694h-1.414v-0.04l-1.279-1.472H6.336
	v3.049h89.132v-1.395H92.293z"/>
<rect x="96.134" y="41.238" fill="#FFFFFF" width="4.248" height="4.855"/>
<rect x="74.889" y="62.222" fill="#FFFFFF" width="4.249" height="19.335"/>
<rect x="0.149" y="41.238" fill="#FFFFFF" width="5.202" height="4.855"/>
<path fill="#FFFFFF" d="M88.503,45.728c0-0.004,0-0.023,0-0.023l-1.062,0.044l-1.002,7.472c-0.267,1.241-0.798,1.198-0.798,1.198
	h-6.567v0.986v1.857h-4.141l0.001-2.758H18.618c-1.387,0-2.514-8.757-2.514-8.757L15.4,45.739c0-0.003-0.001-0.007-0.001-0.011
	H6.336v3.205h4.569l1.279-1.551h1.501c0.468,3.841,1.677,9.413,4.735,9.366c3.375-0.052,37.314-0.029,55.835-0.013v0.83h-0.026
	l-1.023,0.889v3.175h7.537v-3.175l-1.076-0.889v-0.825c4.017,0.005,6.503,0.008,6.503,0.008s3.231,0.58,3.928-10.52h1.306v0.027
	l0.89,1.023h3.175v-1.55H88.503z"/>
</svg>
