<?xml version="1.0" encoding="utf-8"?>
<!-- Generator: Adobe Illustrator 16.0.0, SVG Export Plug-In . SVG Version: 6.00 Build 0)  -->
<!DOCTYPE svg PUBLIC "-//W3C//DTD SVG 1.1//EN" "http://www.w3.org/Graphics/SVG/1.1/DTD/svg11.dtd">
<svg version="1.1" id="Capa_1" xmlns="http://www.w3.org/2000/svg" xmlns:xlink="http://www.w3.org/1999/xlink" x="0px" y="0px"
	 width="100px" height="100px" viewBox="0 0 100 100" enable-background="new 0 0 100 100" xml:space="preserve">
<path fill="#49494B" d="M87.632,0.019H12.467c-6.918,0-12.527,5.609-12.527,12.527v68.901v3.132v3.132
	c0,6.918,5.609,12.527,12.527,12.527h75.165c6.918,0,12.527-5.609,12.527-12.527v-3.057v-0.075v-3.132V12.546
	C100.159,5.627,94.55,0.019,87.632,0.019z"/>
<path fill="#822424" d="M12.075,100.499H87.24c6.918,0,12.527-5.609,12.527-12.527v-3.057l-0.045-0.075H-0.452v3.132
	C-0.452,94.89,5.157,100.499,12.075,100.499z"/>
<rect x="-0.452" y="81.708" fill="#FFFFFF" width="100.22" height="3.132"/>
<g>
	<path fill="none" d="M32.52,38.64c2.743,0.177,5.534,0.309,8.265,0.4v-3.286c-2.863-0.095-5.627-0.232-8.265-0.412V38.64z"/>
	<path fill="none" d="M41.829,35.791v3.283c2.863,0.085,5.641,0.126,8.199,0.126c0.366,0,0.737-0.001,1.11-0.003v-3.294
		c-0.378,0.001-0.751,0.008-1.131,0.008C47.228,35.91,44.493,35.868,41.829,35.791z"/>
	<path fill="none" d="M52.182,39.189c3.245-0.027,6.721-0.117,10.222-0.277v-3.28c-3.281,0.149-6.71,0.236-10.222,0.263V39.189z"/>
	<path fill="none" d="M24.364,37.95c2.263,0.246,4.661,0.452,7.112,0.621v-3.297c-2.514-0.184-4.896-0.407-7.112-0.666V37.95z"/>
	<path fill="none" d="M63.447,38.861c3.277-0.164,6.553-0.391,9.656-0.687v-3.296c-2.994,0.296-6.236,0.531-9.656,0.702V38.861z"/>
	<path fill="none" d="M16.73,33.437v3.409c1.953,0.378,4.184,0.706,6.59,0.985v-3.355c-0.542-0.068-1.1-0.132-1.62-0.205
		C19.714,33.995,18.082,33.715,16.73,33.437z"/>
	<path fill="none" d="M82.586,36.915c2.344-0.432,4.359-0.934,5.916-1.51v-3.601c-0.963,0.548-2.723,1.158-5.916,1.771V36.915z"/>
	<path fill="none" d="M74.147,34.77v3.302c2.647-0.27,5.148-0.593,7.395-0.973v-3.332c-0.961,0.168-2.027,0.337-3.229,0.504
		C77.003,34.454,75.596,34.616,74.147,34.77z"/>
	<path fill="none" d="M15.687,33.211c-2.249-0.518-3.551-1.024-4.307-1.485v3.657c1.121,0.464,2.583,0.879,4.307,1.25V33.211z"/>
	<path fill="none" d="M87.178,30.175c-2.786-1.304-15.01-3.646-37.171-3.646s-34.385,2.342-37.171,3.646
		c2.787,1.305,15.011,3.647,37.171,3.647C72.166,33.822,84.391,31.479,87.178,30.175z"/>
	<path fill="#FFFFFF" d="M10.509,42.009v-2.141c4.738,1.474,17.712,3.525,39.477,3.525c22.01,0,35.014-2.1,39.597-3.577v-4.854
		c-0.011,0.005-0.025,0.01-0.037,0.016v-3.825h-0.204c0.334-0.391,0.335-0.728,0.335-0.979c0-0.816,0-2.516-11.364-4.097
		c-7.593-1.056-17.646-1.638-28.306-1.638c-10.661,0-20.713,0.582-28.306,1.638c-8.808,1.225-10.788,2.521-11.233,3.423h-0.131
		v7.569h0.008v30.597c0,1.973,15.456,4.837,39.643,4.837c24.191,0,39.596-2.861,39.596-4.837c0-0.018,0-0.023,0-0.021v-25.7
		c-7.96,2.534-26.685,3.535-39.597,3.535C37.148,45.481,18.573,44.494,10.509,42.009z M23.32,37.831
		c-2.406-0.28-4.637-0.607-6.59-0.985v-3.409c1.352,0.278,2.984,0.558,4.97,0.834c0.52,0.073,1.078,0.137,1.62,0.205V37.831z
		 M31.476,38.571c-2.451-0.169-4.849-0.375-7.112-0.621v-3.342c2.216,0.259,4.598,0.482,7.112,0.666V38.571z M40.785,39.041
		c-2.731-0.091-5.522-0.224-8.265-0.4v-3.298c2.638,0.18,5.402,0.317,8.265,0.412V39.041z M51.138,39.196
		c-0.373,0.002-0.744,0.003-1.11,0.003c-2.558,0-5.336-0.041-8.199-0.126v-3.283c2.664,0.077,5.398,0.119,8.177,0.119
		c0.38,0,0.753-0.006,1.131-0.008V39.196z M62.403,38.912c-3.501,0.16-6.977,0.25-10.222,0.277v-3.294
		c3.512-0.026,6.94-0.113,10.222-0.263V38.912z M73.104,38.174c-3.104,0.296-6.379,0.523-9.656,0.687V35.58
		c3.42-0.171,6.662-0.405,9.656-0.702V38.174z M81.542,37.099c-2.246,0.38-4.747,0.703-7.395,0.973V34.77
		c1.448-0.153,2.855-0.316,4.165-0.499c1.202-0.167,2.269-0.335,3.229-0.504V37.099z M88.502,35.405
		c-1.557,0.576-3.572,1.078-5.916,1.51v-3.339c3.193-0.613,4.953-1.223,5.916-1.771V35.405z M50.006,26.528
		c22.162,0,34.385,2.342,37.171,3.646c-2.787,1.305-15.012,3.647-37.171,3.647c-22.161,0-34.384-2.342-37.171-3.647
		C15.621,28.871,27.845,26.528,50.006,26.528z M11.38,31.726c0.755,0.461,2.058,0.967,4.307,1.485v3.422
		c-1.724-0.371-3.186-0.786-4.307-1.25V31.726z"/>
</g>
</svg>
