<?xml version="1.0" encoding="utf-8"?>
<!-- Generator: Adobe Illustrator 16.0.0, SVG Export Plug-In . SVG Version: 6.00 Build 0)  -->
<!DOCTYPE svg PUBLIC "-//W3C//DTD SVG 1.1//EN" "http://www.w3.org/Graphics/SVG/1.1/DTD/svg11.dtd">
<svg version="1.1" id="Capa_1" xmlns="http://www.w3.org/2000/svg" xmlns:xlink="http://www.w3.org/1999/xlink" x="0px" y="0px"
	 width="100px" height="100px" viewBox="0 0 100 100" enable-background="new 0 0 100 100" xml:space="preserve">
<path fill="#3A653C" d="M88.146,0.216H13.094c-6.908,0-12.509,5.601-12.509,12.508v68.797v3.127v3.127
	c0,6.908,5.601,12.509,12.509,12.509h75.051c6.907,0,12.509-5.601,12.509-12.509v-3.052v-0.075v-3.127V12.724
	C100.654,5.816,95.053,0.216,88.146,0.216z"/>
<path fill="#2B4A35" d="M13.485,100.023h75.051c6.908,0,12.509-5.601,12.509-12.509v-3.052L101,84.388H0.977v3.127
	C0.977,94.423,6.577,100.023,13.485,100.023z"/>
<polygon fill="#FFFFFF" points="101.045,81.261 88.489,81.261 78.115,81.261 57.62,81.261 47.246,81.261 0.977,81.261 0.977,84.388 
	50.009,84.388 56.101,84.388 79.636,84.388 85.727,84.388 101.045,84.388 "/>
<path fill="none" d="M51.065,11.421c-0.027,0-0.062,0.015-0.096,0.028c0.083-0.016,0.169-0.028,0.265-0.028H51.065z"/>
<path fill="#FFFFFF" d="M16.021,11.25c-0.079,0.546-0.78,0.391-0.78,0.391v2.498c3.815-2.021,7.379-2.212,7.669-2.224
	c0.289,0.012,3.854,0.203,7.67,2.224v-2.498c0,0-0.703,0.156-0.781-0.391v-1.054l1.443-1.054V8.089H26.52l-0.038-1.991h-3.551
	h-0.039h-3.552L19.3,8.089h-4.723v1.053l1.444,1.054V11.25z"/>
<path fill="#FFFFFF" d="M18.829,31.973c1.14,0.456,2.217,0.888,4.265,0.938c2.002-0.05,3.078-0.481,4.219-0.938
	c1.014-0.407,2.062-0.823,3.687-0.931c1.96-5.08,5.163-10.375,6.451-12.415c-6.609-4.08-13.58-5.171-14.566-5.309
	c-0.988,0.138-7.959,1.229-14.568,5.309c1.286,2.039,4.484,7.325,6.444,12.402C16.628,31.099,17.751,31.541,18.829,31.973z"/>
<path fill="#FFFFFF" d="M31.658,33.89c1.854-0.084,3.379,1.38,5.185,1.237c2.226-0.176,2.454-1.455,2.474-1.603
	c0.001-0.008,0.001-0.015,0.001-0.015c-4.187,1.189-3.354-1.5-7.421-1.523c-3.976-0.023-4.409,1.789-8.826,1.896
	c-4.417-0.107-4.852-1.919-8.825-1.896c-4.068,0.023-3.236,2.712-7.421,1.523c0,0,0.012,0.149,0.107,0.356
	C7.129,34.302,7.695,35,9.298,35.127c1.808,0.143,3.331-1.322,5.185-1.237c1.1,0.05,2.228,0.48,3.693,0.918
	c0.614,0.185,2.763,0.857,4.727,0.889c2.09,0.035,4-0.584,4.606-0.756C29.203,34.461,30.446,33.945,31.658,33.89z"/>
<path fill="#FFFFFF" d="M35.358,49.863c0.051-0.076,0.105-0.152,0.162-0.224c0.018-0.026,0.05-0.067,0.085-0.111l0.476-0.524
	c0.042-0.042,0.099-0.097,0.158-0.151l0.21-0.183l0.098-0.079l0.403-0.292c0.133-0.09,0.229-0.149,0.327-0.205l0.133-0.071
	c0.05-0.029,0.102-0.057,0.156-0.082c0.016-0.01,0.08-0.042,0.147-0.073l0.123-0.05h-5.14c-1.365,0-1.747-0.375-1.829-0.49
	c-0.103-0.138-0.092-0.319-0.092-0.32c0,0,0.006-0.891-0.007-0.887V35.396c-0.571,0.212-1.357,0.465-2.335,0.683v10.927h0.018
	c-0.009,0.483,0.08,1.176,0.568,1.837c0.707,0.957,1.944,1.443,3.677,1.443h2.394c0.032-0.056,0.064-0.112,0.1-0.167
	c-0.002,0.004-0.005,0.001,0.06-0.098l0.109-0.157L35.358,49.863z"/>
<path fill="#FFFFFF" d="M34.339,52.673l0.034-0.313c0.005-0.046,0.016-0.105,0.027-0.164l0.057-0.259h-6.097
	c-1.363,0-1.748-0.374-1.831-0.49c-0.054-0.073-0.075-0.157-0.083-0.222h0.012c0,0,0.005-4.061,0-4.06v-10.75
	c-0.72,0.087-1.501,0.142-2.335,0.151v14.275c-0.045,0.46-0.031,1.321,0.56,2.122c0.706,0.958,1.943,1.442,3.677,1.442h6.06
	l-0.014-0.135c-0.016-0.09-0.026-0.146-0.033-0.203l-0.032-0.293c-0.008-0.086-0.017-0.164-0.021-0.242l-0.009-0.341l0.011-0.319
	C34.323,52.827,34.332,52.75,34.339,52.673z"/>
<polygon fill="none" points="38.327,59.354 38.437,59.244 38.523,58.829 38.522,58.829 "/>
<path fill="none" d="M39.904,57.031c0.087,0.01,0.177,0.016,0.266,0.019l0.012-0.002l0.102,0.002
	c0.191-0.006,0.376-0.028,0.55-0.067c0.049-0.012,0.098-0.024,0.148-0.038l0.012-0.009l-0.377-0.375
	c-0.131,0.023-0.265,0.035-0.398,0.035l-0.114-0.006c-0.096-0.004-0.19-0.015-0.284-0.03l-0.38,0.378
	c0.15,0.044,0.292,0.073,0.437,0.091L39.904,57.031z"/>
<path fill="none" d="M40.218,54.035c-0.124,0-0.225,0.102-0.225,0.226c0,0.25,0.452,0.248,0.452,0
	C40.445,54.137,40.344,54.035,40.218,54.035z"/>
<path fill="none" d="M40.23,51.481l-0.069-0.008c-0.087,0.002-0.175,0.007-0.26,0.017l-0.027,0.004
	c-0.149,0.019-0.295,0.048-0.435,0.088l0.381,0.382c0.117-0.02,0.235-0.032,0.354-0.034l0.007,0.354l0.038-0.356
	c0.017,0,0.033,0,0.048,0h0.002c0.117,0.002,0.234,0.014,0.349,0.034l0.38-0.38c-0.23-0.067-0.468-0.104-0.708-0.108L40.23,51.481z"
	/>
<path fill="#FFFFFF" d="M44.86,54.679c0.004-0.011,0.008-0.023,0.011-0.035c0.011-0.036,0.02-0.072,0.03-0.108
	c0.004-0.012,0.009-0.022,0.011-0.032l0.017-0.069c0.006-0.021,0.012-0.045,0.018-0.068c0.002-0.005,0.003-0.005,0.003-0.008
	c0.007-0.033,0.015-0.068,0.021-0.101c0.005-0.019,0.008-0.035,0.011-0.052c0-0.005,0.003-0.008,0.003-0.012
	c0.007-0.038,0.015-0.075,0.023-0.114c0.007-0.044,0.015-0.089,0.021-0.132c0.008-0.049,0.013-0.097,0.018-0.145
	c0.004-0.021,0.005-0.043,0.007-0.063c0.002-0.022,0.003-0.045,0.005-0.068c0.007-0.063,0.014-0.127,0.018-0.192
	c0.001-0.036,0.004-0.075,0.004-0.113c0.001-0.047,0.002-0.097,0.002-0.146c0-0.051-0.001-0.101-0.002-0.147
	c0-0.038-0.003-0.077-0.004-0.113c-0.003-0.063-0.01-0.128-0.018-0.191c-0.002-0.022-0.003-0.047-0.006-0.069
	c-0.001-0.022-0.002-0.042-0.006-0.063c-0.005-0.048-0.01-0.095-0.018-0.143c-0.005-0.046-0.013-0.089-0.021-0.134
	c-0.008-0.037-0.016-0.073-0.023-0.11c0-0.005-0.003-0.012-0.003-0.019c-0.004-0.014-0.006-0.032-0.011-0.048
	c-0.006-0.033-0.014-0.066-0.021-0.099c0-0.006-0.001-0.008-0.003-0.012c-0.005-0.022-0.011-0.045-0.018-0.065
	c-0.006-0.029-0.014-0.057-0.022-0.085c-0.002-0.015-0.007-0.029-0.011-0.045c-0.009-0.031-0.02-0.062-0.029-0.094
	c-0.003-0.004-0.004-0.011-0.006-0.018c-0.003-0.011-0.007-0.021-0.009-0.032c-0.02-0.058-0.039-0.115-0.059-0.173
	c-0.021-0.054-0.04-0.105-0.059-0.156c-0.009-0.022-0.019-0.045-0.029-0.067c-0.003-0.009-0.008-0.015-0.01-0.024
	c-0.008-0.019-0.018-0.041-0.026-0.061c-0.021-0.049-0.046-0.101-0.068-0.149c-0.024-0.049-0.049-0.1-0.075-0.146
	c-0.006-0.013-0.014-0.025-0.021-0.039c-0.007-0.011-0.012-0.022-0.019-0.032c-0.013-0.024-0.026-0.05-0.039-0.074
	c-0.044-0.077-0.088-0.15-0.137-0.224c-0.017-0.024-0.033-0.05-0.05-0.075c-0.004-0.008-0.01-0.015-0.015-0.021
	c-0.003-0.004-0.006-0.009-0.009-0.014c-0.026-0.039-0.054-0.078-0.083-0.115c-0.022-0.032-0.047-0.065-0.071-0.096
	c-0.022-0.031-0.049-0.06-0.072-0.089c-0.025-0.032-0.051-0.063-0.078-0.093c-0.019-0.024-0.037-0.046-0.055-0.068
	c-0.036-0.042-0.072-0.081-0.112-0.122c-0.03-0.034-0.063-0.066-0.094-0.098c-0.008-0.009-0.016-0.017-0.024-0.024
	c-0.036-0.036-0.073-0.074-0.112-0.108c-0.014-0.015-0.031-0.028-0.048-0.044c-0.05-0.044-0.102-0.089-0.154-0.133
	c-0.01-0.01-0.019-0.018-0.031-0.026c-0.004-0.003-0.008-0.008-0.012-0.011c-0.043-0.034-0.085-0.069-0.129-0.102
	c-0.042-0.032-0.084-0.063-0.128-0.095c-0.016-0.01-0.032-0.02-0.048-0.03c-0.072-0.051-0.15-0.097-0.225-0.144
	c-0.05-0.029-0.096-0.064-0.146-0.091c-0.034-0.02-0.068-0.039-0.102-0.059c-0.051-0.026-0.102-0.052-0.154-0.077
	c-0.045-0.022-0.092-0.045-0.138-0.067c-0.031-0.013-0.062-0.028-0.093-0.04c-0.004-0.003-0.008-0.004-0.012-0.006
	c-0.004-0.001-0.006-0.001-0.01-0.003c-0.027-0.014-0.056-0.023-0.085-0.037c-0.042-0.016-0.085-0.033-0.128-0.049
	c-0.055-0.02-0.108-0.038-0.161-0.056c-0.018-0.006-0.038-0.011-0.056-0.016c-0.005-0.002-0.013-0.003-0.02-0.007
	c-0.008-0.001-0.015-0.006-0.023-0.008c-0.134-0.041-0.271-0.076-0.409-0.105c-0.007,0-0.014-0.001-0.022-0.004
	c-0.001,0-0.001,0-0.001,0c-0.036-0.006-0.071-0.014-0.105-0.021c-0.07-0.012-0.143-0.024-0.213-0.034
	c-0.039-0.005-0.078-0.009-0.118-0.015c-0.014-0.001-0.028-0.002-0.042-0.003c-0.006-0.001-0.011-0.001-0.017-0.001
	c-0.068-0.007-0.137-0.013-0.207-0.018c-0.061-0.003-0.125-0.005-0.188-0.007c-0.032,0-0.061-0.001-0.091-0.001
	c-0.025,0-0.051,0-0.074,0.001c-0.058,0.001-0.117,0.002-0.175,0.006c-0.067,0.003-0.134,0.007-0.2,0.014
	c-0.014,0.001-0.025,0.003-0.037,0.004c-0.009,0-0.017,0.001-0.025,0.002c-0.028,0.003-0.053,0.004-0.08,0.009
	c-0.015,0-0.031,0.003-0.044,0.005c-0.014,0.001-0.027,0.003-0.041,0.005c-0.028,0.003-0.056,0.008-0.083,0.014
	c-0.004,0-0.007,0-0.009,0c-0.055,0.01-0.109,0.019-0.161,0.029c-0.014,0.004-0.027,0.006-0.041,0.009
	c-0.007,0.001-0.015,0.004-0.022,0.005c-0.028,0.005-0.054,0.01-0.081,0.016c-0.019,0.002-0.037,0.007-0.054,0.012
	c-0.099,0.023-0.196,0.049-0.293,0.079c-0.013,0.005-0.027,0.008-0.042,0.013c-0.032,0.011-0.066,0.021-0.1,0.033
	c-0.031,0.011-0.063,0.022-0.097,0.033c-0.065,0.024-0.129,0.051-0.195,0.079c-0.019,0.007-0.039,0.016-0.057,0.024
	c-0.006,0.001-0.011,0.003-0.017,0.005c-0.048,0.021-0.097,0.043-0.144,0.065c-0.049,0.022-0.095,0.045-0.143,0.071
	c-0.029,0.014-0.056,0.029-0.083,0.044c-0.015,0.007-0.028,0.015-0.042,0.022c-0.027,0.015-0.058,0.029-0.084,0.045
	c-0.088,0.051-0.175,0.104-0.26,0.161c-0.008,0.006-0.017,0.012-0.024,0.017c-0.01,0.007-0.02,0.014-0.03,0.02
	c-0.021,0.014-0.042,0.029-0.064,0.044c-0.004,0.003-0.009,0.007-0.015,0.009c-0.053,0.04-0.106,0.079-0.158,0.118
	c-0.034,0.027-0.068,0.056-0.103,0.083c-0.009,0.007-0.02,0.016-0.028,0.023c-0.011,0.011-0.023,0.019-0.034,0.028
	c-0.019,0.016-0.038,0.032-0.055,0.047c-0.025,0.022-0.051,0.045-0.077,0.068c-0.048,0.044-0.094,0.088-0.139,0.133
	c-0.014,0.014-0.027,0.026-0.042,0.041c-0.003,0.003-0.007,0.006-0.01,0.01c-0.028,0.028-0.058,0.056-0.084,0.086
	c-0.035,0.038-0.072,0.077-0.106,0.117c-0.029,0.035-0.06,0.069-0.088,0.104c-0.003,0.004-0.006,0.007-0.009,0.01
	c-0.004,0.007-0.009,0.013-0.015,0.019c-0.039,0.048-0.078,0.096-0.115,0.147c-0.042,0.053-0.081,0.108-0.118,0.164
	c-0.008,0.008-0.014,0.019-0.02,0.027c-0.009,0.015-0.019,0.03-0.029,0.045c-0.011,0.015-0.022,0.031-0.034,0.046
	c-0.025,0.04-0.052,0.08-0.074,0.121c-0.029,0.045-0.057,0.092-0.083,0.139c-0.012,0.021-0.022,0.042-0.033,0.062
	c-0.003,0.006-0.008,0.013-0.011,0.02c-0.006,0.008-0.01,0.019-0.016,0.029c-0.025,0.042-0.044,0.086-0.065,0.128
	c-0.021,0.039-0.039,0.075-0.054,0.114c-0.017,0.032-0.031,0.064-0.043,0.099c-0.005,0.008-0.008,0.017-0.012,0.025
	c-0.005,0.012-0.011,0.026-0.016,0.037c0,0.001,0,0.004-0.002,0.004c-0.017,0.038-0.032,0.079-0.049,0.117
	c-0.035,0.09-0.066,0.182-0.097,0.273c-0.004,0.011-0.005,0.022-0.01,0.034c0,0.002-0.001,0.006-0.002,0.01
	c-0.011,0.031-0.021,0.065-0.03,0.097c-0.005,0.016-0.009,0.03-0.011,0.045c-0.008,0.028-0.017,0.056-0.022,0.085
	c-0.006,0.021-0.012,0.043-0.018,0.065c-0.001,0.004-0.003,0.006-0.003,0.012c-0.008,0.032-0.015,0.065-0.022,0.099
	c-0.004,0.016-0.006,0.032-0.009,0.046c-0.002,0.009-0.004,0.017-0.005,0.023c-0.007,0.035-0.013,0.071-0.021,0.107
	c-0.008,0.045-0.017,0.088-0.022,0.134c-0.007,0.048-0.015,0.095-0.021,0.143c-0.001,0.019-0.001,0.037-0.004,0.056
	c-0.003,0.03-0.004,0.06-0.007,0.089c-0.006,0.061-0.012,0.12-0.015,0.18c-0.003,0.036-0.004,0.075-0.006,0.113
	c0,0.047-0.002,0.097-0.002,0.147c0,0.05,0.002,0.1,0.002,0.146c0.002,0.038,0.003,0.077,0.006,0.113
	c0.003,0.061,0.009,0.12,0.015,0.18c0.003,0.028,0.004,0.059,0.007,0.09c0.003,0.016,0.003,0.036,0.004,0.055
	c0.006,0.048,0.013,0.096,0.021,0.145c0.005,0.043,0.014,0.088,0.022,0.132c0.007,0.039,0.015,0.073,0.021,0.11
	c0.002,0.005,0.002,0.011,0.004,0.017c0.003,0.016,0.004,0.034,0.009,0.051c0.007,0.032,0.014,0.067,0.022,0.101
	c0,0.003,0.002,0.003,0.003,0.008c0.005,0.023,0.011,0.048,0.018,0.068l0.017,0.069c0.001,0.01,0.007,0.021,0.01,0.032
	c0.009,0.036,0.021,0.072,0.032,0.108c0.003,0.012,0.008,0.026,0.012,0.036c0.005,0.015,0.008,0.029,0.013,0.043
	c0,0.002,0.001,0.006,0.002,0.011c0.004,0.014,0.009,0.03,0.014,0.047c0.01,0.028,0.021,0.055,0.031,0.082
	c0.004,0.016,0.011,0.031,0.016,0.046c0.022,0.06,0.045,0.119,0.07,0.178c0.003,0.009,0.007,0.016,0.01,0.025
	c0.023,0.054,0.046,0.104,0.07,0.156c0.021,0.047,0.043,0.093,0.068,0.14c0.013,0.028,0.03,0.055,0.044,0.081
	c0.014,0.028,0.031,0.057,0.046,0.086c0.012,0.022,0.023,0.045,0.036,0.065c0.026,0.046,0.054,0.092,0.082,0.138
	c0.034,0.053,0.068,0.108,0.104,0.163c0.037,0.052,0.074,0.104,0.112,0.154c0.024,0.035,0.051,0.068,0.075,0.103
	c0.023,0.029,0.048,0.058,0.072,0.087c0.014,0.019,0.028,0.035,0.043,0.056c0.017,0.017,0.032,0.036,0.047,0.055
	c0.027,0.031,0.055,0.063,0.083,0.095c0.039,0.044,0.08,0.082,0.12,0.124c0.02,0.021,0.041,0.044,0.062,0.066
	c0.015,0.012,0.026,0.026,0.039,0.038c0.036,0.035,0.072,0.067,0.109,0.103c0.043,0.038,0.087,0.079,0.132,0.114
	c0.011,0.012,0.024,0.021,0.039,0.032c0.004,0.004,0.009,0.008,0.015,0.013c0.032,0.025,0.062,0.052,0.094,0.076
	c0.053,0.041,0.106,0.082,0.163,0.12c0.014,0.013,0.029,0.022,0.044,0.032c0.016,0.012,0.033,0.023,0.05,0.035
	c0.01,0.006,0.02,0.013,0.03,0.02c0.026,0.018,0.054,0.038,0.082,0.055c0.089,0.059,0.181,0.113,0.276,0.164
	c0.008,0.004,0.015,0.008,0.024,0.013c0.002,0.002,0.005,0.004,0.008,0.004c0.032,0.018,0.065,0.036,0.1,0.053
	c0.01,0.007,0.023,0.012,0.036,0.019c0.058,0.03,0.116,0.057,0.175,0.083c0,0,0,0.002,0.001,0.002
	c0.032,0.015,0.064,0.027,0.097,0.041c0.006,0.002,0.014,0.006,0.021,0.01c0.021,0.009,0.04,0.017,0.059,0.024
	c0.044,0.017,0.086,0.035,0.13,0.052c0.045,0.016,0.091,0.03,0.133,0.046c0.008,0.004,0.014,0.006,0.019,0.007
	c0.031,0.011,0.061,0.021,0.091,0.03c0.003,0,0.006,0,0.008,0.002c0.01,0.003,0.022,0.007,0.035,0.011
	c0.022,0.008,0.047,0.014,0.071,0.02c0.022,0.008,0.047,0.015,0.07,0.019c0.062,0.021,0.126,0.035,0.192,0.049
	c0.025,0.006,0.053,0.013,0.078,0.017c0.009,0.003,0.02,0.004,0.03,0.007c0.028,0.005,0.057,0.012,0.087,0.018
	c0.111,0.021,0.226,0.034,0.341,0.047c0.017,0.002,0.032,0.005,0.047,0.008c0.004,0,0.006,0,0.008,0
	c0.068,0.006,0.136,0.013,0.204,0.017c0.069,0.002,0.137,0.006,0.206,0.007c0.023,0.001,0.049,0.001,0.074,0.001
	c0.03,0,0.059-0.001,0.091-0.001c0.03,0,0.059-0.001,0.088-0.003c0.007,0,0.016,0,0.022-0.002c0.032,0,0.062-0.001,0.092-0.004
	c0.039-0.002,0.077-0.009,0.116-0.011c0.055-0.004,0.11-0.01,0.167-0.016c0.041-0.007,0.081-0.008,0.12-0.013
	c0.055-0.009,0.11-0.019,0.165-0.028c0.024-0.004,0.049-0.011,0.073-0.016c0.042-0.008,0.082-0.017,0.122-0.027
	c0.054-0.011,0.108-0.02,0.158-0.034c0.04-0.011,0.08-0.019,0.117-0.031c0.021-0.006,0.04-0.011,0.061-0.017
	c0.015-0.005,0.031-0.011,0.047-0.015c0.004-0.001,0.007-0.003,0.012-0.003c0.004-0.004,0.009-0.004,0.015-0.006
	c0.06-0.018,0.122-0.039,0.18-0.062c0.057-0.02,0.113-0.043,0.168-0.063c0.02-0.009,0.039-0.018,0.059-0.024
	c0.015-0.009,0.031-0.015,0.046-0.021c0.035-0.016,0.07-0.03,0.104-0.045c0.039-0.019,0.078-0.039,0.115-0.055
	c0.041-0.021,0.082-0.039,0.12-0.063c0.016-0.007,0.031-0.015,0.046-0.024c0.008-0.004,0.014-0.007,0.021-0.011
	c0.01-0.006,0.019-0.01,0.028-0.016c0.026-0.014,0.05-0.032,0.074-0.047c0.126-0.073,0.248-0.148,0.366-0.23
	c0.015-0.012,0.034-0.021,0.049-0.032c0.026-0.019,0.052-0.039,0.077-0.057c0.032-0.024,0.063-0.047,0.094-0.072
	c0.026-0.02,0.052-0.041,0.077-0.063c0.002-0.001,0.004-0.003,0.006-0.004c0.006-0.004,0.012-0.011,0.02-0.016
	c0.054-0.046,0.104-0.091,0.153-0.135c0.058-0.054,0.114-0.106,0.17-0.162c0.041-0.04,0.079-0.083,0.12-0.123
	c0.015-0.017,0.027-0.031,0.042-0.046c0.028-0.032,0.058-0.064,0.086-0.099c0.016-0.019,0.031-0.039,0.047-0.058
	c0.011-0.014,0.023-0.026,0.034-0.039c0.013-0.018,0.027-0.032,0.041-0.05c0.019-0.024,0.04-0.05,0.058-0.076
	c0.02-0.024,0.04-0.049,0.058-0.077c0.038-0.049,0.073-0.1,0.109-0.15c0.036-0.055,0.071-0.11,0.106-0.165
	c0.034-0.055,0.065-0.111,0.097-0.167c0.013-0.021,0.026-0.045,0.037-0.067c0.003-0.002,0.004-0.004,0.005-0.006
	c0.001-0.004,0.003-0.006,0.004-0.009c0.018-0.031,0.035-0.063,0.05-0.094c0.025-0.05,0.05-0.097,0.071-0.146
	c0.026-0.05,0.047-0.104,0.069-0.154c0.004-0.01,0.009-0.021,0.014-0.03c0-0.004,0.003-0.008,0.005-0.013
	c0.05-0.12,0.095-0.243,0.135-0.366C44.851,54.709,44.855,54.694,44.86,54.679z M38.031,50.074c0.005-0.003,0.008-0.005,0.01-0.008
	c0.12-0.083,0.246-0.157,0.375-0.226c0.08-0.042,0.159-0.083,0.241-0.12c0.017-0.007,0.034-0.015,0.049-0.021
	c0.104-0.044,0.207-0.084,0.313-0.119c0.004-0.002,0.006-0.002,0.009-0.003c0.231-0.077,0.472-0.13,0.72-0.16
	c0.006-0.002,0.014-0.002,0.021-0.003c0.123-0.014,0.248-0.023,0.375-0.025c0.023-0.003,0.049-0.003,0.074-0.003
	c0.03,0,0.059,0,0.091,0.003c0.384,0.008,0.752,0.073,1.098,0.188c0.01,0.001,0.019,0.005,0.025,0.008
	c0.108,0.036,0.214,0.077,0.318,0.122c0.009,0.003,0.018,0.008,0.028,0.012c0.206,0.092,0.403,0.204,0.588,0.329
	c0.012,0.009,0.024,0.016,0.035,0.024c0.011,0.007,0.021,0.014,0.031,0.022c0.086,0.061,0.172,0.125,0.253,0.195
	c0.002,0,0.005,0.003,0.006,0.004c0.001,0.001,0.002,0.001,0.003,0.002c0.004,0.003,0.007,0.007,0.01,0.01l-0.172,0.174
	l-0.064,0.062l-1.351,1.351l-0.227,0.229c-0.196-0.121-0.425-0.193-0.673-0.193c-0.013,0-0.025,0-0.038,0
	c0.005,0,0.01,0.002,0.013,0.002c-0.238,0.004-0.459,0.075-0.648,0.191l-0.228-0.229l-1.538-1.538l-0.049-0.048
	C37.828,50.223,37.927,50.146,38.031,50.074z M41.036,53.219c0,0.45-0.367,0.816-0.817,0.816c-0.451,0-0.815-0.366-0.815-0.816
	c0-0.452,0.365-0.816,0.815-0.816C40.668,52.402,41.036,52.767,41.036,53.219z M36.46,52.482c0.009-0.05,0.022-0.097,0.034-0.146
	c0.02-0.077,0.036-0.156,0.059-0.232c0.002-0.006,0.004-0.014,0.005-0.02c0.035-0.109,0.074-0.219,0.118-0.322
	c0.005-0.015,0.01-0.025,0.015-0.039c0.044-0.103,0.092-0.203,0.144-0.3c0.004-0.01,0.008-0.019,0.013-0.024
	c0.052-0.099,0.111-0.192,0.17-0.286c0.001-0.001,0.003-0.003,0.004-0.004c0.005-0.011,0.012-0.021,0.02-0.028
	c0.059-0.089,0.122-0.175,0.189-0.258c0.008-0.011,0.019-0.023,0.029-0.036c0.016-0.019,0.034-0.037,0.049-0.055l0.235,0.236
	l1.578,1.577c-0.069,0.112-0.124,0.237-0.155,0.371h-0.321h-1.911h-0.333C36.415,52.771,36.433,52.625,36.46,52.482z M37.544,55.468
	C37.543,55.468,37.543,55.468,37.544,55.468l-0.238,0.235c-0.013-0.018-0.031-0.033-0.045-0.052
	c-0.01-0.013-0.022-0.025-0.032-0.038c-0.067-0.082-0.13-0.168-0.19-0.258c-0.006-0.01-0.012-0.018-0.017-0.026
	c-0.001-0.002-0.002-0.003-0.002-0.003c-0.061-0.096-0.12-0.19-0.172-0.29c-0.005-0.006-0.009-0.014-0.013-0.021
	c-0.036-0.066-0.064-0.136-0.097-0.203c-0.028-0.065-0.057-0.13-0.083-0.195c-0.036-0.087-0.069-0.175-0.096-0.263
	c-0.002-0.008-0.004-0.017-0.006-0.024c-0.023-0.075-0.041-0.153-0.059-0.23c-0.011-0.049-0.024-0.096-0.034-0.146
	c-0.027-0.142-0.045-0.288-0.058-0.435h0.333l0,0h1.911h0.321c0.031,0.135,0.084,0.258,0.155,0.372l-0.227,0.229L37.544,55.468z
	 M42.424,56.35c-0.007,0.006-0.013,0.012-0.021,0.017c-0.007,0.006-0.015,0.01-0.023,0.014c-0.191,0.131-0.393,0.245-0.605,0.34
	c-0.004,0.003-0.009,0.005-0.015,0.009c-0.108,0.047-0.218,0.088-0.329,0.126c-0.006,0.001-0.01,0.002-0.014,0.004
	c-0.115,0.037-0.231,0.069-0.35,0.098h-0.001c-0.245,0.055-0.497,0.086-0.755,0.093c-0.032,0.001-0.061,0.001-0.091,0.001
	c-0.025,0-0.051,0-0.074-0.001c-0.127-0.003-0.254-0.012-0.38-0.026c-0.003,0-0.007,0-0.011-0.001
	c-0.245-0.03-0.481-0.084-0.71-0.155c-0.009-0.004-0.017-0.007-0.027-0.011c-0.102-0.032-0.203-0.072-0.301-0.113
	c-0.021-0.01-0.04-0.018-0.058-0.026c-0.083-0.036-0.162-0.077-0.241-0.12c-0.128-0.068-0.254-0.143-0.375-0.224
	c0-0.002-0.003-0.004-0.005-0.004c-0.098-0.068-0.191-0.141-0.282-0.217c0,0-0.001-0.002-0.002-0.002
	c-0.006-0.006-0.012-0.013-0.021-0.02l0.033-0.03l1.782-1.782c0.189,0.116,0.409,0.186,0.646,0.19c-0.003,0-0.007,0-0.011,0
	c0.012,0.001,0.024,0.003,0.038,0.003c0.248,0,0.477-0.073,0.673-0.193l0.227,0.229l1.587,1.586
	C42.616,56.209,42.522,56.28,42.424,56.35z M43.978,53.966c-0.003,0.01-0.005,0.021-0.008,0.028
	c-0.021,0.112-0.049,0.222-0.082,0.329c-0.002,0.011-0.004,0.019-0.007,0.028c-0.029,0.095-0.064,0.186-0.101,0.277
	c-0.017,0.043-0.035,0.085-0.052,0.127c-0.038,0.083-0.076,0.167-0.118,0.248c-0.003,0.006-0.006,0.012-0.01,0.017
	c-0.003,0.007-0.008,0.014-0.011,0.021c-0.033,0.061-0.069,0.119-0.105,0.179c-0.033,0.051-0.064,0.104-0.098,0.154
	c-0.048,0.069-0.099,0.137-0.151,0.204c-0.018,0.022-0.037,0.049-0.057,0.073c-0.015,0.019-0.032,0.034-0.049,0.053l-0.082-0.083
	l-0.151-0.153l-1.351-1.348l-0.228-0.229c0.07-0.114,0.123-0.238,0.156-0.372h0.321h1.91h0.332
	C44.022,53.671,44.006,53.821,43.978,53.966z M43.704,52.917h-1.91h-0.321c-0.033-0.134-0.086-0.257-0.156-0.37l0.228-0.229
	l1.35-1.349l0.167-0.168l0.067-0.068c0.014,0.013,0.027,0.027,0.039,0.041c0.027,0.034,0.053,0.067,0.081,0.102
	c0.045,0.061,0.092,0.122,0.135,0.186c0.037,0.055,0.071,0.111,0.105,0.169c0.034,0.053,0.067,0.105,0.096,0.16
	c0.004,0.01,0.01,0.017,0.015,0.027c0.004,0.006,0.007,0.012,0.011,0.018c0.049,0.092,0.092,0.187,0.133,0.282
	c0.008,0.02,0.016,0.038,0.023,0.056c0.041,0.103,0.079,0.206,0.113,0.312c0.003,0.011,0.005,0.021,0.009,0.031
	c0.031,0.107,0.058,0.215,0.08,0.323c0.003,0.013,0.005,0.022,0.008,0.032c0.028,0.147,0.045,0.296,0.058,0.446H43.704z"/>
<path fill="none" d="M70.175,36.888c2.152-0.019,4.458-0.081,6.781-0.194v-2.297c-2.177,0.105-4.451,0.166-6.781,0.185V36.888z"/>
<path fill="none" d="M63.307,34.507v2.3c1.898,0.06,3.742,0.088,5.438,0.088c0.243,0,0.49,0,0.737-0.002v-2.308
	c-0.25,0.001-0.498,0.005-0.75,0.005C66.887,34.591,65.073,34.562,63.307,34.507z"/>
<path fill="none" d="M77.648,36.658c2.175-0.114,4.348-0.273,6.408-0.481v-2.309c-1.987,0.208-4.14,0.372-6.408,0.492V36.658z"/>
<path fill="none" d="M46.654,32.859v2.388c1.295,0.265,2.776,0.494,4.372,0.69v-2.35c-0.359-0.048-0.729-0.092-1.075-0.143
	C48.634,33.25,47.551,33.054,46.654,32.859z"/>
<path fill="none" d="M90.346,35.294c1.557-0.302,2.894-0.654,3.927-1.057v-2.522c-0.64,0.384-1.807,0.811-3.927,1.241V35.294z"/>
<path fill="none" d="M51.719,36.019c1.502,0.172,3.091,0.318,4.719,0.436v-2.31c-1.669-0.129-3.248-0.285-4.719-0.466V36.019z"/>
<path fill="none" d="M57.13,36.503c1.818,0.124,3.67,0.216,5.483,0.28v-2.301c-1.899-0.066-3.734-0.163-5.483-0.289V36.503z"/>
<path fill="none" d="M84.748,33.792v2.313c1.757-0.188,3.416-0.415,4.906-0.681V33.09c-0.638,0.118-1.345,0.236-2.144,0.354
	C86.643,33.571,85.709,33.685,84.748,33.792z"/>
<path fill="none" d="M93.394,30.574c-1.85-0.914-9.959-2.554-24.662-2.554c-14.704,0-22.813,1.64-24.663,2.554
	c1.85,0.914,9.959,2.554,24.663,2.554C83.434,33.128,91.544,31.488,93.394,30.574z"/>
<path fill="none" d="M45.96,32.701c-1.492-0.362-2.355-0.718-2.857-1.041v2.562c0.744,0.325,1.714,0.616,2.857,0.875V32.701z"/>
<path fill="#FFFFFF" d="M64.222,53.401c0.659-0.614,1.479-1.244,2.552-1.244c0.87,0,1.579,0.416,2.177,0.874
	c0.578-0.441,1.313-0.874,2.212-0.874c1.115,0,1.972,0.665,2.593,1.244l0.356,0.332l1.404,6.362
	c12.081-0.46,19.475-2.085,19.475-3.262c0-0.012,0-0.017,0-0.014V38.819c-5.283,1.775-17.705,2.476-26.272,2.476
	c-8.519,0-20.841-0.691-26.191-2.432v-1.5c3.143,1.033,11.75,2.47,26.191,2.47c14.603,0,23.23-1.471,26.272-2.506v-3.399
	c-0.01,0.003-0.018,0.007-0.025,0.011V31.26h-0.137c0.222-0.274,0.223-0.51,0.223-0.686c0-0.572,0-1.763-7.54-2.87
	c-5.037-0.74-11.708-1.148-18.779-1.148c-7.074,0-13.743,0.408-18.781,1.148c-5.844,0.858-7.159,1.766-7.453,2.397h-0.086v5.301
	h0.006v12.346l0.255,0.095l0.322,0.157l0.117,0.066l0.161,0.097c0.159,0.099,0.238,0.149,0.315,0.203l0.356,0.265
	c0.025,0.019,0.067,0.055,0.11,0.096l0.234,0.209c-0.002-0.002-0.003-0.004-0.003-0.004c0.003,0,0.047,0.043,0.088,0.085l0.08,0.083
	c0.005,0.003,0.054,0.052,0.098,0.102c0.022,0.021,0.076,0.079,0.13,0.143l0.147,0.181c0.042,0.049,0.072,0.088,0.101,0.127
	l0.081,0.109c0.017,0.021,0.055,0.074,0.093,0.129l0.021,0.032c0,0.001,0.001,0.001,0.001,0.002l0.009,0.013
	c0.109,0.166,0.161,0.253,0.214,0.343l0.574,1.387c0.005,0.019,0.009,0.037,0.014,0.054l0.057,0.239
	c0.003,0.015,0.006,0.03,0.009,0.044l0.065,0.368c0.003,0.014,0.011,0.081,0.019,0.152l0.011,0.122
	c0.011,0.094,0.02,0.176,0.023,0.259l0.007,0.312l-0.007,0.309c-0.004,0.088-0.013,0.172-0.022,0.257
	c-0.009,0.113-0.016,0.165-0.026,0.218c0.002-0.009,0.002,0.024-0.013,0.116l-0.193,0.841c-0.044,0.139-0.082,0.246-0.116,0.34
	v0.039l-0.108,0.227c-0.037,0.087-0.065,0.149-0.097,0.21v-0.001c0.003,0-0.028,0.061-0.059,0.123
	c-0.012,0.025-0.027,0.054-0.043,0.085l-0.314,0.524l-0.334,0.448c0.001-0.001,0.001-0.002,0.001-0.002s-0.022,0.028-0.047,0.057
	L44.391,57.4c-0.063,0.062-0.129,0.126-0.2,0.189l-0.277,0.237c2.83,0.991,9.548,1.993,18.928,2.299l0.981-6.354L64.222,53.401z
	 M51.025,35.937c-1.596-0.196-3.077-0.425-4.372-0.69v-2.388c0.897,0.195,1.98,0.391,3.297,0.584
	c0.345,0.051,0.716,0.095,1.075,0.143V35.937z M56.438,36.455c-1.628-0.118-3.217-0.263-4.719-0.436v-2.34
	c1.471,0.181,3.05,0.337,4.719,0.466V36.455z M62.613,36.784c-1.813-0.064-3.665-0.156-5.483-0.28v-2.31
	c1.749,0.126,3.584,0.223,5.483,0.289V36.784z M69.481,36.893c-0.247,0.001-0.494,0.002-0.737,0.002
	c-1.695,0-3.539-0.028-5.438-0.088v-2.3c1.767,0.054,3.58,0.083,5.425,0.083c0.252,0,0.5-0.004,0.75-0.005V36.893z M76.956,36.693
	c-2.323,0.113-4.629,0.175-6.781,0.194v-2.307c2.33-0.019,4.604-0.08,6.781-0.185V36.693z M84.057,36.177
	c-2.061,0.208-4.233,0.367-6.408,0.481V34.36c2.269-0.12,4.421-0.284,6.408-0.492V36.177z M89.654,35.424
	c-1.49,0.267-3.149,0.493-4.906,0.681v-2.313c0.961-0.107,1.895-0.222,2.763-0.349c0.799-0.117,1.506-0.235,2.144-0.354V35.424z
	 M94.272,34.238c-1.033,0.402-2.37,0.754-3.927,1.057v-2.338c2.12-0.43,3.287-0.857,3.927-1.241V34.238z M68.731,28.02
	c14.703,0,22.813,1.64,24.662,2.554c-1.85,0.914-9.96,2.554-24.662,2.554c-14.704,0-22.813-1.641-24.663-2.554
	C45.918,29.66,54.027,28.02,68.731,28.02z M43.103,31.66c0.502,0.323,1.365,0.678,2.857,1.041v2.396
	c-1.143-0.26-2.113-0.551-2.857-0.875V31.66z"/>
<path fill="#FFFFFF" d="M79.688,69.49c-3.802,0.289-4.058-1.616-4.057-1.619l-2.942-13.325c-1.137-1.061-1.8-1.1-3.007-0.11
	l1.091,13.468c0,0.951-0.211,2.871,1.153,4.626c1.49,1.914,4.1,1.895,7.762,1.895l20.836,0.552V69.1L79.688,69.49z"/>
<path fill="#FFFFFF" d="M68.217,54.436c-1.207-0.989-1.792-0.95-2.93,0.11L63.23,67.871c0.001,0.003-0.256,1.908-4.057,1.619
	L0.455,68.39v7.59l58.719-1.556c3.661,0,6.271,0.02,7.762-1.895c1.364-1.755,1.153-3.675,1.153-4.626L68.217,54.436z"/>
</svg>
