<?xml version="1.0" encoding="utf-8"?>
<!-- Generator: Adobe Illustrator 16.0.0, SVG Export Plug-In . SVG Version: 6.00 Build 0)  -->
<!DOCTYPE svg PUBLIC "-//W3C//DTD SVG 1.1//EN" "http://www.w3.org/Graphics/SVG/1.1/DTD/svg11.dtd">
<svg version="1.1" id="Capa_1" xmlns="http://www.w3.org/2000/svg" xmlns:xlink="http://www.w3.org/1999/xlink" x="0px" y="0px"
	 width="100px" height="100px" viewBox="0 0 100 100" enable-background="new 0 0 100 100" xml:space="preserve">
<path fill="#49494B" d="M87.281,0H12.469C5.583,0,0,5.583,0,12.469v68.578v3.117v3.117C0,94.167,5.583,99.75,12.469,99.75h74.813
	c6.886,0,12.469-5.583,12.469-12.469v-3.042v-0.075v-3.117V12.469C99.75,5.583,94.167,0,87.281,0z"/>
<path fill="#822424" d="M12.469,99.75h74.813c6.886,0,12.469-5.583,12.469-12.469v-3.042l-0.045-0.075H0v3.117
	C0,94.167,5.583,99.75,12.469,99.75z"/>
<rect y="81.047" fill="#FFFFFF" width="99.75" height="3.117"/>
<path fill="none" d="M27.54,46.941h0.754v-0.051c0.258-0.158,0.46-1.275,0.46-2.645c0-1.479-0.233-2.677-0.521-2.677h-0.7
	c0.133,0.906,0.18,1.969,0.18,2.716C27.712,45.014,27.666,46.047,27.54,46.941z"/>
<path fill="none" d="M64.608,33.86l2.808,2.808c0.325-0.101,0.699-0.158,1.1-0.158c0.41,0,0.794,0.06,1.126,0.167l2.816-2.816
	H64.608z"/>
<path fill="none" d="M25.578,48.545h1.205l-0.001-0.083c0.413-0.252,0.732-2.035,0.732-4.222c0-2.361-0.371-4.274-0.83-4.274h-1.119
	c0.212,1.447,0.288,3.143,0.288,4.334C25.853,45.466,25.779,47.117,25.578,48.545z"/>
<path fill="none" d="M15.869,37.394h-5.616c0.01-0.011,0.02-0.035,0.03-0.043c-0.014-0.014-0.03-0.021-0.043-0.034
	c-0.07-0.061-0.141-0.101-0.214-0.101H9.529H8.8c-0.073,0-0.145,0.04-0.214,0.101c-0.014,0.012-0.028,0.032-0.042,0.047
	c-0.052,0.054-0.104,0.123-0.152,0.207c-0.534,0.916-0.921,3.566-0.921,6.71c0,1.019,0.045,1.977,0.119,2.852
	c0.129,1.552,0.359,2.804,0.648,3.524c0.086,0.215,0.175,0.397,0.269,0.512c0.079,0.093,0.161,0.144,0.245,0.161
	c0.016,0.003,0.032,0.016,0.049,0.016h0.405H9.74h0.286c0.073,0,0.144-0.04,0.214-0.1h5.643c-0.014-0.013-0.029-0.019-0.042-0.034
	c0.612-0.636,1.071-3.496,1.071-6.93C16.912,40.901,16.466,38.089,15.869,37.394z"/>
<path fill="none" d="M24.643,51.245v-0.039c-0.07,0-0.138-0.038-0.205-0.094c0.612-0.578,1.076-3.413,1.076-6.832
	c0-3.455-0.475-6.312-1.095-6.847c0.013-0.013,0.025-0.029,0.039-0.04H24.37c-0.054-0.035-0.106-0.058-0.161-0.058
	s-0.108,0.023-0.162,0.058h-6.43c0.593,0.708,1.036,3.519,1.036,6.887c0,3.514-0.483,6.417-1.116,6.964H24.643z"/>
<path fill="none" d="M26.357,48.545h1.205l-0.001-0.083c0.413-0.252,0.732-2.035,0.732-4.222c0-2.361-0.371-4.274-0.83-4.274h-1.119
	c0.212,1.447,0.288,3.143,0.288,4.334C26.632,45.466,26.558,47.117,26.357,48.545z"/>
<path fill="none" d="M25.422,51.245v-0.039c-0.07,0-0.138-0.038-0.205-0.094c0.612-0.578,1.076-3.413,1.076-6.832
	c0-3.455-0.475-6.312-1.095-6.847c0.013-0.013,0.025-0.029,0.039-0.04h-0.088c-0.054-0.035-0.106-0.058-0.161-0.058
	s-0.108,0.023-0.162,0.058h-6.43c0.593,0.708,1.036,3.519,1.036,6.887c0,3.514-0.483,6.417-1.116,6.964H25.422z"/>
<path fill="none" d="M28.319,46.941h0.754v-0.051c0.258-0.158,0.46-1.275,0.46-2.645c0-1.479-0.233-2.677-0.521-2.677h-0.7
	c0.133,0.906,0.18,1.969,0.18,2.716C28.491,45.014,28.445,46.047,28.319,46.941z"/>
<path fill="none" d="M16.648,37.394h-5.616c0.01-0.011,0.02-0.035,0.03-0.043c-0.014-0.014-0.03-0.021-0.043-0.034
	c-0.07-0.061-0.141-0.101-0.214-0.101h-0.497H9.579c-0.073,0-0.145,0.04-0.214,0.101c-0.014,0.012-0.028,0.032-0.042,0.047
	c-0.052,0.054-0.104,0.123-0.152,0.207c-0.534,0.916-0.921,3.566-0.921,6.71c0,1.019,0.045,1.977,0.119,2.852
	c0.129,1.552,0.359,2.804,0.648,3.524c0.086,0.215,0.175,0.397,0.269,0.512c0.079,0.093,0.161,0.144,0.245,0.161
	c0.016,0.003,0.032,0.016,0.049,0.016h0.405h0.536h0.286c0.073,0,0.144-0.04,0.214-0.1h5.643c-0.014-0.013-0.029-0.019-0.042-0.034
	c0.612-0.636,1.071-3.496,1.071-6.93C17.691,40.901,17.245,38.089,16.648,37.394z"/>
<path fill="none" d="M65.388,33.86l2.808,2.808c0.325-0.101,0.699-0.158,1.1-0.158c0.41,0,0.794,0.06,1.126,0.167l2.816-2.816
	H65.388z"/>
<path fill="none" d="M65.388,33.86l2.808,2.808c0.325-0.101,0.699-0.158,1.1-0.158c0.41,0,0.794,0.06,1.126,0.167l2.816-2.816
	H65.388z"/>
<rect x="25.24" y="39.973" fill="#49494B" width="1.993" height="8.561"/>
<rect x="27.665" y="41.563" fill="#49494B" width="1.235" height="5.389"/>
<path fill="#FFFFFF" d="M96.579,70.602l-0.006-3.221l-0.022-11.023l-0.435-0.374v-0.022c-1.459-1.336-3.773-3.385-6.505-5.569
	c0,0-8.618-9.295-18.702-10.501l-0.003-1.445l1.481-0.002l-0.002-1.483l-1.011,0.001l3.138-3.151l1.114-0.002
	c0.38-0.001,0.69-0.312,0.689-0.69l-0.001-0.466c-0.001-0.379-0.312-0.689-0.691-0.688l-14.271,0.028
	c-0.379,0.001-0.69,0.311-0.689,0.69l0.001,0.466c0.001,0.378,0.313,0.689,0.691,0.688l1.114-0.002l3.152,3.139l-1.011,0.002
	l0.003,1.483l1.48-0.003l0.004,1.271l-1.175,0.002v0.107l-4.919-2.275v-2.275H55.46v1.171l-45.272,0.09l-0.002-0.7l-4.072,0.008
	l0.002,1.133C4.719,38.37,3.759,41.2,3.767,44.494c0.006,3.295,0.978,6.124,2.378,7.501l0.003,1.28l4.072-0.008L10.219,52.8
	l1.618-0.005l0.008,3.903l0.021,10.851l-9.299,0.019l0.019,9.894l94.004-0.187L96.579,70.602z M64.567,33.831l7.85-0.017
	l-2.811,2.822c-0.332-0.105-0.716-0.166-1.127-0.165c-0.399,0.001-0.774,0.06-1.099,0.16L64.567,33.831z M15.876,51.312
	l-5.643,0.012c-0.07,0.06-0.141,0.1-0.214,0.1l-0.285,0.001l-0.536,0.001H8.793c-0.016,0-0.032-0.012-0.049-0.016
	c-0.083-0.017-0.167-0.067-0.246-0.16c-0.094-0.113-0.183-0.296-0.27-0.511c-0.291-0.72-0.524-1.97-0.656-3.523
	c-0.075-0.875-0.122-1.833-0.124-2.851c-0.006-3.144,0.375-5.795,0.908-6.712c0.048-0.084,0.099-0.153,0.151-0.207
	c0.013-0.015,0.027-0.035,0.042-0.047c0.07-0.061,0.141-0.1,0.214-0.101l0.729-0.001l0.497-0.001c0.073,0,0.144,0.04,0.214,0.101
	c0.013,0.012,0.028,0.02,0.042,0.034c-0.01,0.009-0.019,0.032-0.029,0.043l5.615-0.011c0.599,0.694,1.05,3.505,1.058,6.885
	c0.006,3.434-0.448,6.295-1.059,6.933C15.847,51.294,15.862,51.3,15.876,51.312z M17.583,37.457l6.43-0.012
	c0.053-0.035,0.106-0.058,0.161-0.059c0.055,0,0.108,0.023,0.162,0.058h0.088c-0.013,0.01-0.025,0.026-0.038,0.04
	c0.328,0.281,0.614,1.219,0.813,2.537h0.337c-0.001-0.002-0.001-0.004-0.001-0.006l1.119-0.002c0.261-0.001,0.493,0.631,0.646,1.6
	h0.126c0.029,0,0.058,0.02,0.085,0.043c-0.003-0.014-0.003-0.029-0.006-0.043l0.7-0.001c0.288-0.001,0.524,1.197,0.527,2.676
	c0.002,1.37-0.198,2.487-0.455,2.645v0.051l-0.754,0.002c0.004-0.03,0.006-0.061,0.01-0.09c-0.012,0.012-0.023,0.032-0.036,0.04
	v0.051h-0.193c-0.131,0.822-0.319,1.389-0.538,1.522l0.001,0.082l-1.205,0.003c0.001-0.004,0.001-0.007,0.001-0.011h-0.342
	c-0.192,1.324-0.471,2.274-0.793,2.581c0.067,0.056,0.135,0.094,0.205,0.094v0.039l-7.106,0.013c0.632-0.548,1.11-3.452,1.103-6.966
	C18.626,40.974,18.178,38.164,17.583,37.457z M21.76,67.529l-0.029-14.753l33.729-0.067v0.63h4.546v-1.372l5.502-1.37v-0.058
	l4.001-0.008c0.73,0.235,1.901,0.679,3.422,1.485c2.039,1.189,6.646,4.597,7.001,4.904c2.825,2.446,7.836,6.551,12.671,10.469
	L21.76,67.529z"/>
</svg>
