<?xml version="1.0" encoding="utf-8"?>
<!-- Generator: Adobe Illustrator 16.0.0, SVG Export Plug-In . SVG Version: 6.00 Build 0)  -->
<!DOCTYPE svg PUBLIC "-//W3C//DTD SVG 1.1//EN" "http://www.w3.org/Graphics/SVG/1.1/DTD/svg11.dtd">
<svg version="1.1" id="Capa_1" xmlns="http://www.w3.org/2000/svg" xmlns:xlink="http://www.w3.org/1999/xlink" x="0px" y="0px"
	 width="100px" height="100px" viewBox="0 0 100 100" enable-background="new 0 0 100 100" xml:space="preserve">
<path fill="#49494B" d="M87.813-0.185H12.787c-6.905,0-12.504,5.599-12.504,12.504v68.773v3.126v3.126
	c0,6.905,5.599,12.504,12.504,12.504h75.025c6.905,0,12.504-5.599,12.504-12.504v-3.051v-0.075v-3.126V12.319
	C100.316,5.414,94.718-0.185,87.813-0.185z"/>
<rect x="0.283" y="81.093" fill="#FFFFFF" width="100.033" height="3.126"/>
<path fill="#822424" d="M12.787,99.849h75.025c6.905,0,12.504-5.599,12.504-12.504v-3.051l-0.045-0.075H0.283v3.126
	C0.283,94.25,5.882,99.849,12.787,99.849z"/>
<g>
	<path fill="#FFFFFF" d="M75.555,35.382H54.639c-3.241,0-5.867,2.625-5.867,5.866c0,3.241,2.625,5.867,5.867,5.867h20.916
		c3.24,0,5.866-2.625,5.866-5.867C81.421,38.008,78.795,35.382,75.555,35.382z"/>
	<path fill="#FFFFFF" d="M60.103,68.962c-3.694,1.604-7.616,2.418-11.658,2.418c-6.84,0-13.134-2.364-18.124-6.309L28.626,76.33
		h39.771l-1.924-11.183C64.526,66.677,62.389,67.968,60.103,68.962z"/>
	<path fill="#FFFFFF" d="M61.794,51.228c-1.04,1.361-2.284,2.558-3.686,3.546c-2.731,1.93-6.063,3.066-9.664,3.066
		c-9.27,0-16.784-7.515-16.784-16.786c0-9.269,7.515-16.784,16.784-16.784c6.61,0,12.311,3.831,15.048,9.383h11.664
		C71.919,21.939,61.19,13.335,48.445,13.335c-15.309,0-27.719,12.411-27.719,27.719c0,15.31,12.411,27.72,27.719,27.72
		c3.922,0,7.652-0.819,11.035-2.288c6.72-2.921,12.052-8.424,14.751-15.259c0.308-0.778,0.58-1.574,0.817-2.384h-11.74
		C62.868,49.682,62.363,50.48,61.794,51.228z"/>
	<path fill="#FFFFFF" d="M48.445,31.931c1.988,0,3.822,0.643,5.321,1.723h7.796c-2.587-4.573-7.487-7.667-13.117-7.667
		c-8.321,0-15.067,6.747-15.067,15.067c0,8.322,6.747,15.069,15.067,15.069c5.466,0,10.239-2.922,12.88-7.279h-1.787v-0.052h-5.644
		v0.052h-0.479c-0.073,0-0.146-0.009-0.22-0.011c-1.385,0.848-3.007,1.346-4.75,1.346c-5.038,0-9.123-4.085-9.123-9.124
		C39.322,36.016,43.407,31.931,48.445,31.931z"/>
</g>
</svg>
