<?xml version="1.0" encoding="utf-8"?>
<!-- Generator: Adobe Illustrator 16.0.0, SVG Export Plug-In . SVG Version: 6.00 Build 0)  -->
<!DOCTYPE svg PUBLIC "-//W3C//DTD SVG 1.1//EN" "http://www.w3.org/Graphics/SVG/1.1/DTD/svg11.dtd">
<svg version="1.1" id="Capa_1" xmlns="http://www.w3.org/2000/svg" xmlns:xlink="http://www.w3.org/1999/xlink" x="0px" y="0px"
	 width="100px" height="100px" viewBox="0 0 100 100" enable-background="new 0 0 100 100" xml:space="preserve">
<path fill="#87868A" d="M87.5,0h-75C5.597,0,0,5.597,0,12.5v68.75v3.125V87.5C0,94.403,5.597,100,12.5,100h75
	c6.903,0,12.5-5.597,12.5-12.5v-3.05v-0.075V81.25V12.5C100,5.597,94.403,0,87.5,0z"/>
<g>
	<polygon fill="#FFFFFF" points="31.938,75.387 80.157,75.387 39.272,64.817 	"/>
	<path fill="#FFFFFF" d="M62.862,26.316c-3.225-4.659-6.419-6.866-9.354-7.633l11.216,40.351l1.564,2.226H41.752l-0.977,1.405
		l49.211,12.722h6.481L62.862,26.316z"/>
	<path fill="#FFFFFF" d="M49.095,36.671l11.391,16.305l-9.621-34.612c-6.407,0.07-11.043,6.319-11.043,6.319L3.532,75.387
		l0.964-0.003l1.351-1.151l42.547-36.996L49.095,36.671z"/>
	<polygon fill="#FFFFFF" points="45.243,43.236 8.305,75.355 24.205,75.239 	"/>
</g>
</svg>
