<?xml version="1.0" encoding="utf-8"?>
<!-- Generator: Adobe Illustrator 16.0.0, SVG Export Plug-In . SVG Version: 6.00 Build 0)  -->
<!DOCTYPE svg PUBLIC "-//W3C//DTD SVG 1.1//EN" "http://www.w3.org/Graphics/SVG/1.1/DTD/svg11.dtd">
<svg version="1.1" id="Capa_1" xmlns="http://www.w3.org/2000/svg" xmlns:xlink="http://www.w3.org/1999/xlink" x="0px" y="0px"
	 width="100px" height="100px" viewBox="0 0 100 100" enable-background="new 0 0 100 100" xml:space="preserve">
<path fill="#3A1B13" d="M79.127,90.559h0.007C91.764,81.494,100,66.692,100,49.958C100,22.367,77.633,0,50.041,0
	S0.083,22.367,0.083,49.958c0,16.734,8.235,31.536,20.866,40.6h0.007H79.127z"/>
<path fill="#A44C29" d="M50.041,99.916c9.332,0,18.056-2.572,25.527-7.027H24.515C31.986,97.344,40.709,99.916,50.041,99.916z"/>
<g>
	<path fill="#FFFFFF" d="M46.533,21.406c1.262-0.063,2.319-0.832,2.566-2.033c0.135-0.658,0.135-1.392-0.008-2.046
		c-0.212-0.961-0.612-1.881-0.919-2.823c-0.647-1.984-0.966-3.963,0.172-5.905c-0.036-0.019-0.07-0.038-0.106-0.058
		c-0.301,0.356-0.622,0.697-0.897,1.072c-1.009,1.374-1.432,2.933-1.478,4.623c-0.015,0.568-0.114,1.144-0.255,1.695
		c-0.109,0.427-0.459,0.583-0.854,0.492c-0.399-0.092-0.498-0.398-0.473-0.749c0.031-0.412,0.097-0.821,0.146-1.231
		c-0.222,0.334-0.403,0.689-0.537,1.063c-0.483,1.35-0.638,2.716-0.124,4.097C44.184,20.72,45.334,21.465,46.533,21.406z"/>
	<path fill="#FFFFFF" d="M49.298,11.442c0.09-0.444,0.187-0.886,0.29-1.382c-0.53,0.637-0.919,1.285-1.069,2.066
		c-0.194,1.009,0.103,1.938,0.431,2.866c0.297,0.835,0.634,1.66,0.872,2.511c0.35,1.242,0.166,2.409-0.711,3.411
		c-0.12,0.138-0.267,0.253-0.4,0.378c0.397,0.043,0.751,0.026,1.098-0.026c1.4-0.21,2.505-1.165,2.774-2.425
		c0.293-1.375-0.125-2.555-1.067-3.562c-0.473-0.505-0.991-0.969-1.461-1.476C49.438,13.142,49.105,12.371,49.298,11.442z"/>
	<path fill="#FFFFFF" d="M50.029,8.279c1.044-1.235,1.112-2.586,0.459-4.017c-0.069-0.152-0.159-0.294-0.198-0.366
		c0,0.625,0.048,1.298-0.013,1.964c-0.08,0.876-0.558,1.612-0.974,2.367c-0.328,0.598-0.61,1.223-0.912,1.837
		c0.028,0.006,0.057,0.013,0.086,0.021C48.994,9.482,49.518,8.885,50.029,8.279z"/>
	<path fill="#FFFFFF" d="M79.127,90.559H52.291V75.374l-1.635-3.27V37.148h-1.24v-6.315h0.479c0.076,0,0.148-0.014,0.222-0.022
		h2.579v-4.112h-3.28v-0.771h1.007v-2.875h-3.721v2.875h1.135v0.771h-3.301v4.112h2.599c0.073,0.009,0.146,0.022,0.222,0.022h0.479
		v6.315h-1.24v34.844h-0.169l-1.466,3.382v7.723h-1.22c-0.168,0-0.331,0.063-0.455,0.176l-8.028,7.286H20.956h-0.007
		c1.146,0.824,2.326,1.604,3.543,2.33h0.022h51.054h0.021c1.217-0.727,2.396-1.506,3.544-2.33H79.127z M44.961,90.559h-7.689
		l6.73-6.107h0.958V90.559z"/>
</g>
</svg>
