<svg xmlns="http://www.w3.org/2000/svg" width="100" height="100" viewBox="0 0 100 100"><path fill="#822424" d="M87.5 0h-75C5.597 0 0 5.597 0 12.5v75C0 94.403 5.597 100 12.5 100h75c6.903 0 12.5-5.597 12.5-12.5v-75C100 5.597 94.403 0 87.5 0z"/><g fill="#FFF"><path d="M31.938 75.387h48.22L39.27 64.817M62.862 26.316c-3.225-4.658-6.42-6.866-9.354-7.632l11.216 40.35 1.564 2.226H41.752l-.977 1.405 49.21 12.722h6.482l-33.605-49.07z"/><path d="M49.095 36.67l11.39 16.306-9.62-34.61c-6.407.068-11.043 6.317-11.043 6.317L3.532 75.387l.964-.003 1.35-1.15 42.548-36.997.7-.566z"/><path d="M45.243 43.236L8.305 75.356l15.9-.117"/></g></svg>