<?xml version="1.0" encoding="utf-8"?>
<!-- Generator: Adobe Illustrator 16.0.0, SVG Export Plug-In . SVG Version: 6.00 Build 0)  -->
<!DOCTYPE svg PUBLIC "-//W3C//DTD SVG 1.1//EN" "http://www.w3.org/Graphics/SVG/1.1/DTD/svg11.dtd">
<svg version="1.1" id="Capa_1" xmlns="http://www.w3.org/2000/svg" xmlns:xlink="http://www.w3.org/1999/xlink" x="0px" y="0px"
	 width="100px" height="100px" viewBox="0 0 100 100" enable-background="new 0 0 100 100" xml:space="preserve">
<path fill="#49494B" d="M87.597,0H12.784C5.898,0,0.315,5.583,0.315,12.469v68.578v3.117v3.117c0,6.886,5.583,12.469,12.469,12.469
	h74.813c6.886,0,12.469-5.583,12.469-12.469v-3.042v-0.075v-3.117V12.469C100.065,5.583,94.482,0,87.597,0z"/>
<path fill="#822424" d="M100.037,84.192l0.013-3.665c0,0-0.082,0.032-0.187,0.074c-0.058,0.454-0.759,4.385-7.599,4.924
	c-5.555,0.44-10.236-4.06-15.938-3.801c-3.726,0.171-7.545,1.754-12.748,3.23c-1.865,0.529-7.734,2.431-14.158,2.326
	c-6.038-0.1-12.643-2.167-14.531-2.733c-4.505-1.348-7.967-2.671-11.351-2.823c-5.698-0.259-10.38,4.241-15.935,3.801
	c-4.931-0.387-6.668-2.534-7.278-3.877c-0.001,0-0.012-0.001-0.012-0.001v2.517v0.438v2.679c0,6.886,5.583,12.469,12.469,12.469
	h74.813c6.886,0,12.469-5.583,12.469-12.469v-3.042L100.037,84.192z"/>
<path fill="#FFFFFD" d="M7.605,85.525c5.554,0.44,10.236-4.06,15.935-3.801c3.383,0.152,6.845,1.476,11.351,2.823
	c1.888,0.566,8.493,2.634,14.531,2.733c6.423,0.104,12.292-1.797,14.158-2.326c5.203-1.477,9.022-3.06,12.748-3.23
	c5.701-0.259,10.383,4.241,15.938,3.801c6.84-0.539,7.541-4.47,7.599-4.924c0.003-0.027,0.006-0.046,0.006-0.046
	C87,84.211,89.56,75.948,77.061,75.875c-12.22-0.07-13.55,5.5-27.125,5.828c-13.577-0.328-14.908-5.898-27.126-5.828
	C10.305,75.948,12.866,84.211,0,80.556c0,0,0.039,0.457,0.328,1.093C0.937,82.991,2.675,85.139,7.605,85.525z"/>
<rect x="63.886" y="64.107" fill="none" width="1.167" height="2.298"/>
<rect x="66.32" y="64.107" fill="none" width="1.167" height="2.298"/>
<rect x="61.3" y="64.107" fill="none" width="1.168" height="2.298"/>
<rect x="33.917" y="64.107" fill="none" width="1.167" height="2.298"/>
<rect x="26.261" y="64.107" fill="none" width="1.166" height="2.298"/>
<rect x="71.29" y="64.107" fill="none" width="1.166" height="2.298"/>
<polygon fill="none" points="31.975,74.641 37.997,67.437 31.975,67.437 "/>
<rect x="36.352" y="64.107" fill="none" width="1.167" height="2.298"/>
<path fill="none" d="M47.39,76.327H35.276c3.271,1.306,6.556,2.715,12.114,3.165v-0.73V76.327z"/>
<path fill="none" d="M51.056,79.584c6.439-0.309,9.994-1.843,13.536-3.257H51.056V79.584z"/>
<rect x="38.989" y="64.107" fill="none" width="1.166" height="2.298"/>
<path fill="none" d="M47.39,75.365l-6.074-7.818l-2.452,0.118l-6.37,7.618c0.225,0.076,0.446,0.154,0.666,0.233h14.23V75.365z"/>
<rect x="58.663" y="64.107" fill="none" width="1.166" height="2.298"/>
<polygon fill="none" points="51.056,73.572 56.185,67.437 51.056,67.437 "/>
<rect x="54.05" y="64.107" fill="none" width="1.166" height="2.298"/>
<rect x="51.412" y="64.107" fill="none" width="1.167" height="2.298"/>
<polygon fill="none" points="47.39,74.043 47.39,67.437 42.256,67.437 "/>
<polygon fill="none" points="66.186,74.827 66.186,67.437 60.444,67.437 "/>
<rect x="56.23" y="64.107" fill="none" width="1.166" height="2.298"/>
<polygon fill="none" points="57.052,67.665 51.056,74.837 51.056,75.517 65.694,75.517 59.503,67.547 "/>
<rect x="43.755" y="64.107" fill="none" width="1.167" height="2.298"/>
<rect x="41.321" y="64.107" fill="none" width="1.166" height="2.298"/>
<rect x="48.978" y="64.107" fill="none" width="1.167" height="2.298"/>
<rect x="46.393" y="64.107" fill="none" width="1.166" height="2.298"/>
<rect x="68.958" y="64.107" fill="none" width="1.165" height="2.298"/>
<rect x="31.975" y="59.257" fill="none" width="37.624" height="1.029"/>
<rect x="31.332" y="64.107" fill="none" width="1.166" height="2.298"/>
<rect x="28.695" y="64.107" fill="none" width="1.167" height="2.298"/>
<path fill="#FFFFFF" d="M50.709,32.083c2.741,0,5.476,0.664,7.914,1.919l4.188,2.155l-2.226-12.862
	c-0.118-0.688-0.716-1.19-1.414-1.19H54.63v-2.157h2.221c1.12,0,2.029-0.909,2.029-2.029c0-1.122-0.909-2.029-2.029-2.029H54.63
	v-0.215c0-0.793-0.642-1.435-1.435-1.435h-5.248c-0.794,0-1.435,0.642-1.435,1.435v0.215h-2.22c-1.121,0-2.029,0.907-2.029,2.029
	c0,1.12,0.908,2.029,2.029,2.029h2.22v2.157h-4.541c-0.698,0-1.295,0.501-1.414,1.19l-2.245,12.979l4.579-2.322
	C45.301,32.729,48.004,32.083,50.709,32.083z M48.948,23.591c0.73-0.985,1.47-1.782,1.477-1.789c0.038-0.041,0.09-0.063,0.146-0.063
	c0.055,0,0.108,0.022,0.146,0.063c0.007,0.007,0.747,0.803,1.476,1.789c0.998,1.344,1.503,2.388,1.503,3.101
	c0,1.724-1.402,3.125-3.125,3.125c-1.723,0-3.125-1.401-3.125-3.125C47.446,25.979,47.951,24.935,48.948,23.591z"/>
<path fill="#FFFFFF" d="M73.61,45.997l-16.729-8.614c-1.402-0.721-2.899-1.173-4.424-1.372l-1.333,23.766
	c-0.02,0.351-0.318,0.619-0.669,0.599c-0.327-0.018-0.582-0.278-0.599-0.599l-1.331-23.689c-1.344,0.221-2.667,0.624-3.915,1.257
	l-17.07,8.656c-0.663,0.336-0.959,1.123-0.684,1.813L37.229,73.74c0.334,0.837,1.146,1.386,2.048,1.386h22.589
	c0.901,0,1.714-0.549,2.047-1.386l10.373-25.934C74.561,47.119,74.268,46.337,73.61,45.997z"/>
</svg>
