<?xml version="1.0" encoding="utf-8"?>
<!-- Generator: Adobe Illustrator 16.0.0, SVG Export Plug-In . SVG Version: 6.00 Build 0)  -->
<!DOCTYPE svg PUBLIC "-//W3C//DTD SVG 1.1//EN" "http://www.w3.org/Graphics/SVG/1.1/DTD/svg11.dtd">
<svg version="1.1" id="Capa_1" xmlns="http://www.w3.org/2000/svg" xmlns:xlink="http://www.w3.org/1999/xlink" x="0px" y="0px"
	 width="100px" height="100px" viewBox="0 0 100 100" enable-background="new 0 0 100 100" xml:space="preserve">
<path fill="#3A1B13" d="M87.5,0h-75C5.597,0,0,5.597,0,12.5v68.75v3.125V87.5C0,94.403,5.597,100,12.5,100h75
	c6.903,0,12.5-5.597,12.5-12.5v-3.05v-0.075V81.25V12.5C100,5.597,94.403,0,87.5,0z"/>
<path fill="#A44C29" d="M12.5,100h75c6.903,0,12.5-5.597,12.5-12.5v-3.05l-0.045-0.075H0V87.5C0,94.403,5.597,100,12.5,100z"/>
<g>
	<rect y="81.25" fill="#FFFFFF" width="100" height="3.125"/>
	<polygon fill="#FFFFFD" points="25.217,49.565 10.069,49.565 10.069,49.566 9.874,49.566 9.874,78.69 13.607,78.69 13.607,53.299 
		25.217,53.299 	"/>
	<polygon fill="#FFFFFD" points="74.5,49.565 89.647,49.565 89.647,49.566 89.844,49.566 89.844,78.69 86.11,78.69 86.11,53.299 
		74.5,53.299 	"/>
	<g>
		<polygon fill="#FFFFFD" points="30.363,29.521 30.363,37.196 27.312,37.196 33.822,46.012 40.496,37.196 37.398,37.196 
			37.398,31.081 61.79,36.491 61.79,45.226 68.823,45.226 68.823,38.05 73.191,39.019 73.191,56.966 26.482,70.298 26.482,28.661 		
			"/>
		<polygon fill="#FFFFFD" points="31.926,38.759 31.926,15.878 35.835,15.878 35.835,38.759 37.353,38.759 33.837,43.403 
			30.408,38.759 		"/>
		<polygon fill="#FFFFFD" points="61.835,20.479 65.351,15.835 68.778,20.479 67.261,20.479 67.261,43.663 63.353,43.663 
			63.353,20.479 		"/>
	</g>
</g>
</svg>
