<?xml version="1.0" encoding="utf-8"?>
<!-- Generator: Adobe Illustrator 16.0.0, SVG Export Plug-In . SVG Version: 6.00 Build 0)  -->
<!DOCTYPE svg PUBLIC "-//W3C//DTD SVG 1.1//EN" "http://www.w3.org/Graphics/SVG/1.1/DTD/svg11.dtd">
<svg version="1.1" id="Capa_1" xmlns="http://www.w3.org/2000/svg" xmlns:xlink="http://www.w3.org/1999/xlink" x="0px" y="0px"
	 width="100px" height="100px" viewBox="0 0 100 100" enable-background="new 0 0 100 100" xml:space="preserve">
<polygon fill="none" points="51.681,56.941 51.681,52.188 51.681,29.593 48.321,29.593 48.321,56.941 48.379,56.941 48.379,66.834 
	51.681,66.834 "/>
<g>
	<path fill="#3A1B13" d="M50.302,0.122c-27.448,0-49.697,22.25-49.697,49.698c0,5.98,1.072,11.705,3.009,17.014H24.39v-0.047h3.848
		V65.6h4.609v1.188h10.2v-4.866h-3.939v-9.966h3.939v-0.026h3.767V29.94h-1.84v-1.782h-0.013v-0.361h-0.215v0.141h-2.092v-0.141
		v-3.596H31.623v3.737h-2.093h-0.427H27.01h-0.041v-3.737H24.39v-3.303h2.579v-3.299h4.653v0.2v3.1h11.031v-3.1h2.092h0.215v-0.2
		h0.013v-2.006h2.433v-2.592h1.16v-2.707h0.334l-5.42-5.281h-1.073c-0.437,0-0.792-0.358-0.792-0.792s0.356-0.792,0.792-0.792
		h15.337c0.438,0,0.788,0.357,0.788,0.792s-0.395,0.792-0.83,0.792H56.63l-5.42,5.281h0.427v0.171h3.869v2.093h-3.869v0.443h1.217
		v2.592h2.258h0.003v2.093h-0.003v0.113h2.075h0.017v3.1h11.223v-3.299h4.653v0.2v3.1h8.906v3.303h-8.906v3.737h-2.092H70.56h-2.094
		h-0.04v-3.737H57.203v3.737h-2.092v-0.141h-0.026v0.254h0.029v1.889h-2.042v21.989h4.345v0.026h4.173v9.966h-4.173v4.866h10.452
		V65.6h4.608v1.188h5.974v0.004h16.823h1.73C98.933,61.494,100,55.784,100,49.82C100,22.373,77.749,0.122,50.302,0.122z"/>
	<polygon fill="#3A1B13" points="48.321,56.941 48.379,56.941 48.379,66.834 51.681,66.834 51.681,56.941 51.681,52.188 
		51.681,29.593 48.321,29.593 	"/>
	<polygon fill="#3A1B13" points="49.265,8.477 49.265,5.014 45.726,5.014 	"/>
	<polygon fill="#3A1B13" points="50.85,5.014 50.85,8.48 54.389,5.014 	"/>
</g>
<polygon fill="none" points="48.321,56.941 48.379,56.941 48.379,66.834 51.681,66.834 51.681,56.941 51.681,52.188 51.681,29.593 
	48.321,29.593 "/>
<g>
	<path fill="#A44C29" d="M94.794,70.08H78.451v0.011h-5.974v1.477h-4.608v-1.477H57.417v28.914c6.602-0.951,12.781-3.2,18.278-6.479
		h0.021c1.211-0.721,2.385-1.498,3.526-2.317c7.114-5.106,12.818-12.048,16.437-20.129H94.794z"/>
	<path fill="#A44C29" d="M32.847,70.123v1.444h-4.609v-1.444H5.052H4.946c3.617,8.063,9.312,14.988,16.416,20.086
		c1.14,0.819,2.314,1.597,3.524,2.317h0.022c5.123,3.056,10.845,5.2,16.942,6.252c0.042,0.006,0.082,0.014,0.124,0.02
		c0.358,0.062,0.712,0.133,1.073,0.187v-0.019V70.123h-0.219H32.847z"/>
	<path fill="#A44C29" d="M48.379,99.472c0.676,0.027,1.354,0.046,2.038,0.046c0.423,0,0.843-0.011,1.264-0.021v-0.002V85.321v-1.616
		V69.503v-1.614v-1.055h-3.302V99.472z"/>
</g>
</svg>
