<?xml version="1.0" encoding="utf-8"?>
<!-- Generator: Adobe Illustrator 16.0.0, SVG Export Plug-In . SVG Version: 6.00 Build 0)  -->
<!DOCTYPE svg PUBLIC "-//W3C//DTD SVG 1.1//EN" "http://www.w3.org/Graphics/SVG/1.1/DTD/svg11.dtd">
<svg version="1.1" id="Capa_1" xmlns="http://www.w3.org/2000/svg" xmlns:xlink="http://www.w3.org/1999/xlink" x="0px" y="0px"
	 width="100px" height="100px" viewBox="0 0 100 100" enable-background="new 0 0 100 100" xml:space="preserve">
<path fill="#49494B" d="M87.5,0h-75C5.597,0,0,5.597,0,12.5v68.75v3.125V87.5C0,94.403,5.597,100,12.5,100h75
	c6.903,0,12.5-5.597,12.5-12.5v-3.05v-0.075V81.25V12.5C100,5.597,94.403,0,87.5,0z"/>
<rect y="81.25" fill="#FFFFFF" width="100" height="3.125"/>
<path fill="#822424" d="M12.5,100h75c6.903,0,12.5-5.597,12.5-12.5v-3.05l-0.045-0.075H0V87.5C0,94.403,5.597,100,12.5,100z"/>
<g>
	<path fill="#FFFFFF" d="M48.845,44.985c0.078-0.01,0.156-0.019,0.232-0.028c0.182-0.021,0.364-0.044,0.546-0.066
		c0.183-0.015,0.365-0.03,0.547-0.047c0.729-0.063,1.454-0.124,2.17-0.187c1.436-0.082,2.847-0.179,4.238-0.208
		c2.779-0.101,5.461-0.056,8.032-0.08c0.644-0.011,1.28-0.017,1.909-0.034c0.313-0.011,0.626-0.021,0.936-0.033
		c0.156-0.005,0.312-0.01,0.466-0.016c0.154-0.009,0.31-0.018,0.462-0.026c0.614-0.037,1.223-0.063,1.819-0.126
		c0.299-0.027,0.598-0.053,0.893-0.079c0.297-0.028,0.592-0.061,0.885-0.093c1.168-0.126,2.302-0.289,3.382-0.538
		c0.395-0.091,0.767-0.211,1.144-0.332c0.01-0.219,0.03-0.435,0.064-0.646h-3.167c-1.16,0.495-3.113,0.753-6.325,0.887
		c-0.465,0.019-0.953,0.036-1.457,0.051c-0.308,0.109-0.629,0.186-0.975,0.186h-5.728c-0.022,0-0.045-0.004-0.066-0.005
		c-2.773,0.091-5.99,0.241-9.763,0.532C49.036,44.404,48.952,44.699,48.845,44.985z"/>
	<path fill="#FFFFFF" d="M75.449,43.771c-1.101,0.268-2.248,0.443-3.422,0.583c-0.295,0.034-0.586,0.071-0.885,0.102
		c-0.299,0.03-0.598,0.06-0.899,0.09c-0.603,0.068-1.215,0.102-1.833,0.146c-0.154,0.011-0.31,0.021-0.466,0.033
		c-0.154,0.006-0.31,0.012-0.466,0.019c-0.313,0.015-0.627,0.028-0.944,0.042c-0.633,0.023-1.27,0.035-1.914,0.053
		c-2.58,0.049-5.258,0.029-8.022,0.152c-1.381,0.04-2.785,0.147-4.211,0.24c-0.71,0.067-1.424,0.133-2.145,0.201
		c-0.18,0.017-0.361,0.034-0.542,0.052c-0.181,0.023-0.363,0.046-0.545,0.069c-0.204,0.026-0.408,0.052-0.612,0.078
		c-0.363,0.663-0.86,1.239-1.47,1.679c0.5-0.096,0.994-0.193,1.528-0.28c4.361-0.702,9.83-1.084,16.722-1.17
		c4.616-0.057,8.472-0.322,11.527-0.781c-0.197-0.502-0.31-1.045-0.336-1.609C76.164,43.58,75.812,43.684,75.449,43.771z"/>
	<path fill="#FFFFFF" d="M35.378,55.804c-0.605-1.743-0.303-3.304,0.897-4.64c1.308-1.455,3.67-2.589,7.108-3.445
		c-0.941-0.124-1.787-0.469-2.48-0.974c-0.568,0.122-1.137,0.246-1.702,0.389c-1.478,0.375-2.95,0.819-4.363,1.391
		c-1.412,0.571-2.772,1.265-3.955,2.144c-1.183,0.876-2.172,1.947-2.826,3.165c-0.329,0.609-0.576,1.251-0.745,1.91
		c-0.17,0.663-0.26,1.328-0.291,2.022c-0.056,1.369,0.16,2.756,0.599,4.106c0.439,1.354,1.094,2.669,1.875,3.947
		c0.783,1.279,1.688,2.522,2.641,3.756c0.477,0.616,0.967,1.23,1.459,1.849c0.495,0.616,0.984,1.24,1.485,1.856
		c1.42,1.771,2.877,3.499,4.345,5.197h-0.993c-1.361-1.577-2.711-3.183-4.029-4.827c-0.507-0.619-0.992-1.24-1.486-1.856
		c-0.493-0.619-0.984-1.235-1.464-1.857c-0.96-1.244-1.879-2.508-2.676-3.817c-0.797-1.31-1.471-2.67-1.924-4.078
		c-0.454-1.405-0.675-2.86-0.611-4.297c0.034-0.707,0.133-1.438,0.316-2.134c0.182-0.701,0.45-1.386,0.805-2.034
		c0.705-1.303,1.772-2.444,3.026-3.363c1.254-0.923,2.676-1.64,4.136-2.22c1.461-0.582,2.969-1.029,4.476-1.402
		c0.453-0.112,0.906-0.205,1.359-0.302c-0.362-0.356-0.664-0.756-0.872-1.199c-8.493,1.052-14.58,3.013-18.598,5.561
		c-3.533,2.244-5.5,5.042-6.379,9.083c-0.62,2.849,0.285,6.375,1.837,10.49c1.125,2.98,3.096,5.889,4.588,8.283h39.208
		c-2.952-2.098-6.727-5.063-10.98-8.283C40.699,63.819,36.449,58.889,35.378,55.804z"/>
	<path fill="#FFFFFF" d="M81.515,39.255c-2.199,0-3.983,1.783-3.983,3.982s1.784,3.982,3.983,3.982s3.983-1.783,3.983-3.982
		S83.714,39.255,81.515,39.255z M81.515,45.289c-1.134,0-2.053-0.918-2.053-2.052s0.919-2.053,2.053-2.053
		c1.133,0,2.053,0.919,2.053,2.053S82.647,45.289,81.515,45.289z"/>
	<path fill="#FFFFFF" d="M40.169,43.237c0,2.199,1.783,3.982,3.982,3.982s3.983-1.783,3.983-3.982s-1.784-3.982-3.983-3.982
		S40.169,41.038,40.169,43.237z M46.204,43.237c0,1.133-0.919,2.052-2.053,2.052c-1.132,0-2.053-0.918-2.053-2.052
		s0.92-2.053,2.053-2.053C45.285,41.185,46.204,42.104,46.204,43.237z"/>
	<path fill="#FFFFFF" d="M64.646,42.528c1.072,0,1.943-0.869,1.943-1.943v-2.072c0-1.073-0.871-1.943-1.943-1.943h-5.728
		c-1.072,0-1.94,0.87-1.94,1.943v2.072c0,1.074,0.868,1.943,1.94,1.943H64.646z"/>
	<path fill="#FFFFFF" d="M42.875,35.179h23.734c3.602,0,6.521-2.919,6.521-6.52c0-3.602-2.919-6.521-6.521-6.521h-8.634v-0.707
		h1.088c0.574,0,1.038-0.466,1.038-1.04s-0.464-1.039-1.038-1.039h-8.642c-0.574,0-1.039,0.465-1.039,1.039s0.465,1.04,1.039,1.04
		h1.087v0.707h-8.633c-3.602,0-6.521,2.919-6.521,6.521C36.354,32.259,39.273,35.179,42.875,35.179z M53.764,26.428
		c0.674-0.908,1.355-1.643,1.363-1.65c0.034-0.038,0.083-0.059,0.134-0.059c0.052,0,0.101,0.021,0.135,0.059
		c0.006,0.007,0.689,0.742,1.363,1.65c0.919,1.24,1.386,2.203,1.386,2.861c0,1.59-1.294,2.884-2.884,2.884
		c-1.591,0-2.883-1.294-2.883-2.884C52.378,28.631,52.844,27.668,53.764,26.428z"/>
	<path fill="#FFFFFF" d="M55.086,31.295c0.157,0,0.312-0.019,0.462-0.054c0.049-0.012,0.082-0.054,0.082-0.104
		c-0.003-0.049-0.037-0.091-0.084-0.101c-1.166-0.234-2.012-1.266-2.012-2.456c0-0.038,0.002-0.078,0.008-0.122
		c0.006-0.05-0.026-0.098-0.073-0.112c-0.049-0.014-0.102,0.008-0.124,0.054c-0.225,0.452-0.271,0.728-0.271,0.882
		C53.073,30.392,53.976,31.295,55.086,31.295z"/>
	<path fill="#FFFFFF" d="M88.416,30.735c-0.279-2.577-2.36-10.095-2.36-10.095c-0.321-1.07-0.869-1.942-1.941-1.942H76.57
		c-1.074,0-1.942,0.869-1.942,1.942v17.055h-6.075c-0.702,0-1.271,0.57-1.271,1.271v1.168c0,0.701,0.569,1.271,1.271,1.271h3.3
		h4.718h0.031h0.197h0.138c0.79-1.76,2.554-2.988,4.608-2.988c2.053,0,3.816,1.228,4.608,2.988h0.321
		c1.072,0,1.941-0.87,1.941-1.942C88.416,39.462,88.518,31.667,88.416,30.735z M78.959,32.5h-1.979
		c-0.308,0-0.556-0.249-0.556-0.555c0-0.307,0.248-0.556,0.556-0.556h1.979c0.306,0,0.554,0.249,0.554,0.556
		C79.513,32.251,79.265,32.5,78.959,32.5z M85.866,28.822c0,0.674-0.547,1.222-1.223,1.222h-6.228c-0.676,0-1.223-0.547-1.223-1.222
		v-7.08c0-0.674,0.547-1.222,1.223-1.222h4.744c0.676,0,1.02,0.548,1.221,1.222c0,0,1.311,4.728,1.485,6.349
		C85.93,28.676,85.866,28.822,85.866,28.822z"/>
</g>
<path fill="#FFFFFF" d="M54.911,37.695H36.527c-0.701,0-1.271,0.57-1.271,1.271v1.168c0,0.701,0.57,1.271,1.271,1.271h3.02
	c0.79-1.76,2.554-2.988,4.608-2.988s3.818,1.228,4.608,2.988h6.148c0.702,0,1.27-0.57,1.27-1.271v-1.168
	C56.181,38.265,55.613,37.695,54.911,37.695z"/>
</svg>
